<svg xmlns="http://www.w3.org/2000/svg" width="28" height="28" viewBox="0 0 28 28"><path d="M24.579,0A3.423,3.423,0,0,1,28,3.421V24.579A3.423,3.423,0,0,1,24.579,28H3.421A3.423,3.423,0,0,1,0,24.579V3.421A3.423,3.423,0,0,1,3.421,0H24.579ZM10.692,23.217a11.421,11.421,0,0,0,11.5-11.5c0-.176,0-.352-.008-.52A8.28,8.28,0,0,0,24.2,9.1a8.2,8.2,0,0,1-2.322.637A4.039,4.039,0,0,0,23.658,7.5a8.183,8.183,0,0,1-2.565.981,4.044,4.044,0,0,0-6.99,2.766,3.7,3.7,0,0,0,.109.922A11.465,11.465,0,0,1,5.882,7.947a4.039,4.039,0,0,0,1.257,5.389,3.97,3.97,0,0,1-1.827-.5v.05a4.046,4.046,0,0,0,3.244,3.964,4.028,4.028,0,0,1-1.064.143,3.857,3.857,0,0,1-.763-.075A4.035,4.035,0,0,0,10.5,19.722a8.124,8.124,0,0,1-5.02,1.727,7.343,7.343,0,0,1-.964-.059,11.26,11.26,0,0,0,6.177,1.827Z" fill="#fff" fill-rule="evenodd"/></svg>