<svg xmlns="http://www.w3.org/2000/svg" width="28" height="28" viewBox="0 0 28 28"><path d="M26.544,28H1.456A1.458,1.458,0,0,1,0,26.544V1.456A1.458,1.458,0,0,1,1.456,0H26.544A1.458,1.458,0,0,1,28,1.456V26.544A1.458,1.458,0,0,1,26.544,28ZM18.852,11.66a3.533,3.533,0,0,0-3.418,1.946,4.816,4.816,0,0,0-.491,1.961,4.132,4.132,0,0,0,.962,2.8,3.852,3.852,0,0,0,2.947,1.089s.052,0,.139,0a4.715,4.715,0,0,0,1.914-.4,2.375,2.375,0,0,0,1.427-2.314H20.545a.964.964,0,0,1-.269.652,1.821,1.821,0,0,1-1.365.442h-.062a2,2,0,0,1-.981-.256,1.623,1.623,0,0,1-.744-1.514h5.27a4.855,4.855,0,0,0-.875-3.372A3.371,3.371,0,0,0,18.852,11.66ZM6.015,9.068V19.247h5.328a4.091,4.091,0,0,0,1.73-.409,2.685,2.685,0,0,0,1.471-2.6,3.1,3.1,0,0,0-.628-2.018,1.685,1.685,0,0,0-1.278-.507,1.763,1.763,0,0,0,1.549-1.936,2.6,2.6,0,0,0-2.878-2.71Zm10.647.6v1.252h4.2V9.669Zm-5.5,7.77H8.348V14.715h2.961a1.074,1.074,0,0,1,.705.308,1.486,1.486,0,0,1,.366,1.094C12.38,16.975,11.97,17.419,11.161,17.438Zm9.28-2.723H17.1a1.817,1.817,0,0,1,1.788-1.565A1.486,1.486,0,0,1,20,13.559a1.787,1.787,0,0,1,.445,1.155ZM11.126,13.15H8.348V10.877h2.961c.007,0,.719.012.719,1.059C12.028,13,11.594,13.15,11.126,13.15Z" transform="translate(0 0)" fill="#fff"/></svg>