<svg xmlns="http://www.w3.org/2000/svg" width="28" height="28" viewBox="0 0 28 28"><path d="M24.889,28H3.111A3.115,3.115,0,0,1,0,24.889V3.111A3.115,3.115,0,0,1,3.111,0H24.889A3.115,3.115,0,0,1,28,3.111V24.889A3.115,3.115,0,0,1,24.889,28Zm-6.2-19.469a.765.765,0,0,1,.208.022,3.377,3.377,0,0,1,.092,2.48,3.614,3.614,0,0,1,.96,2.514c0,3.677-2.277,4.4-4.261,4.623a2.207,2.207,0,0,1,.633,1.735c0,.837-.005,1.567-.009,2.05,0,.24,0,.419,0,.521a.442.442,0,0,0,.473.467.89.89,0,0,0,.169-.017,9.334,9.334,0,1,0-5.906,0,.886.886,0,0,0,.159.015.444.444,0,0,0,.479-.467c0-.1,0-.269,0-.5,0-.289-.006-.663-.009-1.1a4.449,4.449,0,0,1-.94.109,2.18,2.18,0,0,1-2.2-1.365,2.5,2.5,0,0,0-1.036-1.371c-.267-.183-.387-.326-.356-.425.044-.141.379-.145.417-.145a1.976,1.976,0,0,1,1.432.966,1.84,1.84,0,0,0,1.649,1.024,2.653,2.653,0,0,0,1.068-.246,2.027,2.027,0,0,1,.593-1.253c-1.979-.226-4.252-.958-4.252-4.631a3.618,3.618,0,0,1,.961-2.514A3.389,3.389,0,0,1,9.1,8.553.814.814,0,0,1,9.3,8.531a4.49,4.49,0,0,1,2.358.982,8.808,8.808,0,0,1,4.674,0A4.486,4.486,0,0,1,18.694,8.531Z" transform="translate(0 0)" fill="#fff"/></svg>