<svg id="Group_167" data-name="Group 167" xmlns="http://www.w3.org/2000/svg" width="201.222" height="49.781" viewBox="0 0 201.222 49.781">
  <g id="Group_98" data-name="Group 98">
    <path id="path0" d="M52.122,25.6a.783.783,0,0,1-.24.288.694.694,0,0,0-.239.425.371.371,0,0,1-.1.28.715.715,0,0,0-.087.461c.024.606.006.75-.087.693-.047-.029-.079.238-.072.592.011.542.041.65.188.678.123.024.17-.018.156-.142-.054-.511.01-.9.15-.9.108,0,.13-.063.085-.239-.055-.218-.032-.24.245-.24.329,0,.579-.183.579-.425,0-.087.081-.151.192-.151.15,0,.192-.064.192-.288s.041-.288.2-.288a.5.5,0,0,1,.475.4.888.888,0,0,0,.19.366.889.889,0,0,1,.189.393.581.581,0,0,0,.194.326.563.563,0,0,1,.192.3c0,.071.043.129.1.129s.1.084.1.186a.32.32,0,0,0,.1.246,1.665,1.665,0,0,1,.288.461c.105.221.323.617.483.881a4.989,4.989,0,0,1,.347.647c.03.092.093.167.14.167s.085.086.085.192.035.192.077.192.131.151.2.335.162.336.211.336.081.032.071.072a4.012,4.012,0,0,0,.606,1.159c.046.017.084.111.084.208s.032.19.072.208a1.919,1.919,0,0,1,.294.463c.615,1.2.926,1.779.973,1.822a2,2,0,0,1,.193.335c.078.158.3.533.5.834a4.02,4.02,0,0,1,.362.612c0,.078.3.32.407.324.125.006.456-.575,2.1-3.688.9-1.7,1.75-1.824,2.486-.364a4.271,4.271,0,0,0,.283.507c.029.026.266.479.528,1.007s.5.98.525,1.007.3.544.616,1.151a14.043,14.043,0,0,0,1.024,1.865.441.441,0,0,1,.087.263c0,.095.035.173.078.173s.137.151.209.335.167.336.21.336.078.054.078.12c0,.178.45.706.532.625.039-.038.017-.133-.048-.211a.238.238,0,0,1-.056-.241c.036-.059,0-.077-.084-.043-.106.041-.135,0-.106-.144a.4.4,0,0,0-.082-.32,2.374,2.374,0,0,1-.444-.9c0-.071-.043-.129-.1-.129s-.1-.065-.1-.144-.043-.144-.1-.144-.1-.086-.1-.192-.043-.192-.1-.192-.1-.065-.1-.145a1.071,1.071,0,0,0-.36-.651.421.421,0,0,1-.12-.317c0-.136-.041-.215-.1-.182s-.1-.042-.1-.171a.619.619,0,0,0-.185-.4,3.985,3.985,0,0,1-.678-1.287.12.12,0,0,0-.128-.11c-.074,0-.121-.092-.112-.215a.5.5,0,0,0-.112-.342.969.969,0,0,1-.191-.384.943.943,0,0,0-.24-.412.536.536,0,0,1-.177-.338.469.469,0,0,0-.192-.322.457.457,0,0,1-.192-.305c0-.249-.382-.557-.689-.557-.148,0-.269-.052-.269-.115,0-.09-.026-.09-.115,0a.553.553,0,0,1-.34.115c-.249,0-.574.289-.784.695-.075.145-.175.263-.222.263s-.062.039-.033.085-.012.138-.089.2-.12.153-.093.2a.106.106,0,0,1-.049.139.321.321,0,0,0-.1.246c0,.1-.043.186-.1.186s-.1.07-.1.156a.528.528,0,0,1-.168.312,1.294,1.294,0,0,0-.407.732.7.7,0,0,1-.192.355.712.712,0,0,0-.192.385c0,.1-.043.153-.1.12s-.1.033-.1.145a.568.568,0,0,1-.144.348.541.541,0,0,0-.144.329c0,.1-.035.185-.077.185-.135,0-.307-.225-.307-.4,0-.095-.036-.173-.079-.173a1.384,1.384,0,0,1-.31-.5,2.719,2.719,0,0,0-.415-.671c-.1-.092-.135-.167-.074-.167s.039-.082-.058-.2a.856.856,0,0,1-.171-.263c-.013-.19-.163-.5-.242-.5-.049,0-.089-.086-.089-.192s-.043-.192-.1-.192-.1-.093-.1-.208-.028-.18-.062-.146c-.062.062-.374-.41-.48-.725-.031-.092-.094-.167-.141-.167s-.085-.07-.085-.154a3.747,3.747,0,0,0-.6-1.173c-.04-.017-.073-.1-.074-.192a.885.885,0,0,0-.19-.4.913.913,0,0,1-.189-.351.165.165,0,0,0-.1-.145c-.055-.018-.108-.129-.116-.245a.314.314,0,0,0-.125-.254,1.759,1.759,0,0,1-.334-.6,2.576,2.576,0,0,0-.4-.721c-.1-.088-.177-.185-.174-.216.026-.231-.008-.345-.089-.295-.053.032-.1-.03-.1-.138s-.043-.2-.1-.2-.1-.089-.1-.2-.043-.171-.1-.138-.1-.029-.1-.138-.043-.2-.1-.2-.1-.063-.1-.141c0-.2-.307-.818-.407-.818-.046,0-.057-.044-.024-.1s-.006-.122-.087-.152a.384.384,0,0,1-.2-.215c-.1-.32-1.587-.587-1.587-.285m-1.027,3.707a1.55,1.55,0,0,1-.056.6,3.613,3.613,0,0,0-.119.843,1.781,1.781,0,0,1-.108.671,1.1,1.1,0,0,0-.114.491,1.663,1.663,0,0,1-.1.527,1.677,1.677,0,0,0-.049.6c.01.277-.019.5-.065.5s-.085.213-.085.473a.985.985,0,0,1-.1.533,1.472,1.472,0,0,0-.1.671,1.675,1.675,0,0,1-.077.659.951.951,0,0,0-.1.457,1.244,1.244,0,0,1-.125.532,1.241,1.241,0,0,0-.058.611,1.018,1.018,0,0,1-.066.6,1.071,1.071,0,0,0-.124.527,1.226,1.226,0,0,1-.114.536c-.074.089-.045.115.115.1.189-.013.217-.075.244-.532a1.664,1.664,0,0,1,.127-.635,1.082,1.082,0,0,0,.071-.546,1.007,1.007,0,0,1,.1-.578.974.974,0,0,0,.083-.628c-.028-.316,0-.492.073-.522s.114-.243.114-.537a1.237,1.237,0,0,1,.109-.6,1.288,1.288,0,0,0,.109-.617c0-.279.043-.508.094-.508s.09-.2.085-.456a3.7,3.7,0,0,1,.1-.868,2.047,2.047,0,0,0,.068-.689c-.029-.184,0-.294.1-.33s.133-.185.118-.517a1.541,1.541,0,0,1,.059-.593,1.894,1.894,0,0,0,.06-.877.274.274,0,0,0-.16-.215c-.122-.047-.142.01-.112.31m24.463,6.334a.684.684,0,0,1-.259.078c-.117.018-.226.07-.242.117a2.407,2.407,0,0,1-.53.581,7.022,7.022,0,0,0-.831.819,4.705,4.705,0,0,1-.62.62,8.331,8.331,0,0,0-.819.819,3.735,3.735,0,0,1-.637.62.562.562,0,0,0-.191.144c-.079.079-.118.144-.086.144s0,.06-.065.134-.156.114-.2.09-.072,0-.072.063a3.842,3.842,0,0,1-1.056,1.056c-.058,0-.086.033-.063.072.057.094-.186.318-.262.242-.032-.032-.058,0-.058.06,0,.171-.251.4-.4.36-.07-.017-.094-.014-.055.009.177.1-.057.369-2.157,2.488C56.98,54.223,45.724,65.469,45.626,65.469c-.165,0-.15.064.064.28.155.155.193.162.239.042.03-.078.1-.117.147-.086a.161.161,0,0,1,.042.188.165.165,0,0,0,.052.194c.057.035.1-.007.1-.094s.054-.139.12-.116a.194.194,0,0,1,.087.219c-.029.158-.015.162.135.038.129-.107.177-.111.208-.019a.2.2,0,0,0,.176.12c.168,0,.179.16.016.219-.07.025-.084.079-.035.128s.1.035.128-.035c.049-.137.41-.165.41-.032a.161.161,0,0,1-.115.127c-.09.03-.09.054,0,.109.063.039.115.026.115-.03s.064-.1.144-.1c.174,0,.191.157.024.224-.072.029-.052.051.048.056a.169.169,0,0,1,.168.157c0,.082.045.121.1.087s.065-.105-.012-.2c-.17-.2-.057-.167.652.217.357.193.746.4.864.465s.186.14.152.175.005.063.088.063c.242,0,.934.406.869.509-.034.056-.106.03-.173-.062s-.143-.129-.177-.095c-.109.109-.067.223.082.223.079,0,.144.044.144.1s.073.06.209-.013c.169-.09.274-.078.551.065.455.235.452.231.305.321-.089.055-.1.1-.021.144.059.036.106.02.106-.036s.069-.1.154-.1c.1,0,.134.052.1.15s-.013.136.12.094a1.663,1.663,0,0,1,.838.333c.364.214.725.426.8.47a.244.244,0,0,1,.116.236c-.031.169.125.213.219.062.05-.081.223-.025.526.171.025.016-.012.064-.082.108-.089.055-.1.1-.021.144.059.036.106.02.106-.036s.086-.1.192-.1.192.043.192.1.074.1.163.1c.129,0,.139.024.044.119s-.137.09-.206-.021c-.047-.077-.116-.112-.151-.076-.142.142.234.374.431.269.156-.083.332-.024.973.331a6.726,6.726,0,0,0,.866.433.091.091,0,0,1,.085.1c0,.052.064.1.144.1s.144.043.144.1.091.1.2.1c.171,0,.185.023.082.146-.067.08-.087.177-.047.216s.094.016.118-.051c.047-.131.314-.167.314-.043a.381.381,0,0,1-.115.192c-.089.089-.079.115.048.115.09,0,.163-.043.163-.1a.1.1,0,0,1,.1-.1c.052,0,.1.067.1.15s.041.124.091.093c.119-.073.58.042.58.144,0,.043-.066.092-.147.109-.118.025-.109.055.045.15s.182.1.136-.024c-.067-.174.039-.18.377-.022.194.091.242.166.2.311-.053.169-.041.175.1.06.111-.092.193-.1.277-.032.109.09.455.281,1.953,1.078a3.43,3.43,0,0,0,.863.319,3.277,3.277,0,0,0,1.283.053,5.373,5.373,0,0,1,.575-.192,2.845,2.845,0,0,0,.528-.191c.053-.038.312-.188.575-.334s.631-.352.815-.456.551-.307.815-.45.674-.366.911-.5.625-.343.863-.469a4.849,4.849,0,0,0,.479-.278A2.319,2.319,0,0,1,70,71.893c.158-.079.693-.37,1.187-.647a8.493,8.493,0,0,1,.983-.5.079.079,0,0,0,.083-.072c0-.04.14-.133.312-.208a1.73,1.73,0,0,0,.36-.192,14.457,14.457,0,0,1,1.438-.79,4.2,4.2,0,0,0,.479-.273c.026-.028.328-.2.671-.376s.774-.417.958-.528.465-.265.624-.343a2.261,2.261,0,0,0,.335-.19,2.235,2.235,0,0,1,.335-.189,5.955,5.955,0,0,0,.528-.3c.132-.086.52-.307.863-.49a8.632,8.632,0,0,0,1.151-.659c.244-.267,1.247-.613,1.247-.43a.089.089,0,0,0,.127.092c.129-.049.165-.433.048-.521a1.9,1.9,0,0,1-.088-.623,1.758,1.758,0,0,0-.094-.622,2.089,2.089,0,0,1-.122-.671,10.8,10.8,0,0,0-.292-1.728,5.549,5.549,0,0,1-.081-.686c-.014-.244-.058-.423-.1-.4s-.072-.15-.072-.387a.857.857,0,0,0-.1-.491,1.083,1.083,0,0,1-.1-.562,1.44,1.44,0,0,0-.085-.594,11.391,11.391,0,0,1-.237-2.176c-.007-.145-.038-.263-.068-.263a1.032,1.032,0,0,1-.078-.456,1.272,1.272,0,0,0-.114-.547,1.4,1.4,0,0,1-.09-.605c0-.318-.036-.491-.1-.454s-.1-.141-.1-.468a1.158,1.158,0,0,0-.1-.587,1.671,1.671,0,0,1-.1-.725c0-.38-.041-.666-.1-.666s-.1-.213-.1-.473a.985.985,0,0,0-.1-.533,1.31,1.31,0,0,1-.1-.629c0-.313-.039-.57-.086-.57a7.867,7.867,0,0,1-.22-1.846c.01-.04-.021-.072-.067-.072s-.111-.281-.144-.624-.086-.9-.118-1.246a1.563,1.563,0,0,0-.128-.624,1.207,1.207,0,0,1-.09-.551,1.165,1.165,0,0,0-.112-.583c-.05-.017-.091-.223-.091-.456s-.043-.423-.1-.423-.1-.269-.1-.615a1.342,1.342,0,0,0-.091-.647,1.7,1.7,0,0,1-.11-.727,1.836,1.836,0,0,0-.089-.695,2.176,2.176,0,0,1-.139-.743c-.039-.408-.092-.83-.118-.935a6.237,6.237,0,0,1-.1-.623,1.711,1.711,0,0,0-.12-.528,1.2,1.2,0,0,1-.083-.467,1.061,1.061,0,0,0-.133-.518c-.067-.081-.112-.162-.1-.181.059-.082.016-.231-.055-.188-.043.026-.139-.036-.213-.138a.45.45,0,0,0-.3-.187c-.094,0-.171-.044-.171-.1,0-.094-.537-.1-.631-.007m-26.1,4.017a3.832,3.832,0,0,1-.1.743,2.934,2.934,0,0,0-.079.762.71.71,0,0,1-.067.417.941.941,0,0,0-.072.494.656.656,0,0,1-.061.418,2.325,2.325,0,0,0-.027,1.308c.106,0,.144-.248.108-.7a.67.67,0,0,1,.07-.384,1.318,1.318,0,0,0,.094-.964c-.063-.121-.062-.16.005-.119.151.093.21-.072.222-.62a2.137,2.137,0,0,1,.124-.717c.142-.275.077-.905-.095-.905-.077,0-.124.106-.119.269m-.733,4.833c-.173,1.592-.174,1.634-.04,1.588.081-.028.132-.2.137-.467a3.863,3.863,0,0,1,.121-.82c.124-.437.1-.82-.054-.872-.057-.019-.127.223-.165.571m-.3,1.839c-.082.214,0,.876.105.851.134-.032.182-.984.05-.984a.2.2,0,0,0-.155.133m-.146,1.017c-.007.026-.024.279-.037.562a1.186,1.186,0,0,1-.119.575,1.134,1.134,0,0,0-.107.571,2.114,2.114,0,0,1-.075.615,1.96,1.96,0,0,0-.1.545c-.053.658-.057.679-.118.679-.031,0-.041.194-.022.431.049.61.207.537.207-.1,0-.29.043-.528.1-.528s.1-.254.1-.57a1.276,1.276,0,0,1,.1-.632.936.936,0,0,0,.079-.54.936.936,0,0,1,.08-.543,1.326,1.326,0,0,0,.024-.98c-.049-.077-.095-.118-.1-.091m-.742,5.13c0,.29.035.527.086.527s.092-.237.092-.527-.039-.528-.086-.528-.089.237-.092.528m-.217,1.174c-.006.251-.006.488,0,.528s-.032.072-.085.072-.1.246-.1.547c0,.669.209.578.228-.1a1.243,1.243,0,0,1,.084-.5c.108-.108.087-1-.024-1-.052,0-.1.2-.107.455m-.372,2.261a.981.981,0,0,1-.11.519c-.082.082-.058.1.1.056.113-.029.209-.081.212-.114s.026-.217.049-.41c.031-.252,0-.364-.1-.4s-.146.027-.146.354M46.808,57.1c.024.525.037.568.127.409.11-.2.081-.7-.043-.737-.059-.02-.093.114-.084.328m-.22,1.1c.011.277.063.5.116.5s.1-.227.109-.5c.009-.362-.024-.5-.116-.5s-.123.137-.109.5m-.132.575c-.072.215-.032.428.072.388.151-.058.17-.22.025-.22-.056,0-.075-.043-.042-.1s.035-.1.006-.1-.058.011-.062.024m-.07.886a.626.626,0,0,0-.047.4c.037.1.023.136-.034.1s-.086.031-.072.152.027.308.031.427.055.216.113.216.093-.19.072-.528c-.023-.373,0-.528.086-.528.068,0,.11-.1.1-.239-.025-.3-.109-.3-.248,0m-.305,2.057c0,.162.043.293.1.293s.1-.105.1-.234a.4.4,0,0,0-.1-.293c-.056-.035-.1.063-.1.234m-.192.869c0,.105.043.192.1.192s.1-.086.1-.192-.043-.192-.1-.192-.1.086-.1.192m0,.528c0,.079.043.144.1.144s.1-.065.1-.144-.043-.144-.1-.144-.1.064-.1.144m-.192.66a.261.261,0,0,0,.1.2c.053.032.1-.006.1-.085a.259.259,0,0,0-.1-.2c-.053-.033-.1.005-.1.085M62.51,75.166c.127.074.207.072.282,0s.029-.105-.177-.1c-.248,0-.261.016-.106.106" transform="translate(-45.506 -25.468)" fill="#fff" fill-rule="evenodd"/>
    <path id="path1" d="M60.094,47.657a21.181,21.181,0,0,0-1.253,2.334c-.28.554-.53,1.029-.557,1.055a6.98,6.98,0,0,0-.342.623c-.162.316-.5.964-.758,1.438-.453.842-1.339,2.536-1.982,3.787-.176.343-.342.645-.369.671a5.823,5.823,0,0,0-.309.575c-.143.29-.515,1-.826,1.582s-.749,1.4-.974,1.822-.468.862-.54.979a.871.871,0,0,0-.132.352.2.2,0,0,1-.072.171,1.909,1.909,0,0,0-.3.463l-.85,1.63a9.231,9.231,0,0,1-.71,1.231c-.047.017-.085.106-.085.2a.441.441,0,0,1-.083.256,8.121,8.121,0,0,0-.78,1.538c0,.074-.043.135-.1.135s-.1.064-.1.144-.043.144-.1.144-.1.086-.1.192-.043.192-.1.192a.114.114,0,0,0-.1.125.7.7,0,0,1-.192.332.725.725,0,0,0-.192.3,2.119,2.119,0,0,1-.407.763c-.04.017-.072.127-.072.242a.494.494,0,0,1-.192.349.443.443,0,0,0-.192.273,1.418,1.418,0,0,1-.335.507,1.385,1.385,0,0,0-.335.515.143.143,0,0,1-.142.143c-.156,0-.238.238-.273.8a.771.771,0,0,1-.12.431.667.667,0,0,0-.119.39c-.02.3.758-.458,9.377-9.1,5.17-5.181,9.4-9.45,9.4-9.485a2.017,2.017,0,0,1,.335-.431c.406-.443.338-.574-.115-.224a.429.429,0,0,1-.566-.189c-.152-.246-.763-1.373-1.311-2.422-.262-.5-.586-1.105-.72-1.343s-.448-.82-.7-1.294c-1.323-2.517-1.343-2.544-1.636-2.19" transform="translate(-45.724 -34.823)" fill="#d8d8d8" fill-rule="evenodd"/>
    <path id="path2" d="M53.075,27.288c0,.224-.043.288-.192.288-.11,0-.192.064-.192.151,0,.242-.25.425-.579.425-.277,0-.3.022-.245.24.045.177.022.239-.085.239-.138,0-.2.379-.151.887a.14.14,0,0,1-.128.168.338.338,0,0,1-.243-.168c-.088-.151-.1-.152-.1-.008a.208.208,0,0,0,.108.2c.132.044.169.838.046,1.011a1.719,1.719,0,0,0-.1.623c-.01.461-.029.5-.227.48-.15-.016-.216.028-.215.144,0,.143.015.146.094.023.051-.079.1-.123.1-.1s.028.156.053.288a2.311,2.311,0,0,1-.07.717,3.977,3.977,0,0,0-.1.887c.009.226-.028.41-.081.41s-.1.228-.1.508a1.311,1.311,0,0,1-.1.613,1.382,1.382,0,0,0-.12.618c-.014.472-.033.512-.231.491-.119-.013-.216.02-.216.072s.051.084.114.071c.165-.035.222.857.067,1.044a1.014,1.014,0,0,0-.1.575,1.082,1.082,0,0,1-.071.546,1.693,1.693,0,0,0-.127.642c-.024.428-.059.519-.19.5a.232.232,0,0,0-.221.072c-.033.054,0,.1.078.1.184,0,.256.618.107.905a2.137,2.137,0,0,0-.124.717c-.012.54-.071.713-.215.625a.117.117,0,0,1-.026-.161c.039-.063.02-.077-.047-.035-.083.051-.077.12.025.265a1.15,1.15,0,0,1-.059,1.008.676.676,0,0,0-.068.384c.043.536,0,.724-.151.666s-.2.084-.054.175a1.712,1.712,0,0,1-.071,1.07,1.14,1.14,0,0,0-.04.546c.035.264.01.415-.083.488s-.134.294-.134.632c0,.4-.034.529-.144.532a.108.108,0,0,0-.1.144,1.778,1.778,0,0,1-.01,1.061c-.067.041-.1.263-.09.548a.936.936,0,0,1-.079.54,1.276,1.276,0,0,0-.1.632c0,.316-.043.57-.1.57s-.1.238-.1.528c0,.572-.154.721-.222.216-.024-.171-.02.109.007.623.048.907.043.935-.155.935-.113,0-.2.043-.2.1a.1.1,0,0,0,.1.1c.062,0,.09.2.072.5-.019.333-.068.5-.146.48s-.093.04-.024.222a.989.989,0,0,1-.18.933c-.115.132-.123.191-.034.246.071.044.1.2.075.4-.024.181-.045.362-.049.4s-.067.072-.14.072c-.186,0-.268.261-.1.324.125.048.132.147.052.778-.007.053-.049.039-.093-.032-.065-.1-.093-.1-.139.024-.032.083-.022.152.023.152.115,0,.077.957-.04.972-.163.021-.3.307-.312.658-.006.185.01.282.038.216.081-.193.183-.138.2.109.013.157-.04.244-.171.279-.1.027-.189.108-.188.178,0,.1.024.094.094-.015s.093,0,.094.36c0,.51-.179.724-.2.239-.007-.147-.044-.052-.083.216a1.149,1.149,0,0,0,.013.571.47.47,0,0,1-.061.594.39.39,0,0,0-.083.387c.04.157.014.276-.072.336-.1.072-.105.1-.013.142.17.069.148.2-.072.439-.129.138-.161.238-.1.3.125.125.125.375,0,.3-.056-.035-.1.061-.1.228a.507.507,0,0,1-.1.347.209.209,0,0,0-.1.155c0,.053.043.07.1.037s.1-.014.1.042a.1.1,0,0,1-.1.1c-.053,0-.1.129-.1.288,0,.415.284.392.3-.024a2.932,2.932,0,0,0-.005-.4c-.009-.048.039-.121.105-.162a.7.7,0,0,0,.144-.44c.036-.559.117-.8.273-.8a.143.143,0,0,0,.142-.143,1.385,1.385,0,0,1,.335-.515,1.419,1.419,0,0,0,.335-.507.443.443,0,0,1,.192-.273.494.494,0,0,0,.192-.349c0-.116.032-.225.072-.242a2.119,2.119,0,0,0,.407-.763.725.725,0,0,1,.192-.3.7.7,0,0,0,.192-.332.114.114,0,0,1,.1-.125c.052,0,.1-.086.1-.192s.043-.192.1-.192.1-.065.1-.144.043-.144.1-.144.1-.061.1-.135a8.122,8.122,0,0,1,.78-1.538.441.441,0,0,0,.083-.256c0-.09.038-.179.085-.2a9.231,9.231,0,0,0,.71-1.231l.85-1.63a1.909,1.909,0,0,1,.3-.463.2.2,0,0,0,.072-.171.87.87,0,0,1,.132-.351c.072-.117.315-.557.54-.979s.663-1.242.974-1.822.683-1.292.826-1.582a5.827,5.827,0,0,1,.309-.575c.027-.026.193-.328.369-.671.643-1.251,1.529-2.945,1.982-3.787.255-.475.6-1.122.758-1.438a6.98,6.98,0,0,1,.342-.623c.027-.026.278-.5.557-1.055,1.609-3.183,1.3-3.168,2.889-.144.25.475.564,1.057.7,1.294s.458.842.72,1.343c.548,1.049,1.159,2.176,1.311,2.422a.429.429,0,0,0,.566.189c.453-.35.521-.219.115.224-.663.724-.319.578.407-.174.409-.422,1.422-1.442,2.252-2.266,1.564-1.552,1.7-1.718,1.491-1.848-.1-.061-.1-.078,0-.079.2,0,.132-.177-.129-.308a1.152,1.152,0,0,1-.407-.412,2.107,2.107,0,0,0-.215-.335,1.776,1.776,0,0,1-.191-.36c-.075-.171-.168-.312-.208-.312s-.072-.078-.072-.173a.441.441,0,0,0-.087-.263,14.04,14.04,0,0,1-1.024-1.865c-.311-.606-.589-1.124-.616-1.151s-.263-.479-.525-1.007-.5-.98-.528-1.007a4.272,4.272,0,0,1-.283-.507c-.736-1.461-1.59-1.336-2.486.364-1.643,3.113-1.973,3.694-2.1,3.688-.1,0-.407-.246-.407-.324a4.021,4.021,0,0,0-.362-.612c-.2-.3-.426-.676-.5-.834a2,2,0,0,0-.193-.335c-.047-.043-.358-.626-.973-1.822a1.919,1.919,0,0,0-.294-.463c-.04-.018-.072-.111-.072-.208s-.038-.19-.084-.208a4.013,4.013,0,0,1-.606-1.159c.01-.04-.021-.072-.071-.072s-.144-.151-.211-.336-.156-.335-.2-.335-.077-.086-.077-.192-.038-.192-.085-.192-.109-.075-.14-.167a4.989,4.989,0,0,0-.347-.647c-.161-.264-.378-.66-.483-.881a1.665,1.665,0,0,0-.288-.461.32.32,0,0,1-.1-.246c0-.1-.043-.186-.1-.186s-.1-.058-.1-.129a.563.563,0,0,0-.192-.3.581.581,0,0,1-.194-.326.889.889,0,0,0-.189-.393.888.888,0,0,1-.19-.366.5.5,0,0,0-.475-.4c-.157,0-.2.06-.2.288M78.005,43.371c0,.119.041.216.094.216.12,0,.12-.1,0-.288-.075-.116-.093-.1-.094.072M64.051,47.616c-.2.21-.341.382-.3.382.1,0,.764-.675.714-.724-.022-.022-.208.132-.412.342m-1.438,1.438c-.2.21-.341.382-.3.382.1,0,.764-.675.715-.724-.022-.022-.208.132-.412.342M61.08,50.588c-.151.158-.243.287-.2.287.1,0,.57-.482.521-.532-.023-.022-.165.088-.316.246m-1.341,1.34c-.1.106-.143.193-.1.193.1,0,.375-.289.323-.341-.024-.024-.123.043-.218.148M58.3,53.366c-.1.106-.143.193-.1.193.1,0,.375-.289.323-.341-.024-.024-.123.043-.218.148m21.333.037a.261.261,0,0,0,.1.2c.053.033.1-.005.1-.085a.261.261,0,0,0-.1-.2c-.053-.033-.1.005-.1.085M56.862,54.8c-.1.106-.143.193-.1.193.1,0,.375-.289.323-.341-.024-.024-.123.043-.218.148m-.8.826c-.071.081-.11.166-.087.189s.121-.044.216-.15.135-.19.087-.189a.45.45,0,0,0-.216.15m-.637.613c-.1.106-.143.193-.1.193.1,0,.375-.289.323-.341-.024-.024-.123.043-.218.148m-.705.732c-.124.132-.207.258-.185.281s.164-.089.315-.246.234-.284.185-.281a.9.9,0,0,0-.315.246M53.185,58.51c-.177.185-.3.353-.281.375s.207-.132.412-.342.332-.379.281-.375a1.5,1.5,0,0,0-.412.342m27.311.407a.328.328,0,0,0,.1.251c.053.032.1-.027.1-.133a.328.328,0,0,0-.1-.251c-.053-.033-.1.027-.1.132m-28.653.936a1.719,1.719,0,0,0-.378.471,2.11,2.11,0,0,0,.509-.438c.258-.262.429-.474.377-.471a2.259,2.259,0,0,0-.509.438m28.845.263a.262.262,0,0,0,.1.2c.053.032.1-.006.1-.085a.259.259,0,0,0-.1-.2c-.052-.033-.1.005-.1.085M48.348,63.36c-1.361,1.372-2.459,2.509-2.441,2.527s1.174-1.109,2.569-2.5,2.493-2.533,2.44-2.527-1.208,1.132-2.568,2.5M80.88,66.477a5.139,5.139,0,0,0-.575.31,8.774,8.774,0,0,1-1.151.659c-.343.184-.731.4-.863.49a5.952,5.952,0,0,1-.528.3,2.237,2.237,0,0,0-.335.189,2.256,2.256,0,0,1-.335.19c-.158.078-.439.232-.624.343s-.616.348-.958.528-.645.348-.671.376a4.2,4.2,0,0,1-.479.273,14.46,14.46,0,0,0-1.438.79,1.729,1.729,0,0,1-.36.192c-.171.075-.312.168-.312.208a.079.079,0,0,1-.083.072,8.5,8.5,0,0,0-.983.5c-.494.277-1.029.568-1.187.647a2.319,2.319,0,0,0-.335.192,4.85,4.85,0,0,1-.479.278c-.238.127-.626.338-.863.469s-.647.356-.911.5-.695.381-.958.529-.631.354-.815.457-.379.217-.431.254a2.846,2.846,0,0,1-.528.191,5.371,5.371,0,0,0-.575.192,3.272,3.272,0,0,1-1.285-.053,4.225,4.225,0,0,1-1.007-.4l-1.157-.617a6.512,6.512,0,0,1-.643-.377.188.188,0,0,0-.318.114c0,.049.119.118.263.154a.989.989,0,0,1,.408.217,1.967,1.967,0,0,0,.384.287c.131.074.345.2.475.288.2.129.223.131.154.009-.045-.079.012-.047.127.072.216.223.355.289.25.12-.033-.053-.024-.1.019-.1s.132.086.2.192c.087.141.224.192.508.192.235,0,.365.038.329.1a4.057,4.057,0,0,0,1.731.008.636.636,0,0,1,.282-.12.466.466,0,0,0,.25-.11.335.335,0,0,1,.2-.1,2.006,2.006,0,0,0,.47-.215c.182-.108.472-.257.643-.333s.311-.17.311-.21.086-.072.192-.072.192-.043.192-.1.064-.1.144-.1.144-.038.144-.085.075-.109.168-.138a9.6,9.6,0,0,0,.886-.455c.4-.221.892-.493,1.1-.605a3.326,3.326,0,0,0,.431-.256,2.517,2.517,0,0,1,.384-.224,8.825,8.825,0,0,0,1.491-.826c-.05,0,.144-.116.431-.256a8.018,8.018,0,0,0,.81-.455A.924.924,0,0,1,73.354,71a1.173,1.173,0,0,0,.36-.138c.2-.094.36-.207.36-.25s.053-.079.12-.08a.9.9,0,0,0,.36-.19.889.889,0,0,1,.407-.189c.093,0,.168-.035.168-.075s.162-.149.36-.242.532-.276.743-.407a8.207,8.207,0,0,1,.743-.4c.2-.091.36-.2.36-.239s.065-.073.144-.073.144-.043.144-.1.083-.1.184-.1.2-.04.216-.089a.25.25,0,0,1,.168-.12,5.444,5.444,0,0,0,.7-.343,3.815,3.815,0,0,1,.655-.311.092.092,0,0,0,.086-.1c0-.053.086-.1.192-.1s.192-.043.192-.1.064-.1.144-.1.144-.038.144-.084a1.987,1.987,0,0,1,.623-.381c.364-.174.624-.358.624-.444,0-.2-.058-.186-.671.116m-34.951-.065c-.091.148.033.243.156.12.069-.069.071-.123.005-.163a.119.119,0,0,0-.162.043m.338.283c0,.105.039.192.086.192.108,0,.208-.249.132-.326-.116-.115-.217-.052-.217.135m.341.087c-.03.048.075.145.234.215s.288.161.288.2.086.072.192.072.192-.043.192-.1-.086-.1-.192-.1-.192-.043-.192-.1-.064-.1-.144-.1-.144-.043-.144-.1c0-.12-.162-.126-.234-.009m.906.584c0,.052.064.1.144.1s.144-.043.144-.1-.065-.1-.144-.1-.144.043-.144.1m.24.2c-.173.079-.168.085.048.065.15-.014.231.023.216.1s.062.12.168.12.192.039.192.086.19.165.423.262.406.2.385.238c-.038.062.194.158.578.241a.449.449,0,0,1,.254.148.187.187,0,0,0,.22.049c.143-.055.2.042.159.263-.009.048.052.031.135-.038s.139-.136.125-.15a3.209,3.209,0,0,0-.908-.428c-.086,0-.129-.028-.094-.063s-.034-.113-.152-.175-.507-.272-.864-.465-.659-.349-.671-.346-.108.046-.213.094m2.944,1.61c-.086.055.025.156.364.332.268.139.461.211.43.159s-.012-.093.044-.093c.2,0,.089-.148-.24-.312-.381-.189-.424-.2-.6-.086m.939.494c0,.052.064.1.144.1s.144-.043.144-.1-.065-.1-.144-.1-.144.043-.144.1m.31.176c-.087.055-.047.116.144.214a2.2,2.2,0,0,1,.314.185,2.319,2.319,0,0,0,.335.192c.158.079.435.242.616.362.247.164.347.189.4.1a.281.281,0,0,0-.216-.365,4.355,4.355,0,0,1-.717-.384c-.681-.414-.7-.419-.877-.3m1.97,1.145c-.106.129-.094.142.093.094.119-.031.216-.017.216.031s.064.087.144.087c.219,0,.17-.131-.094-.253-.191-.089-.259-.081-.359.041m.6.308c0,.053.082.1.184.1a.249.249,0,0,1,.228.12c.035.1.069.1.171,0s.1-.12-.036-.12c-.09,0-.163-.043-.163-.1s-.086-.1-.192-.1-.192.043-.192.1m.69.353c-.162.066.145.311.395.315.111,0,.148.046.1.123s-.033.088.01.049.141-.02.217.044a3.958,3.958,0,0,0,1.724.788c.149-.067.143-.08-.047-.113-.119-.021-.216-.078-.216-.127s-.065-.089-.144-.089-.144-.043-.144-.1a.091.091,0,0,0-.085-.1,6.692,6.692,0,0,1-.864-.431c-.429-.238-.79-.428-.8-.424l-.148.058m2.588,1.476a.128.128,0,0,0,.251,0c.019-.056-.037-.1-.125-.1s-.144.047-.125.1m.383.257a.3.3,0,0,0,.249.2c.12.017.189.075.155.13-.056.09.323.023.434-.077.086-.077-.1-.16-.373-.17-.162-.006-.29-.063-.29-.13a.113.113,0,0,0-.1-.12c-.056,0-.088.076-.071.168m.847.384c0,.133.187.368.189.239,0-.2.167-.133.231.1.057.2.067.2.164.041.057-.1.089-.182.07-.192s-.129-.07-.247-.136c-.242-.135-.41-.155-.407-.048" transform="translate(-45.5 -26.119)" fill="#fff" fill-rule="evenodd"/>
  </g>
  <path id="path3" d="M155.675,46.615c-.817.081-2.321,1.187-2.321,1.705a.31.31,0,0,1-.116.242,4.749,4.749,0,0,0,0,2.089.343.343,0,0,1,.116.268c0,.23.587.95.774.95a.243.243,0,0,1,.191.161,1.627,1.627,0,0,0,1.134.535.564.564,0,0,1,.393.111c.044.072.175.072.363,0a2.13,2.13,0,0,1,.63-.111,3.056,3.056,0,0,0,2.043-1.51,3.309,3.309,0,0,0,.352-1.64c-.15-.879-.226-1.145-.323-1.145-.057,0-.1-.068-.1-.151,0-.776-1.8-1.638-3.133-1.505M132.12,47.1c-.081.152-.12,5.247-.12,15.675s.039,15.524.12,15.675c.167.313,4.332.351,4.452.041.038-.1.07-3.13.07-6.731V65.215h12.766V61.037H136.642V51.289h14.042v-4.41h-9.222c-9,0-9.225.006-9.342.224m68.235,15.678v15.9l2.06-.031,2.06-.032.033-1.306a3.772,3.772,0,0,1,.146-1.306.119.119,0,0,1,.112.123,7.01,7.01,0,0,0,1.694,1.618c.09,0,.163.052.163.116s.078.116.174.116.174.039.175.087c0,.118.575.377.835.377.115,0,.209.052.209.116s.1.116.232.116.232.052.232.116.146.116.325.116a.789.789,0,0,1,.435.105c.376.357,4.6.357,4.979,0a.773.773,0,0,1,.428-.105.549.549,0,0,0,.39-.116.39.39,0,0,1,.3-.116c.123,0,.225-.052.225-.116s.1-.116.232-.116.233-.052.233-.116.1-.116.232-.116.232-.052.232-.116.079-.116.174-.116.174-.047.174-.105.144-.156.32-.218c.889-.318,3.626-3.4,3.626-4.088a.116.116,0,0,1,.116-.115c.063,0,.116-.079.116-.176a1.12,1.12,0,0,1,.116-.406l.232-.461a1.231,1.231,0,0,0,.116-.464c0-.128.047-.233.1-.233s.133-.17.169-.377.117-.664.179-1.015a31.53,31.53,0,0,0,0-5.281c-.063-.319-.144-.75-.18-.957s-.111-.377-.168-.377-.1-.157-.1-.348-.052-.348-.116-.348-.116-.1-.116-.226a.384.384,0,0,0-.116-.3.387.387,0,0,1-.116-.3c0-.124-.052-.225-.116-.225a.139.139,0,0,1-.116-.153.846.846,0,0,0-.232-.4.859.859,0,0,1-.233-.378,13.878,13.878,0,0,0-3.083-3.246c-.092,0-.166-.044-.166-.1a3.336,3.336,0,0,0-1.322-.714c-.1,0-.187-.052-.187-.116s-.127-.116-.283-.116a.483.483,0,0,1-.355-.116.593.593,0,0,0-.413-.116c-.187,0-.341-.052-.341-.116s-.287-.116-.639-.116-.638-.052-.638-.116-.462-.116-1.154-.116a3.647,3.647,0,0,0-1.226.116,1.193,1.193,0,0,1-.645.116c-.315,0-.573.052-.573.116s-.157.116-.348.116-.348.052-.348.116-.13.116-.29.116-.29.052-.29.116-.084.116-.186.116a2.989,2.989,0,0,0-1.187.547.513.513,0,0,1-.255.15,6.016,6.016,0,0,0-.934.813c-.457.446-.838.812-.847.812s0-2.794.019-6.208l.033-6.209h-4.3v15.9m-14.971-6.618c0,.064-.258.116-.574.116a1.188,1.188,0,0,0-.645.116.6.6,0,0,1-.414.116c-.187,0-.341.052-.341.116s-.157.116-.348.116-.348.046-.348.1-.182.137-.406.179-.406.126-.406.187a.119.119,0,0,1-.125.111,9.619,9.619,0,0,0-2.976,2.487,2.2,2.2,0,0,1-.4.544.679.679,0,0,0-.215.266,1.006,1.006,0,0,1-.232.327.846.846,0,0,0-.232.4.138.138,0,0,1-.116.152c-.064,0-.116.1-.116.232s-.04.233-.088.233c-.133,0-.492.888-.492,1.219,0,.159-.052.289-.116.289s-.116.127-.116.283a.483.483,0,0,1-.116.355.708.708,0,0,0-.116.464.708.708,0,0,1-.116.464,1.992,1.992,0,0,0-.116.87,1.99,1.99,0,0,1-.116.87,2.914,2.914,0,0,0,0,1.625,2.487,2.487,0,0,1,.116.986,2.492,2.492,0,0,0,.116.987.852.852,0,0,1,.116.522.847.847,0,0,0,.116.522.443.443,0,0,1,.116.332.666.666,0,0,0,.1.37,3.6,3.6,0,0,1,.3.746,3.086,3.086,0,0,0,.785,1.376c.05.021.091.127.091.235a.552.552,0,0,0,.232.364c.128.092.233.208.233.257a9.294,9.294,0,0,0,2.757,2.578c.143.045.26.131.26.19s.1.109.232.109.233.052.233.116.1.116.232.116.232.052.232.116.131.116.29.116.29.04.29.088a2.418,2.418,0,0,0,1.152.377.39.39,0,0,1,.29.1c.221.359,5.25.359,5.472,0a.757.757,0,0,1,.462-.1c.219,0,.4-.052.4-.116s.157-.116.348-.116.348-.052.348-.116.131-.116.29-.116.29-.052.29-.116a.138.138,0,0,1,.152-.116.848.848,0,0,0,.4-.232.84.84,0,0,1,.4-.233,10.591,10.591,0,0,0,2.641-2.415c0-.076.044-.138.1-.138s.2-.208.32-.463.26-.464.308-.464.087-.106.087-.233.052-.232.116-.232.116-.178.116-.394c0-.393-.538-.767-1.1-.767-.095,0-.172-.052-.172-.116s-.157-.116-.348-.116-.348-.052-.348-.116-.1-.116-.232-.116-.233-.052-.233-.116-.079-.116-.175-.116a1.117,1.117,0,0,1-.406-.116l-.478-.242c-.276-.141-.393-.036-.526.475a1.114,1.114,0,0,1-.289.478.686.686,0,0,0-.214.263,9.581,9.581,0,0,1-1.539,1.58,6.087,6.087,0,0,0-1.157.474,1.248,1.248,0,0,1-.487.106.486.486,0,0,0-.357.116,4.816,4.816,0,0,1-1.457.116,3.663,3.663,0,0,1-1.386-.116c0-.064-.132-.116-.292-.116a1.242,1.242,0,0,1-.494-.109c-.111-.061-.423-.2-.694-.313s-.494-.246-.494-.3a.107.107,0,0,0-.117-.093c-.383,0-1.755-1.482-2.2-2.379a2.646,2.646,0,0,0-.377-.619c-.047-.021-.087-.162-.087-.312a.467.467,0,0,0-.116-.345.722.722,0,0,1-.116-.471c0-.219-.052-.4-.116-.4s-.116-.209-.116-.464V68.7h16.818l.135-.493a3.065,3.065,0,0,0,0-1.363,12.141,12.141,0,0,1-.13-1.415,1.109,1.109,0,0,0-.115-.616,1.02,1.02,0,0,1-.116-.587c0-.283-.052-.515-.116-.515s-.116-.157-.116-.348-.052-.348-.116-.348-.116-.131-.116-.29-.052-.29-.116-.29-.116-.1-.116-.232-.052-.232-.116-.232-.116-.1-.116-.233-.046-.232-.1-.232-.131-.143-.166-.319a1.419,1.419,0,0,0-.3-.576.907.907,0,0,1-.24-.371,17.32,17.32,0,0,0-2.31-2.332.512.512,0,0,1-.264-.145,4.731,4.731,0,0,0-1.591-.783c-.135,0-.245-.052-.245-.116s-.131-.116-.29-.116-.29-.052-.29-.116-.209-.116-.464-.116-.464-.052-.464-.116-.284-.116-.632-.116a1.377,1.377,0,0,1-.7-.116,4.527,4.527,0,0,0-1.4-.116,3.407,3.407,0,0,0-1.327.116m47.059,0a1.552,1.552,0,0,1-.754.116,1.553,1.553,0,0,0-.755.116.725.725,0,0,1-.471.116c-.22,0-.4.052-.4.116s-.13.116-.29.116-.29.052-.29.116-.127.116-.282.116a.734.734,0,0,0-.435.145,2.576,2.576,0,0,1-.5.317,3.7,3.7,0,0,0-.779.609,1.992,1.992,0,0,1-.534.438,7.58,7.58,0,0,0-1.415,1.6,2.894,2.894,0,0,1-.232.37,4.013,4.013,0,0,0-.4.858.6.6,0,0,0,.5.652,1.521,1.521,0,0,1,.517.174,1.519,1.519,0,0,0,.493.173c.088,0,.161.052.161.116s.131.116.29.116.29.052.29.116.1.116.232.116.232.052.232.116.1.116.226.116a.387.387,0,0,1,.3.116c.167.27.747.127.829-.2a1.165,1.165,0,0,1,.292-.507.678.678,0,0,0,.214-.267,4.441,4.441,0,0,1,1.791-1.345c.1,0,.182-.052.182-.116s.1-.116.223-.116a.292.292,0,0,0,.271-.146c.035-.107.5-.145,1.8-.145a5.149,5.149,0,0,1,1.9.145.577.577,0,0,0,.354.146c.115,0,.209.052.209.116s.1.116.232.116.232.043.232.1.143.17.317.261a4.571,4.571,0,0,1,1.424,1.443c0,.095.04.172.088.172s.157.17.24.377.2.468.26.579a3.251,3.251,0,0,1,.1.987c0,.432-.035.719-.068.64a.386.386,0,0,0-.339-.146c-.154,0-.281-.052-.281-.116s-.1-.116-.225-.116a.387.387,0,0,1-.3-.116.583.583,0,0,0-.406-.116.579.579,0,0,1-.406-.116,1,1,0,0,0-.581-.116,1.009,1.009,0,0,1-.58-.116,22.083,22.083,0,0,0-4.526,0,1.009,1.009,0,0,1-.58.116,1,1,0,0,0-.581.116.593.593,0,0,1-.413.116c-.187,0-.341.052-.341.116s-.13.116-.29.116-.29.052-.29.116-.1.116-.233.116-.232.052-.232.116-.1.116-.232.116-.233.052-.233.116-.074.116-.164.116c-.207,0-.878.377-.879.493,0,.048-.07.087-.154.087-.136,0-.392.236-1.326,1.223a.987.987,0,0,0-.261.4.113.113,0,0,1-.1.121c-.056,0-.132.092-.167.2a3.088,3.088,0,0,1-.232.493,5.305,5.305,0,0,0-.621,3.366c.057,1.679.157,2.437.323,2.437.057,0,.1.105.1.233a1.7,1.7,0,0,0,.494.972.863.863,0,0,1,.2.321,5.82,5.82,0,0,0,1.739,1.723.542.542,0,0,1,.35.233.558.558,0,0,0,.374.232c.113,0,.207.039.207.087,0,.118.575.377.835.377.115,0,.209.052.209.116s.146.116.324.116a.789.789,0,0,1,.435.105c.375.359,4.772.355,4.994,0a.6.6,0,0,1,.4-.1.579.579,0,0,0,.406-.116.389.389,0,0,1,.3-.116c.124,0,.225-.052.225-.116s.1-.116.233-.116.232-.052.232-.116a.138.138,0,0,1,.152-.116.847.847,0,0,0,.4-.232.892.892,0,0,1,.358-.233,5.664,5.664,0,0,0,.933-.816l.824-.816v1.209c0,1.468-.2,1.352,2.331,1.352h1.964V71.141c0-4.9-.04-7.561-.116-7.608a1.029,1.029,0,0,1-.116-.588c0-.283-.052-.515-.116-.515s-.116-.143-.117-.319a1.7,1.7,0,0,0-.174-.652,1.536,1.536,0,0,1-.173-.471.856.856,0,0,0-.232-.388.846.846,0,0,1-.232-.4.533.533,0,0,0-.233-.32.538.538,0,0,1-.232-.3,5.306,5.306,0,0,0-1.3-1.326,1.1,1.1,0,0,1-.395-.29,1.114,1.114,0,0,0-.393-.29.512.512,0,0,1-.256-.15,2.984,2.984,0,0,0-1.187-.547c-.1,0-.185-.052-.185-.116s-.127-.116-.283-.116a.483.483,0,0,1-.355-.116.722.722,0,0,0-.471-.116c-.219,0-.4-.052-.4-.116s-.284-.116-.632-.116a1.377,1.377,0,0,1-.7-.116,7.761,7.761,0,0,0-2.669,0m21.064,0c0,.064-.284.116-.632.116a1.377,1.377,0,0,0-.7.116.583.583,0,0,1-.406.116.58.58,0,0,0-.406.116.387.387,0,0,1-.3.116c-.124,0-.225.052-.225.116s-.106.116-.236.116a3.981,3.981,0,0,0-1.486.711.2.2,0,0,1-.181.1,1.973,1.973,0,0,0-.619.493c-.262.272-.625.624-.806.783a3.654,3.654,0,0,0-.966,1.785c0,.167-.052.3-.116.3a4.6,4.6,0,0,0-.116,1.567,6.192,6.192,0,0,0,.1,1.567c.056,0,.133.2.171.439a1.557,1.557,0,0,0,.3.691.932.932,0,0,1,.235.35,6.008,6.008,0,0,0,2.076,1.769.124.124,0,0,1,.13.116c0,.064.1.116.222.116s.24.039.261.087a2.518,2.518,0,0,0,.619.361c.32.151.671.32.782.377a1.111,1.111,0,0,0,.428.1.388.388,0,0,1,.295.109,2.356,2.356,0,0,0,.877.189,1.819,1.819,0,0,1,.81.181c0,.055.209.1.464.1s.465.052.465.116.209.116.464.116.464.052.464.116.183.116.407.116.406.052.406.116.154.116.341.116a.6.6,0,0,1,.413.116.387.387,0,0,0,.3.116c.124,0,.225.04.225.088s.151.155.335.236a2.236,2.236,0,0,1,.908,3.1,3.558,3.558,0,0,1-1.794,1.33c-.144,0-.261.058-.261.123a11.306,11.306,0,0,1-3.331-.015,5.086,5.086,0,0,1-2.849-1.934,2.144,2.144,0,0,1-.435-.6.119.119,0,0,0-.116-.121c-.064,0-.116-.092-.116-.2,0-.3-.433-.957-.625-.957a5.5,5.5,0,0,0-1.374.595,1.026,1.026,0,0,1-.377.1c-.1,0-.175.052-.175.116s-.1.116-.226.116a.384.384,0,0,0-.3.116.387.387,0,0,1-.3.116c-.124,0-.225.045-.225.1s-.157.132-.348.171c-.343.069-.555.772-.233.772.064,0,.116.1.116.232s.052.232.116.232.116.079.116.174.052.174.116.174.116.1.116.233.046.232.1.232.167.157.246.349a2.262,2.262,0,0,0,.508.671,2.789,2.789,0,0,1,.527.638c.091.173.2.315.239.315a4.383,4.383,0,0,1,.687.522,2.653,2.653,0,0,0,.776.522c.09,0,.164.052.164.116s.081.116.179.116a.843.843,0,0,1,.428.232.858.858,0,0,0,.46.232c.116,0,.21.052.21.116s.157.116.348.116.348.052.348.116.153.116.341.116a.618.618,0,0,1,.4.1,14.255,14.255,0,0,0,5.587,0,.618.618,0,0,1,.4-.1c.188,0,.341-.052.341-.116s.127-.116.283-.116a.483.483,0,0,0,.355-.116.387.387,0,0,1,.3-.116c.123,0,.225-.042.225-.094s.182-.166.406-.254.407-.189.407-.227a1.177,1.177,0,0,1,.4-.284,7.053,7.053,0,0,0,1.572-1.528,3.52,3.52,0,0,1,.348-.572,1.969,1.969,0,0,0,.348-.746c0-.132.047-.24.1-.24.246,0,.481-3.176.253-3.4a.748.748,0,0,1-.124-.442.553.553,0,0,0-.116-.39.385.385,0,0,1-.116-.3c0-.124-.04-.226-.088-.226s-.162-.169-.252-.377a1.952,1.952,0,0,0-.377-.565.614.614,0,0,1-.212-.3,2.266,2.266,0,0,0-.551-.6c-.8-.7-.82-.71-.957-.71a.859.859,0,0,1-.375-.233.859.859,0,0,0-.46-.232c-.116,0-.21-.052-.21-.116s-.1-.116-.225-.116a.387.387,0,0,1-.3-.116.472.472,0,0,0-.348-.116.474.474,0,0,1-.348-.116.58.58,0,0,0-.406-.116.591.591,0,0,1-.4-.1,2.479,2.479,0,0,0-.877-.186,1.774,1.774,0,0,1-.813-.186c0-.057-.209-.1-.464-.1s-.464-.052-.464-.116-.209-.116-.464-.116-.464-.052-.464-.116-.18-.116-.4-.116a.722.722,0,0,1-.471-.116.6.6,0,0,0-.413-.116c-.188,0-.341-.052-.341-.116s-.079-.116-.176-.116a1.976,1.976,0,0,1-1.565-1.91c0-.429.05-.759.116-.759a.137.137,0,0,0,.12-.145,1.833,1.833,0,0,1,.865-.9c.1,0,.176-.052.176-.116s.1-.116.222-.116.242-.056.264-.124c.1-.3,4.383-.3,4.484.006.022.065.139.118.262.118s.222.043.222.1.144.171.32.26a3.287,3.287,0,0,1,1.138,1.173c.036.116.115.211.175.211s.108.1.108.219a.305.305,0,0,0,.221.276c.288.075.824-.029.824-.16,0-.056.1-.1.233-.1s.232-.052.232-.116.157-.116.348-.116.348-.046.348-.1.152-.132.34-.17c.859-.171,1.4-.543,1.4-.96,0-.216-.052-.393-.116-.393s-.116-.1-.116-.232-.052-.232-.116-.232-.116-.071-.116-.157a1.307,1.307,0,0,0-.348-.521,1.585,1.585,0,0,1-.348-.462,5.052,5.052,0,0,0-1.1-1.065,1.019,1.019,0,0,1-.313-.226,4.877,4.877,0,0,0-1.645-.818c-.106,0-.191-.052-.191-.116s-.131-.116-.29-.116-.29-.052-.29-.116-.153-.116-.341-.116a.6.6,0,0,1-.413-.116,1.171,1.171,0,0,0-.639-.116,1.167,1.167,0,0,1-.638-.116,4.53,4.53,0,0,0-1.4-.116,3.412,3.412,0,0,0-1.328.116m21.412,0a1.192,1.192,0,0,1-.646.116c-.315,0-.573.052-.573.116s-.18.116-.4.116a.723.723,0,0,0-.471.116.483.483,0,0,1-.355.116c-.156,0-.283.052-.283.116s-.084.116-.187.116a3.337,3.337,0,0,0-1.321.714c0,.054-.084.1-.186.1a1.085,1.085,0,0,0-.51.348,1.427,1.427,0,0,1-.424.352,2.512,2.512,0,0,0-.563.532c-.256.291-.634.7-.841.921a1.707,1.707,0,0,0-.377.5.465.465,0,0,1-.174.25.484.484,0,0,0-.174.309.845.845,0,0,1-.232.414.843.843,0,0,0-.233.4c0,.084-.052.153-.116.153s-.116.1-.116.232-.052.232-.116.232-.116.131-.116.29-.041.29-.091.29-.157.248-.24.551a4.357,4.357,0,0,1-.283.783,32.891,32.891,0,0,0-.086,6.035c.073.383.162.866.2,1.074a.883.883,0,0,0,.167.442.488.488,0,0,1,.1.347c0,.155.052.283.116.283s.116.1.116.233.052.232.116.232.116.1.116.232.052.233.116.233.116.1.116.232.052.232.116.232.116.079.116.174.042.174.094.174.18.179.285.4a3.91,3.91,0,0,0,.515.762,13.842,13.842,0,0,0,1.482,1.51,1.1,1.1,0,0,1,.327.238,6.922,6.922,0,0,0,1.78,1.038c.088,0,.159.052.159.116s.131.116.29.116.29.052.29.116.127.116.283.116a.485.485,0,0,1,.355.116.722.722,0,0,0,.471.116c.219,0,.4.047.4.106,0,.258,3.294.367,4.584.151l1.249-.209a1.063,1.063,0,0,0,.5-.177.488.488,0,0,1,.347-.1c.155,0,.283-.052.283-.116s.131-.116.29-.116.29-.052.29-.116.1-.116.232-.116.232-.052.232-.116.079-.116.174-.116.174-.04.174-.088.17-.162.377-.253a12.758,12.758,0,0,0,2.524-2.477.534.534,0,0,1,.232-.315.557.557,0,0,0,.233-.374c0-.113.04-.207.088-.207a2.623,2.623,0,0,0,.492-1.051c0-.154-.9-.568-1.248-.571-.143,0-.261-.042-.262-.09,0-.118-.575-.377-.835-.377-.115,0-.209-.052-.209-.116s-.1-.116-.232-.116-.232-.046-.232-.1-.118-.128-.261-.159a3.07,3.07,0,0,1-.452-.137c-.148-.063-.264.068-.517.586-.549,1.122-2.193,2.6-2.895,2.6-.093,0-.17.052-.17.116s-.18.116-.4.116a.722.722,0,0,0-.471.116,8.4,8.4,0,0,1-2.785,0,.6.6,0,0,0-.413-.116c-.188,0-.341-.052-.341-.116s-.077-.116-.171-.116a2.766,2.766,0,0,1-1.087-.493.224.224,0,0,0-.194-.087,10.053,10.053,0,0,1-1.8-1.743.9.9,0,0,0-.2-.3,3.389,3.389,0,0,1-.426-.921,4.347,4.347,0,0,0-.32-.807,1.214,1.214,0,0,1-.1-.551c0-.243-.052-.441-.116-.441s-.116-.157-.116-.348V68.7H286.93V67.311a4.82,4.82,0,0,0-.116-1.457,1.59,1.59,0,0,1-.116-.761c0-.382-.052-.689-.116-.689s-.116-.185-.116-.409a4,4,0,0,0-.244-1.073c-.134-.366-.271-.782-.3-.926s-.1-.261-.141-.261-.152-.182-.24-.406-.2-.406-.253-.406-.095-.079-.095-.174-.052-.174-.116-.174a.121.121,0,0,1-.116-.125.519.519,0,0,0-.145-.277,5.676,5.676,0,0,1-.377-.483,4.439,4.439,0,0,0-1.217-1.2,1.035,1.035,0,0,1-.425-.348.981.981,0,0,0-.457-.348c-.09,0-.164-.047-.164-.1a3.722,3.722,0,0,0-1.434-.71c-.105,0-.191-.052-.191-.116s-.127-.116-.283-.116a.482.482,0,0,1-.355-.116.707.707,0,0,0-.464-.116.712.712,0,0,1-.464-.116,1.351,1.351,0,0,0-.7-.116,1.354,1.354,0,0,1-.7-.116,7.762,7.762,0,0,0-2.669,0M172.1,56.4a.851.851,0,0,1-.522.116.846.846,0,0,0-.522.116.385.385,0,0,1-.3.116c-.124,0-.226.052-.226.116s-.127.116-.281.116a.735.735,0,0,0-.456.174.613.613,0,0,1-.357.174c-.1,0-.182.04-.182.088a1.411,1.411,0,0,1-.464.376,1.463,1.463,0,0,0-.464.37,3.076,3.076,0,0,1-.522.6,2.327,2.327,0,0,0-.522.644.122.122,0,0,1-.113.129,4.084,4.084,0,0,1-.145-1.364L166.99,56.8l-2.118-.031-2.117-.032V78.678h2.124a7.4,7.4,0,0,0,2.263-.139c.105-.105.139-1.785.139-6.848,0-4.394.04-6.708.116-6.708s.116-.157.116-.348.052-.348.116-.348.116-.095.116-.21a.872.872,0,0,1,.171-.435.863.863,0,0,0,.174-.382A7.859,7.859,0,0,1,169.92,61.5a.134.134,0,0,0,.146-.116c0-.063.1-.116.232-.116s.232-.052.232-.116.1-.116.233-.116.232-.052.232-.116.182-.116.406-.116.407-.052.407-.116.345-.116.8-.116a2.034,2.034,0,0,1,.877.116.865.865,0,0,0,.529.116c.251,0,.457.052.457.116s.07.116.155.116c.177,0,.425-.478.425-.817,0-.125.052-.227.116-.227s.116-.1.116-.232.052-.232.116-.232.116-.079.116-.176a1.01,1.01,0,0,1,.1-.377c.056-.111.167-.359.246-.55s.189-.439.246-.549a1.01,1.01,0,0,0,.1-.377c0-.1.056-.175.124-.175.3,0,.044-.523-.269-.559-.175-.02-.32-.085-.32-.145s-.205-.109-.457-.109a.868.868,0,0,1-.529-.116,7.719,7.719,0,0,0-2.67,0M154.05,67.711V78.678h4.294V56.744H154.05V67.711m34.881-7.281c.123.065.485.24.8.389a6.64,6.64,0,0,1,2.147,2c0,.1.052.187.116.187s.116.078.116.174.052.174.116.174.116.1.116.222.045.24.1.261a1.239,1.239,0,0,1,.182.59l.081.551H180.88l.057-.261a7.425,7.425,0,0,1,.925-1.842.463.463,0,0,0,.156-.3c0-.17.079-.25.918-.927.218-.175.521-.437.673-.581a.938.938,0,0,1,.442-.261,1.764,1.764,0,0,0,.563-.224,9.577,9.577,0,0,1,4.316-.151m24.05.016a.29.29,0,0,0,.267.127,1.716,1.716,0,0,1,.962.493.855.855,0,0,0,.324.2,3.744,3.744,0,0,1,1.074.912c.2.214.473.512.617.662a1.021,1.021,0,0,1,.261.372.808.808,0,0,0,.21.324,4.214,4.214,0,0,1,.6,1.611c0,.1.052.181.116.181s.116.284.116.632a1.377,1.377,0,0,0,.116.7,4.748,4.748,0,0,1,0,2.089,1.022,1.022,0,0,0-.116.588,2.1,2.1,0,0,1-.1.719,8.469,8.469,0,0,0-.319.9,3.294,3.294,0,0,1-.418.921.817.817,0,0,0-.2.324,1.015,1.015,0,0,1-.261.371c-.143.15-.418.46-.609.689a1.58,1.58,0,0,1-.446.419,1.39,1.39,0,0,0-.424.351,1.118,1.118,0,0,1-.485.348.907.907,0,0,0-.389.152,3.478,3.478,0,0,1-.751.3,5.486,5.486,0,0,0-.723.254,7.732,7.732,0,0,1-2.584-.011.445.445,0,0,0-.334-.116,2.928,2.928,0,0,1-.863-.29,3.822,3.822,0,0,0-.718-.29.109.109,0,0,1-.117-.1c0-.053-.143-.17-.319-.26a4.976,4.976,0,0,1-1.306-1.281,1.161,1.161,0,0,0-.29-.383.964.964,0,0,1-.29-.469c0-.1-.042-.179-.095-.179s-.166-.183-.253-.407-.2-.406-.254-.406-.094-.172-.094-.383a.9.9,0,0,0-.146-.528,17.261,17.261,0,0,1,0-4.631c.079-.027.145-.227.145-.445s.052-.4.116-.4.116-.1.116-.232.043-.232.095-.232.166-.183.253-.407.191-.406.23-.406a2.328,2.328,0,0,0,.414-.579,1.858,1.858,0,0,1,.546-.646c.112-.037.2-.1.2-.148a1.5,1.5,0,0,1,.464-.368,1.415,1.415,0,0,0,.464-.375c0-.049.079-.089.174-.089s.174-.052.174-.116.1-.116.233-.116.232-.052.232-.116.12-.116.267-.116a.647.647,0,0,0,.377-.107,9.225,9.225,0,0,1,3.743-.02m65.454,0a.214.214,0,0,0,.195.125,3.615,3.615,0,0,1,1.2.609.173.173,0,0,0,.148.087,3.148,3.148,0,0,1,.915.882.68.68,0,0,0,.212.265,3.685,3.685,0,0,1,.532.884c.176.383.368.788.426.9a1.263,1.263,0,0,1,.107.493v.292H270.45V64.7a.489.489,0,0,1,.1-.347,1,1,0,0,0,.18-.471c.042-.224.126-.408.187-.408s.111-.078.111-.174.052-.174.116-.174a.121.121,0,0,0,.116-.124.5.5,0,0,1,.145-.272c.08-.081.352-.391.6-.688a2.223,2.223,0,0,1,.567-.54.624.624,0,0,0,.3-.205,3.439,3.439,0,0,1,.768-.492,3.746,3.746,0,0,0,.639-.366,12.631,12.631,0,0,1,4.154.01m-42.511,7.668a1.193,1.193,0,0,0,.645.116c.315,0,.573.052.573.116s.152.116.338.116.356.039.377.087a2.611,2.611,0,0,0,.619.377l.58.29.035.726c.021.451-.012.726-.087.726s-.122.13-.122.29-.052.29-.116.29-.116.1-.116.232-.052.233-.116.233-.116.078-.116.173c0,.2-.348.639-.913,1.154-.215.2-.565.526-.779.733a1.577,1.577,0,0,1-.509.377.115.115,0,0,0-.12.108c0,.06-.118.141-.261.182a6.53,6.53,0,0,0-1.043.42,1.281,1.281,0,0,1-.486.1.485.485,0,0,0-.357.116,3.376,3.376,0,0,1-1.168.116c-.653,0-1.1-.047-1.1-.116s-.129-.116-.286-.116a2.257,2.257,0,0,1-.806-.29,2.736,2.736,0,0,0-.646-.29c-.211,0-.918-.776-1-1.1a.76.76,0,0,0-.178-.363,3.864,3.864,0,0,1,.092-2.053c.265-.813,1.631-2.175,2.179-2.175.1,0,.178-.052.178-.116s.127-.116.283-.116a.483.483,0,0,0,.355-.116.666.666,0,0,1,.442-.118,1.249,1.249,0,0,0,.544-.114,10.526,10.526,0,0,1,3.076,0" transform="translate(-85.708 -37.284)" fill="#fff" fill-rule="evenodd"/>
</svg>
