<svg id="image2vector" xmlns="http://www.w3.org/2000/svg" width="45.393" height="63.501" viewBox="0 0 45.393 63.501">
  <path id="path0" d="M111.658,133.717c-4.874.011-7.423.038-7.423.08s-.143.063-.318.063H103.6v.318c0,.175.029.318.064.318a1.6,1.6,0,0,1,.064.668,1.6,1.6,0,0,0,.064.668c.037,0,.064.212.064.509s.027.509.064.509.064.191.064.445.027.445.064.445.064.192.064.45c0,.7-.806.631,7.275.631,4.687,0,7.093.022,7.093.064s.057.064.127.064a.112.112,0,0,1,.127.127c0,.1-.042.127-.191.127-.1,0-.191.029-.191.064s-.057.064-.127.064-.127.029-.127.064-.057.064-.127.064-.127.029-.127.064-.072.064-.159.064-.159.029-.159.064-.057.064-.127.064-.127.029-.127.064-.057.064-.127.064-.127.029-.127.064-.086.064-.191.064-.191.029-.191.064-.057.064-.127.064-.127.026-.127.058-.114.077-.254.1-.254.069-.254.1-.086.058-.191.058-.191.029-.191.064-.057.064-.127.064-.127.029-.127.064-.057.064-.127.064-.127.029-.127.064-.072.064-.159.064-.159.029-.159.064-.057.064-.127.064-.127.029-.127.064-.057.064-.127.064-.127.029-.127.064-.086.064-.191.064-.191.029-.191.064-.057.064-.127.064-.127.029-.127.064-.057.064-.127.064-.127.029-.127.064-.086.064-.191.064-.191.029-.191.064-.057.064-.127.064-.127.029-.127.064-.057.064-.127.064-.127.029-.127.064-.072.064-.159.064-.159.029-.159.064-.057.064-.127.064-.127.029-.127.064-.057.064-.127.064-.127.029-.127.064-.057.064-.127.064-.127.029-.127.064-.086.064-.191.064-.191.029-.191.064-.057.064-.127.064-.127.029-.127.064-.057.064-.127.064-.127.025-.127.055-.143.074-.318.1-.318.07-.318.1-.043.061-.1.061-.1.029-.1.064-.086.064-.191.064-.191.029-.191.064-.057.064-.127.064-.127.029-.127.064-.057.064-.127.064-.127.029-.127.064-.086.064-.191.064-.191.029-.191.064-.057.064-.127.064-.127.029-.127.064-.057.064-.127.064-.127.029-.127.064-.086.064-.191.064-.191.029-.191.064-.057.064-.127.064-.127.029-.127.064-.043.064-.1.064-.1.029-.1.064-.086.064-.191.064-.191.029-.191.064-.057.064-.127.064-.127.029-.127.064-.057.064-.127.064-.127.029-.127.064-.086.064-.191.064-.191.029-.191.064-.057.064-.127.064-.127.029-.127.064-.057.064-.127.064-.127.029-.127.064-.045.064-.1.064c-.22,0-.281.165-.281.758,0,.342.026.577.064.577a2.031,2.031,0,0,1,.064.763,2.031,2.031,0,0,0,.064.763c.038,0,.064.244.064.6s.026.6.064.6.064.233.064.572.026.572.064.572.064.114.064.254v.254h.509c.345,0,.509-.024.509-.074,0-.08,18.727-.03,19.509.051l.39.041v.433c0,.238-.027.785-.06,1.215-.064.833-.148,2.076-.258,3.834s-.123,1.859-.242,1.9c-.185.057-1.332.4-2.586.774l-1.828.546-1.24.37c-.851.252-.953.3-1,.448-.042.133-.16.183-.16.067,0-.035-.17-.064-.381-.064s-.381-.028-.381-.064-.129-.064-.286-.064-.286-.029-.286-.064-.143-.064-.318-.064-.318-.029-.318-.064-.17-.064-.381-.064-.381-.028-.381-.064-.143-.064-.318-.064-.318-.029-.318-.064-.129-.064-.286-.064-.286-.029-.286-.064-.143-.064-.318-.064-.318-.029-.318-.064-.17-.064-.381-.064-.381-.028-.381-.064-.143-.064-.318-.064-.318-.029-.318-.064-.129-.064-.286-.064-.286-.029-.286-.064-.114-.064-.254-.064-.254-.029-.254-.064-.086-.064-.191-.064h-.191v-.668a1.6,1.6,0,0,0-.064-.668,1.881,1.881,0,0,1-.064-.731,1.881,1.881,0,0,0-.064-.731,1.737,1.737,0,0,1-.064-.7,1.737,1.737,0,0,0-.064-.7c-.035,0-.064-.086-.064-.191,0-.18-.014-.191-.254-.191-.14,0-.254-.029-.254-.064a10.688,10.688,0,0,0-1.844-.064,10.688,10.688,0,0,0-1.844.064c0,.038-.233.064-.572.064H105.7v.445c0,.254.027.445.064.445a2.515,2.515,0,0,1,.064.858,2.515,2.515,0,0,0,.064.858,2.032,2.032,0,0,1,.064.763,2.032,2.032,0,0,0,.064.763c.037,0,.064.223.064.54s.026.54.064.54.064.233.064.572.026.572.064.572.064.212.064.509.027.509.064.509.064.18.064.413.028.413.064.413.064.057.064.127a.112.112,0,0,0,.127.127c.07,0,.127.029.127.064s.1.064.223.064.223.029.223.064.114.064.254.064.254.029.254.064.086.064.191.064.191.029.191.064.114.064.254.064.254.029.254.064.114.064.254.064.254.029.254.064.1.064.223.064.223.029.223.064.114.064.254.064.254.029.254.064.114.064.254.064.254.029.254.064.086.064.191.064.191.029.191.064.114.064.254.064.254.029.254.064.114.064.254.064.254.029.254.064.1.064.223.064.223.026.223.057a1.249,1.249,0,0,0,.509.1,1.248,1.248,0,0,1,.509.1c0,.031.114.057.254.057s.254.029.254.064.114.064.254.064.254.029.254.064.1.064.223.064.223.029.223.064.114.064.254.064.254.029.254.064.114.064.254.064.254.029.254.064.114.064.254.064.254.029.254.064.086.064.191.064.191.029.191.064.114.064.254.064.254.029.254.064.1.064.223.064.223.029.223.064.114.064.254.064.254.025.254.055a2.679,2.679,0,0,0,1.192.077c.131-.035.425-.11.652-.166s.621-.157.874-.225c.676-.18,1.263-.335,2.368-.626l1.939-.514,2.066-.548c.612-.161,1.427-.379,1.812-.483s.8-.213.922-.243.323-.082.445-.116.365-.1.54-.147l.318-.084.042-.35c.023-.192.075-.722.115-1.176s.1-1.113.131-1.462.089-.979.126-1.4c.065-.73.116-1.3.251-2.766.034-.367.092-1.039.13-1.494s.1-1.141.13-1.526.09-1.086.126-1.558.093-1.194.128-1.605.091-1.083.125-1.494l.137-1.644a6.213,6.213,0,0,0,.035-1c-.037-.1-.541-.1-6.1-.106l-6.058,0,.352-.173c.194-.1.48-.227.636-.294s.427-.185.6-.263.532-.234.795-.347l.731-.318,1.812-.795c.857-.375,1.709-.751,1.893-.834a3.511,3.511,0,0,1,.367-.151c.017,0,.273-.114.569-.254s.552-.254.569-.254a3.506,3.506,0,0,0,.367-.152c.421-.191.575-.259,2.392-1.058a5.419,5.419,0,0,0,1.535-.786c.028-.074.127-1.049.219-2.168s.2-2.36.24-2.758c.068-.679.065-.729-.046-.811s.715-.09-22.171-.039" transform="translate(-96.289 -112.435)" fill="none" fill-rule="evenodd"/>
  <path id="path1" d="M57.6,76.363a2.031,2.031,0,0,0,.064.763,1.581,1.581,0,0,1,.064.664,2.15,2.15,0,0,0,.064.7,2.149,2.149,0,0,1,.064.7,2.083,2.083,0,0,0,.055.664,7.287,7.287,0,0,1,.1,1.248,5.247,5.247,0,0,0,.123,1.537,4.078,4.078,0,0,1,.043.651,3.314,3.314,0,0,0,.061.7,14.46,14.46,0,0,1,.164,2.1,2.823,2.823,0,0,0,.092.728,2.56,2.56,0,0,1,.06.715,1.826,1.826,0,0,0,.06.655,2.16,2.16,0,0,1,.1.7l.072,1.4a2.16,2.16,0,0,0,.1.7,2.053,2.053,0,0,1,.06.7,1.736,1.736,0,0,0,.064.7,1.581,1.581,0,0,1,.064.664,2.149,2.149,0,0,0,.064.7,2.307,2.307,0,0,1,.064.735,1.719,1.719,0,0,0,.064.7,1.582,1.582,0,0,1,.064.664,2.15,2.15,0,0,0,.064.7,2.288,2.288,0,0,1,.064.731,2.287,2.287,0,0,0,.064.731,2.15,2.15,0,0,1,.064.7,1.582,1.582,0,0,0,.064.664,1.737,1.737,0,0,1,.064.7,1.736,1.736,0,0,0,.064.7,1.6,1.6,0,0,1,.064.668,1.6,1.6,0,0,0,.064.668,1.72,1.72,0,0,1,.064.7,2.307,2.307,0,0,0,.064.735,2.306,2.306,0,0,1,.064.735,1.719,1.719,0,0,0,.064.7,1.581,1.581,0,0,1,.064.664,2.149,2.149,0,0,0,.064.7,2.15,2.15,0,0,1,.064.7,1.581,1.581,0,0,0,.064.664,1.581,1.581,0,0,1,.064.664,2.149,2.149,0,0,0,.064.7,2.287,2.287,0,0,1,.064.731,2.638,2.638,0,0,0,.056.726,8.217,8.217,0,0,1,.107,1.291c.028.691.056,1.271.061,1.288s.027.075.049.127a4.791,4.791,0,0,1,.075.7c.02.332.064.919.1,1.3l.129,1.462c.037.42.1,1.063.131,1.43s.079.989.1,1.383a2.406,2.406,0,0,0,.089.715,2,2,0,0,1,.086.652c.047,1.026.077,1.128.331,1.128a.38.38,0,0,1,.251.064.327.327,0,0,0,.226.064c.1,0,.187.029.187.064s.114.064.254.064.254.029.254.064.086.064.191.064.191.029.191.064.086.064.192.064a.821.821,0,0,1,.3.056,2.4,2.4,0,0,0,.672.2.566.566,0,0,1,.218.057,2.262,2.262,0,0,0,.365.122c.14.036.408.11.6.165a2.472,2.472,0,0,0,.525.1c.1,0,.183.029.183.064s.114.064.254.064.254.029.254.064.086.064.191.064.191.029.191.064.114.064.254.064.254.029.254.064.086.064.191.064.191.029.191.064.114.064.254.064.254.029.254.064.086.064.191.064.191.029.191.064.1.064.223.064.223.029.223.064.1.064.219.064a.4.4,0,0,1,.258.064.327.327,0,0,0,.226.064c.1,0,.187.029.187.064s.084.064.187.064a.327.327,0,0,1,.226.064.4.4,0,0,0,.258.064c.12,0,.219.029.219.064s.084.064.187.064a.327.327,0,0,1,.226.064.319.319,0,0,0,.223.064.319.319,0,0,1,.223.064.4.4,0,0,0,.258.064c.12,0,.219.029.219.064s.084.064.187.064a.326.326,0,0,1,.226.064.4.4,0,0,0,.258.064c.12,0,.219.029.219.064s.062.064.139.064a2.245,2.245,0,0,1,.7.2.706.706,0,0,0,.266.056.269.269,0,0,1,.192.059,1.189,1.189,0,0,0,.45.1,1.219,1.219,0,0,1,.448.1.336.336,0,0,0,.222.056c.1,0,.187.029.187.064s.1.064.223.064.223.029.223.064.1.064.223.064.223.029.223.064.1.064.223.064.223.029.223.064.084.064.187.064a.327.327,0,0,1,.226.064.4.4,0,0,0,.258.064c.12,0,.219.029.219.064s.084.064.187.064a.327.327,0,0,1,.226.064.4.4,0,0,0,.258.064c.12,0,.219.029.219.064s.086.064.191.064.191.031.191.068.164.058.493.037c.62-.039.97-.1.97-.176,0-.031.1-.057.223-.057s.223-.029.223-.064.086-.064.191-.064.191-.029.191-.064.114-.064.254-.064.254-.029.254-.064.1-.064.223-.064.223-.029.223-.064.084-.064.187-.064a.327.327,0,0,0,.226-.064.319.319,0,0,1,.223-.064.319.319,0,0,0,.223-.064.327.327,0,0,1,.226-.064c.1,0,.187-.029.187-.064s.114-.064.254-.064.254-.025.254-.055.141-.074.312-.1a4.5,4.5,0,0,0,.683-.165,2.524,2.524,0,0,1,.51-.126.242.242,0,0,0,.174-.058.535.535,0,0,1,.258-.1l.446-.078c.122-.021.223-.064.223-.1s.1-.057.219-.057a.4.4,0,0,0,.258-.064.258.258,0,0,1,.191-.064.258.258,0,0,0,.191-.064.4.4,0,0,1,.258-.064c.12,0,.219-.029.219-.064s.084-.064.187-.064a.327.327,0,0,0,.226-.064.4.4,0,0,1,.258-.064c.12,0,.219-.029.219-.064s.1-.064.219-.064a.4.4,0,0,0,.258-.064.327.327,0,0,1,.226-.064c.1,0,.187-.029.187-.064s.1-.064.219-.064a.4.4,0,0,0,.258-.064.327.327,0,0,1,.226-.064c.1,0,.187-.029.187-.064s.1-.064.223-.064.223-.029.223-.064.086-.064.191-.064.191-.029.191-.064.114-.064.254-.064.254-.029.254-.064.086-.064.191-.064.191-.029.191-.064.114-.064.254-.064.254-.029.254-.064.084-.064.187-.064a.337.337,0,0,0,.221-.055.91.91,0,0,1,.369-.1,3.876,3.876,0,0,0,.621-.142,5.689,5.689,0,0,1,1.084-.276c.068,0,.124-.029.124-.064s.1-.064.223-.064.223-.029.223-.064.084-.064.187-.064a.327.327,0,0,0,.226-.064.4.4,0,0,1,.258-.064c.12,0,.219-.029.219-.064s.1-.064.222-.064.223-.029.223-.064.1-.064.223-.064.222-.029.222-.064.08-.064.178-.064c.238,0,.331-.106.331-.381a.557.557,0,0,1,.06-.289,3.068,3.068,0,0,0,.1-.76c.02-.385.052-1.007.072-1.383a2.065,2.065,0,0,1,.095-.683,1.826,1.826,0,0,0,.06-.655,2.606,2.606,0,0,1,.058-.715,3.369,3.369,0,0,0,.1-.792c.021-.4.053-1,.07-1.335a3.5,3.5,0,0,1,.092-.731,3.486,3.486,0,0,0,.091-.731,13.756,13.756,0,0,1,.162-2.034,3.312,3.312,0,0,0,.061-.7,4.074,4.074,0,0,1,.043-.651,5.084,5.084,0,0,0,.122-1.5,6.931,6.931,0,0,1,.1-1.22,2.5,2.5,0,0,0,.055-.731,1.88,1.88,0,0,1,.064-.731,1.737,1.737,0,0,0,.064-.7,1.737,1.737,0,0,1,.064-.7,1.6,1.6,0,0,0,.064-.668,1.6,1.6,0,0,1,.064-.668,1.719,1.719,0,0,0,.064-.7,2.307,2.307,0,0,1,.064-.735,1.977,1.977,0,0,0,.064-.668,1.977,1.977,0,0,1,.064-.668,2.307,2.307,0,0,0,.064-.735,1.719,1.719,0,0,1,.064-.7,1.679,1.679,0,0,0,.064-.687,2.772,2.772,0,0,1,.059-.747,2.625,2.625,0,0,0,.094-.7c.019-.35.064-.965.1-1.367s.082-1.032.1-1.4a2.836,2.836,0,0,1,.093-.728,2.332,2.332,0,0,0,.06-.68,1.937,1.937,0,0,1,.064-.659,2.084,2.084,0,0,0,.064-.69,2.533,2.533,0,0,1,.06-.711,2.838,2.838,0,0,0,.093-.728c.019-.367.063-.982.1-1.367s.094-1.014.13-1.4.093-1.014.127-1.4c.061-.686.128-1.435.25-2.766.034-.367.079-.968.1-1.335a6.152,6.152,0,0,1,.1-.858,13.49,13.49,0,0,0,.1-1.446,7.364,7.364,0,0,1,.1-1.256,2.083,2.083,0,0,0,.055-.664,2.15,2.15,0,0,1,.064-.7,1.693,1.693,0,0,0,.064-.608V75.6H57.6v.763m41.15,3.528c-.008.245-.045.76-.081,1.144-.084.889-.169,1.829-.253,2.8-.036.42-.094,1.07-.128,1.446-.111,1.221-.184,2.035-.253,2.845-.037.437-.1,1.1-.131,1.462s-.162,1.812-.283,3.211-.249,2.843-.284,3.211-.093,1.011-.13,1.43c-.108,1.246-.192,2.185-.254,2.861-.032.35-.089.979-.125,1.4-.093,1.072-.187,2.118-.257,2.861-.033.35-.09,1.008-.127,1.462s-.093,1.1-.125,1.43c-.063.658-.151,1.637-.254,2.829-.036.42-.094,1.049-.127,1.4s-.091.993-.127,1.43c-.063.757-.121,1.405-.254,2.829-.032.35-.092,1.051-.132,1.558-.124,1.576-.013,1.394-1.014,1.661-.262.07-.563.152-.668.181-.249.07-.836.232-1.256.346l-.779.214-1.049.287c-.332.09-1.183.323-1.89.518l-1.653.454L86,121.465l-.731.2-.556.153-.556.153-.731.2-.556.153-.556.153c-.431.119-.929.255-1.418.387a3.052,3.052,0,0,1-.444.1c-.078,0-.094-.418-.108-2.842l-.017-2.842-.223-.05-.477-.108c-.14-.032-.941-.235-1.78-.451s-1.626-.415-1.748-.442c-.256-.057-3.487-.887-4.387-1.126-.332-.088-.7-.184-.826-.213s-.444-.112-.715-.185l-.985-.264c-.552-.148-.847-.223-1.128-.287-.3-.067-.33-.121-.409-.679-.041-.288-.1-.695-.132-.9s-.089-.668-.127-1.017-.1-.865-.127-1.144c-.156-1.372-.31-3.441-.335-4.482l-.014-.6,2.689-.017c3.134-.019,2.9-.069,2.964.634.025.29.072.828.1,1.195s.088,1.011.123,1.43.085.9.111,1.073l.048.31.572.142c.315.078.772.176,1.017.218s.559.1.7.132.44.089.668.128.528.1.668.126c.248.053.521.1,1.367.254.227.04.528.1.668.128s.44.088.668.127.539.1.693.135c.405.091.387.323.371-4.744l-.015-4.641-6.9.014c-5.386.011-6.906,0-6.945-.064a.871.871,0,0,1-.051-.329c0-.138-.029-.481-.063-.763-.092-.756-.179-1.619-.255-2.515-.037-.437-.091-1.052-.12-1.367A2.148,2.148,0,0,1,66,96.244a3.119,3.119,0,0,1,.909-.49c.016,0,.216-.086.445-.191s.429-.191.445-.191a4.089,4.089,0,0,0,.38-.159l.7-.318a4.072,4.072,0,0,1,.38-.159c.016,0,.216-.086.445-.191s.429-.191.445-.191a3.775,3.775,0,0,0,.364-.152c.185-.084.522-.23.749-.324s.564-.24.749-.324a3.805,3.805,0,0,1,.364-.152c.015,0,.186-.072.38-.159l.7-.318a4.088,4.088,0,0,1,.38-.159c.016,0,.216-.086.445-.191s.429-.191.445-.191a3.75,3.75,0,0,0,.364-.152c.185-.083.55-.244.812-.357s.591-.257.731-.319.8-.347,1.462-.632l1.383-.594c.355-.153.126-.172-2.193-.178-4.975-.014-11.864-.09-11.9-.131a30.859,30.859,0,0,1-.479-3.486c-.038-.4-.095-.931-.126-1.176a1.281,1.281,0,0,1,0-.5c.029-.029,3.5-.052,7.706-.052s7.7-.014,7.765-.032c.1-.03.111-.213.111-2.7V79.414l9.2.016,9.2.016-.015.445" transform="translate(-57.6 -63.584)" fill="#fff" fill-rule="evenodd"/>
  <path id="path2" d="M114.4,4.323V8.646h8.583V6.294h-5.849V2.67h5.849V0H114.4V4.323m9.346-1.7V5.253l1.987.077c1.093.042,2.409.076,2.924.076h.938V6.421h-5.849V8.646h8.646V3.433h-6.167v-.89h6.167V0h-8.646V2.626m9.282.076V5.4h5.849V6.421h-5.852l.017,1.16.017,1.16h8.646l.016-2.654.017-2.654h-6.1V2.675l1.351-.035c.743-.019,2.116-.05,3.052-.068l1.7-.033V0h-8.71V2.7" transform="translate(-105.372)" fill="#fff" fill-rule="evenodd"/>
  <path id="path3" d="M118.24,102.263c0,2.485-.008,2.668-.111,2.7-.061.017-3.555.032-7.765.032s-7.677.023-7.706.052a1.282,1.282,0,0,0,0,.5c.031.245.088.774.126,1.176a30.864,30.864,0,0,0,.479,3.486c.041.041,6.929.116,11.9.131,2.319.007,2.548.025,2.193.179l-1.383.594c-.664.285-1.322.57-1.462.632s-.469.206-.731.319-.628.274-.812.357a3.759,3.759,0,0,1-.364.152c-.016,0-.216.086-.445.191s-.429.191-.445.191a4.08,4.08,0,0,0-.38.159l-.7.318c-.193.087-.364.159-.38.159a3.808,3.808,0,0,0-.364.152c-.185.084-.522.23-.749.324s-.564.24-.749.324a3.772,3.772,0,0,1-.364.152c-.016,0-.216.086-.445.191s-.429.191-.445.191a4.081,4.081,0,0,0-.38.159l-.7.318a4.083,4.083,0,0,1-.38.159c-.016,0-.216.086-.445.191s-.429.191-.445.191a3.12,3.12,0,0,0-.909.49,2.148,2.148,0,0,0-.005.686c.029.315.083.93.12,1.367.076.9.164,1.758.255,2.515.034.282.062.625.063.763a.871.871,0,0,0,.051.329c.039.061,1.559.075,6.945.064l6.9-.014.015,4.641c.017,5.067.035,4.835-.371,4.744-.154-.034-.466-.1-.693-.135s-.528-.1-.668-.127-.44-.088-.668-.128c-.846-.15-1.119-.2-1.367-.254-.14-.03-.44-.087-.668-.126s-.528-.1-.668-.128-.455-.09-.7-.132-.7-.14-1.017-.218l-.572-.142-.048-.31c-.026-.171-.077-.653-.111-1.073s-.09-1.063-.123-1.43-.08-.9-.1-1.195c-.061-.7.17-.653-2.964-.634l-2.689.017.014.6c.025,1.042.18,3.11.335,4.482.032.28.089.795.127,1.144s.1.807.127,1.017.091.617.132.9c.079.558.112.612.409.679.281.064.577.139,1.128.287l.985.264c.271.073.593.156.715.184.365.085,1.979.51,2.316.609.369.108.481.115.481.028,0-.035-.1-.064-.219-.064a.4.4,0,0,1-.258-.064.319.319,0,0,0-.223-.064.319.319,0,0,1-.223-.064.388.388,0,0,0-.254-.064.388.388,0,0,1-.254-.064.319.319,0,0,0-.223-.064.319.319,0,0,1-.223-.064.387.387,0,0,0-.254-.064.388.388,0,0,1-.254-.064.4.4,0,0,0-.258-.064c-.12,0-.219-.029-.219-.064s-.1-.064-.219-.064a.411.411,0,0,1-.254-.057.478.478,0,0,0-.242-.091,3.561,3.561,0,0,1-.716-.171,3.562,3.562,0,0,0-.716-.171.478.478,0,0,1-.242-.091.387.387,0,0,0-.244-.057c-.284,0-.394-.15-.446-.6-.024-.21-.072-.6-.106-.858-.134-1.028-.3-2.524-.378-3.4-.075-.853-.175-2.243-.227-3.163l-.038-.683h2.466c2.3,0,2.742.027,2.95.176a5.125,5.125,0,0,1,.081.733c.028.391.08,1.041.116,1.443s.087,1.046.113,1.43c.056.832.089.922.334.922.1,0,.184.029.184.064s.1.064.219.064a.4.4,0,0,1,.258.064.655.655,0,0,0,.353.064c.173,0,.314.029.314.064s.143.064.318.064.318.029.318.064.141.064.314.064a.654.654,0,0,1,.354.064.549.549,0,0,0,.318.064.55.55,0,0,1,.318.064.642.642,0,0,0,.35.064.642.642,0,0,1,.35.064.525.525,0,0,0,.309.064.705.705,0,0,1,.33.057.926.926,0,0,0,.346.092c.295.036.724.111,1.335.233.779.156.894.154,1.041-.018a1.367,1.367,0,0,1,.676-.3c.3-.078.6-.164.668-.192s.256-.085.413-.127a2.73,2.73,0,0,0,.4-.134.615.615,0,0,1,.239-.057.615.615,0,0,0,.239-.057,2.68,2.68,0,0,1,.4-.133,2.683,2.683,0,0,0,.4-.133.688.688,0,0,1,.266-.057.267.267,0,0,0,.2-.064.319.319,0,0,1,.223-.064.319.319,0,0,0,.223-.064.258.258,0,0,1,.191-.064.258.258,0,0,0,.191-.064.266.266,0,0,1,.2-.064.688.688,0,0,0,.266-.057,2.734,2.734,0,0,1,.4-.134c.157-.042.343-.1.413-.126s.247-.085.392-.128l.265-.079.035-.421c.019-.231.065-.893.1-1.47s.094-1.449.126-1.939.087-1.334.12-1.875.081-1.107.106-1.256l.045-.27H121.88c-3.161,0-3.57-.011-3.644-.1s-9.968-.092-12.791.009c-.882.032-.938.027-.938-.084a.293.293,0,0,0-.059-.178,2.061,2.061,0,0,1-.093-.6c-.019-.3-.065-.827-.1-1.176-.119-1.13-.2-2.081-.229-2.866l-.033-.768.274-.118,1.068-.458c.122-.052.351-.153.509-.224s.343-.15.413-.176.263-.108.429-.183l.6-.269c.166-.074.352-.16.412-.191a.55.55,0,0,1,.207-.057c.053,0,.1-.029.1-.064s.055-.064.123-.064a.212.212,0,0,0,.163-.064.212.212,0,0,1,.163-.064c.068,0,.123-.029.123-.064s.057-.064.127-.064.127-.029.127-.064.07-.064.155-.064a.265.265,0,0,0,.195-.064.212.212,0,0,1,.163-.064c.068,0,.123-.029.123-.064s.043-.064.1-.064a15.479,15.479,0,0,0,1.716-.7c.175-.078.411-.182.525-.23.763-.325,1.193-.515,1.366-.6a.55.55,0,0,1,.207-.057c.053,0,.1-.029.1-.064s.055-.064.123-.064a.212.212,0,0,0,.163-.064.212.212,0,0,1,.163-.064c.068,0,.123-.029.123-.064s.057-.064.127-.064.127-.029.127-.064.055-.064.121-.064a1.152,1.152,0,0,0,.366-.121c.267-.132.49-.229,1.548-.671.227-.095.506-.213.62-.262.468-.2.626-.269.736-.306.183-.061.088-.192-.185-.253-.137-.031-3.389-.068-7.226-.084l-6.977-.027-.028-.139c-.015-.077-.045-.354-.065-.616s-.091-.877-.158-1.367c-.154-1.14-.258-2.2-.258-2.622v-.333l7.74-.033,15.071-.065c5.252-.023,7.367-.012,7.461.038.144.077.143.169-.009,1.839-.114,1.247-.2,2.168-.252,2.829-.125,1.461.047,1.255-1.656,1.984-.122.052-.344.149-.493.216l-.556.248-.556.248c-.149.066-.37.164-.493.216s-.358.156-.524.229l-.572.254c-.149.066-.485.211-.747.323l-.683.294-.445.193c-.366.157-.8.351-.921.414a.55.55,0,0,1-.207.057c-.053,0-.1.029-.1.064s-.04.064-.089.064a1.213,1.213,0,0,0-.334.12c-.266.13-.689.321-1.039.47-.122.052-.323.139-.445.194-.915.411-2.434,1.059-2.483,1.059a.068.068,0,0,0-.06.074c0,.056,1.424.063,5.839.029,4.963-.038,5.85-.032,5.913.044s.056.328,0,1.068c-.039.538-.083,1.179-.1,1.424s-.083,1.132-.152,1.971-.155,1.912-.192,2.384c-.117,1.519-.182,2.3-.251,3.052-.037.4-.095,1.046-.128,1.43s-.09,1.014-.126,1.4c-.072.76-.159,1.7-.257,2.8-.035.385-.078.957-.1,1.272-.051.835-.079.884-.588,1.016l-1.237.326a9.215,9.215,0,0,1-.934.216.207.207,0,0,0-.157.057.478.478,0,0,1-.242.091,3.57,3.57,0,0,0-.716.171,3.566,3.566,0,0,1-.716.171.478.478,0,0,0-.242.091.4.4,0,0,1-.25.057.387.387,0,0,0-.254.064.319.319,0,0,1-.223.064.327.327,0,0,0-.218.057.581.581,0,0,1-.274.1c-.577.1-.655.118-.688.171a.327.327,0,0,1-.218.057.319.319,0,0,0-.223.064.388.388,0,0,1-.254.064.4.4,0,0,0-.25.057.472.472,0,0,1-.242.089c-.183.028-.776.181-1.447.372-.122.035-.323.087-.445.116s-.451.116-.731.194c-1.43.4-2.2.524-2.289.38a.465.465,0,0,0-.286-.064.465.465,0,0,1-.286-.064.388.388,0,0,0-.254-.064.4.4,0,0,1-.25-.057.479.479,0,0,0-.242-.091c-.114-.019-.329-.065-.477-.1q-.406-.1-1.033-.255c-1.21-.3-2.633-.658-3.055-.778a1.122,1.122,0,0,0-.381-.041,14.384,14.384,0,0,0,2.229.626c.122.028.909.228,1.748.444s1.64.419,1.78.451l.477.108.223.05.017,2.842c.014,2.425.03,2.842.108,2.842a3.057,3.057,0,0,0,.444-.1c.489-.132.986-.268,1.418-.387l.556-.153.556-.153.731-.2.556-.153.556-.153.731-.2,1.114-.306,1.653-.454c.708-.195,1.558-.428,1.89-.518l1.049-.287.779-.214c.42-.114,1.007-.276,1.256-.346.1-.03.405-.111.668-.181,1-.268.89-.085,1.014-1.661.04-.507.1-1.208.132-1.558.132-1.424.191-2.073.254-2.829.036-.437.094-1.081.127-1.43s.091-.979.127-1.4c.1-1.192.192-2.171.254-2.829.032-.332.088-.976.125-1.43s.095-1.113.127-1.462c.07-.743.164-1.789.257-2.861.037-.42.093-1.049.125-1.4.062-.676.146-1.615.254-2.861.037-.42.095-1.063.13-1.43s.162-1.812.284-3.211.248-2.843.283-3.211.093-1.025.131-1.462c.069-.81.142-1.625.253-2.845.034-.376.092-1.027.128-1.446.084-.969.169-1.908.253-2.8.036-.385.073-.9.081-1.144l.015-.445-9.2-.016-9.2-.016v2.666" transform="translate(-95.479 -83.767)" fill="#c2c2c2" fill-rule="evenodd"/>
  <path id="path4" d="M126.437,133.29c5.61.025,7.374.05,7.432.109s.06.246,0,.826a6.585,6.585,0,0,0-.1,1.72,3.939,3.939,0,0,0,.105-.795l.092-1.251c.055-.747.9-.674-7.539-.657l-7.347.015,7.356.032m-22.837.128c0,.035.143.064.318.064s.318-.029.318-.064-.143-.064-.318-.064-.318.029-.318.064m.045,1.065c.048.492.082.5.082.027,0-.216-.027-.392-.059-.392s-.044.157-.023.366m.124,1.271c.054.411.085.421.085.027,0-.181-.028-.329-.062-.329s-.047.12-.023.3m29.915.595c-.007.126-.028.412-.046.636-.026.322-.019.374.034.251a2.111,2.111,0,0,0,.046-.636c-.012-.264-.027-.377-.034-.251m-29.785.359c.051.33.082.34.082.026,0-.146-.027-.265-.06-.265s-.043.106-.023.238m.106.795a2.467,2.467,0,0,1,.04.461c0,.331.083.544.171.45.028-.03.015-.067-.028-.083s-.079-.18-.079-.5-.025-.472-.071-.472-.056.057-.033.143m29.552.245c-.007.126-.028.412-.046.636-.026.322-.019.374.034.251a2.11,2.11,0,0,0,.046-.636c-.012-.264-.027-.377-.034-.251m-16.347.716a5.007,5.007,0,0,0,1.266.035,1.85,1.85,0,0,0-.646-.058,3.876,3.876,0,0,0-.62.023m1.357.231c0,.07.037.127.082.127s.082-.057.082-.127-.037-.127-.082-.127-.082.057-.082.127m14.83.468a11.77,11.77,0,0,1-1.517.739c-1.817.8-1.97.867-2.392,1.058a3.5,3.5,0,0,1-.367.152c-.017,0-.273.114-.569.254s-.549.254-.563.254a1.236,1.236,0,0,0-.467.231,8.878,8.878,0,0,0,1.793-.739c.175-.078.418-.184.54-.236s.344-.149.493-.216l.556-.248.556-.248c.149-.066.37-.164.493-.216,1.149-.492,1.526-.686,1.526-.784s-.04-.113-.083,0m-16.288.21-.651.285a1.68,1.68,0,0,1-.33.119.141.141,0,0,0-.1.066c-.027.043.021.051.139.022a.372.372,0,0,0,.2-.1c.012-.03.076-.054.143-.054s.122-.029.122-.064.086-.064.191-.064.191-.029.191-.064.057-.064.127-.064.127-.029.127-.064.057-.064.127-.064.127-.029.127-.064c0-.081.031-.089-.413.105m-5.913,2.565c-.239.111-.244.118-.079.122.1,0,.175-.024.175-.059s.057-.064.127-.064.127-.029.127-.064c0-.085-.049-.076-.35.064m15.767.125c-.21.1-.351.185-.314.188a1.233,1.233,0,0,0,.331-.122,1.5,1.5,0,0,1,.326-.127.139.139,0,0,0,.1-.064c.061-.1-.032-.073-.445.125m-16.546.174c-.079.015-.143.054-.143.087s-.055.059-.123.059a.211.211,0,0,0-.154.05c-.017.028.067.039.187.025s.218-.051.218-.082.057-.057.127-.057.127-.029.127-.064-.021-.06-.048-.055l-.191.036m15.815.146c-.122.067-.191.123-.153.124a1.231,1.231,0,0,0,.471-.224c0-.052-.1-.021-.318.1m-16.848.318c0,.035.043.064.1.064s.1-.029.1-.064-.043-.064-.1-.064-.1.029-.1.064m15.449.291-.985.436c-.1.047-.405.177-.668.29s-.606.262-.763.332l-.636.28c-.192.084-.483.217-.646.295l-.3.142,6.05.032,6.05.032.039.254.039.254.009-.262c.015-.44.413-.415-5.993-.366-4.4.034-5.823.027-5.823-.029a.068.068,0,0,1,.06-.074c.048,0,1.5-.618,2.467-1.052.114-.051.314-.138.445-.195.384-.164.792-.349,1.055-.478a1.213,1.213,0,0,1,.334-.12c.049,0,.089-.029.089-.064,0-.082.084-.111-.826.291m-18.087.853c-.022.035.02.064.092.064s.131-.029.131-.064-.041-.064-.092-.064a.168.168,0,0,0-.131.064m-.858.381c-.077.05-.068.062.048.063.079,0,.143-.028.143-.063,0-.08-.067-.08-.191,0m-.779.328c-.276.122-.4.244-.238.244a.064.064,0,0,0,.064-.064c0-.035.057-.064.127-.064s.127-.029.127-.064.057-.064.127-.064.127-.029.127-.064c0-.079.025-.084-.334.074m27.775,1.63a2.959,2.959,0,0,0-.02.625,2.375,2.375,0,0,0,.1-.931c-.016-.217-.034-.144-.076.306m-28.076-.1c0,.182.124.274.125.1,0-.1-.028-.175-.063-.175a.072.072,0,0,0-.063.079m27.953,1.732c-.026.315-.074.873-.107,1.24s-.091,1.082-.128,1.589-.094,1.222-.127,1.589-.091,1.039-.128,1.494-.1,1.127-.13,1.494c-.135,1.468-.187,2.035-.251,2.766-.037.42-.094,1.049-.126,1.4s-.091,1.008-.131,1.462-.092.984-.115,1.176l-.042.35-.318.084c-.175.046-.413.108-.529.137-.268.068-.363.161-.106.1,1.093-.24,1.083-.23,1.14-1.152.019-.315.063-.887.1-1.271.1-1.095.184-2.037.257-2.8.036-.385.093-1.014.126-1.4s.091-1.028.128-1.43c.069-.747.134-1.532.251-3.052.036-.472.125-1.553.2-2.4s.121-1.636.109-1.748-.043.053-.069.367m-27.826-.238c0,.139.124.232.125.1,0-.079-.028-.143-.063-.143s-.063.021-.063.048m.127,1.208c0,.139.124.232.125.1,0-.079-.028-.143-.063-.143s-.063.021-.063.048m.126,1.188a.168.168,0,0,0,.064.131c.035.022.064-.02.064-.092s-.029-.131-.064-.131-.064.041-.064.092m1.144.359a8.269,8.269,0,0,0,1.775-.045,7.69,7.69,0,0,0-.874-.024c-.6,0-.9.023-.9.069m12.728.043a24.8,24.8,0,0,0,3.629.079c1.96,0,3.542-.021,3.515-.048-.09-.09-7.219-.121-7.145-.032m7.092.683a5.826,5.826,0,0,0-.039.826l.008.572.056-.6a7.334,7.334,0,0,0,.039-.827l-.017-.223-.047.254m-.127,1.907a5.828,5.828,0,0,0-.039.826l.008.572.056-.6a7.341,7.341,0,0,0,.039-.826l-.017-.223-.047.254m-20.329.922c0,.038.233.064.572.064s.572-.026.572-.064-.233-.064-.572-.064-.572.026-.572.064m4.832,0c0,.035.079.063.175.063.136,0,.154-.015.079-.063-.124-.08-.254-.08-.254,0m.513.238c0,.114.024.207.059.207.075,0,.075-.11,0-.286-.046-.107-.055-.094-.059.079m14.857.747a5.832,5.832,0,0,0-.039.827l.008.572.056-.6a7.333,7.333,0,0,0,.039-.826l-.017-.223-.047.254m-20.165.207q.089.495.09.027c0-.146-.03-.265-.066-.265s-.051.087-.023.238m5.437.413c0,.131.022.238.057.238.073,0,.073-.091,0-.318-.045-.142-.052-.133-.057.079m-5.339,1.176c.024.35.1.488.112.191,0-.166-.021-.3-.056-.3s-.06.05-.056.111m19.938.2a3.022,3.022,0,0,0-.046.514c0,.3,0,.3-.27.381-.149.045-.327.1-.4.13s-.256.084-.413.126a2.732,2.732,0,0,0-.4.134.689.689,0,0,1-.266.057.267.267,0,0,0-.2.064.258.258,0,0,1-.191.064.257.257,0,0,0-.195.07c-.028.045,0,.059.076.037.16-.045,1.35-.4,1.879-.564l.425-.13.042-.393c.053-.5.019-.818-.051-.49m-14.473.087c0,.131.024.238.059.238.076,0,.076-.173,0-.35-.044-.1-.055-.08-.059.111m-5.338,1.208c.021.269.108.389.114.159,0-.131-.022-.238-.057-.238a.067.067,0,0,0-.057.079m5.462.223c0,.079.028.143.063.143.08,0,.08-.067,0-.191-.05-.077-.062-.068-.063.048m11.537.146c-.027.043.021.051.139.023.244-.058.267-.089.067-.089a.284.284,0,0,0-.207.066m-.443.125c-.047.076.078.076.254,0,.114-.049.109-.055-.044-.059a.286.286,0,0,0-.21.059m-.413.127c-.126.082.032.082.223,0l.127-.055-.127,0a.459.459,0,0,0-.223.058m-9.219.064c0,.035.043.064.1.064s.1-.029.1-.064-.043-.064-.1-.064-.1.029-.1.064m8.805.064c-.05.081.1.081.223,0,.078-.05.069-.062-.044-.063a.236.236,0,0,0-.179.063m-8.17.064c0,.035.043.064.1.064s.1-.029.1-.064-.043-.064-.1-.064-.1.029-.1.064m7.724.064c-.047.076.078.076.254,0,.113-.049.109-.055-.044-.059a.286.286,0,0,0-.21.059m-.413.127c-.126.082.032.082.223,0l.127-.055-.127,0a.459.459,0,0,0-.223.058m-14.743.111c.017.3.108.429.114.159,0-.149-.022-.27-.057-.27s-.061.05-.057.111m14.33.016c-.05.081.1.081.223,0,.078-.05.069-.062-.044-.063a.236.236,0,0,0-.179.063m-4.927.064c0,.035.059.064.131.064s.113-.029.092-.064a.168.168,0,0,0-.131-.064c-.05,0-.092.029-.092.064m4.151.151a2.211,2.211,0,0,0-.534.213c-.041.041.122.01.363-.07s.539-.176.661-.213.165-.068.1-.068a3.573,3.573,0,0,0-.586.137m-3.515-.024c0,.035.059.064.131.064s.113-.029.092-.064a.168.168,0,0,0-.131-.064c-.05,0-.092.029-.092.064m1.4.254c0,.035.064.063.143.063.116,0,.125-.013.048-.063-.123-.08-.191-.08-.191,0m.572.127c0,.035.079.063.175.063.136,0,.154-.015.079-.063-.124-.08-.254-.08-.254,0m-11.882.524c.021.269.108.389.114.159,0-.131-.022-.238-.057-.238a.067.067,0,0,0-.057.079m.163,1.144c.055.29.085.3.085.027,0-.128-.028-.233-.062-.233s-.045.088-.023.207m.085.705a.441.441,0,0,0,.307.3.07.07,0,0,0,.075-.064c0-.035-.057-.064-.127-.064a.112.112,0,0,1-.127-.127c0-.07-.029-.127-.064-.127s-.064.038-.064.085m1.144.487c.123.08.191.08.191,0,0-.035-.064-.063-.143-.063-.116,0-.125.013-.048.063m22.315.055a4.741,4.741,0,0,1-.593.171c-.274.066-.467.13-.428.143a9.154,9.154,0,0,0,1.4-.344c.05-.048-.281-.022-.376.029m-1.43.39c-.113.049-.109.055.044.059a.286.286,0,0,0,.21-.059c.047-.076-.078-.076-.254,0m-.445.127-.127.055.127,0a.458.458,0,0,0,.222-.058c.126-.082-.032-.082-.222,0m-.509.127c-.114.049-.109.055.044.059a.286.286,0,0,0,.21-.059c.047-.076-.078-.076-.254,0m-.477.127-.159.051.159.005a.524.524,0,0,0,.254-.056c.121-.079-.009-.079-.254,0m-.509.127c-.152.049-.15.051.044.057a.347.347,0,0,0,.242-.057c.045-.073-.058-.073-.286,0m-.445.127-.159.051.171.006a.282.282,0,0,0,.21-.057c.045-.072,0-.072-.223,0m-1.017.26c-.367.1-.753.211-.858.243l-.191.058.2.006a.349.349,0,0,0,.242-.058.319.319,0,0,1,.223-.064.327.327,0,0,0,.218-.057.582.582,0,0,1,.274-.1c.577-.1.655-.118.688-.171.052-.084-.065-.064-.8.139m-12.136.064a.533.533,0,0,0,.235.057.67.67,0,0,1,.254.056c.186.1.584.147.584.075,0-.037-.112-.066-.249-.066s-.258-.024-.27-.055a.687.687,0,0,0-.332-.088c-.19-.021-.276-.012-.223.022m1.3.312c.176.075.286.075.286,0,0-.035-.093-.062-.207-.059-.173,0-.186.013-.079.059m8.9.139c-.658.178-.963.259-2.082.556-1.585.42-1.849.474-2.08.428-.124-.025-.184-.016-.16.023.088.143.861.014,2.288-.381.28-.078.609-.165.731-.194s.323-.082.445-.117c.671-.191,1.264-.344,1.447-.372a.472.472,0,0,0,.242-.089c.051-.082-.054-.064-.831.146m-8.392-.012c.174.074.223.074.223,0,0-.035-.079-.062-.175-.059-.155,0-.16.011-.048.059m.355.086c.076.066.376.1.376.042,0-.036-.091-.065-.2-.065s-.189.01-.175.023m.63.168c.124.08.254.08.254,0,0-.035-.079-.063-.175-.063-.136,0-.154.015-.079.063m.509.127c.124.08.254.08.254,0,0-.035-.079-.063-.175-.063-.136,0-.154.015-.079.063" transform="translate(-96.289 -112.056)" fill="#67c2e8" fill-rule="evenodd"/>
</svg>
