<svg id="image2vector" xmlns="http://www.w3.org/2000/svg" width="59.588" height="59.588" viewBox="0 0 59.588 59.588">
  <path id="path0" d="M135.042,181.868a9.918,9.918,0,0,0-1.7.271l-.507.14a7.978,7.978,0,0,0-2.213,1.079c-.152.115-.336.249-.409.3a8.215,8.215,0,0,0-.869.844,7.594,7.594,0,0,0-.666.917,10.621,10.621,0,0,0-.61,1.287,3.062,3.062,0,0,1-.114.434,7.868,7.868,0,0,0-.244,3.1c.031.2.085.543.119.77a5.52,5.52,0,0,0,.161.715,7.268,7.268,0,0,0,.394,1.03c.029.04.124.214.211.387a4.091,4.091,0,0,0,.456.741c.033.037.114.143.179.234a6.762,6.762,0,0,0,1.122,1.136c.235.188.454.37.487.405a11.284,11.284,0,0,0,1.43.91c.468.253,1.7.852,2.115,1.028.324.138.681.291,1.058.454l.387.167c.607.262.857.379,1.5.7a5.371,5.371,0,0,1,1.4.828c0,.031.037.057.082.057a1,1,0,0,1,.331.283c1.534,1.738.8,3.805-1.635,4.608a8.545,8.545,0,0,1-2.953.043,4.563,4.563,0,0,0-.444-.136,4.291,4.291,0,0,1-.911-.379,5.554,5.554,0,0,1-1.946-1.579,2.9,2.9,0,0,1-.258-.328c-.056-.087-.123-.185-.149-.218s-.128-.172-.226-.309c-.208-.291-.3-.282-.851.079a1.5,1.5,0,0,1-.375.2.1.1,0,0,0-.091.047,4.733,4.733,0,0,1-.868.524c-.156.082-.364.2-.462.266s-.246.15-.328.192-.256.144-.387.229a7.943,7.943,0,0,1-.745.422,1.2,1.2,0,0,0-.228.152.263.263,0,0,1-.134.075c-.2,0,.36,1.124.788,1.571a1.828,1.828,0,0,1,.169.221,11.7,11.7,0,0,0,1.639,1.6c.262.2.519.392.571.435a4.538,4.538,0,0,0,.77.45,1.583,1.583,0,0,1,.348.209.086.086,0,0,0,.073.045,2.26,2.26,0,0,1,.368.139,10.549,10.549,0,0,0,2.4.759,4.884,4.884,0,0,1,.566.125,16.3,16.3,0,0,0,6.3-.462,1.034,1.034,0,0,1,.246-.084,7.24,7.24,0,0,0,1.205-.537,1.077,1.077,0,0,1,.179-.107,6.025,6.025,0,0,0,.573-.342,7.558,7.558,0,0,0,1.725-1.7c.1-.147.187-.282.2-.3a7.264,7.264,0,0,0,.961-2.5c.028-.214.078-.563.111-.776a9.242,9.242,0,0,0-.175-2.83,6.616,6.616,0,0,0-1.01-2.413c-.087-.115-.209-.288-.269-.384-.651-1.035-3.252-2.813-5.366-3.669-.21-.085-.708-.3-.96-.421a1.252,1.252,0,0,0-.335-.114.255.255,0,0,1-.165-.089.253.253,0,0,0-.163-.089,1.027,1.027,0,0,1-.306-.11c-.119-.06-.31-.152-.425-.2-.3-.134-1.319-.638-1.46-.721a4.614,4.614,0,0,1-.566-.381l-.271-.241a2.644,2.644,0,0,1-.33-3.468c.24-.3.484-.532.566-.535a.353.353,0,0,0,.149-.079,3.927,3.927,0,0,1,3.416.032,5.012,5.012,0,0,1,1.664,1.759c.08.156.2.139.526-.074.824-.536,1.425-.918,1.551-.984a.748.748,0,0,0,.177-.119,2.305,2.305,0,0,1,.328-.213c.164-.095.325-.195.358-.223s.348-.237.7-.466a2.545,2.545,0,0,0,.641-.5.82.82,0,0,0-.185-.384.883.883,0,0,1-.112-.175,1.61,1.61,0,0,0-.129-.209c-.029-.035-.135-.171-.236-.3a7.616,7.616,0,0,0-1.278-1.369c-.162-.13-.308-.252-.325-.271a5.052,5.052,0,0,0-.864-.564c-.1-.051-.219-.115-.268-.144s-.237-.111-.417-.184-.408-.166-.506-.207a6.677,6.677,0,0,0-1.244-.33,4.841,4.841,0,0,1-.582-.085,12.186,12.186,0,0,0-2.435-.094m-17.653.381c-.1.075-.1.614-.1,9.847,0,9.495-.02,10.67-.182,10.834a.244.244,0,0,0-.057.149c0,.543-.8,1.332-1.612,1.6a5.187,5.187,0,0,1-2.152.045,1.644,1.644,0,0,0-.338-.123.53.53,0,0,1-.25-.125.228.228,0,0,0-.126-.086,3.49,3.49,0,0,1-1.1-.983,3.181,3.181,0,0,0-.21-.268c-.02-.016-.163-.251-.319-.522-.329-.573-.435-.655-.637-.5-.077.06-.364.24-.638.4s-.6.353-.715.427-.271.161-.337.193-.329.193-.586.357a3.778,3.778,0,0,1-.516.3.083.083,0,0,0-.07.048,3.867,3.867,0,0,1-.556.359c-.714.414-.756.448-.705.583a10.477,10.477,0,0,0,1.857,2.549c.078.062.186.158.24.211a6.416,6.416,0,0,0,.744.6,1.781,1.781,0,0,1,.29.172,10.034,10.034,0,0,0,1.418.717,9.423,9.423,0,0,0,1.341.4c.229.046.538.11.685.142a18.6,18.6,0,0,0,3.739-.06,9.754,9.754,0,0,0,2.19-.676.836.836,0,0,1,.253-.094c.041,0,.074-.024.074-.053s.087-.088.194-.132a1.232,1.232,0,0,0,.264-.141c.039-.034.208-.156.376-.271a6.652,6.652,0,0,0,1.729-1.893l.253-.453a1.632,1.632,0,0,0,.163-.351,1.429,1.429,0,0,1,.112-.305,9.226,9.226,0,0,0,.6-2.741c.09-1.193.077-20.074-.014-20.165a42.914,42.914,0,0,0-5.306.011" transform="translate(-90.351 -154.755)" fill="none" fill-rule="evenodd"/>
  <path id="path1" d="M4.41.06c0,.033-.137.06-.3.06-.253,0-.309.02-.335.119s-.081.119-.2.119c-.1,0-.188.038-.208.089s-.111.089-.233.089c-.146,0-.208.031-.236.119S2.8.775,2.684.775,2.507.81,2.484.9c-.019.074-.06.108-.1.083s-.081.009-.1.083a.163.163,0,0,1-.138.125,2.1,2.1,0,0,0-.745.716c-.021.065-.076.118-.123.118a.1.1,0,0,0-.085.112.162.162,0,0,1-.125.145c-.074.019-.108.06-.083.1s-.009.081-.083.1c-.09.023-.125.08-.125.2s-.037.18-.119.206-.119.09-.119.236c0,.121-.035.212-.089.233s-.089.108-.089.208c0,.123-.034.183-.119.2s-.119.081-.119.335c0,.167-.027.3-.06.3S0,12.911,0,29.794.02,55.179.06,55.179s.06.137.06.3c0,.253.02.309.119.335s.119.081.119.226c0,.119.035.209.089.23s.089.11.089.22c0,.136.032.195.119.217.1.027.152.154.127.327,0,.022.048.058.113.079s.1.065.082.1.02.074.088.092a.162.162,0,0,1,.125.145.1.1,0,0,0,.089.112.09.09,0,0,1,.089.089,2.008,2.008,0,0,0,.772.745.106.106,0,0,1,.122.119.105.105,0,0,0,.119.119c.066,0,.119.04.119.089s.059.089.175.089.186.036.213.119.09.119.242.119c.135,0,.2.028.2.083,0,.09.125.155.3.155a.161.161,0,0,1,.142.089c.024.063.123.089.334.089.165,0,.3.027.3.06s8.5.06,25.385.06,25.385-.02,25.385-.06.135-.06.3-.06c.211,0,.31-.026.334-.089s.108-.089.206-.089a.284.284,0,0,0,.246-.119.249.249,0,0,1,.174-.119c.164,0,.288-.067.288-.155,0-.052.065-.083.172-.083s.187-.038.207-.089a.144.144,0,0,1,.121-.089c.048,0,.1-.054.125-.119a.162.162,0,0,1,.127-.119,2.126,2.126,0,0,0,.737-.736.094.094,0,0,1,.089-.1c.05,0,.089-.053.089-.119a.105.105,0,0,1,.119-.119c.067,0,.119-.04.119-.091a.147.147,0,0,1,.089-.125.157.157,0,0,0,.089-.138.479.479,0,0,1,.119-.241.5.5,0,0,0,.119-.263.269.269,0,0,1,.119-.2.284.284,0,0,0,.119-.246c0-.1.039-.187.089-.206s.089-.123.089-.334c0-.165.027-.3.06-.3s.06-8.5.06-25.385-.02-25.385-.06-25.385-.06-.135-.06-.3c0-.211-.026-.31-.089-.334a.161.161,0,0,1-.089-.142c0-.172-.065-.3-.155-.3-.055,0-.083-.069-.083-.2s-.035-.215-.084-.234a.331.331,0,0,1-.124-.215c-.022-.1-.078-.183-.125-.183s-.085-.054-.085-.119a.105.105,0,0,0-.119-.119.105.105,0,0,1-.119-.119c0-.066-.04-.119-.089-.119a.09.09,0,0,1-.089-.089,2.382,2.382,0,0,0-.728-.745.245.245,0,0,1-.154-.122c-.042-.067-.1-.107-.129-.088s-.07-.02-.091-.086S57.06.78,57.037.783c-.172.025-.3-.025-.327-.127-.023-.087-.081-.119-.217-.119-.111,0-.2-.036-.22-.089s-.111-.089-.23-.089c-.145,0-.2-.031-.226-.119s-.081-.119-.335-.119c-.167,0-.3-.027-.3-.06S46.677,0,29.794,0,4.41.02,4.41.06M47.581,27.054c.131.037.371.092.533.121a5.828,5.828,0,0,1,1.076.326c.622.268.787.343.894.4l.238.131a8.215,8.215,0,0,1,1.759,1.408c.18.207.373.417.431.467a.31.31,0,0,1,.1.137.423.423,0,0,0,.1.161,1.787,1.787,0,0,1,.314.425.864.864,0,0,0,.113.175,1.24,1.24,0,0,1,.338.687,1.531,1.531,0,0,1-.606.5.27.27,0,0,0-.1.06,6.734,6.734,0,0,1-.933.6c-.034,0-.062.02-.062.045a1.076,1.076,0,0,1-.313.22c-.172.1-.34.2-.372.224a2.7,2.7,0,0,1-.569.345.06.06,0,0,0-.057.062c0,.034-.046.079-.1.1a4.045,4.045,0,0,0-.444.266,2.733,2.733,0,0,1-.379.227.323.323,0,0,0-.126.089c-.209.209-.406.116-.714-.34a6.344,6.344,0,0,0-1.244-1.332,2.655,2.655,0,0,0-.842-.382,1.636,1.636,0,0,1-.38-.091,3.042,3.042,0,0,0-2.131.251c-.328.153-.908.675-.908.818a.116.116,0,0,1-.05.1,3.2,3.2,0,0,0-.307,1.092,2.705,2.705,0,0,0,1,1.968c.179.13.376.284.439.341a.392.392,0,0,0,.2.1.161.161,0,0,1,.125.063,7.6,7.6,0,0,0,1.279.634c.18.08.438.2.573.261a1.725,1.725,0,0,0,.285.115,4.441,4.441,0,0,1,.47.2c.237.109.578.26.758.337A23.133,23.133,0,0,1,51.9,40.52a.523.523,0,0,0,.128.094,9.453,9.453,0,0,1,1.54,1.453,5.38,5.38,0,0,1,.576.806,9.829,9.829,0,0,1,.616,1.317.742.742,0,0,0,.084.25,1.825,1.825,0,0,1,.127.459,2.764,2.764,0,0,0,.1.446,12.951,12.951,0,0,1,0,3.525c-.034.109-.087.32-.119.467a7.13,7.13,0,0,1-2.012,3.374c-.22.193-.442.4-.493.455a.3.3,0,0,1-.162.1.256.256,0,0,0-.148.1.658.658,0,0,1-.2.15,2.855,2.855,0,0,0-.3.169,9.9,9.9,0,0,1-1.358.658.452.452,0,0,0-.193.081,1.069,1.069,0,0,1-.338.121,1.66,1.66,0,0,0-.387.127.868.868,0,0,1-.334.087,1.927,1.927,0,0,0-.447.089,16.692,16.692,0,0,1-5.652,0,2.273,2.273,0,0,0-.417-.087,5.381,5.381,0,0,1-1.113-.334.793.793,0,0,0-.262-.084,11.637,11.637,0,0,1-2.043-1.01,1.2,1.2,0,0,0-.2-.12,1.721,1.721,0,0,1-.316-.223.678.678,0,0,0-.182-.136,11.774,11.774,0,0,1-2.324-2.475c-.761-1.25-.8-1.1.421-1.777.168-.093.347-.2.4-.239a3.536,3.536,0,0,1,.387-.217,2.528,2.528,0,0,0,.328-.182c.016-.019.439-.269.939-.557s.924-.547.942-.577a.2.2,0,0,1,.149-.054c.064,0,.116-.024.116-.054,0-.065.352-.2.418-.154a2.686,2.686,0,0,1,.267.361,5.974,5.974,0,0,0,5.093,2.991,3.551,3.551,0,0,0,.924-.046,4.984,4.984,0,0,1,.538-.119,3.412,3.412,0,0,0,.924-.3,3.031,3.031,0,0,1,.307-.193,2.469,2.469,0,0,0,.448-3.791A8.113,8.113,0,0,0,46.388,44.1a.279.279,0,0,1-.158-.074,2.317,2.317,0,0,0-.683-.306,1.246,1.246,0,0,1-.268-.135.794.794,0,0,0-.23-.108,4.24,4.24,0,0,1-.417-.162c-.147-.065-.322-.141-.387-.168-.415-.17-1.137-.494-1.341-.6-.112-.059-.655-.324-.775-.377-.049-.022-.187-.1-.306-.171-.225-.136-.769-.469-.973-.595A8.449,8.449,0,0,1,37.625,37.5a.809.809,0,0,0-.091-.237,6.926,6.926,0,0,1-.3-1.187,19.51,19.51,0,0,1,0-3.069,4.849,4.849,0,0,1,.313-1.1.236.236,0,0,0,.057-.145,1.248,1.248,0,0,1,.112-.331c.062-.133.129-.282.15-.332s.1-.2.183-.328.17-.293.2-.36a.681.681,0,0,1,.152-.2.263.263,0,0,0,.1-.126.91.91,0,0,1,.164-.241,7.234,7.234,0,0,1,2.547-2.014c.295-.142.59-.287.655-.322a1.55,1.55,0,0,1,.328-.108,3.684,3.684,0,0,0,.447-.136,1.572,1.572,0,0,1,.45-.094.512.512,0,0,0,.272-.063,17.638,17.638,0,0,1,4.224-.059m-15.085.23c.146.121.153,20.106.007,20.953a8.527,8.527,0,0,1-.654,2.423.688.688,0,0,0-.089.249.291.291,0,0,1-.081.172.638.638,0,0,0-.125.218c-.227.715-2.339,2.807-2.833,2.807a.907.907,0,0,0-.252.119.808.808,0,0,1-.3.119c-.057,0-.1.026-.1.057s-.114.087-.253.123a3.23,3.23,0,0,0-.441.151.994.994,0,0,1-.328.087,1.565,1.565,0,0,0-.385.086,13.506,13.506,0,0,1-5.056,0,1.565,1.565,0,0,0-.389-.085.839.839,0,0,1-.315-.088,1.6,1.6,0,0,0-.37-.125.562.562,0,0,1-.273-.121.253.253,0,0,0-.166-.084,1.663,1.663,0,0,1-.425-.175l-.507-.269a7.829,7.829,0,0,1-2.175-1.817.06.06,0,0,0-.058-.062,6.684,6.684,0,0,1-.982-1.411.734.734,0,0,0-.148-.226c-.255-.158-.164-.644.153-.807a1.174,1.174,0,0,0,.2-.123,4.226,4.226,0,0,1,.379-.238c.192-.113.447-.264.566-.336s.257-.151.306-.175.211-.126.361-.226a5.233,5.233,0,0,1,.682-.424c.1-.049.259-.143.358-.208a3.54,3.54,0,0,1,.372-.207c.107-.05.194-.111.194-.136s.074-.078.164-.117a2.9,2.9,0,0,0,.343-.188c.363-.235.493-.16.817.471a1.733,1.733,0,0,0,.123.209c.026.033.132.194.237.358a5.708,5.708,0,0,0,1.279,1.281.946.946,0,0,1,.226.1,3.929,3.929,0,0,0,3.173-.2c.041-.038.135-.119.209-.179a2.57,2.57,0,0,0,.687-1.3c.094-.383.1-1.25.132-10.5.02-6.6.051-10.1.09-10.139.114-.109.316-.116,2.926-.107a13.366,13.366,0,0,1,2.726.091" transform="translate(0 0)" fill="#fff" fill-rule="evenodd"/>
  <path id="path2" d="M133.243,181.009a1.644,1.644,0,0,0-.5.115.512.512,0,0,1-.272.063,1.572,1.572,0,0,0-.45.094,3.682,3.682,0,0,1-.447.136,1.55,1.55,0,0,0-.328.108c-.066.035-.36.18-.655.322a7.233,7.233,0,0,0-2.547,2.014.91.91,0,0,0-.164.241.263.263,0,0,1-.1.126.681.681,0,0,0-.152.2c-.031.067-.122.229-.2.36s-.162.279-.183.328-.089.2-.15.332a1.249,1.249,0,0,0-.112.331.235.235,0,0,1-.057.145,4.848,4.848,0,0,0-.313,1.1,19.507,19.507,0,0,0,0,3.069,6.924,6.924,0,0,0,.3,1.187.808.808,0,0,1,.091.237,8.449,8.449,0,0,0,3.225,3.892c.2.126.748.459.973.595.119.072.257.149.306.171.119.054.662.319.775.378.2.107.926.431,1.341.6.066.027.24.1.387.168a4.246,4.246,0,0,0,.417.162.794.794,0,0,1,.23.108,1.248,1.248,0,0,0,.268.135,2.316,2.316,0,0,1,.683.306.279.279,0,0,0,.158.074,8.114,8.114,0,0,1,2.277,1.376,2.469,2.469,0,0,1-.448,3.791,3.029,3.029,0,0,0-.307.193,3.41,3.41,0,0,1-.924.3,4.988,4.988,0,0,0-.538.119,3.551,3.551,0,0,1-.924.046,5.974,5.974,0,0,1-5.093-2.991,2.69,2.69,0,0,0-.267-.36c-.066-.041-.418.089-.418.154,0,.03-.052.054-.116.054a.2.2,0,0,0-.149.054c-.018.029-.442.289-.942.577s-.922.538-.939.557a2.528,2.528,0,0,1-.328.182,3.529,3.529,0,0,0-.387.217c-.049.038-.227.145-.4.239-1.137.631-1.127.613-.733,1.262l.313.515a11.773,11.773,0,0,0,2.324,2.475.678.678,0,0,1,.182.136,1.722,1.722,0,0,0,.316.223,1.2,1.2,0,0,1,.2.12,8.1,8.1,0,0,0,.983.547,4.565,4.565,0,0,0,1.059.463.793.793,0,0,1,.262.084,5.378,5.378,0,0,0,1.113.334,2.271,2.271,0,0,1,.417.087,16.691,16.691,0,0,0,5.651,0,1.927,1.927,0,0,1,.447-.089.868.868,0,0,0,.334-.087,1.662,1.662,0,0,1,.387-.127,1.068,1.068,0,0,0,.338-.121.452.452,0,0,1,.193-.081,9.9,9.9,0,0,0,1.358-.658,2.843,2.843,0,0,1,.3-.169.657.657,0,0,0,.2-.15.256.256,0,0,1,.148-.1.3.3,0,0,0,.162-.1c.051-.057.273-.262.493-.455a7.13,7.13,0,0,0,2.012-3.374c.031-.147.085-.358.119-.467a12.953,12.953,0,0,0,0-3.525,2.766,2.766,0,0,1-.1-.446,1.822,1.822,0,0,0-.127-.459.742.742,0,0,1-.084-.25,9.827,9.827,0,0,0-.616-1.317,5.376,5.376,0,0,0-.576-.806,9.456,9.456,0,0,0-1.54-1.453.522.522,0,0,1-.128-.094,23.133,23.133,0,0,0-3.933-2.147c-.18-.077-.521-.228-.758-.337a4.441,4.441,0,0,0-.47-.2,1.722,1.722,0,0,1-.285-.115c-.135-.063-.392-.181-.573-.261a7.6,7.6,0,0,1-1.279-.634.161.161,0,0,0-.125-.063.392.392,0,0,1-.2-.1c-.063-.057-.261-.211-.439-.341a2.705,2.705,0,0,1-1-1.968,3.2,3.2,0,0,1,.307-1.092.116.116,0,0,0,.05-.1c0-.143.58-.665.908-.818a3.042,3.042,0,0,1,2.131-.251,1.637,1.637,0,0,0,.38.091,2.654,2.654,0,0,1,.842.382,6.345,6.345,0,0,1,1.244,1.332c.308.456.5.549.714.34a.323.323,0,0,1,.126-.089,2.732,2.732,0,0,0,.379-.227,4.044,4.044,0,0,1,.444-.266c.056-.022.1-.067.1-.1a.06.06,0,0,1,.057-.062,2.7,2.7,0,0,0,.569-.345c.033-.027.2-.128.372-.224a1.076,1.076,0,0,0,.313-.22c0-.025.028-.045.062-.045a6.738,6.738,0,0,0,.933-.6.27.27,0,0,1,.1-.06,1.531,1.531,0,0,0,.606-.5,1.24,1.24,0,0,0-.338-.687.867.867,0,0,1-.113-.175,1.788,1.788,0,0,0-.314-.425.423.423,0,0,1-.1-.161.31.31,0,0,0-.1-.137c-.057-.05-.251-.261-.431-.467a8.215,8.215,0,0,0-1.759-1.408l-.238-.131c-.106-.059-.272-.133-.894-.4a5.826,5.826,0,0,0-1.076-.326c-.162-.03-.4-.084-.533-.121a27.913,27.913,0,0,0-3.721-.057m3.661.146a7.964,7.964,0,0,1,4.856,2.77c.147.18.282.341.3.358a6.245,6.245,0,0,1,.714,1.185c0,.082-.087.178-.253.282-.139.087-.562.357-.939.6s-1.168.751-1.758,1.128-1.1.71-1.129.74c-.14.138-.276.037-.588-.436a3.455,3.455,0,0,0-3.229-1.8c-1.766,0-2.825,1.024-2.693,2.6.114,1.36.876,2.05,3.517,3.184.5.213.984.423,1.082.467l.477.208c5.28,2.288,7.24,4.645,7.24,8.709,0,3.754-2.06,6.361-5.9,7.463a14.527,14.527,0,0,1-6.5.107,6.472,6.472,0,0,1-1.231-.338.958.958,0,0,0-.259-.087,11.422,11.422,0,0,1-2.681-1.423c-1.4-1.024-3.2-3.324-2.873-3.654.124-.123,4.3-2.55,4.391-2.55a2.726,2.726,0,0,1,.449.549,5.839,5.839,0,0,0,5.085,2.788c2.586,0,4.1-1.3,3.8-3.248-.191-1.223-1.167-2.016-3.882-3.154-.213-.089-.468-.2-.566-.242s-.474-.206-.834-.36c-4.994-2.134-6.885-4.47-6.881-8.5,0-3.851,2.406-6.618,6.375-7.344a14.608,14.608,0,0,1,3.9,0m-20.5.07a.479.479,0,0,0-.179.087c-.039.037-.07,3.535-.09,10.139-.028,9.25-.039,10.117-.132,10.5a2.57,2.57,0,0,1-.687,1.3c-.074.06-.168.14-.209.179a3.929,3.929,0,0,1-3.173.2.947.947,0,0,0-.226-.1,5.709,5.709,0,0,1-1.279-1.281c-.1-.164-.211-.325-.237-.358a1.729,1.729,0,0,1-.123-.209c-.324-.631-.454-.706-.817-.471a2.91,2.91,0,0,1-.343.188c-.09.039-.164.092-.164.117s-.087.086-.194.136a3.537,3.537,0,0,0-.372.207c-.1.065-.259.158-.358.208a5.233,5.233,0,0,0-.682.424c-.149.1-.311.2-.361.226s-.187.1-.306.175-.374.223-.566.336a4.223,4.223,0,0,0-.379.238,1.175,1.175,0,0,1-.2.123c-.316.163-.408.649-.153.807a.733.733,0,0,1,.148.226,6.684,6.684,0,0,0,.982,1.411.06.06,0,0,1,.058.062,7.828,7.828,0,0,0,2.175,1.817l.507.269a1.665,1.665,0,0,0,.425.175.253.253,0,0,1,.166.084.562.562,0,0,0,.273.121,1.6,1.6,0,0,1,.37.125.838.838,0,0,0,.315.088,1.567,1.567,0,0,1,.389.085,13.506,13.506,0,0,0,5.056,0,1.566,1.566,0,0,1,.385-.086,1,1,0,0,0,.328-.087,3.236,3.236,0,0,1,.441-.151c.139-.036.253-.091.253-.123s.047-.058.1-.058a.807.807,0,0,0,.3-.119.906.906,0,0,1,.252-.119c.494,0,2.606-2.093,2.833-2.807a.638.638,0,0,1,.125-.218.291.291,0,0,0,.081-.172.688.688,0,0,1,.089-.249,8.525,8.525,0,0,0,.654-2.423c.145-.847.138-20.832-.007-20.953-.1-.081-5.168-.147-5.473-.07m5.4.177c.1.095.109.48.109,9.886,0,11.235.007,11.058-.512,12.659a7.057,7.057,0,0,1-2.319,3.429c-.131.1-.252.191-.268.21a8.4,8.4,0,0,1-1.579.815,11.672,11.672,0,0,1-6.853.211,8.532,8.532,0,0,1-5.058-4.142c-.337-.626-.381-.571,1.2-1.511l.6-.354.547-.326a5.381,5.381,0,0,0,.477-.3.254.254,0,0,1,.09-.062c.033-.013.321-.181.64-.373.608-.367.83-.407.907-.165a4.76,4.76,0,0,0,2.639,2.51,2.754,2.754,0,0,0,3.626-1.807l.143-.478v-10.03c0-9.951,0-10.031.119-10.149a29.938,29.938,0,0,1,5.492-.021" transform="translate(-89.383 -154.012)" fill="#fff" fill-rule="evenodd"/>
  <path id="path3" d="M134.564,181.427c-4.415.321-7.271,3.268-7.269,7.5,0,4.039,1.888,6.3,7.121,8.521,4.049,1.721,4.826,2.295,5.058,3.736.483,3-4.294,4.372-7.343,2.109a8.545,8.545,0,0,1-1.786-1.97c-.092-.132-.213-.241-.268-.241a44,44,0,0,0-4.409,2.608c-.069.447,1.477,2.377,2.647,3.3,4.132,3.277,11.372,3.185,14.743-.189a9.447,9.447,0,0,0,.7-.759,14.262,14.262,0,0,0,.73-1.243,1.191,1.191,0,0,1,.084-.227,7.962,7.962,0,0,0,.553-3.316c-.134-3.864-1.89-6.011-6.715-8.21-.262-.119-.546-.245-1.117-.494l-.462-.2c-.1-.044-.353-.152-.566-.241-2.664-1.11-3.5-1.959-3.443-3.485.114-2.9,4.156-3.238,5.962-.492.325.494.4.52.778.263.136-.093.422-.28.635-.416s.416-.27.451-.3a1.59,1.59,0,0,1,.209-.13c.137-.073.551-.339,1.922-1.237.7-.455.693-.449.459-.845-1.737-2.946-4.716-4.337-8.672-4.049m2.584.148a4.844,4.844,0,0,0,.582.085,6.674,6.674,0,0,1,1.244.33c.1.041.326.135.506.207s.368.155.417.184.17.093.268.144a5.05,5.05,0,0,1,.864.564c.016.019.163.141.325.271a7.616,7.616,0,0,1,1.278,1.369c.1.131.207.267.236.3a1.608,1.608,0,0,1,.129.209.885.885,0,0,0,.112.175.82.82,0,0,1,.185.384,2.545,2.545,0,0,1-.641.5c-.352.228-.667.438-.7.466s-.194.128-.358.223a2.305,2.305,0,0,0-.328.213.748.748,0,0,1-.177.119c-.126.066-.727.448-1.551.984-.328.213-.446.23-.526.074a5.012,5.012,0,0,0-1.664-1.759,3.927,3.927,0,0,0-3.416-.032.353.353,0,0,1-.149.079c-.082,0-.326.233-.566.535a2.644,2.644,0,0,0,.33,3.468l.271.241a4.615,4.615,0,0,0,.566.381c.141.083,1.162.587,1.46.721.115.052.306.143.425.2a1.028,1.028,0,0,0,.306.11.253.253,0,0,1,.163.089.255.255,0,0,0,.165.089,1.251,1.251,0,0,1,.335.114c.252.118.749.336.96.421,2.114.856,4.715,2.634,5.366,3.669.061.1.182.269.269.384a6.675,6.675,0,0,1,.87,1.847,9.252,9.252,0,0,1,.316,3.4c-.032.213-.082.562-.111.776a5.889,5.889,0,0,1-.389,1.369,6.191,6.191,0,0,1-.571,1.132c-.017.016-.108.15-.2.3a7.559,7.559,0,0,1-1.725,1.7,6.033,6.033,0,0,1-.573.342,1.074,1.074,0,0,0-.179.107,7.239,7.239,0,0,1-1.205.537,1.035,1.035,0,0,0-.246.084,16.3,16.3,0,0,1-6.3.462,4.879,4.879,0,0,0-.566-.125,10.548,10.548,0,0,1-2.4-.759,2.259,2.259,0,0,0-.368-.139.086.086,0,0,1-.073-.045,1.581,1.581,0,0,0-.348-.209,4.542,4.542,0,0,1-.77-.45c-.052-.043-.309-.239-.571-.435a11.694,11.694,0,0,1-1.639-1.6,1.822,1.822,0,0,0-.169-.221c-.429-.447-.993-1.571-.788-1.571a.263.263,0,0,0,.134-.075,1.2,1.2,0,0,1,.228-.152,7.95,7.95,0,0,0,.745-.422c.131-.085.305-.187.387-.229s.229-.128.328-.192.306-.184.462-.266a4.735,4.735,0,0,0,.868-.524.1.1,0,0,1,.091-.047,1.5,1.5,0,0,0,.375-.2c.548-.361.643-.37.851-.079.1.137.2.276.226.309s.093.131.149.218a7.94,7.94,0,0,0,1.475,1.481,6.387,6.387,0,0,0,1.64.8,4.571,4.571,0,0,1,.444.136,6.385,6.385,0,0,0,3.8-.394,2.627,2.627,0,0,0,.452-4.54c-.045,0-.082-.026-.082-.057a5.371,5.371,0,0,0-1.4-.828c-.647-.321-.9-.438-1.5-.7l-.387-.167c-.377-.163-.734-.316-1.058-.454-.415-.177-1.647-.776-2.115-1.028a11.279,11.279,0,0,1-1.43-.91c-.033-.035-.252-.217-.487-.405a6.759,6.759,0,0,1-1.122-1.136c-.066-.092-.146-.2-.18-.234a4.1,4.1,0,0,1-.456-.741c-.087-.173-.182-.348-.211-.387a7.272,7.272,0,0,1-.394-1.03,5.511,5.511,0,0,1-.161-.715c-.035-.227-.088-.573-.119-.77a7.868,7.868,0,0,1,.244-3.1,3.065,3.065,0,0,0,.114-.434,10.618,10.618,0,0,1,.61-1.287,7.6,7.6,0,0,1,.666-.917,8.217,8.217,0,0,1,.869-.844c.073-.049.257-.183.409-.3a7.98,7.98,0,0,1,2.213-1.079l.507-.14a11.119,11.119,0,0,1,4.133-.177m-20.125.189-.125.1-.018,10.1-.018,10.1-.154.451a2.283,2.283,0,0,1-1.724,1.722,3.446,3.446,0,0,1-3.422-.854,7.153,7.153,0,0,1-.923-1.257,1.556,1.556,0,0,0-.4-.535c-.1-.038-.473.174-2.875,1.631-1.828,1.108-1.734,1-1.368,1.619a8.745,8.745,0,0,0,8.131,4.524c4.447,0,7.313-2.116,8.158-6.018.259-1.2.274-1.841.274-11.9V181.9l-.13-.121a27.856,27.856,0,0,0-5.4-.017m5.344.086c.091.091.1,18.972.014,20.165a9.227,9.227,0,0,1-.6,2.741,1.429,1.429,0,0,0-.112.305,1.634,1.634,0,0,1-.163.351l-.253.453a6.651,6.651,0,0,1-1.729,1.893c-.168.115-.338.237-.376.271a1.233,1.233,0,0,1-.264.141c-.107.044-.194.1-.194.132s-.034.052-.075.053a.835.835,0,0,0-.253.094,12.305,12.305,0,0,1-5.929.736c-.147-.032-.456-.1-.685-.142a9.417,9.417,0,0,1-1.341-.4,10.041,10.041,0,0,1-1.418-.717,1.78,1.78,0,0,0-.29-.172,6.412,6.412,0,0,1-.744-.6c-.054-.054-.162-.149-.24-.211a10.477,10.477,0,0,1-1.857-2.549c-.05-.135-.009-.169.705-.583a3.864,3.864,0,0,0,.556-.359.083.083,0,0,1,.07-.048,3.78,3.78,0,0,0,.516-.3c.257-.164.52-.324.586-.357s.217-.119.337-.194.441-.267.715-.427.561-.341.638-.4c.2-.157.308-.075.637.5.156.271.3.506.319.522a3.18,3.18,0,0,1,.21.268,3.49,3.49,0,0,0,1.1.983.228.228,0,0,1,.126.085.53.53,0,0,0,.25.125,1.644,1.644,0,0,1,.338.123,5.187,5.187,0,0,0,2.152-.045c.814-.269,1.609-1.059,1.612-1.6a.244.244,0,0,1,.057-.149c.162-.164.182-1.339.182-10.834,0-9.233.006-9.772.1-9.847a42.908,42.908,0,0,1,5.306-.011" transform="translate(-90.022 -154.368)" fill="#fff" fill-rule="evenodd"/>
  <path id="path4" d="M166.663,181.335a.844.844,0,0,0,.268,0c.074-.014.013-.026-.134-.026s-.208.012-.134.026m1.1,0a1.328,1.328,0,0,0,.328,0c.09-.014.016-.025-.164-.025s-.254.011-.164.025M148.711,191.6c0,5.391.007,7.6.016,4.9s.009-7.107,0-9.8-.016-.49-.016,4.9m18.518-5.381a.493.493,0,0,0,.209,0c.057-.015.01-.027-.1-.027s-.162.012-.1.027m2.726,1.061a1.3,1.3,0,0,0,.232.209c.016,0-.061-.094-.172-.209a1.3,1.3,0,0,0-.232-.209c-.016,0,.061.094.172.209m.886,1.177a.281.281,0,0,0,.209.1c.12-.007.121-.008.008-.036a.682.682,0,0,1-.209-.1c-.078-.059-.079-.055-.008.036M154.358,201.4c0,.131.013.178.027.1a.651.651,0,0,0,0-.238c-.015-.057-.027,0-.026.135M143.2,203.121a1.487,1.487,0,0,0,.194.194l.194.175-.175-.194c-.163-.181-.212-.221-.212-.175m27.377.175-.175.194.194-.175a1.485,1.485,0,0,0,.194-.194c0-.046-.049-.006-.212.175m-3.348,1.042a4.369,4.369,0,0,0,.566,0c.156-.012.028-.022-.283-.022s-.439.01-.283.022m7.7,2.414-.175.194.194-.175a1.483,1.483,0,0,0,.194-.194c0-.046-.049-.006-.212.175m-22.822.417-.175.194.194-.175c.181-.163.221-.212.175-.212a1.488,1.488,0,0,0-.194.194m15.453,2.173a1.589,1.589,0,0,0,.358,0c.09-.014,0-.024-.195-.024s-.27.011-.163.025" transform="translate(-121.867 -154.299)" fill="#fff" fill-rule="evenodd"/>
</svg>
