<svg xmlns="http://www.w3.org/2000/svg" width="54.688" height="60.147" viewBox="0 0 54.688 60.147">
  <path id="iconfinder_jest_4691287" d="M54.123,29.623a7.812,7.812,0,0,0-5.834-7.543L55.777,0H18.669l7.508,22.149a7.792,7.792,0,0,0-2.333,13.844,20.749,20.749,0,0,1-2.717,3.118,20.4,20.4,0,0,1-6.391,4.128,5.244,5.244,0,0,1-2.178-6.13A7.8,7.8,0,1,0,4.74,35.141c-.12.243-.243.489-.366.749a30.137,30.137,0,0,0-2.995,8.168c-1.01,6.095.644,10.987,4.634,13.756a12.764,12.764,0,0,0,7.381,2.333c4.579,0,9.228-2.3,13.721-4.529a50.346,50.346,0,0,1,9.769-4.04c1.2-.3,2.456-.469,3.779-.662a21.238,21.238,0,0,0,7.939-2.23,11.233,11.233,0,0,0,5.468-7.746,11.5,11.5,0,0,0-1.113-7.193,7.777,7.777,0,0,0,1.165-4.128Zm-3.4,0a4.384,4.384,0,1,1-7.1-3.448l.018-.018c.14-.105.3-.211.451-.313,0,0,.02,0,.02-.018.07-.035.138-.088.208-.125.018,0,.035-.015.053-.015.07-.035.158-.07.243-.105s.175-.068.246-.1c.018,0,.033-.018.05-.018.07-.018.14-.053.211-.07.018,0,.05-.018.07-.018.085-.018.155-.035.243-.05h.018l.261-.055a.109.109,0,0,0,.07-.018c.07,0,.138-.018.208-.018h.088c.088,0,.175-.018.278-.018h.226a.711.711,0,0,1,.193.018h.035a3.557,3.557,0,0,1,.419.07,4.426,4.426,0,0,1,3.5,4.318ZM23.528,3.484H50.92L44.632,22.029a6.117,6.117,0,0,0-.782.226l-6.616-13.5L30.6,22.167a6.616,6.616,0,0,0-.82-.19l-6.25-18.5ZM35.979,28.106a7.727,7.727,0,0,0-2.351-4.18l3.6-7.278,3.639,7.436A7.872,7.872,0,0,0,38.7,28.106H35.976Zm-8.724-2.752c.085-.018.155-.035.243-.05h.05c.073-.02.14-.02.211-.038h.07c.07,0,.123-.018.19-.018H28.7c.07,0,.123.018.175.018a.162.162,0,0,1,.088.018c.068.018.12.018.19.035a.133.133,0,0,1,.07.018l.243.05h.018a1.08,1.08,0,0,1,.208.073c.018,0,.035.018.07.018a.842.842,0,0,1,.175.068c.018,0,.035.018.05.018.07.035.14.053.211.088h.018a.938.938,0,0,1,.226.123h.018c.07.035.14.085.211.12.018,0,.018.018.033.018.07.035.125.088.193.123l.018.018c.208.155.4.331.591.5l.018.018a4.4,4.4,0,1,1-4.265-1.218Zm-17.137-.123A4.388,4.388,0,1,1,5.73,29.623,4.393,4.393,0,0,1,10.118,25.232Zm40.507,15.1a7.694,7.694,0,0,1-3.779,5.346,18.558,18.558,0,0,1-6.689,1.794q-2.071.265-4.11.729a52.609,52.609,0,0,0-10.481,4.3c-4.321,2.14-8.4,4.16-12.172,4.16A9.135,9.135,0,0,1,8,54.94c-3.832-2.646-3.641-7.609-3.188-10.325a26.7,26.7,0,0,1,2.7-7.21c.07-.138.123-.261.193-.4a6.648,6.648,0,0,0,1.2.316A8.859,8.859,0,0,0,13.777,46.7l.662.348.712-.261a23.763,23.763,0,0,0,8.36-5.19,23.392,23.392,0,0,0,3.621-4.3,7.194,7.194,0,0,0,1.2.085,7.812,7.812,0,0,0,7.538-5.832H38.8a7.776,7.776,0,0,0,11.478,4.754A7.933,7.933,0,0,1,50.625,40.331Z" transform="translate(-1.089)" fill="#fff"/>
</svg>
