<svg id="image2vector_1_" data-name="image2vector (1)" xmlns="http://www.w3.org/2000/svg" width="49.838" height="64.429" viewBox="0 0 49.838 64.429">
  <path id="path0" d="M85.487,27.13c-2.78.742-4.245,4.194-4.176,9.838.02,1.635.029,1.6-.421,1.6a4.557,4.557,0,0,0-.609.065l-1.01.173c-.592.1-1.1.208-1.793.382-4.077,1.024-6.677,3.194-6.664,5.56.015,2.549,2.815,5.674,7.138,7.963.832.44.8.388.562.973-.269.659-.3.725-.392.958-1.21,2.943-1.572,6.526-.861,8.522.99,2.781,4.261,3.429,8.643,1.713a15.477,15.477,0,0,0,1.76-.812c.5-.258,1.253-.679,1.668-.936.911-.564.825-.561,1.218-.044,6.945,9.14,13.523,7.323,13.585-3.753.011-2.022-.084-1.826.957-1.979.447-.066.919-.145,1.049-.176s.465-.105.744-.164c5.4-1.139,8.459-4.015,7.453-7.007a9.1,9.1,0,0,0-2.219-3.318c-.068-.057-.293-.255-.5-.44s-.492-.428-.637-.539-.342-.266-.438-.343a27.027,27.027,0,0,0-3.153-1.953c-.9-.467-.889-.406-.3-1.7.1-.228.75-2.216.814-2.5l.165-.744c1.5-6.736-1.494-9.734-7.647-7.667a12.92,12.92,0,0,0-1.455.595,24.224,24.224,0,0,0-3.389,1.873c-.205.172-.422.1-.636-.2-2.725-3.848-7.068-6.578-9.453-5.942M86.822,28.9c1.745.315,3.947,1.931,5.992,4.4,1.11,1.339,1.107,1.115.027,1.968-.3.235-.557.444-.575.465s-.217.189-.44.374c-.511.424-1.354,1.191-2.328,2.118-.295.281-.371.295-1.17.22-.422-.039-1.747-.072-2.945-.072-2.016,0-2.181-.009-2.211-.119a22.2,22.2,0,0,1,.1-4.619c.586-3.511,1.747-5.059,3.552-4.733m18.3,3.212c1.039.409,1.668,1.9,1.524,3.619-.065.776-.169,1.628-.236,1.929-.467,2.111-1.284,4.431-1.581,4.489a3.109,3.109,0,0,1-.778-.247c-1.093-.451-2.968-1.089-4.329-1.475-.538-.152-.49-.09-1.283-1.65-.369-.726-.753-1.448-.852-1.606a2.03,2.03,0,0,1-.181-.324c0-.021-.223-.4-.5-.834-.548-.882-.6-.976-.531-1.068a6.335,6.335,0,0,1,1.127-.771c.223-.123.513-.289.643-.37a21.214,21.214,0,0,1,2.033-.98c.2-.078.431-.171.505-.205a7.757,7.757,0,0,1,4.433-.506M95.3,36.794c.47.766.587.97,1.064,1.855.546,1.013.538,1.066-.141.907-.358-.084-.67-.146-1.89-.375-.186-.035-.628-.109-.981-.164-1.849-.289-1.794-.261-1.351-.671.489-.452,1.483-1.305,2-1.715.147-.117.344-.276.437-.353.321-.264.425-.2.865.516M87.181,40.17c.223.044.269.159.125.308s-1.077,1.215-1.4,1.6c-.167.2-.361.427-.43.507s-.387.477-.706.882c-.653.831-.754.846-.857.128-.026-.178-.073-.43-.105-.561-.059-.237-.191-.966-.337-1.861-.043-.261-.092-.554-.11-.652-.07-.38.016-.4,1.9-.4.942,0,1.808.019,1.924.042m-5.647.245c.014.047.089.5.167,1,.237,1.519.424,2.462.785,3.959.221.914.244.809-.408,1.806A39.145,39.145,0,0,0,80,50.617c-.538,1-.344.968-1.676.256A20.821,20.821,0,0,1,75.289,48.8c-4.009-3.6-3.486-5.841,1.783-7.626a24.406,24.406,0,0,1,2.47-.6l.981-.172c.523-.093.982-.089,1.011.009m9.209.052c.409.038.912.1,1.117.132s.707.112,1.117.172.882.137,1.049.171.624.124,1.015.2.924.183,1.184.241l.9.2c.49.109.759.228.839.372.137.245.545,1.191.833,1.934.172.444.361.929.42,1.078.191.486.209.535.417,1.117a26.522,26.522,0,0,1,1.027,3.278,19.1,19.1,0,0,1-1.282,1.8c-.021.019-.219.262-.44.541-.354.447-1.431,1.736-1.526,1.827-.02.019-.427.469-.9,1-1.118,1.242-.928,1.182-2.818.9-1.178-.177-2.113-.33-3.046-.5-.52-.093-2.221-.458-2.965-.636-.38-.091-1.791-3.61-2.854-7.117-.2-.652-.079-.855,1.929-3.3A29.41,29.41,0,0,1,89.935,40.4c.035,0,.4.031.807.069M101.334,42.8c2.888,1.012,2.84.983,2.555,1.542a18.454,18.454,0,0,1-1.843,2.963c-.1,0-.125-.069-.579-1.387-.154-.447-.3-.873-.334-.947-.095-.234-.617-1.608-.754-1.983-.214-.586-.193-.59.955-.187m-9.342,1.32a3.9,3.9,0,1,0,4.216,2.17,4.01,4.01,0,0,0-4.216-2.17m14.269.727c.212.1.576.3.809.44a4.367,4.367,0,0,0,.458.259,17.583,17.583,0,0,1,3.421,2.564c2.3,2.3,2.328,3.888.106,5.378a11.265,11.265,0,0,1-1.843.975,19.868,19.868,0,0,1-4.412,1.134c-.868.141-.853.148-.956-.452-.215-1.243-.294-1.682-.387-2.156-.117-.59-.393-1.779-.526-2.267-.051-.186-.131-.485-.178-.663l-.085-.325.374-.555c.676-1,1.379-2.1,1.606-2.517.123-.223.245-.437.273-.474.067-.091.474-.828.6-1.083.233-.48.257-.488.743-.259M83.728,49.637c.3.914,1.024,2.86,1.271,3.4.269.595.17.611-1.126.188-2.261-.738-2.681-.944-2.549-1.247a34.189,34.189,0,0,1,1.823-3.147c.191-.272.265-.17.581.8m17.729,2.554c.038.2.129.645.2,1,.417,1.991.478,2.535.294,2.633a27.522,27.522,0,0,1-3.666.018c-.41-.061-.4-.16.109-.729.787-.889,1.457-1.689,2.077-2.476.74-.94.875-1,.983-.444M81.284,54.212c.919.351,2.659.924,3.672,1.209,1.336.375,1.164.239,1.753,1.389.457.893.85,1.63,1.226,2.3.063.112.348.587.633,1.055.623,1.022.638.949-.319,1.524-4.467,2.683-8.242,3.125-9.211,1.077a7.909,7.909,0,0,1-.109-4.537,23.172,23.172,0,0,1,.92-3.056,1.41,1.41,0,0,0,.1-.253,3.146,3.146,0,0,1,.516-.989,6.867,6.867,0,0,1,.82.278m8.3,2.323c1.194.24,2.491.465,3.346.581,1.035.14,1.042.126-.886,1.777-1.553,1.33-1.38,1.358-2.372-.391l-.384-.677a4.378,4.378,0,0,1-.652-1.357c.048-.124-.02-.128.948.066m10.024,1.1a24.663,24.663,0,0,1,2.656.109,18.952,18.952,0,0,1-.017,3.844c-.375,2.865-1.31,4.89-2.5,5.418-1.63.721-4.546-1.018-7.217-4.3-.984-1.21-.981-1.083-.042-1.843.42-.339.84-.688.935-.774s.307-.275.472-.417c.345-.3.785-.708,1.673-1.558l.628-.6.421.042c.231.023,1.578.061,2.993.084" transform="translate(-67.752 -24.02)" fill="#fff" fill-rule="evenodd"/>
  <path id="path1" d="M70.261,9.268c0,.04-.259.068-.643.068-.526,0-.643.018-.643.1s-.075.1-.271.1-.271.028-.271.1-.064.1-.169.1-.169.03-.169.068-.091.068-.2.068q-.2,0-.2.1c0,.063-.064.1-.169.1s-.169.038-.169.1-.064.1-.169.1-.169.03-.169.068-.046.068-.1.068a.1.1,0,0,0-.1.1.1.1,0,0,1-.1.1c-.056,0-.1.033-.1.073a.381.381,0,0,1-.266.266c-.04,0-.073.046-.073.1a.1.1,0,0,1-.1.1c-.056,0-.1.033-.1.073a.381.381,0,0,1-.266.266c-.04,0-.073.046-.073.1a.1.1,0,0,1-.085.1c-.087,0-.254.3-.254.453a.1.1,0,0,1-.1.088c-.063,0-.1.064-.1.169s-.038.169-.1.169-.1.068-.1.2c0,.112-.03.2-.068.2s-.068.076-.068.169-.038.169-.1.169-.1.064-.1.169-.038.169-.1.169-.1.068-.1.2c0,.112-.03.2-.068.2s-.068.122-.068.271c0,.2-.028.271-.1.271s-.1.075-.1.271-.028.271-.1.271-.1.083-.1.338c0,.186-.03.338-.068.338s-.068.168-.068.372c0,.286-.024.372-.1.372s-.1.095-.1.445c0,.305-.032.477-.1.546s-.1.274-.1.841a1.827,1.827,0,0,1-.068.74,1.747,1.747,0,0,0-.068.722c0,1.033-.1,1.241-.588,1.241-.2,0-.359.03-.359.068s-.152.068-.338.068c-.256,0-.338.025-.338.1s-.086.1-.372.1-.372.024-.372.1-.086.1-.372.1c-.2,0-.372.03-.372.068s-.122.068-.271.068c-.2,0-.271.028-.271.1s-.075.1-.271.1-.271.028-.271.1-.064.1-.169.1-.169.03-.169.068-.076.068-.169.068-.169.038-.169.1-.072.1-.239.1c-.15,0-.253.038-.278.1a.223.223,0,0,1-.2.1c-.089,0-.162.03-.162.068s-.057.068-.127.068a.314.314,0,0,0-.211.1.281.281,0,0,1-.177.1.1.1,0,0,0-.093.1c0,.063-.064.1-.169.1s-.169.03-.169.068-.076.068-.169.068-.169.038-.169.1a.1.1,0,0,1-.1.1.1.1,0,0,0-.1.1c0,.063-.064.1-.169.1s-.169.03-.169.068-.046.068-.1.068a.1.1,0,0,0-.1.1.1.1,0,0,1-.1.1c-.056,0-.1.033-.1.073a.37.37,0,0,1-.266.266c-.04,0-.073.046-.073.1a.1.1,0,0,1-.1.1c-.056,0-.1.033-.1.073a.37.37,0,0,1-.266.266c-.04,0-.073.046-.073.1a.1.1,0,0,1-.1.1.1.1,0,0,0-.1.1c0,.056-.03.1-.068.1s-.068.076-.068.169-.038.169-.1.169a.1.1,0,0,0-.1.1c0,.056-.03.1-.066.1s-.086.076-.109.169-.07.169-.1.169-.06.076-.06.169-.038.169-.1.169-.1.075-.1.271-.028.271-.1.271-.1.075-.1.271c0,.149-.03.271-.068.271s-.068.2-.068.466c0,.352-.025.476-.1.506a6.492,6.492,0,0,0,0,2.412c.071.059.1.215.1.516,0,.243.03.432.068.432s.068.168.068.372c0,.286.024.372.1.372s.1.064.1.169.038.169.1.169.1.068.1.2c0,.112.03.2.068.2s.068.076.068.169.038.169.1.169.1.064.1.169.038.169.1.169.1.068.1.2c0,.112.03.2.068.2s.068.076.068.169.038.169.1.169.1.06.1.138a.2.2,0,0,0,.1.176.16.16,0,0,1,.1.133c0,.052.03.094.068.094s.068.046.068.1a.1.1,0,0,0,.1.1c.056,0,.1.03.1.068s.046.068.1.068a.1.1,0,0,1,.1.1c0,.056.03.1.068.1s.068.046.068.1a.1.1,0,0,0,.1.1c.056,0,.1.03.1.068s.046.068.1.068a.1.1,0,0,1,.1.1c0,.056.03.1.068.1s.068.046.068.1a.1.1,0,0,0,.1.1c.056,0,.1.03.1.068s.046.068.1.068a.1.1,0,0,1,.1.1c0,.056.03.1.068.1s.068.046.068.1a.1.1,0,0,0,.1.1c.056,0,.1.03.1.068s.046.068.1.068a.1.1,0,0,1,.1.1c0,.056.03.1.068.1s.068.046.068.1a.1.1,0,0,0,.1.1c.056,0,.1.03.1.068s.046.068.1.068a.1.1,0,0,1,.1.1c0,.056.03.1.068.1s.068.046.068.1.064.1.174.1c.174,0,.367.136.367.258,0,.036.053.082.118.1a1.629,1.629,0,0,1,.423.247,1.63,1.63,0,0,0,.423.247c.065.022.119.074.119.117,0,.081.3.246.453.246.064,0,.088.13.088.474,0,.271-.029.474-.068.474s-.068.152-.068.338c0,.256-.025.338-.1.338s-.1.086-.1.364c0,.241-.034.392-.1.448s-.1.218-.1.546a1.148,1.148,0,0,1-.068.5,47.676,47.676,0,0,0,0,5.144.805.805,0,0,1,.068.41c0,.282.024.368.1.368s.1.075.1.271.028.271.1.271.1.075.1.271c0,.149.03.271.068.271s.068.076.068.169.038.169.1.169.1.068.1.2.034.2.1.2.1.064.1.169.027.169.06.169.079.076.1.169.072.169.109.169.066.046.066.1a.1.1,0,0,0,.1.1c.056,0,.1.033.1.073a.381.381,0,0,0,.266.266c.04,0,.073.046.073.1a.1.1,0,0,0,.1.1c.056,0,.1.033.1.073,0,.129.189.266.367.266.11,0,.174.038.174.1s.03.1.068.1.068.046.068.1.068.1.2.1c.112,0,.2.03.2.068s.076.068.169.068.169.038.169.1.064.1.169.1.169.038.169.1.075.1.271.1c.149,0,.271.03.271.068s.168.068.372.068c.286,0,.372.024.372.1s.124.1.711.1.711.018.711.1.158.1,1.015.1,1.015-.016,1.015-.1.135-.1.812-.1.812-.017.812-.1.094-.1.44-.1c.248,0,.44-.029.44-.068s.122-.068.271-.068c.2,0,.271-.028.271-.1s.086-.1.372-.1.372-.024.372-.1.075-.1.271-.1c.149,0,.271-.03.271-.068s.122-.068.271-.068c.2,0,.271-.028.271-.1s.064-.1.169-.1.169-.038.169-.1.064-.1.169-.1.169-.03.169-.068.089-.068.2-.068a.488.488,0,0,0,.3-.1.348.348,0,0,1,.2-.1.285.285,0,0,0,.182-.1c.111-.133.406-.133.406,0,0,.063.064.1.169.1s.169.038.169.1a.1.1,0,0,0,.1.1c.056,0,.1.03.1.068s.046.068.1.068a.1.1,0,0,1,.1.1c0,.056.03.1.068.1s.068.046.068.1a.1.1,0,0,0,.1.1c.056,0,.1.03.1.068s.046.068.1.068a.1.1,0,0,1,.1.1c0,.056.03.1.068.1s.068.046.068.1a.1.1,0,0,0,.1.1c.056,0,.1.03.1.068s.046.068.1.068a.1.1,0,0,1,.1.1c0,.056.03.1.068.1s.068.046.068.1a.1.1,0,0,0,.1.1c.056,0,.1.03.1.068s.046.068.1.068a.1.1,0,0,1,.1.1c0,.056.03.1.068.1s.068.046.068.1a.1.1,0,0,0,.1.1c.056,0,.1.03.1.068s.076.068.169.068c.152,0,.169.027.169.271v.271H67.622c-8.678,0-9.813.012-9.813.1s-.135.1-.812.1-.812.017-.812.1-.075.1-.271.1c-.149,0-.271.03-.271.068s-.122.068-.271.068c-.2,0-.271.028-.271.1s-.068.1-.2.1c-.112,0-.2.033-.2.073,0,.129-.189.266-.367.266-.11,0-.174.038-.174.1s-.03.1-.068.1-.068.046-.068.1a.1.1,0,0,1-.1.1c-.063,0-.1.064-.1.169s-.038.169-.1.169a.1.1,0,0,0-.1.1c0,.056-.03.1-.068.1s-.068.076-.068.169-.038.169-.1.169-.1.064-.1.169-.038.169-.1.169-.1.075-.1.271c0,.149-.03.271-.068.271s-.068.164-.068.364c0,.241-.034.392-.1.448-.154.128-.154,10.024,0,10.152.071.059.1.215.1.516,0,.243.03.432.068.432s.068.122.068.271c0,.2.028.271.1.271s.1.068.1.2.034.2.1.2a.1.1,0,0,1,.1.088c0,.155.166.452.254.453a.078.078,0,0,1,.085.068c0,.037.046.068.1.068a.1.1,0,0,1,.1.1c0,.056.03.1.068.1s.068.046.068.1a.1.1,0,0,0,.1.1c.056,0,.1.03.1.068s.076.068.169.068.169.038.169.1a.1.1,0,0,0,.1.1.1.1,0,0,1,.1.1c0,.063.064.1.169.1s.169.03.169.068.122.068.271.068c.2,0,.271.028.271.1s.105.1.541.1.541.02.541.1,2.354.1,20.777.1,20.777-.011,20.777-.1.105-.1.541-.1.541-.02.541-.1.075-.1.271-.1c.149,0,.271-.03.271-.068s.076-.068.169-.068.169-.038.169-.1a.1.1,0,0,1,.1-.1.1.1,0,0,0,.1-.1c0-.063.064-.1.169-.1s.169-.03.169-.068.046-.068.1-.068a.1.1,0,0,0,.1-.1c0-.056.03-.1.068-.1s.068-.046.068-.1a.1.1,0,0,1,.1-.1c.056,0,.1-.03.1-.068a.078.078,0,0,1,.085-.068c.087,0,.254-.3.254-.453a.1.1,0,0,1,.1-.088q.1,0,.1-.2t.1-.2c.073,0,.1-.075.1-.271,0-.149.03-.271.068-.271s.068-.189.068-.432c0-.3.031-.457.1-.516.154-.128.154-10.024,0-10.152-.067-.056-.1-.207-.1-.448,0-.2-.03-.364-.068-.364s-.068-.122-.068-.271c0-.2-.028-.271-.1-.271s-.1-.064-.1-.169-.038-.169-.1-.169-.1-.064-.1-.169-.03-.169-.068-.169-.068-.046-.068-.1a.1.1,0,0,0-.1-.1c-.063,0-.1-.064-.1-.169s-.038-.169-.1-.169a.1.1,0,0,1-.1-.1c0-.056-.03-.1-.068-.1s-.068-.046-.068-.1-.064-.1-.174-.1c-.178,0-.367-.137-.367-.266,0-.04-.091-.073-.2-.073q-.2,0-.2-.1c0-.073-.075-.1-.271-.1-.149,0-.271-.03-.271-.068s-.122-.068-.271-.068c-.2,0-.271-.028-.271-.1s-.135-.1-.812-.1-.812-.017-.812-.1-.5-.1-4.061-.1H89.346v-.271c0-.2.028-.271.1-.271a.1.1,0,0,0,.1-.1c0-.056.028-.1.063-.1s.084-.066.11-.147a1.087,1.087,0,0,1,.208-.321.586.586,0,0,0,.161-.293.112.112,0,0,1,.1-.119c.063,0,.1-.064.1-.169s.03-.169.068-.169.068-.076.068-.169.038-.169.1-.169.1-.068.1-.2.034-.2.1-.2.1-.064.1-.169.03-.169.068-.169.068-.122.068-.271c0-.2.028-.271.1-.271s.1-.075.1-.271.028-.271.1-.271.1-.075.1-.271c0-.149.03-.271.068-.271s.068-.167.068-.372c0-.286.024-.372.1-.372s.1-.083.1-.343a.709.709,0,0,1,.1-.445c.073-.073.1-.251.1-.634a1.453,1.453,0,0,1,.068-.574,4.211,4.211,0,0,0,.068-1.079c0-.839.019-1.053.1-1.121a.285.285,0,0,0,.1-.182c0-.175.187-.291.469-.291.2,0,.276-.028.276-.1s.083-.1.338-.1c.186,0,.338-.03.338-.068s.167-.068.372-.068c.286,0,.372-.024.372-.1s.075-.1.271-.1.271-.028.271-.1.075-.1.271-.1c.149,0,.271-.03.271-.068s.122-.068.271-.068c.2,0,.271-.028.271-.1s.075-.1.271-.1.271-.028.271-.1.064-.1.169-.1.169-.03.169-.068.091-.068.2-.068q.2,0,.2-.1c0-.063.064-.1.169-.1s.169-.038.169-.1.064-.1.169-.1.169-.03.169-.068.091-.068.2-.068c.128,0,.2-.035.2-.094a.167.167,0,0,1,.118-.133c.248-.083.558-.33.558-.445,0-.04.091-.073.2-.073s.2-.033.2-.073c0-.129.189-.266.367-.266.11,0,.174-.038.174-.1s.03-.1.068-.1.068-.046.068-.1a.1.1,0,0,1,.1-.1c.056,0,.1-.03.1-.068s.046-.068.1-.068a.1.1,0,0,0,.1-.1c0-.056.03-.1.068-.1s.068-.046.068-.1a.1.1,0,0,1,.1-.1c.063,0,.1-.064.1-.169s.038-.169.1-.169.1-.033.1-.073a.381.381,0,0,1,.266-.266c.04,0,.073-.091.073-.2q0-.2.1-.2c.063,0,.1-.064.1-.169s.03-.169.068-.169.068-.076.068-.169.038-.169.1-.169.1-.068.1-.2.034-.2.1-.2.1-.075.1-.271c0-.149.03-.271.068-.271s.068-.189.068-.432c0-.3.031-.457.1-.516s.1-.3.1-1.286-.018-1.217-.1-1.286c-.067-.056-.1-.207-.1-.448,0-.2-.03-.364-.068-.364s-.068-.152-.068-.338c0-.256-.025-.338-.1-.338s-.1-.075-.1-.271-.028-.271-.1-.271-.1-.068-.1-.2c0-.112-.03-.2-.068-.2s-.068-.076-.068-.169-.038-.169-.1-.169-.1-.064-.1-.169-.038-.169-.1-.169-.1-.064-.1-.169-.03-.169-.068-.169-.068-.046-.068-.1a.1.1,0,0,0-.1-.1.112.112,0,0,1-.1-.119.619.619,0,0,0-.169-.3.678.678,0,0,1-.169-.253c0-.039-.046-.071-.1-.071a.1.1,0,0,1-.1-.1c0-.056-.033-.1-.073-.1a.381.381,0,0,1-.266-.266c0-.04-.046-.073-.1-.073a.1.1,0,0,1-.1-.1c0-.056-.033-.1-.073-.1a.381.381,0,0,1-.266-.266c0-.04-.046-.073-.1-.073a.1.1,0,0,1-.1-.1c0-.056-.033-.1-.073-.1a.381.381,0,0,1-.266-.266c0-.04-.046-.073-.1-.073a.1.1,0,0,1-.1-.1c0-.056-.033-.1-.073-.1a.381.381,0,0,1-.266-.266c0-.04-.046-.073-.1-.073a.1.1,0,0,1-.1-.1c0-.063-.064-.1-.169-.1s-.169-.03-.169-.068-.046-.068-.1-.068a.1.1,0,0,1-.1-.1.1.1,0,0,0-.1-.1.1.1,0,0,1-.1-.1c0-.063-.064-.1-.169-.1s-.169-.03-.169-.068-.046-.068-.1-.068a.1.1,0,0,1-.1-.1c0-.063-.064-.1-.169-.1s-.169-.038-.169-.1a.1.1,0,0,0-.1-.1c-.056,0-.1-.03-.1-.068s-.076-.068-.169-.068-.169-.038-.169-.1a.1.1,0,0,0-.1-.1.1.1,0,0,1-.1-.1c0-.056-.03-.1-.068-.1s-.068-.192-.068-.44.029-.44.068-.44.068-.164.068-.365c0-.262.029-.376.1-.4s.1-.146.1-.439c0-.273.032-.427.1-.484s.1-.229.1-.647a1.6,1.6,0,0,1,.068-.6,32.19,32.19,0,0,0,0-4.23c-.039,0-.068-.2-.068-.474,0-.376-.021-.474-.1-.474s-.1-.086-.1-.372-.024-.372-.1-.372-.1-.075-.1-.271c0-.149-.03-.271-.068-.271s-.068-.122-.068-.271c0-.2-.028-.271-.1-.271s-.1-.064-.1-.169-.038-.169-.1-.169a.1.1,0,0,1-.1-.088c0-.155-.166-.452-.254-.453-.047,0-.085-.062-.085-.138a.2.2,0,0,0-.1-.176.16.16,0,0,1-.1-.133c0-.052-.03-.094-.068-.094s-.068-.046-.068-.1a.1.1,0,0,0-.1-.1c-.056,0-.1-.03-.1-.068s-.046-.068-.1-.068a.1.1,0,0,1-.1-.1c0-.056-.03-.1-.068-.1s-.068-.046-.068-.1-.064-.1-.174-.1c-.178,0-.367-.137-.367-.266,0-.04-.091-.073-.2-.073q-.2,0-.2-.1c0-.063-.064-.1-.169-.1s-.169-.03-.169-.068-.076-.068-.169-.068-.169-.038-.169-.1-.068-.1-.2-.1-.2-.034-.2-.1-.083-.1-.338-.1c-.186,0-.338-.03-.338-.068s-.259-.068-.643-.068c-.526,0-.643-.018-.643-.1s-.2-.1-1.354-.1-1.354.015-1.354.1-.117.1-.643.1c-.384,0-.643.027-.643.068s-.152.068-.338.068c-.256,0-.338.025-.338.1s-.086.1-.372.1-.372.024-.372.1-.075.1-.271.1c-.149,0-.271.03-.271.068s-.122.068-.271.068c-.2,0-.271.028-.271.1s-.075.1-.271.1-.271.028-.271.1-.064.1-.169.1-.169.03-.169.068-.089.068-.2.068a.488.488,0,0,0-.3.1.348.348,0,0,1-.2.1.285.285,0,0,0-.182.1.309.309,0,0,1-.207.1.213.213,0,0,0-.165.068c-.123.2-.914.027-.914-.2,0-.04-.046-.073-.1-.073a.1.1,0,0,1-.1-.1c0-.056-.033-.1-.073-.1a.381.381,0,0,1-.266-.266c0-.04-.046-.073-.1-.073a.1.1,0,0,1-.1-.1c0-.056-.033-.1-.073-.1a.381.381,0,0,1-.266-.266c0-.04-.046-.073-.1-.073a.1.1,0,0,1-.1-.1c0-.056-.033-.1-.073-.1a.381.381,0,0,1-.266-.266c0-.04-.046-.073-.1-.073a.1.1,0,0,1-.1-.1c0-.056-.033-.1-.073-.1a.381.381,0,0,1-.266-.266c0-.04-.091-.073-.2-.073s-.2-.033-.2-.073c0-.129-.189-.266-.367-.266-.11,0-.174-.038-.174-.1s-.03-.1-.068-.1a.078.078,0,0,1-.068-.085c0-.087-.3-.254-.453-.254a.1.1,0,0,1-.088-.1q0-.1-.2-.1t-.2-.1c0-.063-.064-.1-.169-.1s-.169-.03-.169-.068-.076-.068-.169-.068-.169-.038-.169-.1-.068-.1-.2-.1-.2-.034-.2-.1-.064-.1-.169-.1-.169-.03-.169-.068-.122-.068-.271-.068c-.2,0-.271-.028-.271-.1s-.086-.1-.372-.1-.372-.024-.372-.1-.105-.1-.541-.1c-.316,0-.541-.028-.541-.068a9.813,9.813,0,0,0-2.3,0m2.1.778a1.441,1.441,0,0,0,.551.1,1.579,1.579,0,0,1,.575.1.972.972,0,0,0,.367.1,1.7,1.7,0,0,1,.524.17,1.971,1.971,0,0,0,.439.169,7.166,7.166,0,0,1,1.463.739.783.783,0,0,0,.253.168,1.266,1.266,0,0,1,.322.21.732.732,0,0,0,.276.17.566.566,0,0,1,.243.177,2.606,2.606,0,0,0,.435.347,21.9,21.9,0,0,1,1.61,1.515,12.913,12.913,0,0,0,1.455,1.344,11.878,11.878,0,0,0,1.323-.609c.664-.335,1.238-.608,1.276-.608a1.207,1.207,0,0,0,.282-.09,3.953,3.953,0,0,1,.908-.3.5.5,0,0,0,.258-.093.4.4,0,0,1,.253-.061,1.063,1.063,0,0,0,.41-.1,1.053,1.053,0,0,1,.41-.1.677.677,0,0,0,.348-.1,1.465,1.465,0,0,1,.728-.1,2.6,2.6,0,0,0,.739-.078,6.74,6.74,0,0,1,2.033,0,1.588,1.588,0,0,0,.621.078,1.346,1.346,0,0,1,.676.1.664.664,0,0,0,.342.1,5.241,5.241,0,0,1,1.585.739.845.845,0,0,0,.285.178,2.417,2.417,0,0,1,.845.884c.022.089.067.162.1.162s.118.114.19.254a2.137,2.137,0,0,0,.272.4.539.539,0,0,1,.141.309.566.566,0,0,0,.1.291.619.619,0,0,1,.1.313.319.319,0,0,0,.07.224.384.384,0,0,1,.068.258,1.063,1.063,0,0,0,.1.41,1.668,1.668,0,0,1,.1.609,1.092,1.092,0,0,0,.1.546,14.143,14.143,0,0,1,0,3.519,1.206,1.206,0,0,0-.1.618,1.743,1.743,0,0,1-.1.681,1.319,1.319,0,0,0-.1.5.814.814,0,0,1-.062.372,1.193,1.193,0,0,0-.091.437,2.912,2.912,0,0,1-.3,1.059,1.133,1.133,0,0,0-.09.318.187.187,0,0,1-.068.146c-.183.113-.069.419.2.541a.707.707,0,0,1,.271.168,1,1,0,0,0,.321.2,4.172,4.172,0,0,1,.537.317.965.965,0,0,0,.274.16,1.484,1.484,0,0,1,.349.271,1.392,1.392,0,0,0,.355.271.7.7,0,0,1,.248.175,3.643,3.643,0,0,0,.454.349,14.9,14.9,0,0,1,2.842,3.046c.057.121.128.22.159.22a4.331,4.331,0,0,1,.585,1.2.533.533,0,0,0,.108.258.486.486,0,0,1,.062.292.763.763,0,0,0,.1.385.963.963,0,0,1,.1.457,1.307,1.307,0,0,0,.079.47,6.183,6.183,0,0,1,.017,1.818,2.209,2.209,0,0,0-.1.567,3.68,3.68,0,0,1-.514,1.579,3.576,3.576,0,0,1-.6.935,1.836,1.836,0,0,0-.34.433,1.893,1.893,0,0,1-.666.674.714.714,0,0,0-.285.192,5.153,5.153,0,0,1-.639.471,6.228,6.228,0,0,0-.541.372,9.467,9.467,0,0,1-1.6.793,1.548,1.548,0,0,0-.421.159,3.446,3.446,0,0,1-1.008.365.5.5,0,0,0-.258.093.2.2,0,0,1-.152.061.9.9,0,0,0-.308.1,1.072,1.072,0,0,1-.406.1.933.933,0,0,0-.381.1,1.028,1.028,0,0,1-.419.1.468.468,0,0,0-.292.07.654.654,0,0,1-.359.071c-.924.011-1,.155-1.084,1.993a5.069,5.069,0,0,1-.13,1.163,1.915,1.915,0,0,0-.087.643,1.241,1.241,0,0,1-.1.626.965.965,0,0,0-.1.477.968.968,0,0,1-.061.41.848.848,0,0,0-.092.335,3.382,3.382,0,0,1-.3.958,1.133,1.133,0,0,0-.09.318.187.187,0,0,1-.068.146.278.278,0,0,0-.068.2,7.982,7.982,0,0,1-.985,1.915,2.738,2.738,0,0,0-.3.489,6.068,6.068,0,0,1-1.26,1.189c-.089.022-.161.07-.161.105a4.519,4.519,0,0,1-1.283.6.224.224,0,0,0-.172.068c-.028.045,1.79.068,5.4.068,4.738,0,5.469.013,5.638.1a2.153,2.153,0,0,0,.938.089,3.493,3.493,0,0,1,.88.058,3.594,3.594,0,0,0,.793.273.824.824,0,0,1,.342.178,1.862,1.862,0,0,0,.392.254.824.824,0,0,1,.334.3,4.8,4.8,0,0,0,.287.459,1.09,1.09,0,0,1,.186.355c0,.05.03.091.068.091s.068.086.068.19a.623.623,0,0,0,.1.321.963.963,0,0,1,.1.457,1.307,1.307,0,0,0,.072.456c.1.18.1,9.288,0,9.468a1.6,1.6,0,0,0-.072.524,1.485,1.485,0,0,1-.1.563.8.8,0,0,0-.1.312.622.622,0,0,1-.166.319,1.106,1.106,0,0,0-.212.33,2.65,2.65,0,0,1-.847.834,1.084,1.084,0,0,0-.312.207.635.635,0,0,1-.357.164.429.429,0,0,0-.259.08.922.922,0,0,1-.467.07,1.466,1.466,0,0,0-.587.09c-.3.151-40.8.151-41.1,0a1.466,1.466,0,0,0-.587-.09.922.922,0,0,1-.467-.07.429.429,0,0,0-.259-.08.635.635,0,0,1-.356-.164,1.084,1.084,0,0,0-.312-.207,2.65,2.65,0,0,1-.846-.834,1.106,1.106,0,0,0-.212-.33.622.622,0,0,1-.166-.319.8.8,0,0,0-.1-.312,1.485,1.485,0,0,1-.1-.563,1.6,1.6,0,0,0-.072-.524c-.1-.18-.1-9.288,0-9.468a1.306,1.306,0,0,0,.072-.456.963.963,0,0,1,.1-.457.623.623,0,0,0,.1-.321c0-.1.03-.19.068-.19s.068-.041.068-.091a1.09,1.09,0,0,1,.186-.355,4.8,4.8,0,0,0,.287-.459.824.824,0,0,1,.334-.3,1.863,1.863,0,0,0,.392-.254.824.824,0,0,1,.342-.178,3.582,3.582,0,0,0,.793-.273,3.327,3.327,0,0,1,.863-.056,2.26,2.26,0,0,0,.948-.089c.2-.093,1.535-.106,11.894-.122,6.421-.009,11.628-.035,11.573-.058a4.624,4.624,0,0,0-.77-.247,8.146,8.146,0,0,1-1.06-.466c-.476-.237-.885-.431-.908-.431a.63.63,0,0,1-.192-.141,1.824,1.824,0,0,0-.352-.245,1.665,1.665,0,0,1-.378-.291.987.987,0,0,0-.327-.235A35.533,35.533,0,0,1,74.8,51.221c0-.209-.654-.044-1.5.379a9.484,9.484,0,0,1-.959.44,2.592,2.592,0,0,0-.481.2,1.991,1.991,0,0,1-.554.2.254.254,0,0,0-.19.068.437.437,0,0,1-.281.068,1.092,1.092,0,0,0-.419.092,2.588,2.588,0,0,1-1.026.3,1.257,1.257,0,0,0-.459.1,2.769,2.769,0,0,1-.846.058c-.587-.01-.79.01-.895.089a2,2,0,0,1-1.285,0c-.1-.079-.288-.1-.794-.084-.449.012-.685-.008-.741-.064A.654.654,0,0,0,64,52.985a.824.824,0,0,1-.405-.1.612.612,0,0,0-.316-.1c-.1,0-.195-.023-.207-.051a2.453,2.453,0,0,0-.479-.271,1.4,1.4,0,0,1-.457-.286c0-.036-.073-.084-.163-.107a3.854,3.854,0,0,1-1.084-1.1c-.026-.084-.072-.152-.1-.152a4.041,4.041,0,0,1-.615-1.245.288.288,0,0,0-.068-.21.2.2,0,0,1-.068-.156.9.9,0,0,0-.1-.308,1.34,1.34,0,0,1-.1-.511.93.93,0,0,0-.1-.449,22.621,22.621,0,0,1,0-4.429,1.441,1.441,0,0,0,.1-.551,1.58,1.58,0,0,1,.1-.575,1.319,1.319,0,0,0,.1-.5.828.828,0,0,1,.061-.372.848.848,0,0,0,.092-.335,3.383,3.383,0,0,1,.3-.958c.207-.489.126-.882-.214-1.032-.168-.074-.3-.164-.3-.2s-.069-.082-.152-.1a1.088,1.088,0,0,1-.336-.194,7.862,7.862,0,0,0-.66-.449,2.134,2.134,0,0,1-.476-.348c0-.029-.076-.072-.169-.1a29.181,29.181,0,0,1-3.052-3.037A.526.526,0,0,0,55,34.546a12.861,12.861,0,0,1-1.115-2.308.9.9,0,0,0-.1-.365,1.485,1.485,0,0,1-.1-.563,1.579,1.579,0,0,0-.081-.541,4.72,4.72,0,0,1,.005-1.692,1.239,1.239,0,0,0,.076-.517,1.141,1.141,0,0,1,.1-.575.623.623,0,0,0,.1-.321c0-.1.028-.19.062-.19s.082-.118.106-.263a.929.929,0,0,1,.178-.406,2.73,2.73,0,0,0,.311-.5,7.764,7.764,0,0,1,1.574-1.675,1.265,1.265,0,0,0,.36-.259,15.673,15.673,0,0,1,2.755-1.433,1.269,1.269,0,0,0,.6-.288c.013-.028.106-.051.207-.051a.612.612,0,0,0,.316-.1.848.848,0,0,1,.415-.1.554.554,0,0,0,.326-.07.384.384,0,0,1,.258-.068,1.063,1.063,0,0,0,.41-.1,1.049,1.049,0,0,1,.408-.1.716.716,0,0,0,.349-.094,1.424,1.424,0,0,1,.506-.132c.2-.021.5-.058.659-.082l.288-.044V20.677c0-.8.022-1.058.1-1.16a1.713,1.713,0,0,0,.1-.827,1.73,1.73,0,0,1,.113-.865.615.615,0,0,0,.071-.459.8.8,0,0,1,.059-.48,1.149,1.149,0,0,0,.1-.436.755.755,0,0,1,.1-.377.677.677,0,0,0,.1-.348,1.053,1.053,0,0,1,.1-.41.93.93,0,0,0,.1-.342.253.253,0,0,1,.068-.19.22.22,0,0,0,.068-.169,4.876,4.876,0,0,1,.372-.868c.2-.407.372-.761.372-.785a.615.615,0,0,1,.141-.194,1.859,1.859,0,0,0,.246-.352,5.972,5.972,0,0,1,2.79-2.1.5.5,0,0,0,.244-.108,1.485,1.485,0,0,1,.559-.065,1.747,1.747,0,0,0,.69-.1,4.686,4.686,0,0,1,1.895,0M57.028,58.825c-.018.047-.024,2.643-.015,5.77l.017,5.685h1.218l.018-2.248c.021-2.689-.141-2.408,1.374-2.376,1.267.027,1.091-.083,1.89,1.173.571.9,1.429,2.26,1.577,2.5a1.378,1.378,0,0,0,.116.169c.019.019.149.209.288.423l.254.389h.71c.832,0,.819.023.372-.656a4.272,4.272,0,0,1-.338-.566.091.091,0,0,0-.051-.075c-.049-.022-.97-1.377-1.025-1.508a.61.61,0,0,0-.089-.135,17.48,17.48,0,0,1-1.068-1.705c0-.045.175-.13.389-.19a3.393,3.393,0,0,0-.082-6.634,37.816,37.816,0,0,0-5.555-.018m38.549.851a3.353,3.353,0,0,0-.071,1.054c0,1.286.022,1.25-.778,1.274l-.609.019v.947l.641.02a1.5,1.5,0,0,1,.693.1c.029.045.053,1.386.053,2.979,0,3.843.044,3.995,1.248,4.4a2.279,2.279,0,0,0,1.973-.37c.165-.267-.259-.907-.5-.751a1.018,1.018,0,0,1-1.45-.465,37.223,37.223,0,0,1-.034-5.8,3.2,3.2,0,0,1,.863-.093l.774-.019.02-.491.02-.491h-.764c-1.028,0-.961.081-1-1.223l-.034-1.094-.487-.009a3.934,3.934,0,0,0-.558.014m-32.929.477a2.3,2.3,0,0,1-.338,4.249,15.045,15.045,0,0,1-3.914.059,22.987,22.987,0,0,1-.028-4.494,7.258,7.258,0,0,1,1.98-.062l1.895.024.406.224M70.16,61.83a4.754,4.754,0,0,0-1.726.755,4.573,4.573,0,0,0-.948,1.007.4.4,0,0,1-.09.152,5.041,5.041,0,0,0-.555,3.375,4.081,4.081,0,0,0,3.386,3.359,3.667,3.667,0,0,0,2.2-.15,4.413,4.413,0,0,0,1.8-1c.086-.225-.5-.826-.623-.634a3.7,3.7,0,0,1-1.287.7,3.145,3.145,0,0,1-4.232-2.272c-.13-.658-.446-.6,3.371-.62l3.369-.018-.009-.668a4,4,0,0,0-2.664-3.863,7.42,7.42,0,0,0-2-.128m9.2,0a5.468,5.468,0,0,0-2.216,1.063c-.177.138-.144.357.1.681.16.21.242.27.295.216,1.321-1.347,3.786-1.351,4.539-.007.178.317.191.4.209,1.252.025,1.175.016,1.187-.568.77-1.936-1.383-4.629-.718-5.126,1.265-.707,2.819,2.817,4.646,5.161,2.676.408-.343.509-.308.535.182l.02.391.555-.02.555-.02.019-3.079c.023-3.663-.014-3.9-.724-4.606a4.479,4.479,0,0,0-3.356-.765m9.576.022a3.79,3.79,0,0,0-1.553.649,4.645,4.645,0,0,0-.009,7.292,4.069,4.069,0,0,0,5-.207c.432-.406.432-.474.006-.831l-.342-.287-.246.23-.345.32a3.045,3.045,0,0,1-3.378-.08,3.848,3.848,0,0,1-.63-4.918A3.086,3.086,0,0,1,88.5,63.1c.151-.063.348-.148.437-.191a3.17,3.17,0,0,1,2.874.667l.262.246.177-.156c.319-.282.484-.467.484-.542a2.76,2.76,0,0,0-.811-.764c-.075-.024-.137-.068-.137-.1s-.053-.072-.118-.091-.286-.1-.491-.18a6.249,6.249,0,0,0-2.233-.14m-17.529.907a2.779,2.779,0,0,1,2.257,2.279c.151.652.358.607-2.8.607s-2.959.04-2.8-.579a2.858,2.858,0,0,1,3.345-2.307m9.5,3.27c1.128.365,1.4.713,1.4,1.794,0,.922-.082,1.078-.777,1.476-1.789,1.024-3.825.214-3.825-1.521,0-1.387,1.607-2.264,3.2-1.748" transform="translate(-52.719 -9.2)" fill="#fff" fill-rule="evenodd"/>
  <path id="path3" d="M75.307,14.482a2.424,2.424,0,0,1-.711.123,3.222,3.222,0,0,0-1.61.5,5.977,5.977,0,0,0-2.021,1.838,11.079,11.079,0,0,0-1.329,3.123,1.3,1.3,0,0,1-.1.369,1.408,1.408,0,0,0-.1.444.352.352,0,0,1-.068.243.99.99,0,0,0-.07.461,1.548,1.548,0,0,1-.1.588,2.12,2.12,0,0,0-.1.832,2.07,2.07,0,0,1-.113.877c-.092.178-.1.37-.077,1.147.038,1.053.02,1.106-.388,1.161a5.175,5.175,0,0,0-1.236.237.774.774,0,0,1-.308.076,1.34,1.34,0,0,0-.408.1,1.408,1.408,0,0,1-.444.1.352.352,0,0,0-.243.068.313.313,0,0,1-.224.067,3.747,3.747,0,0,0-1.2.381,1.848,1.848,0,0,1-.424.161,18.873,18.873,0,0,0-2.7,1.4,1.139,1.139,0,0,1-.32.227,7.721,7.721,0,0,0-1.574,1.665,1.915,1.915,0,0,1-.3.467.409.409,0,0,0-.135.245,1.192,1.192,0,0,1-.093.345,6.308,6.308,0,0,0-.425,2.448,2.73,2.73,0,0,0,.052.942,1.322,1.322,0,0,1,.068.489,1.433,1.433,0,0,0,.089.538,1.384,1.384,0,0,1,.106.416,12.657,12.657,0,0,0,1.125,2.28.705.705,0,0,1,.161.273A24.478,24.478,0,0,0,63.6,42.4c.381.24.745.476.809.524a7.629,7.629,0,0,0,.827.529c.374.193.385.576.042,1.482a2.744,2.744,0,0,0-.177.656.327.327,0,0,1-.068.231.6.6,0,0,0-.068.344,1.7,1.7,0,0,1-.1.546,1.884,1.884,0,0,0-.1.6,1.468,1.468,0,0,1-.1.55,23.556,23.556,0,0,0-.023,4.267,2.874,2.874,0,0,1,.127.563,3.137,3.137,0,0,0,.278.964.587.587,0,0,1,.059.213,4.555,4.555,0,0,0,.613,1.23.388.388,0,0,1,.131.193c0,.494,2.251,1.869,3.058,1.868a.313.313,0,0,1,.224.067,2.233,2.233,0,0,0,.732.07,2.193,2.193,0,0,1,.859.1,1.994,1.994,0,0,0,1.172.017,4.122,4.122,0,0,1,.96-.13,5.807,5.807,0,0,0,2.32-.437,1.327,1.327,0,0,1,.424-.093.866.866,0,0,0,.319-.059c.159-.08.815-.345,1.065-.43.112-.038.6-.263,1.088-.5,1.334-.651,1.14-.717,2.807.961a20.3,20.3,0,0,0,1.587,1.5,2.014,2.014,0,0,1,.372.26A11.969,11.969,0,0,0,85.913,60.1c.223.066.476.147.562.18a1.986,1.986,0,0,0,.531.061c.371,0,.941.264.592.274-.07,0-5.61,0-12.31,0-10.789-.006-12.2,0-12.317.1-.1.077-.321.1-.87.1a3.205,3.205,0,0,0-3.519,2.912c-.1.592-.133,9.6-.032,9.843a1.206,1.206,0,0,1,.064.457c-.045.62.855,2.221,1.248,2.221a.739.739,0,0,1,.288.17,1.121,1.121,0,0,0,.413.212.509.509,0,0,1,.248.1,1.224,1.224,0,0,0,.489.061,1.159,1.159,0,0,1,.584.1c.2.151,40.89.151,41.089,0a1.159,1.159,0,0,1,.584-.1,1.224,1.224,0,0,0,.489-.061.509.509,0,0,1,.248-.1,1.12,1.12,0,0,0,.413-.212.739.739,0,0,1,.288-.17c.393,0,1.293-1.6,1.248-2.221a1.205,1.205,0,0,1,.064-.457c.1-.244.072-9.251-.032-9.843a3.205,3.205,0,0,0-3.519-2.912c-.555,0-.767-.028-.87-.106-.12-.092-.819-.1-6.091-.092-7.032.014-6.254.032-6.039-.137a.8.8,0,0,1,.529-.135,2.406,2.406,0,0,0,.6-.077,5.178,5.178,0,0,0,1.341-.613.96.96,0,0,1,.319-.19A5.955,5.955,0,0,0,93.7,58.243a6.444,6.444,0,0,1,.424-.659,7.6,7.6,0,0,0,.76-1.573.225.225,0,0,1,.068-.173.222.222,0,0,0,.068-.171,1.2,1.2,0,0,1,.093-.351,5.819,5.819,0,0,0,.439-1.677,1.987,1.987,0,0,1,.131-.52,1.843,1.843,0,0,0,.082-.618,1.664,1.664,0,0,1,.1-.664,2.677,2.677,0,0,0,.095-1.083,4.058,4.058,0,0,1,.067-1.028,1.079,1.079,0,0,0,.074-.409c0-.365.055-.483.227-.486a.8.8,0,0,0,.314-.1,1.337,1.337,0,0,1,.52-.1.756.756,0,0,0,.393-.07.339.339,0,0,1,.237-.068,1.234,1.234,0,0,0,.385-.077,2.989,2.989,0,0,1,.461-.128,4.011,4.011,0,0,0,.508-.136l.372-.132.372-.131c.13-.046.328-.107.44-.135a2.919,2.919,0,0,0,.488-.2,1.476,1.476,0,0,1,.365-.146,11.243,11.243,0,0,0,2.764-1.641.927.927,0,0,1,.277-.186,1.3,1.3,0,0,0,.539-.519,1.491,1.491,0,0,1,.33-.45,5.112,5.112,0,0,0,1.15-2.538,1.218,1.218,0,0,1,.066-.464,7.752,7.752,0,0,0-.185-2.849.722.722,0,0,1-.076-.285,5.468,5.468,0,0,0-.983-2.156,3.226,3.226,0,0,1-.3-.476c0-.076-2.268-2.311-2.345-2.311a1.41,1.41,0,0,1-.368-.27A1.559,1.559,0,0,0,101.69,33a1.425,1.425,0,0,1-.343-.255,5.091,5.091,0,0,0-1.088-.728c-.192-.112-.438-.261-.546-.333s-.265-.171-.349-.221c-.16-.1-.216-.448-.085-.529a.222.222,0,0,0,.068-.171,1.2,1.2,0,0,1,.093-.351,4.021,4.021,0,0,0,.319-1.068l.118-.783a2.417,2.417,0,0,1,.138-.554,1.748,1.748,0,0,0,.076-.579,2.2,2.2,0,0,1,.1-.679,13.654,13.654,0,0,0,0-3.428,1.55,1.55,0,0,1-.1-.575,1.55,1.55,0,0,0-.1-.575,1.009,1.009,0,0,1-.1-.412.658.658,0,0,0-.046-.286,3.953,3.953,0,0,1-.292-.837,2.426,2.426,0,0,0-.307-.508,5.708,5.708,0,0,1-.4-.635,3.045,3.045,0,0,0-.994-.92,6.75,6.75,0,0,0-1.567-.734,1.367,1.367,0,0,1-.415-.1,1.872,1.872,0,0,0-.689-.092,1.079,1.079,0,0,1-.518-.065,7.013,7.013,0,0,0-2.1,0,1.89,1.89,0,0,1-.633.064,1.941,1.941,0,0,0-.739.092,1.362,1.362,0,0,1-.4.1,1.322,1.322,0,0,0-.4.1,1.352,1.352,0,0,1-.415.1.781.781,0,0,0-.29.059,5.889,5.889,0,0,1-.794.28,9.965,9.965,0,0,0-1.9.82,10.759,10.759,0,0,1-1.354.6,10.566,10.566,0,0,1-1.555-1.421c-.781-.782-1.451-1.422-1.488-1.422a1.019,1.019,0,0,1-.305-.211,4.748,4.748,0,0,0-.5-.379c-.146-.093-.3-.2-.338-.229A9.551,9.551,0,0,0,79.59,15.13a1.891,1.891,0,0,1-.41-.169,1.551,1.551,0,0,0-.508-.169,1.354,1.354,0,0,1-.417-.1,1.884,1.884,0,0,0-.6-.1,1.468,1.468,0,0,1-.55-.1,4.006,4.006,0,0,0-1.8-.005m1.731.073a1.468,1.468,0,0,0,.55.1,1.884,1.884,0,0,1,.6.1,1.345,1.345,0,0,0,.411.1,1.43,1.43,0,0,1,.486.169,1.6,1.6,0,0,0,.411.169,8.678,8.678,0,0,1,1.424.689,3.676,3.676,0,0,0,.325.225,4.714,4.714,0,0,1,.913.634c0,.026.1.1.22.172s.876.776,1.679,1.571a17.335,17.335,0,0,0,1.557,1.445,14.918,14.918,0,0,0,1.375-.643c.7-.353,1.318-.642,1.368-.642a1.185,1.185,0,0,0,.314-.095c.122-.052.405-.15.628-.217a2.532,2.532,0,0,0,.47-.176.518.518,0,0,1,.256-.054,1.388,1.388,0,0,0,.435-.1,1.322,1.322,0,0,1,.4-.1,1.413,1.413,0,0,0,.415-.109,1.384,1.384,0,0,1,.675-.076,1.444,1.444,0,0,0,.634-.06,5.5,5.5,0,0,1,2.067,0,.965.965,0,0,0,.533.06,1.205,1.205,0,0,1,.61.073,1.512,1.512,0,0,0,.439.112,7.832,7.832,0,0,1,1.63.775,2.9,2.9,0,0,1,.92.876,4.709,4.709,0,0,0,.364.575,3.542,3.542,0,0,1,.419.846,3.3,3.3,0,0,0,.207.543.667.667,0,0,1,.057.3,1,1,0,0,0,.1.409,1.439,1.439,0,0,1,.1.55,2.013,2.013,0,0,0,.1.624,5.592,5.592,0,0,1,.1,1.635,5.592,5.592,0,0,1-.1,1.635,2.15,2.15,0,0,0-.1.666,2.151,2.151,0,0,1-.1.666,1.7,1.7,0,0,0-.1.546.6.6,0,0,1-.068.344.462.462,0,0,0-.067.292,3.611,3.611,0,0,1-.313,1.149,1.207,1.207,0,0,0-.094.311,1.051,1.051,0,0,1-.11.308c-.145.29-.052.495.305.677a1.211,1.211,0,0,1,.309.2,1.716,1.716,0,0,0,.394.239,4.48,4.48,0,0,1,1.1.731,1.36,1.36,0,0,0,.353.254,1.4,1.4,0,0,1,.359.271,1.3,1.3,0,0,0,.369.271A23.654,23.654,0,0,1,105,36.371a5.6,5.6,0,0,1,.981,2.182.714.714,0,0,0,.076.281,6.773,6.773,0,0,1,.168,2.76,1.017,1.017,0,0,0-.064.494.764.764,0,0,1-.071.457,1.046,1.046,0,0,0-.109.311,5.492,5.492,0,0,1-.944,1.683,1.606,1.606,0,0,0-.342.454c0,.117-.308.409-.575.544a1.825,1.825,0,0,0-.4.312.9.9,0,0,1-.249.209,3.141,3.141,0,0,0-.478.3,9.645,9.645,0,0,1-1.7.916,3.352,3.352,0,0,0-.515.194c-.245.107-.613.246-.818.31s-.433.14-.508.168a3.553,3.553,0,0,1-.846.255,1.913,1.913,0,0,0-.45.127,1.225,1.225,0,0,1-.419.1.361.361,0,0,0-.248.068.552.552,0,0,1-.326.069,2.935,2.935,0,0,0-.69.127l-.406.126-.034.4a1.708,1.708,0,0,1-.1.5,4.529,4.529,0,0,0-.049.981,2.541,2.541,0,0,1-.089,1.077,1.71,1.71,0,0,0-.106.677,1.665,1.665,0,0,1-.1.652,1.072,1.072,0,0,0-.1.435,2.093,2.093,0,0,1-.064.474c-.034.114-.113.39-.176.614s-.157.506-.209.628a1.176,1.176,0,0,0-.095.351.22.22,0,0,1-.059.165.513.513,0,0,0-.1.249,7.424,7.424,0,0,1-.827,1.641c-.146.218-.33.5-.409.633a5.019,5.019,0,0,1-1.084,1.1.708.708,0,0,0-.273.16,3.588,3.588,0,0,1-1.917.712,2.163,2.163,0,0,0-.588.128,6.056,6.056,0,0,1-2.119-.019,1.34,1.34,0,0,0-.521-.1,1.9,1.9,0,0,1-.508-.063c-.086-.033-.338-.113-.562-.178A11.869,11.869,0,0,1,82.9,58.4a1.344,1.344,0,0,0-.329-.232,18.6,18.6,0,0,1-1.628-1.518l-1.387-1.392H79.22a2.819,2.819,0,0,0-1.219.43c-.487.237-.977.462-1.089.5-.259.09-.912.354-1.065.431a.866.866,0,0,1-.319.059,1.32,1.32,0,0,0-.424.094,3.612,3.612,0,0,1-1.149.313.462.462,0,0,0-.292.067,2.752,2.752,0,0,1-.833.07,2.509,2.509,0,0,0-.96.1,1.563,1.563,0,0,1-1.083,0,2.193,2.193,0,0,0-.859-.1,2.231,2.231,0,0,1-.732-.07.32.32,0,0,0-.227-.068c-.82,0-3.055-1.363-3.055-1.863a.4.4,0,0,0-.136-.2,4.016,4.016,0,0,1-.57-1.117c-.026-.093-.071-.23-.1-.3a3.564,3.564,0,0,1-.275-.981,2.874,2.874,0,0,0-.127-.563,22.115,22.115,0,0,1,.023-4.132,1.468,1.468,0,0,0,.1-.55,1.884,1.884,0,0,1,.1-.6,1.7,1.7,0,0,0,.1-.546.6.6,0,0,1,.068-.344.361.361,0,0,0,.068-.248,1.266,1.266,0,0,1,.093-.419,6.506,6.506,0,0,0,.209-.619c.064-.223.142-.493.175-.6.081-.265-.019-.4-.544-.732-.242-.153-.5-.32-.575-.371-.179-.123-.852-.577-.985-.665-.058-.038-.21-.131-.338-.205a37.022,37.022,0,0,1-3.042-2.987A.705.705,0,0,0,60,38.772a11.652,11.652,0,0,1-1.125-2.312,1.121,1.121,0,0,0-.109-.413.761.761,0,0,1-.07-.459.953.953,0,0,0-.06-.476,3.8,3.8,0,0,1,0-1.752.666.666,0,0,0,.061-.41,1.924,1.924,0,0,1,.17-.823,5.315,5.315,0,0,0,.21-.7.41.41,0,0,1,.14-.224,1.579,1.579,0,0,0,.276-.442,7.862,7.862,0,0,1,1.593-1.686,1.155,1.155,0,0,0,.323-.229,16.855,16.855,0,0,1,2.643-1.367,1.338,1.338,0,0,0,.338-.137,5.216,5.216,0,0,1,1.333-.432.315.315,0,0,0,.224-.068.352.352,0,0,1,.243-.068,1.408,1.408,0,0,0,.444-.1,1.34,1.34,0,0,1,.408-.1.774.774,0,0,0,.308-.076,5.174,5.174,0,0,1,1.236-.237c.42-.057.444-.126.4-1.136a2.541,2.541,0,0,1,.069-1.147,2.57,2.57,0,0,0,.113-.914,2.087,2.087,0,0,1,.1-.821,1.548,1.548,0,0,0,.1-.588.99.99,0,0,1,.07-.461.352.352,0,0,0,.068-.243,1.408,1.408,0,0,1,.1-.444,1.306,1.306,0,0,0,.1-.376,11.291,11.291,0,0,1,1.363-3.166,5.988,5.988,0,0,1,2.021-1.81,3.263,3.263,0,0,1,1.576-.474,2.424,2.424,0,0,0,.711-.123,3.465,3.465,0,0,1,1.664.005m-2.157,2.018a6.217,6.217,0,0,0-3.427,4.576,18.371,18.371,0,0,0-.532,5.009V27.9l-.694.077a22.221,22.221,0,0,0-2.826.514l-.643.167a16.749,16.749,0,0,0-2.538.949,12.482,12.482,0,0,0-1.421.816c-.019.019-.206.166-.416.325a5.054,5.054,0,0,0-1.828,2.511,4.371,4.371,0,0,0,.475,3.139c1.024,2.068,3.448,4.249,6.5,5.851.843.442.814.393.57.966a24.791,24.791,0,0,0-.866,2.369c-.06.2-.139.465-.175.579a19.249,19.249,0,0,0-.608,3.922,7.449,7.449,0,0,0,.717,3.226,1.671,1.671,0,0,1,.162.3c0,.312,1.229,1.264,2.032,1.574a8.623,8.623,0,0,0,4.154.019c.115-.036.392-.115.615-.177s.528-.153.677-.2c.473-.159,1.556-.584,1.775-.7.066-.034.273-.137.459-.228.681-.333,1.514-.79,2.037-1.116.9-.565.742-.6,1.431.271,4.171,5.247,8.448,6.934,11,4.336a7.178,7.178,0,0,0,1.607-2.628,18.38,18.38,0,0,0,.943-6.4c-.019-1.314-.007-1.346.5-1.346a11.572,11.572,0,0,0,1.674-.272c.13-.033.511-.123.846-.2a17.8,17.8,0,0,0,2.775-.877c2.619-1.214,3.818-2.276,4.416-3.91a4.966,4.966,0,0,0,0-2.213,10.683,10.683,0,0,0-4.107-4.949,26.826,26.826,0,0,0-2.876-1.767c-.755-.4-.793-.468-.544-1.025.062-.139.138-.313.168-.387l.137-.338c.1-.249.441-1.289.585-1.793.059-.2.134-.465.167-.579a12.986,12.986,0,0,0,.2-6.223,4.989,4.989,0,0,0-1.024-1.76,5.28,5.28,0,0,0-4.628-1.131,16.093,16.093,0,0,0-1.929.488,14.907,14.907,0,0,0-1.59.613,23.292,23.292,0,0,0-3,1.6c-.814.5-.807.5-1.042.174a21.866,21.866,0,0,0-2.273-2.57c-2.789-2.751-5.752-4.037-7.63-3.311m2.084.045c2.41.533,5.683,3.048,7.731,5.94.214.3.431.37.636.2a24.222,24.222,0,0,1,3.389-1.873,12.92,12.92,0,0,1,1.455-.595c6.153-2.067,9.143.931,7.647,7.667l-.165.744c-.064.288-.711,2.276-.814,2.5-.585,1.29-.6,1.23.3,1.7a27.027,27.027,0,0,1,3.153,1.953c.1.077.294.232.438.343s.431.354.637.539.43.383.5.44a9.094,9.094,0,0,1,2.219,3.318c1.006,2.992-2.052,5.868-7.453,7.007-.279.059-.614.133-.744.164s-.6.111-1.049.176c-1.041.153-.946-.044-.957,1.979-.062,11.075-6.64,12.893-13.585,3.753-.393-.517-.307-.52-1.218.044a29.527,29.527,0,0,1-2.886,1.53c-4.791,1.965-8.148,1.418-9.185-1.5-.71-2-.348-5.58.861-8.522.1-.233.123-.3.392-.958.239-.585.269-.533-.562-.973-4.322-2.289-7.123-5.414-7.138-7.963-.014-2.366,2.587-4.536,6.664-5.56.694-.174,1.2-.282,1.793-.382l1.01-.173a4.556,4.556,0,0,1,.609-.065c.45,0,.441.033.421-1.6-.084-6.791,2.229-10.647,5.9-9.836m-1.389,1.766c-1.166.275-2.093,2-2.55,4.732a22.2,22.2,0,0,0-.1,4.619c.031.11.195.118,2.211.119,1.2,0,2.523.033,2.945.072.8.075.875.06,1.17-.22.974-.927,1.816-1.694,2.328-2.118.223-.185.421-.354.44-.374s.277-.23.575-.465c1.08-.854,1.083-.629-.027-1.968-2.508-3.024-5.319-4.791-6.994-4.4m1.313.2a.577.577,0,0,0,.226.062,10.294,10.294,0,0,1,1.489.694,18.638,18.638,0,0,1,3.959,3.638c.13.161.351.432.491.6a1.654,1.654,0,0,1,.254.366c0,.065-.033.095-1.083.937-.428.344-.794.642-.812.663s-.156.141-.3.267c-.3.257-1.644,1.493-1.943,1.791-.227.226-.674.243-2.761.1-.642-.043-1.594-.056-2.24-.03l-1.123.045-.045-.9c-.216-4.3.951-7.905,2.7-8.333a3.845,3.845,0,0,1,1.195.1m15.928,2.88a12.47,12.47,0,0,0-2.369.634c-.074.035-.3.127-.505.205a21.212,21.212,0,0,0-2.033.98c-.13.081-.42.247-.643.37a6.333,6.333,0,0,0-1.127.771c-.064.092-.018.186.531,1.068.272.438.5.813.5.834a2.03,2.03,0,0,0,.181.324c.1.158.483.88.852,1.606.794,1.56.746,1.5,1.283,1.65,1.361.385,3.236,1.024,4.329,1.475a3.109,3.109,0,0,0,.778.247c.3-.057,1.113-2.377,1.581-4.489.066-.3.171-1.153.236-1.929a4.319,4.319,0,0,0-1.014-3.348,4.139,4.139,0,0,0-2.574-.4m1.879.208c.709.2,1.089.655,1.412,1.711a14.691,14.691,0,0,1,0,3.316,18.29,18.29,0,0,1-.666,2.639,15.286,15.286,0,0,1-.643,1.722.312.312,0,0,0-.057.178c0,.276-.172.285-.791.041a22.869,22.869,0,0,0-2.193-.791.283.283,0,0,1-.166-.059,2.186,2.186,0,0,0-.47-.177c-.223-.065-.528-.158-.677-.206s-.453-.137-.677-.2c-.69-.188-.71-.207-1.156-1.086-.794-1.568-1.2-2.3-1.9-3.444l-.493-.8.149-.116c.157-.122,1.591-1.015,1.63-1.015.013,0,.232-.115.489-.255s.71-.359,1.008-.485a5.263,5.263,0,0,0,.606-.286.28.28,0,0,1,.159-.056,1.136,1.136,0,0,0,.308-.091,13.846,13.846,0,0,1,1.837-.545,6.28,6.28,0,0,1,2.285.008M84.188,25.764c-.093.077-.29.236-.437.353-.514.41-1.508,1.264-2,1.715-.443.409-.5.382,1.351.671.354.055.8.129.981.164,1.22.229,1.532.291,1.89.375.679.159.687.106.141-.907-1.309-2.428-1.53-2.7-1.93-2.371m.715.516c.358.588.5.832.791,1.37.111.2.289.53.4.724.341.615.334.618-.752.393-.807-.168-1.358-.265-2.91-.512-.922-.147-.977-.031.677-1.421,1.536-1.292,1.378-1.243,1.8-.553M73.191,29.723a.323.323,0,0,0-.077.288c.018.1.068.391.11.652.147.9.279,1.625.337,1.861.032.13.08.383.105.561.1.718.2.7.857-.128.319-.406.637-.8.706-.882s.263-.308.43-.507c.326-.387,1.26-1.454,1.4-1.6.3-.31.067-.35-2.049-.35-1.49,0-1.727.014-1.822.11m3.691.138c.037.037-.053.182-.226.364-.345.363-1.558,1.8-2.117,2.5-.673.849-.606.822-.731.292-.06-.253-.155-.72-.213-1.036s-.133-.728-.169-.914a10.832,10.832,0,0,1-.143-1.167,14.753,14.753,0,0,1,3.6-.041m-6.6.031-.981.172a24.4,24.4,0,0,0-2.47.6c-5.269,1.786-5.792,4.023-1.783,7.626a20.82,20.82,0,0,0,3.035,2.072c1.332.712,1.138.742,1.676-.256a39.146,39.146,0,0,1,2.078-3.439c.653-1,.629-.891.408-1.806-.361-1.5-.548-2.44-.785-3.959-.078-.5-.154-.952-.167-1-.029-.1-.488-.1-1.011-.009m8.869.482a49.322,49.322,0,0,0-4.645,5.62c-.087.191-.047.343.653,2.45,1,3.02,1.957,5.256,2.276,5.333.744.178,2.445.543,2.965.636.932.167,1.868.32,3.046.5,1.889.284,1.7.345,2.818-.9.478-.531.885-.981.9-1,.1-.091,1.172-1.38,1.526-1.827.221-.279.419-.523.44-.541a19.1,19.1,0,0,0,1.282-1.8,26.521,26.521,0,0,0-1.027-3.278c-.208-.582-.226-.631-.417-1.117-.058-.149-.247-.634-.42-1.078-.288-.743-.7-1.689-.833-1.934-.08-.144-.349-.263-.839-.372l-.9-.2c-.261-.059-.794-.167-1.184-.241s-.848-.163-1.015-.2-.64-.111-1.049-.171-.912-.137-1.117-.172c-.315-.054-1.726-.2-1.924-.2a3.37,3.37,0,0,0-.543.491m-7.99-.3a16.237,16.237,0,0,1,.306,1.777c.058.371.2,1.06.381,1.895.054.242.124.577.157.744a3.675,3.675,0,0,0,.123.474c.223.587.191.724-.365,1.557-.577.864-1.379,2.144-1.379,2.2a1.964,1.964,0,0,1-.175.313c-.238.377-.841,1.487-.887,1.633-.051.162-.179.149-.5-.051a2.121,2.121,0,0,0-.3-.169,24.451,24.451,0,0,1-2.86-1.816c-.069-.062-.274-.232-.456-.378a8.367,8.367,0,0,1-2.539-3.22,2.309,2.309,0,0,1-.079-1.317.491.491,0,0,0,.107-.241c.024-.111.07-.2.1-.2s.075-.056.1-.124a5.236,5.236,0,0,1,1.5-1.3,1.831,1.831,0,0,0,.285-.156,12.668,12.668,0,0,1,1.471-.657c.255-.1.745-.253,1.184-.371.242-.065.516-.142.609-.172A24.238,24.238,0,0,1,70.618,30L71,29.963a.168.168,0,0,1,.158.107m9.409.023c.261.039.7.1.981.131,1.029.123,2.771.427,4.061.708.279.061.645.137.812.169a3.557,3.557,0,0,1,.5.131,1.149,1.149,0,0,0,.334.073c.173,0,.457.251.457.4a.292.292,0,0,0,.06.174,7.7,7.7,0,0,1,.481,1.127,2.835,2.835,0,0,0,.16.407c.15.335.215.5.491,1.22.06.158.134.349.164.423s.15.425.268.778.24.7.271.778.105.288.165.474.2.621.31.965a5.794,5.794,0,0,1,.2.728,19.9,19.9,0,0,1-1.761,2.4c-.02.019-.141.171-.271.338s-.314.4-.411.508c-.454.524-1.265,1.445-1.459,1.658-.119.13-.277.307-.351.393s-.282.315-.462.508l-.327.351-.44-.015a8.008,8.008,0,0,1-.846-.082c-.223-.037-.741-.116-1.151-.175-1.1-.16-2.012-.319-2.944-.513-.2-.043-.509-.1-.677-.133s-.518-.1-.778-.164-.593-.134-.739-.166c-.3-.064-.422-.2-.608-.664-.071-.177-.2-.473-.279-.66s-.248-.582-.366-.88-.241-.6-.274-.677-.11-.288-.173-.474c-.117-.348-.162-.47-.295-.8-.125-.312-.75-2.233-.99-3.047l-.116-.394.224-.317a4.062,4.062,0,0,1,.266-.35c.023-.019.267-.338.542-.711s.518-.692.538-.711.431-.506.912-1.083c.921-1.105,1.142-1.353,2.06-2.314.633-.663.6-.651,1.462-.522m9.477,1.954a.992.992,0,0,0,.092.423c.137.375.66,1.749.754,1.983.03.074.181.5.334.947.454,1.318.483,1.387.579,1.387a18.452,18.452,0,0,0,1.843-2.963c.285-.56.333-.531-2.555-1.542-.9-.317-.985-.335-1.047-.236m.675.25c.186.062.434.153.552.2a1.284,1.284,0,0,0,.269.091c.06,0,.869.293,1.209.438.112.048.351.141.531.208.514.191.484.276-.886,2.49l-.579.936-.094-.259c-.052-.143-.154-.442-.227-.665s-.16-.467-.194-.541a1.919,1.919,0,0,1-.1-.271c-.037-.146-.346-1-.443-1.218-.033-.074-.113-.272-.178-.44-.217-.555-.309-.777-.374-.9-.126-.23-.008-.248.511-.075M81.442,33.53a4.047,4.047,0,0,0-.265,7.76,6.046,6.046,0,0,0,2.4.037,4.2,4.2,0,0,0,2.516-2.164,4.06,4.06,0,0,0-4.653-5.634m2.22.215a3.94,3.94,0,0,1,2.5,4.877,3.888,3.888,0,0,1-7.589-1.194,3.841,3.841,0,0,1,5.091-3.683m11.815.52a1.819,1.819,0,0,0-.2.321c-.124.255-.531.992-.6,1.083-.027.037-.15.25-.273.474-.227.413-.93,1.516-1.606,2.517l-.374.555.085.325c.047.179.127.477.177.663.133.488.409,1.677.526,2.267.094.473.173.912.387,2.156.1.6.088.592.956.452a19.868,19.868,0,0,0,4.412-1.134,11.264,11.264,0,0,0,1.843-.975c2.222-1.489,2.191-3.077-.106-5.378a17.582,17.582,0,0,0-3.421-2.564,4.369,4.369,0,0,1-.458-.259,8.888,8.888,0,0,0-1.222-.621.454.454,0,0,0-.13.118m.878.394c.325.17.636.336.692.37a22.947,22.947,0,0,1,2.2,1.455,14.4,14.4,0,0,1,2.235,2.15c1.659,1.968.9,3.615-2.336,5.078a20.359,20.359,0,0,1-3.79,1.094c-1.506.252-1.577.242-1.636-.236-.025-.2-.1-.646-.158-.981s-.137-.746-.167-.914c-.066-.371-.226-1.1-.371-1.692-.059-.242-.135-.562-.168-.711a4.159,4.159,0,0,0-.133-.461c-.164-.43-.1-.654.4-1.39a6.923,6.923,0,0,0,.474-.754.094.094,0,0,1,.055-.079,12.885,12.885,0,0,0,.847-1.342c.026-.056.1-.193.17-.3s.225-.386.349-.609c.381-.687.487-.878.519-.931.061-.1.241-.045.82.258M72.9,38.321a34.2,34.2,0,0,0-1.823,3.147c-.133.3.287.509,2.549,1.247,1.3.423,1.395.406,1.126-.188-.247-.545-.973-2.491-1.271-3.4-.317-.971-.39-1.073-.581-.8m.388.7a.273.273,0,0,0,.041.158,7.745,7.745,0,0,1,.3.773c.461,1.313.595,1.671.84,2.252.285.675.289.7.09.646-.4-.11-1.521-.461-1.641-.514-.074-.033-.288-.109-.474-.17a9.82,9.82,0,0,1-1.032-.405c-.27-.116-.274-.208-.027-.62.106-.177.394-.679.641-1.115s.577-.99.734-1.231l.286-.438.122.274a1.408,1.408,0,0,1,.123.39m16.94,3.1c-.62.787-1.291,1.587-2.077,2.476-.5.569-.518.668-.109.729a27.527,27.527,0,0,0,3.666-.018c.184-.1.123-.642-.294-2.633-.074-.354-.166-.8-.2-1-.108-.557-.242-.5-.983.444m.794-.524a2.069,2.069,0,0,1,.134.457c.032.174.109.561.17.858s.134.678.162.846.092.54.142.827c.118.675.25.628-1.751.628-2.292,0-2.2.086-1.118-1.117.181-.2.739-.862,1.6-1.9.105-.127.273-.344.372-.483.214-.3.191-.29.284-.115m-21.109,2.3a5.34,5.34,0,0,0-.212.514,1.412,1.412,0,0,1-.1.253,23.171,23.171,0,0,0-.92,3.056,7.909,7.909,0,0,0,.109,4.537c.969,2.048,4.744,1.606,9.211-1.077.958-.575.942-.5.319-1.524-.286-.469-.571-.944-.633-1.055-.376-.671-.769-1.408-1.226-2.3-.589-1.15-.417-1.014-1.753-1.389-1.013-.285-2.753-.857-3.672-1.209s-.874-.362-1.124.2m.756-.2c.725.32,2.928,1.058,4.243,1.421,1.005.277.9.193,1.341,1.071.5,1,1,1.925,1.2,2.256a1.786,1.786,0,0,1,.163.292c0,.019.241.426.535.9a4.262,4.262,0,0,1,.491.931,4.515,4.515,0,0,1-.724.5,1.788,1.788,0,0,0-.286.159c-.349.219-1,.577-1.4.774-.186.09-.389.19-.452.222a17.34,17.34,0,0,1-2.526.9c-3.63.92-5.071-.349-4.637-4.086a18.758,18.758,0,0,1,1.018-4.093,10.863,10.863,0,0,0,.472-1.228c0-.072.092-.139.211-.154a1.91,1.91,0,0,1,.351.131m7.72,2.263a4.377,4.377,0,0,0,.652,1.357c1.324,2.335,1.262,2.27,1.786,1.867a27.535,27.535,0,0,0,2.613-2.312c0-.106-.257-.2-.756-.264-.855-.116-2.152-.341-3.346-.581-.968-.194-.9-.19-.948-.066m.787.174c.5.105,1.36.269,1.793.342,1.137.191,1.719.283,1.98.313.385.044.384.047-.372.729-.984.887-1.022.92-1.6,1.382l-.538.427-.122-.16c-.067-.088-.146-.19-.176-.227a1,1,0,0,1-.1-.169,1.938,1.938,0,0,0-.113-.2,24.328,24.328,0,0,1-1.356-2.447c0-.073.222-.069.609.012m6.144,1.463c-.888.85-1.327,1.259-1.673,1.558-.165.143-.378.331-.472.417s-.516.435-.935.774c-.939.76-.942.632.042,1.843,2.008,2.47,4.175,4.092,5.926,4.436,1.895.372,3.286-1.663,3.794-5.55a18.953,18.953,0,0,0,.017-3.844,24.662,24.662,0,0,0-2.656-.109c-1.414-.023-2.761-.06-2.993-.084l-.421-.042-.628.6m3.22-.3c.643.043,1.608.057,2.208.032.815-.034,1.083-.024,1.134.041a15.629,15.629,0,0,1-.122,4.416,10.041,10.041,0,0,1-.713,2.56.972.972,0,0,0-.1.253,5.762,5.762,0,0,1-.768,1.206c-.992,1.064-2.345.935-4.375-.417-.279-.186-.523-.357-.541-.379s-.217-.194-.44-.38a19.771,19.771,0,0,1-2.741-2.911c-.167-.223-.322-.42-.343-.439-.142-.123-.1-.27.124-.449.134-.107.276-.225.316-.263s.21-.175.377-.3c.516-.4,1.709-1.475,2.809-2.533l.609-.586.711.039c.391.021,1.224.073,1.852.115m13.3,13.495a2.994,2.994,0,0,0,.915.1,2.842,2.842,0,0,1,1.443.292.351.351,0,0,0,.193.044.617.617,0,0,1,.31.126,2.914,2.914,0,0,0,.38.238.9.9,0,0,1,.331.331,2.629,2.629,0,0,0,.265.4,4.335,4.335,0,0,1,.526,1.475c.12.665.135,9.46.017,9.755a1.012,1.012,0,0,0-.061.486.764.764,0,0,1-.071.457,1.037,1.037,0,0,0-.109.319,3.345,3.345,0,0,1-1.053,1.369.739.739,0,0,0-.288.17,1.12,1.12,0,0,1-.413.212.509.509,0,0,0-.248.1.969.969,0,0,1-.43.059,2.03,2.03,0,0,0-.637.1c-.369.154-40.6.154-40.966,0a2.03,2.03,0,0,0-.637-.1.969.969,0,0,1-.43-.059.509.509,0,0,0-.248-.1,1.12,1.12,0,0,1-.413-.212.739.739,0,0,0-.288-.17,3.344,3.344,0,0,1-1.053-1.369,1.037,1.037,0,0,0-.109-.319.764.764,0,0,1-.071-.457,1.012,1.012,0,0,0-.061-.486c-.118-.3-.1-9.09.017-9.755a4.336,4.336,0,0,1,.526-1.475,2.626,2.626,0,0,0,.265-.4.9.9,0,0,1,.331-.331,2.913,2.913,0,0,0,.38-.238.617.617,0,0,1,.31-.126.351.351,0,0,0,.193-.044,2.841,2.841,0,0,1,1.443-.292,2.8,2.8,0,0,0,.914-.1c.339-.147,38.475-.144,38.828,0M61.7,62.966c-.1.113-.112.622-.112,5.919,0,6.712-.11,5.956.863,5.919l.592-.022-.618-.014c-.424-.009-.642-.043-.694-.106s-.072-1.657-.059-5.871l.017-5.779,2.707-.034a22.657,22.657,0,0,0,2.436-.084,33.6,33.6,0,0,0-5.133.072m5.742.081c.49.134.539.14.314.036a1.024,1.024,0,0,0-.372-.1c-.109.005-.095.02.059.063m.581.159a2.67,2.67,0,0,0,.6.282,2.14,2.14,0,0,0-.584-.307c-.026,0-.035.012-.02.026m1.207.82a3.825,3.825,0,0,1,.751,1.263c.071.2.131.317.132.262a3.344,3.344,0,0,0-.916-1.626l-.258-.237.29.338m30.966-.165a.1.1,0,0,0,0,.113c.022.022.041.005.041-.038a3.068,3.068,0,0,1,1.246-.038c.091.035.107.194.107,1.069,0,1.254-.047,1.191.89,1.191.621,0,.738.017.8.118.038.065.07.084.071.042,0-.168-.208-.224-.916-.243l-.74-.019-.019-1.044a4.633,4.633,0,0,0-.093-1.134,2.911,2.911,0,0,0-1.38-.017M63.24,66.5l0,2.2,1.6.018c.878.01,1.709-.005,1.847-.034a9.448,9.448,0,0,0-1.579-.029l-1.829.024-.019-2.189L63.239,64.3v2.2m3.521-2.1c.2.087.371.087.237,0a.489.489,0,0,0-.237-.062l-.135,0,.135.058m.575.168a.616.616,0,0,0,.205.138,2.079,2.079,0,0,1,.746.777c.069.13.127.2.128.164a2.2,2.2,0,0,0-.711-.91c-.285-.2-.369-.235-.369-.169m1.094,1.288a1.284,1.284,0,0,0,.056.3l.054.169,0-.169a.9.9,0,0,0-.056-.3l-.058-.135,0,.135m1.707.643c0,.4.019.636.046.541a3.051,3.051,0,0,0,0-1.049c-.025-.114-.046.109-.048.508m4.9-.554c-.064.025.235.046.664.046s.709-.02.623-.044a4.75,4.75,0,0,0-1.287,0m9.272,0a2.192,2.192,0,0,0,.732.046c.466,0,.777-.02.691-.044a5.79,5.79,0,0,0-1.423,0m9.637,0c-.086.024.213.044.664.044s.75-.02.664-.044a5.033,5.033,0,0,0-1.328,0m-17.237.147c.491.135.554.141.338.036a.984.984,0,0,0-.372-.1c-.156,0-.153.008.034.06m18.95,0c.491.135.554.141.338.036a.984.984,0,0,0-.372-.1c-.156,0-.153.008.034.06m3.847-.019c-.471.017-.642.049-.711.132-.081.1-.076.1.057.031a2.268,2.268,0,0,1,.69-.079,1.5,1.5,0,0,0,.584-.068c.023-.037.032-.061.021-.054s-.3.024-.641.036m-25.7.256c-.167.126-.057.125.165,0,.1-.056.127-.1.068-.1a.488.488,0,0,0-.233.1m3.881.144a4.56,4.56,0,0,1,1.249,1.106c.127.16.115.129-.036-.093a3.775,3.775,0,0,0-1.578-1.259c-.037,0,.127.111.366.246m5.2-.108a.874.874,0,0,0-.254.168,2.693,2.693,0,0,0,.6-.282c.078-.071-.126,0-.35.114m9.678,0a.874.874,0,0,0-.254.168,2.693,2.693,0,0,0,.6-.282c.078-.071-.126,0-.35.114m-5.025.438a2.539,2.539,0,0,0,.435.387c.042-.028-.4-.478-.638-.648-.112-.08-.02.038.2.261m9.272-.212c.112.09.215.151.23.137.037-.036-.281-.3-.365-.3-.037,0,.024.071.135.161m-14.517.117c-.093.077-.228.182-.3.233s-.118.1-.1.119a1.229,1.229,0,0,0,.357-.235c.18-.144.3-.261.271-.26a.718.718,0,0,0-.226.143m-9.436.268a4.316,4.316,0,0,0-.522.558c-.1.143-.058.117.119-.081a7.429,7.429,0,0,1,.567-.556c.168-.144.284-.264.259-.265a2.613,2.613,0,0,0-.424.344m-4.4-.007a.479.479,0,0,0-.013.247c.019.019.055-.062.081-.179a.479.479,0,0,0,.013-.246c-.019-.019-.055.062-.081.179m23.04.2a3.6,3.6,0,0,0-.469.558c-.041.087.009.05.115-.083s.336-.382.517-.558.306-.321.281-.321a2.976,2.976,0,0,0-.443.4m5.875-.131c.371.4.366.434-.1.877-.217.2-.333.327-.258.271.775-.573.833-.742.4-1.153l-.321-.3.288.307m-15.721.229c-.1.154.118.716.278.716.042,0-.005-.089-.188-.353-.12-.173-.121-.194-.015-.355.062-.094.094-.171.072-.171s-.088.074-.147.164m21.631-.045c-.005.149-.024.152-.77.152-1.026,0-.93-.3-.911,2.839l.016,2.677.035-2.707.035-2.707.8-.019c.813-.019.933-.063.838-.3-.019-.048-.037-.018-.04.065M75,67.221a.559.559,0,0,0,.237,0c.065-.017.012-.031-.118-.031s-.184.014-.118.031m1.083,0a.559.559,0,0,0,.237,0c.065-.017.012-.031-.118-.031s-.184.014-.118.031m8.46,0a2.925,2.925,0,0,0,.508,0c.14-.015.025-.027-.254-.027s-.393.012-.254.027m-.66.086-.135.058.135,0a.488.488,0,0,0,.237-.062c.134-.087-.035-.087-.237,0m1.624,0a.746.746,0,0,0,.237.058c.064,0,.051-.021-.034-.058a.746.746,0,0,0-.237-.058c-.064,0-.051.021.034.058m8.392,0-.135.058.135,0a1.284,1.284,0,0,0,.3-.056l.169-.054-.169,0a.9.9,0,0,0-.3.056m1.218,0a.823.823,0,0,0,.271.058h.135l-.135-.058a.823.823,0,0,0-.271-.058h-.135l.135.058m-26.829.19a1.8,1.8,0,0,1-.283.416c-.112.122-.19.235-.174.251a2.223,2.223,0,0,0,.515-.643c.045-.087.069-.172.053-.188s-.066.057-.111.164m30.493-.105a2.429,2.429,0,0,0,.665.051,1.726,1.726,0,0,1,.668.069c.019.038.027.031.017-.017s-.222-.1-.7-.12a2,2,0,0,0-.651.017m-28.751.118c-.021.093-.06.23-.086.3s0,.05.063-.055a.556.556,0,0,0,.086-.3c-.017-.082-.036-.066-.063.055m6.885-.036a.486.486,0,0,0,.2.1c.037,0,.009-.045-.064-.1a.487.487,0,0,0-.2-.1c-.037,0-.009.045.064.1m6.5,0c-.167.126-.057.125.165,0,.1-.056.127-.1.068-.1a.488.488,0,0,0-.233.1m9.978,0c-.093.053-.139.1-.1.1a.749.749,0,0,0,.237-.1c.093-.053.139-.1.1-.1a.749.749,0,0,0-.237.1m-19.606.391a3.166,3.166,0,0,0-.628.911c0,.029.1-.1.212-.286a3.967,3.967,0,0,1,.475-.6,1.043,1.043,0,0,0,.241-.286,1.181,1.181,0,0,0-.3.262m3.714.016a4.2,4.2,0,0,1,.49.643c.095.168.173.272.173.233a2.745,2.745,0,0,0-.684-.944l-.3-.27.317.338m5.218.034c-.473.383-.466.381-.657.22-.14-.118-.14-.118-.012.034.174.205.251.193.557-.087a2.938,2.938,0,0,1,.447-.34.542.542,0,0,0,.186-.133c0-.085-.138,0-.522.306m3.57-.288a.075.075,0,0,0,.064.085c.037,0,.159.126.271.281s.2.25.2.212c0-.1-.535-.676-.539-.577m6.63.136c-.4.315-1.03,1.175-.93,1.274.018.018.119-.14.225-.35a2.883,2.883,0,0,1,.6-.746c.438-.4.483-.471.109-.177m3.147-.141c.264.266.72.633.541.436A2.877,2.877,0,0,0,96.2,67.7c-.112-.077-.173-.109-.135-.072M69.709,68.3a4.194,4.194,0,0,1-.434.622c-.251.294-.254.3-.038.1a3.124,3.124,0,0,0,.661-1c-.016-.016-.1.108-.19.276m20.987,0c-.113.249-.092.3.031.076.057-.106.092-.2.076-.22s-.063.05-.107.145m-23.351.1c-.2.108-.328.2-.285.2a1.789,1.789,0,0,0,.647-.337c.054-.088.065-.092-.362.14m20.988.028c0,.149.015.2.031.118a.739.739,0,0,0,0-.271c-.017-.065-.03,0-.029.153m-1.462.135a1.4,1.4,0,0,0,.066.3c.051.058.013-.3-.046-.434-.043-.094-.049-.053-.02.135m-7.419.009a1.146,1.146,0,0,0,.1.3c.054.125.1.193.1.151a1.147,1.147,0,0,0-.1-.3c-.054-.125-.1-.193-.1-.151m11.04.2a.829.829,0,0,0-.076.288c0,.063.046-.005.1-.153.109-.306.095-.393-.023-.135m-18.954.349a.957.957,0,0,0-.056.4c.024.092.036.074.041-.061a.9.9,0,0,1,.08-.325.344.344,0,0,0,.048-.208c-.013-.04-.064.048-.113.2m-2.684.153a3.518,3.518,0,0,1-.437.269c-.2.113-.342.205-.3.206a3.109,3.109,0,0,0,.811-.471c.054-.087.015-.09-.07,0m9.46.139c0,.13.014.184.031.118a.559.559,0,0,0,0-.237c-.017-.065-.031-.012-.031.118m1.376-.034a2.8,2.8,0,0,1-.007,1.5c-.1.076-.107.091-.017.091.212,0,.259-.814.084-1.455-.051-.186-.077-.247-.059-.135m4.345-.121a.739.739,0,0,0,.271,0c.065-.017,0-.03-.153-.029s-.2.015-.118.031m-.576.066a.559.559,0,0,0,.237,0c.065-.017.012-.031-.118-.031s-.184.014-.118.031m1.354,0a.559.559,0,0,0,.237,0c.065-.017.012-.031-.118-.031s-.184.014-.118.031m5.507.057a.774.774,0,0,0-.036.257c0,.1.025.08.072-.081.067-.234.04-.372-.036-.176m-5.016.031c.2.087.371.087.237,0a.489.489,0,0,0-.237-.062l-.135,0,.135.058m6.5.2a.5.5,0,0,0-.015.244c.017.017.051-.066.075-.185a.556.556,0,0,0,.015-.244c-.015-.015-.049.068-.075.185m-9.34.062a2.644,2.644,0,0,0-.541.422l-.2.227.237-.217a3.836,3.836,0,0,1,.609-.422c.2-.113.342-.205.3-.206a1.881,1.881,0,0,0-.406.2m3.375-.1c.247.129.309.13.14,0a.506.506,0,0,0-.233-.1c-.056,0-.014.044.092.1m.405.19c.069.044.233.164.365.267.252.2.356.231.356.118,0-.037-.053-.069-.118-.07a.863.863,0,0,1-.353-.2.894.894,0,0,0-.3-.2c-.039,0-.014.04.055.085m-18.5.047c-.09.058-.09.066,0,.066a.448.448,0,0,0,.2-.066c.09-.058.09-.066,0-.066a.448.448,0,0,0-.2.066m7.918,0-2.673.036,2.652.016a21.919,21.919,0,0,0,2.694-.052c.023-.037.032-.061.021-.052s-1.224.032-2.694.052m-4.285.355a3.2,3.2,0,0,0,.017.694c.047.294.055.247.063-.355.01-.758-.022-.894-.08-.338m-4.152-.181a.2.2,0,0,0,.07.2c.061.053.08.06.043.015-.118-.143-.073-.248.119-.276l.186-.028-.188-.01c-.116-.006-.2.031-.229.1m23.011.469c0,.3.012.411.026.252a3.378,3.378,0,0,0,0-.541c-.015-.139-.026-.008-.026.29M63.223,72.3l.016,2.216.019-2.183.019-2.183h1.088c1.044,0,1.094.006,1.221.152l.133.152-.113-.186-.113-.186H63.208l.016,2.216m20.882-1.958c-.064.025.22.046.631.046s.676-.02.589-.044a4.273,4.273,0,0,0-1.22,0m-2.577.225c-.165.291-.116.3.071.019.084-.128.129-.232.1-.231s-.106.1-.172.212m2.079-.046c-.171.129-.1.131.149,0,.107-.055.146-.1.088-.1a.492.492,0,0,0-.237.1m2.237.036a.154.154,0,0,0,.117.068,2.2,2.2,0,0,1,.873.639c.071.116.127.161.127.1,0-.138-.362-.476-.75-.7-.33-.189-.434-.22-.366-.11m-2.6.176a1.847,1.847,0,0,0-.552.763c0,.059.063-.014.14-.162a2.024,2.024,0,0,1,.389-.489c.266-.234.278-.291.023-.112m-17.363.027a9.016,9.016,0,0,0,.67,1.015,5.8,5.8,0,0,0-.6-.965c-.068-.084-.1-.106-.072-.05m1.991.36a1.243,1.243,0,0,0,.218.293c.093.057-.159-.371-.275-.468-.049-.041-.024.037.058.175m13.41-.052a.829.829,0,0,0-.076.288c0,.063.046-.005.1-.153.109-.306.095-.393-.023-.135m10.489.065a.823.823,0,0,0,.058.271l.058.135V71.4a.823.823,0,0,0-.058-.271L91.777,71v.135m-1.494.107a.932.932,0,0,0,.066.3c.043.094.049.053.02-.135-.048-.314-.093-.4-.086-.164m-18.81.265a1.425,1.425,0,0,0,.092.406c.119.31.12.19,0-.237-.054-.2-.094-.267-.093-.169m-3.083.355a2.6,2.6,0,0,0,.278.389,1.937,1.937,0,0,0-.37-.593c-.086-.1-.045-.01.093.2m12.774.22c0,.3.012.411.026.252a3.378,3.378,0,0,0,0-.541c-.015-.139-.026-.008-.026.289m1.428-.2a1.386,1.386,0,0,0,.019.491c.056.228.063.2.061-.235,0-.551-.016-.595-.08-.256m7.826,0a.753.753,0,0,0,.1.3c.124.216.124.17,0-.169-.054-.149-.1-.21-.1-.135m-17.259.135a.486.486,0,0,0,.1.2c.055.072.1.1.1.064a.486.486,0,0,0-.1-.2c-.055-.072-.1-.1-.1-.064m-1.49.178a3.279,3.279,0,0,0,.627,1.142c.031,0-.007-.088-.084-.2a5.946,5.946,0,0,1-.34-.592,1.64,1.64,0,0,0-.2-.353m1.871.463a1.192,1.192,0,0,0,.277.3c.048.019-.027-.1-.167-.269-.314-.375-.363-.391-.111-.035m17.077-.231a4.1,4.1,0,0,0,.622,1.011c.1.092.084.058-.038-.109a6.776,6.776,0,0,1-.381-.609c-.111-.2-.2-.333-.2-.293m-21.656.322a1.244,1.244,0,0,0,.218.293c.093.057-.159-.371-.275-.468-.049-.041-.024.037.058.175m23.618.08a2.689,2.689,0,0,0,.327.3,2.7,2.7,0,0,0-.561-.6c-.036,0,.07.131.234.3m4.155-.158c-.033.053-.012.065.061.037.139-.053.859.587.859.765a1.8,1.8,0,0,1-.457.546c-.251.233-.381.372-.288.309a2.758,2.758,0,0,0,.812-.857c0-.249-.886-.965-.988-.8m-29.3.545a3.819,3.819,0,0,0,.384.566,4.973,4.973,0,0,0-.6-.988c-.053-.056.045.134.218.422m10.874-.352c-.088.073-.13.133-.093.133a.271.271,0,0,0,.151-.1c.086-.1.337-.142.34-.051a1.222,1.222,0,0,0,.209.288l.207.237-.221-.321c-.241-.351-.352-.386-.594-.184m2.9-.059a1.958,1.958,0,0,0,.3.733c.022,0,.02-.032,0-.072a4.154,4.154,0,0,1-.171-.423c-.07-.193-.128-.3-.129-.239m1.65.235a1.815,1.815,0,0,0,.689.633c.03,0-.073-.094-.23-.209a1.2,1.2,0,0,1-.286-.254.788.788,0,0,0-.139-.214l-.138-.169.1.213m13.432.032-.229.211.218-.146a1.292,1.292,0,0,0,.258-.211c.073-.119-.016-.066-.247.146m-9.691.145a2.864,2.864,0,0,1-.817.456c-.108.039-.179.088-.159.108a2.544,2.544,0,0,0,1-.509c.13-.112.219-.2.2-.206a.768.768,0,0,0-.218.15m-17.1.339a3.306,3.306,0,0,0,.352.5,3.793,3.793,0,0,0-.536-.856c-.055-.056.028.1.184.357M93.023,73.2a1.085,1.085,0,0,0,.472.252c.013-.013-.1-.089-.244-.169s-.249-.118-.228-.083m2.636.238c-.186.09-.262.145-.169.121a1.4,1.4,0,0,0,.541-.265c0-.04.028-.051-.372.143m4.508,0a1.912,1.912,0,0,0,.514,1.051l.183.164-.185-.228a1.961,1.961,0,0,1-.448-.911c-.049-.247-.057-.256-.063-.076m-27.712.115a2.831,2.831,0,0,0,.359.351c.171.141.144.1-.095-.152-.358-.374-.455-.448-.264-.2m6.7-.038c.038.144-.279.467-.7.718-.124.073-.21.148-.191.166a1.466,1.466,0,0,0,.439-.262q.679-.5.5-.679c-.056-.056-.067-.041-.041.058m23.814-.012c-.133.106-.133.107.013.037.188-.091.406-.092.451,0,.019.038.027.03.017-.017-.026-.13-.327-.141-.48-.018m-1,.07a.784.784,0,0,0,.506.08l.356-.025-.385-.012a.9.9,0,0,1-.427-.08.158.158,0,0,0-.121-.068c-.043,0-.011.047.071.105m-20.423.065a3.737,3.737,0,0,0,1.557,1.183c.049,0-.106-.1-.345-.215A3.454,3.454,0,0,1,81.937,74a2.374,2.374,0,0,0-.389-.357m9.949.127a2.724,2.724,0,0,0,.855.63c.02-.02-.035-.073-.122-.119a4.622,4.622,0,0,1-.53-.391c-.2-.17-.3-.224-.2-.12m2.623-.114a.957.957,0,0,0,.3,0c.084-.016.015-.029-.152-.029s-.236.013-.152.029m.813,0a.739.739,0,0,0,.271,0c.065-.017,0-.03-.153-.029s-.2.015-.118.031m-19.53.1a3.566,3.566,0,0,0,1.1,0c.112-.025-.126-.044-.528-.043s-.661.022-.575.046m28.076-.069a1.371,1.371,0,0,0,.1.271c.054.125.1.182.1.126,0-.1-.191-.485-.2-.4m-19.17.215a3.145,3.145,0,0,0,.778,0c.386-.054.357-.059-.358-.058-.665,0-.726.01-.42.059m-11.22.239a2.533,2.533,0,0,0,.862.458c.022-.022.011-.041-.025-.041a2.339,2.339,0,0,1-.451-.232c-.212-.128-.385-.211-.385-.185m-3.041.239c.2.345.151.372-.75.4l-.777.022.778.013c.979.017,1.208-.181.7-.6-.055-.046-.033.03.05.171m16.206.012c-.185.128-.314.233-.285.233a2.354,2.354,0,0,0,.581-.352c.287-.216.052-.121-.3.119m-18.051.03c.063.112.14.2.171.2s-.01-.091-.089-.2c-.186-.261-.23-.261-.081,0m9.692.1c-.1.056-.127.1-.068.1a.488.488,0,0,0,.233-.1c.167-.126.057-.125-.165,0m25.548.077-.2.174.22-.123c.121-.068.22-.147.22-.176,0-.074-.009-.07-.237.126M88.3,74.6c-.057.207-1.149.236-1.267.034-.061-.105-.069-.106-.071-.007,0,.157.137.194.731.192.572,0,.715-.053.675-.244-.023-.112-.031-.109-.068.025m-2.761.123c-.151.057-.188.09-.1.091a.742.742,0,0,0,.3-.1c.207-.118.116-.116-.2,0m7.445,0a.753.753,0,0,0,.3.1c.074,0,.014-.045-.135-.1-.339-.122-.385-.121-.169,0m3.167-.065a2.953,2.953,0,0,1-.468.164c-.237.07-.376.13-.309.132a2.886,2.886,0,0,0,.889-.275c.04-.036.038-.058-.006-.058a.172.172,0,0,0-.107.037m-21.44.233a.579.579,0,0,0,.265.068c.217,0,.162-.037-.13-.091-.167-.031-.207-.024-.135.023m2,0c-.184.047-.187.052-.034.055a.882.882,0,0,0,.3-.055c.167-.072.011-.072-.271,0m6.6,0a.492.492,0,0,0,.231.07c.173,0,.119-.037-.13-.093-.148-.033-.176-.027-.1.023m1.692,0-.169.054.182.007a.3.3,0,0,0,.224-.061c.048-.077,0-.077-.237,0m8.527,0a.579.579,0,0,0,.265.068c.217,0,.162-.037-.13-.091-.167-.031-.207-.024-.135.023m9.238,0c-.13.056-.13.058.013.063a.243.243,0,0,0,.19-.063c.049-.08-.017-.08-.2,0" transform="translate(-57.509 -13.506)" fill="#fff" fill-rule="evenodd"/>
  <path id="path4" d="M74.435,13.725a1.747,1.747,0,0,1-.69.1,1.485,1.485,0,0,0-.559.065.5.5,0,0,1-.244.108,5.972,5.972,0,0,0-2.79,2.1,1.86,1.86,0,0,1-.246.352.615.615,0,0,0-.141.194c0,.025-.167.378-.372.785a4.875,4.875,0,0,0-.372.868.22.22,0,0,1-.068.169.253.253,0,0,0-.068.19.93.93,0,0,1-.1.342,1.053,1.053,0,0,0-.1.41.677.677,0,0,1-.1.348.755.755,0,0,0-.1.377,1.149,1.149,0,0,1-.1.436.8.8,0,0,0-.059.48.615.615,0,0,1-.071.459,1.73,1.73,0,0,0-.113.865,1.713,1.713,0,0,1-.1.827c-.077.1-.1.36-.1,1.16v1.029l-.288.044c-.158.024-.455.061-.659.082a1.424,1.424,0,0,0-.506.132.716.716,0,0,1-.349.094,1.049,1.049,0,0,0-.408.1,1.063,1.063,0,0,1-.41.1.385.385,0,0,0-.258.068.554.554,0,0,1-.326.07.848.848,0,0,0-.415.1.612.612,0,0,1-.316.1c-.1,0-.195.023-.207.051a1.269,1.269,0,0,1-.6.288,15.672,15.672,0,0,0-2.755,1.433,1.266,1.266,0,0,1-.36.259,7.765,7.765,0,0,0-1.574,1.675,2.731,2.731,0,0,1-.311.5.929.929,0,0,0-.178.406c-.024.145-.072.263-.106.263s-.062.086-.062.19a.623.623,0,0,1-.1.321,1.141,1.141,0,0,0-.1.575,1.239,1.239,0,0,1-.076.517,4.721,4.721,0,0,0-.005,1.692,1.579,1.579,0,0,1,.081.541,1.485,1.485,0,0,0,.1.563.9.9,0,0,1,.1.365,12.86,12.86,0,0,0,1.115,2.308.526.526,0,0,1,.133.217,29.18,29.18,0,0,0,3.052,3.037c.093.023.169.066.169.1a2.134,2.134,0,0,0,.476.348,7.86,7.86,0,0,1,.66.449,1.088,1.088,0,0,0,.336.194c.084.022.152.068.152.1s.137.125.3.2c.34.15.421.543.214,1.032a3.383,3.383,0,0,0-.3.958.848.848,0,0,1-.092.335.828.828,0,0,0-.061.372,1.319,1.319,0,0,1-.1.5,1.579,1.579,0,0,0-.1.575,1.441,1.441,0,0,1-.1.551,22.622,22.622,0,0,0,0,4.429.93.93,0,0,1,.1.449,1.34,1.34,0,0,0,.1.511.9.9,0,0,1,.1.308.2.2,0,0,0,.068.156.288.288,0,0,1,.068.21,4.041,4.041,0,0,0,.615,1.245c.029,0,.075.069.1.152a3.854,3.854,0,0,0,1.084,1.1c.09.023.163.07.163.107a1.4,1.4,0,0,0,.457.286,2.452,2.452,0,0,1,.479.271c.013.028.106.051.207.051a.612.612,0,0,1,.316.1.824.824,0,0,0,.405.1.655.655,0,0,1,.357.085c.056.056.292.077.741.064.506-.014.69.006.794.084a2,2,0,0,0,1.285,0c.1-.079.308-.1.895-.089a2.769,2.769,0,0,0,.846-.058,1.258,1.258,0,0,1,.459-.1,2.587,2.587,0,0,0,1.026-.3,1.092,1.092,0,0,1,.419-.092.437.437,0,0,0,.281-.068.253.253,0,0,1,.19-.068,1.992,1.992,0,0,0,.554-.2,2.592,2.592,0,0,1,.481-.2,9.479,9.479,0,0,0,.959-.44c.85-.423,1.5-.588,1.5-.38a35.529,35.529,0,0,0,2.849,2.818.987.987,0,0,1,.327.235,1.665,1.665,0,0,0,.378.291,1.824,1.824,0,0,1,.352.245.63.63,0,0,0,.192.141c.023,0,.432.194.908.431a8.149,8.149,0,0,0,1.06.466,4.622,4.622,0,0,1,.77.247c.056.022-5.152.048-11.573.058-10.359.015-11.7.029-11.894.122a2.26,2.26,0,0,1-.948.089,3.327,3.327,0,0,0-.863.056,3.582,3.582,0,0,1-.793.273.824.824,0,0,0-.342.178,1.863,1.863,0,0,1-.392.254.824.824,0,0,0-.334.3,4.8,4.8,0,0,1-.287.459,1.09,1.09,0,0,0-.186.355c0,.05-.03.091-.068.091s-.068.086-.068.19a.623.623,0,0,1-.1.321.963.963,0,0,0-.1.457,1.306,1.306,0,0,1-.072.456c-.1.18-.1,9.288,0,9.468a1.6,1.6,0,0,1,.072.524,1.485,1.485,0,0,0,.1.563.8.8,0,0,1,.1.312.622.622,0,0,0,.166.319,1.106,1.106,0,0,1,.212.33,2.65,2.65,0,0,0,.846.834,1.084,1.084,0,0,1,.312.207.635.635,0,0,0,.356.164.429.429,0,0,1,.259.08.922.922,0,0,0,.467.07,1.467,1.467,0,0,1,.587.09c.3.151,40.8.151,41.1,0a1.466,1.466,0,0,1,.587-.09.922.922,0,0,0,.467-.07.429.429,0,0,1,.259-.08.635.635,0,0,0,.357-.164,1.084,1.084,0,0,1,.312-.207,2.65,2.65,0,0,0,.846-.834,1.106,1.106,0,0,1,.212-.33.622.622,0,0,0,.166-.319.8.8,0,0,1,.1-.312,1.485,1.485,0,0,0,.1-.563,1.6,1.6,0,0,1,.072-.524c.1-.18.1-9.288,0-9.468a1.307,1.307,0,0,1-.072-.456.963.963,0,0,0-.1-.457.623.623,0,0,1-.1-.321c0-.1-.03-.19-.068-.19s-.068-.041-.068-.091a1.09,1.09,0,0,0-.186-.355,4.8,4.8,0,0,1-.287-.459.824.824,0,0,0-.334-.3,1.862,1.862,0,0,1-.392-.254.824.824,0,0,0-.342-.178,3.594,3.594,0,0,1-.793-.273,3.492,3.492,0,0,0-.88-.058,2.153,2.153,0,0,1-.938-.09c-.169-.089-.9-.1-5.638-.1-3.612,0-5.43-.023-5.4-.068a.224.224,0,0,1,.172-.068,4.518,4.518,0,0,0,1.283-.6c0-.036.073-.083.161-.105a6.068,6.068,0,0,0,1.26-1.189,2.738,2.738,0,0,1,.3-.489,7.982,7.982,0,0,0,.985-1.915.278.278,0,0,1,.068-.2.187.187,0,0,0,.068-.146,1.133,1.133,0,0,1,.09-.318,3.383,3.383,0,0,0,.3-.958.848.848,0,0,1,.092-.335.967.967,0,0,0,.061-.41.965.965,0,0,1,.1-.477,1.241,1.241,0,0,0,.1-.626,1.914,1.914,0,0,1,.087-.643,5.071,5.071,0,0,0,.13-1.163c.082-1.838.16-1.982,1.084-1.993a.654.654,0,0,0,.359-.071.468.468,0,0,1,.292-.07,1.028,1.028,0,0,0,.419-.1.933.933,0,0,1,.381-.1,1.072,1.072,0,0,0,.406-.1.9.9,0,0,1,.308-.1.2.2,0,0,0,.152-.061.5.5,0,0,1,.258-.093,3.447,3.447,0,0,0,1.008-.365,1.548,1.548,0,0,1,.421-.159,9.468,9.468,0,0,0,1.6-.793,6.231,6.231,0,0,1,.541-.372,5.149,5.149,0,0,0,.639-.471.714.714,0,0,1,.285-.192,1.893,1.893,0,0,0,.666-.674,1.836,1.836,0,0,1,.34-.433,3.575,3.575,0,0,0,.6-.935,3.68,3.68,0,0,0,.514-1.579,2.21,2.21,0,0,1,.1-.567,6.182,6.182,0,0,0-.017-1.818,1.307,1.307,0,0,1-.079-.47.963.963,0,0,0-.1-.457.763.763,0,0,1-.1-.385.486.486,0,0,0-.062-.292.533.533,0,0,1-.108-.258,4.331,4.331,0,0,0-.585-1.2c-.03,0-.1-.1-.159-.22a14.9,14.9,0,0,0-2.842-3.046,3.644,3.644,0,0,1-.454-.349.7.7,0,0,0-.248-.175,1.392,1.392,0,0,1-.355-.271,1.484,1.484,0,0,0-.349-.271.965.965,0,0,1-.274-.16,4.174,4.174,0,0,0-.537-.317,1,1,0,0,1-.321-.2.707.707,0,0,0-.271-.168c-.272-.122-.386-.428-.2-.541a.187.187,0,0,0,.068-.146,1.133,1.133,0,0,1,.09-.318,2.912,2.912,0,0,0,.3-1.059,1.193,1.193,0,0,1,.091-.437.814.814,0,0,0,.062-.372,1.319,1.319,0,0,1,.1-.5,1.743,1.743,0,0,0,.1-.681,1.206,1.206,0,0,1,.1-.618,14.143,14.143,0,0,0,0-3.519,1.092,1.092,0,0,1-.1-.546,1.668,1.668,0,0,0-.1-.609,1.063,1.063,0,0,1-.1-.41.385.385,0,0,0-.068-.258.319.319,0,0,1-.07-.224.619.619,0,0,0-.1-.313.566.566,0,0,1-.1-.291.539.539,0,0,0-.141-.309,2.138,2.138,0,0,1-.272-.4c-.072-.14-.157-.254-.19-.254s-.077-.073-.1-.162a2.417,2.417,0,0,0-.845-.884.845.845,0,0,1-.285-.178,5.242,5.242,0,0,0-1.585-.739.664.664,0,0,1-.342-.1,1.346,1.346,0,0,0-.676-.1,1.588,1.588,0,0,1-.621-.078,6.74,6.74,0,0,0-2.033,0,2.6,2.6,0,0,1-.739.078,1.466,1.466,0,0,0-.728.1.677.677,0,0,1-.348.1,1.053,1.053,0,0,0-.41.1,1.063,1.063,0,0,1-.41.1.4.4,0,0,0-.253.061.5.5,0,0,1-.258.093,3.953,3.953,0,0,0-.908.3,1.207,1.207,0,0,1-.282.09c-.038,0-.612.274-1.276.608a11.873,11.873,0,0,1-1.323.609,12.915,12.915,0,0,1-1.455-1.344,21.9,21.9,0,0,0-1.61-1.515,2.607,2.607,0,0,1-.435-.347.566.566,0,0,0-.243-.177.732.732,0,0,1-.276-.17,1.266,1.266,0,0,0-.322-.21.783.783,0,0,1-.253-.168,7.166,7.166,0,0,0-1.463-.739,1.971,1.971,0,0,1-.439-.169,1.7,1.7,0,0,0-.524-.17.972.972,0,0,1-.367-.1,1.579,1.579,0,0,0-.575-.1,1.441,1.441,0,0,1-.551-.1,4.686,4.686,0,0,0-1.895,0m1.852.136a1.468,1.468,0,0,0,.55.1,1.884,1.884,0,0,1,.6.1,1.354,1.354,0,0,0,.417.1,1.551,1.551,0,0,1,.508.169,1.89,1.89,0,0,0,.41.169,9.551,9.551,0,0,1,1.862,1.006c.04.033.193.137.338.229a4.748,4.748,0,0,1,.5.379,1.02,1.02,0,0,0,.305.211c.038,0,.707.641,1.488,1.422a10.566,10.566,0,0,0,1.555,1.421,10.758,10.758,0,0,0,1.354-.6,9.965,9.965,0,0,1,1.9-.82,5.889,5.889,0,0,0,.794-.28.781.781,0,0,1,.29-.059,1.352,1.352,0,0,0,.415-.1,1.322,1.322,0,0,1,.4-.1,1.362,1.362,0,0,0,.4-.1,1.941,1.941,0,0,1,.739-.092,1.891,1.891,0,0,0,.633-.064,7.012,7.012,0,0,1,2.1,0,1.079,1.079,0,0,0,.518.065,1.872,1.872,0,0,1,.689.092,1.367,1.367,0,0,0,.415.1,6.749,6.749,0,0,1,1.567.734,3.044,3.044,0,0,1,.994.92,5.706,5.706,0,0,0,.4.635,2.426,2.426,0,0,1,.307.508,3.953,3.953,0,0,0,.292.837.658.658,0,0,1,.046.286,1.009,1.009,0,0,0,.1.412,1.55,1.55,0,0,1,.1.575,1.55,1.55,0,0,0,.1.575,13.653,13.653,0,0,1,0,3.428,2.2,2.2,0,0,0-.1.679,1.749,1.749,0,0,1-.076.579,2.417,2.417,0,0,0-.138.554l-.118.783a4.021,4.021,0,0,1-.319,1.068,1.2,1.2,0,0,0-.093.351.222.222,0,0,1-.068.171c-.131.081-.075.432.085.529.084.051.241.15.349.221s.354.221.546.333a5.09,5.09,0,0,1,1.088.728,1.426,1.426,0,0,0,.343.255,1.559,1.559,0,0,1,.359.271,1.41,1.41,0,0,0,.368.27c.077,0,2.345,2.235,2.345,2.311a3.229,3.229,0,0,0,.3.476,5.468,5.468,0,0,1,.983,2.156.721.721,0,0,0,.076.285,7.753,7.753,0,0,1,.185,2.849,1.218,1.218,0,0,0-.067.464,5.112,5.112,0,0,1-1.15,2.538,1.491,1.491,0,0,0-.33.45,1.3,1.3,0,0,1-.539.519.927.927,0,0,0-.277.186,11.243,11.243,0,0,1-2.764,1.641,1.476,1.476,0,0,0-.365.146,2.918,2.918,0,0,1-.488.2c-.112.028-.31.089-.44.135l-.372.131-.372.132a4.014,4.014,0,0,1-.508.136,2.988,2.988,0,0,0-.461.128,1.234,1.234,0,0,1-.385.077.339.339,0,0,0-.237.068.756.756,0,0,1-.393.07,1.336,1.336,0,0,0-.52.1.8.8,0,0,1-.314.1c-.172,0-.227.121-.227.486a1.079,1.079,0,0,1-.074.409,4.057,4.057,0,0,0-.066,1.028,2.678,2.678,0,0,1-.095,1.082,1.663,1.663,0,0,0-.1.664,1.844,1.844,0,0,1-.082.618,1.986,1.986,0,0,0-.131.52,5.819,5.819,0,0,1-.439,1.677,1.2,1.2,0,0,0-.093.351.222.222,0,0,1-.068.171.225.225,0,0,0-.068.173,7.6,7.6,0,0,1-.76,1.573,6.449,6.449,0,0,0-.424.659,5.955,5.955,0,0,1-1.153,1.216.959.959,0,0,0-.319.19,5.178,5.178,0,0,1-1.341.613,2.406,2.406,0,0,1-.6.077.8.8,0,0,0-.529.135c-.215.169-.993.151,6.039.137,5.272-.01,5.971,0,6.091.092.1.079.315.1.87.106a3.205,3.205,0,0,1,3.519,2.912c.1.592.133,9.6.032,9.843a1.206,1.206,0,0,0-.064.457c.045.62-.855,2.221-1.248,2.221a.738.738,0,0,0-.288.17,1.121,1.121,0,0,1-.413.212.509.509,0,0,0-.248.1,1.224,1.224,0,0,1-.489.061,1.159,1.159,0,0,0-.584.1c-.2.151-40.89.151-41.089,0a1.159,1.159,0,0,0-.584-.1,1.224,1.224,0,0,1-.489-.061.509.509,0,0,0-.248-.1,1.121,1.121,0,0,1-.413-.212.738.738,0,0,0-.288-.17c-.393,0-1.293-1.6-1.248-2.221a1.206,1.206,0,0,0-.064-.457c-.1-.244-.072-9.251.032-9.843a3.205,3.205,0,0,1,3.519-2.912c.549,0,.769-.028.87-.1.12-.091,1.528-.1,12.317-.1,6.7,0,12.239.005,12.31,0,.349-.01-.221-.274-.592-.274a1.986,1.986,0,0,1-.531-.061c-.086-.033-.338-.114-.562-.18a11.968,11.968,0,0,1-3.079-1.618,2.014,2.014,0,0,0-.372-.26,20.305,20.305,0,0,1-1.587-1.5c-1.667-1.678-1.474-1.611-2.807-.961-.487.237-.976.463-1.088.5-.25.085-.906.349-1.065.43a.866.866,0,0,1-.319.059,1.327,1.327,0,0,0-.424.093,5.807,5.807,0,0,1-2.32.437,4.122,4.122,0,0,0-.96.13,1.993,1.993,0,0,1-1.172-.017,2.193,2.193,0,0,0-.859-.1,2.232,2.232,0,0,1-.732-.07.313.313,0,0,0-.224-.067c-.807,0-3.058-1.374-3.058-1.868a.388.388,0,0,0-.131-.193,4.554,4.554,0,0,1-.614-1.23.587.587,0,0,0-.059-.213,3.138,3.138,0,0,1-.278-.964,2.872,2.872,0,0,0-.127-.563,23.557,23.557,0,0,1,.023-4.267,1.468,1.468,0,0,0,.1-.55,1.884,1.884,0,0,1,.1-.6,1.7,1.7,0,0,0,.1-.546.6.6,0,0,1,.068-.344.327.327,0,0,0,.068-.231,2.745,2.745,0,0,1,.177-.656c.343-.906.332-1.289-.042-1.482a7.629,7.629,0,0,1-.827-.529c-.064-.049-.429-.285-.809-.525a24.477,24.477,0,0,1-3.507-3.287.7.7,0,0,0-.161-.273,12.657,12.657,0,0,1-1.125-2.28,1.384,1.384,0,0,0-.106-.416,1.434,1.434,0,0,1-.089-.538,1.322,1.322,0,0,0-.068-.489,2.729,2.729,0,0,1-.052-.942A6.308,6.308,0,0,1,58.1,31.1a1.193,1.193,0,0,0,.093-.345.409.409,0,0,1,.135-.245,1.915,1.915,0,0,0,.3-.467A7.722,7.722,0,0,1,60.2,28.377a1.139,1.139,0,0,0,.32-.227,18.873,18.873,0,0,1,2.7-1.4,1.849,1.849,0,0,0,.424-.161,3.747,3.747,0,0,1,1.2-.381.313.313,0,0,0,.224-.067.352.352,0,0,1,.243-.068,1.408,1.408,0,0,0,.444-.1,1.34,1.34,0,0,1,.408-.1.774.774,0,0,0,.308-.076,5.175,5.175,0,0,1,1.236-.237c.408-.055.426-.109.388-1.161-.028-.777-.015-.969.077-1.147a2.07,2.07,0,0,0,.113-.877,2.119,2.119,0,0,1,.1-.832,1.548,1.548,0,0,0,.1-.588.99.99,0,0,1,.07-.461.352.352,0,0,0,.068-.243,1.408,1.408,0,0,1,.1-.444,1.3,1.3,0,0,0,.1-.369,11.079,11.079,0,0,1,1.329-3.123,5.978,5.978,0,0,1,2.021-1.838,3.222,3.222,0,0,1,1.61-.5,2.424,2.424,0,0,0,.711-.123,4.006,4.006,0,0,1,1.8.005M60.88,62.393c-.09.09-.058,11.562.033,11.653a2.982,2.982,0,0,0,1.394,0,11.627,11.627,0,0,0,.081-2.335V69.458h2.287l.565.874c.311.481.809,1.258,1.107,1.729s.72,1.128.939,1.463l.4.608.815-.019a2.194,2.194,0,0,0,.839-.093c.019-.059-1.708-2.735-2.764-4.282-.221-.325-.213-.483.026-.483,1.192,0,2.53-1.421,2.694-2.862a3.451,3.451,0,0,0-2.315-3.884,53.394,53.394,0,0,0-6.1-.116m5.673.128a3.281,3.281,0,0,1,2.671,3.357,3.173,3.173,0,0,1-2.589,3.278c-.214.06-.389.145-.389.19a17.481,17.481,0,0,0,1.068,1.705.609.609,0,0,1,.089.135c.055.132.977,1.487,1.025,1.508a.091.091,0,0,1,.051.075,4.277,4.277,0,0,0,.338.566c.448.679.461.656-.372.656h-.71l-.254-.389c-.14-.214-.27-.4-.288-.423a1.375,1.375,0,0,1-.116-.169c-.148-.244-1.006-1.606-1.577-2.5-.8-1.256-.622-1.146-1.89-1.173-1.515-.032-1.353-.313-1.374,2.376l-.018,2.248H61l-.017-5.685c-.01-3.127,0-5.723.015-5.77a37.817,37.817,0,0,1,5.555.018m32.822.862c-.02.084-.043.594-.052,1.134l-.016.981-.623.034c-.762.041-.776.054-.751.683l.02.5.677.034.677.034.034,3.079.034,3.079.19.388a2.121,2.121,0,0,0,3.075.615c.26-.193.264-.233.075-.726-.158-.412-.272-.464-.6-.277a.9.9,0,0,1-1.189-.268,36.268,36.268,0,0,1-.092-5.829c.06-.072.267-.1.841-.1h.762l.042-.211c.174-.872.064-1.007-.826-1.007-.939,0-.891.064-.891-1.191,0-1.194.059-1.11-.783-1.11-.534,0-.571.009-.6.152m1.251,1.06c.04,1.3-.027,1.222,1,1.223h.764l-.02.491-.02.491-.774.019a3.2,3.2,0,0,0-.863.093,37.224,37.224,0,0,0,.034,5.8,1.018,1.018,0,0,0,1.45.465c.238-.156.662.484.5.751a2.279,2.279,0,0,1-1.973.37c-1.2-.406-1.247-.558-1.248-4.4,0-1.593-.025-2.934-.053-2.979a1.5,1.5,0,0,0-.693-.1l-.641-.02V65.7l.609-.019c.8-.025.778.012.778-1.274a3.352,3.352,0,0,1,.071-1.054,3.934,3.934,0,0,1,.558-.014l.487.009.034,1.094m-38.289-.8a22.989,22.989,0,0,0,.028,4.494,15.045,15.045,0,0,0,3.914-.059,2.3,2.3,0,0,0,.338-4.249l-.406-.224-1.895-.024a7.258,7.258,0,0,0-1.98.062m3.974.173a2.188,2.188,0,0,1-.372,4.214,14.435,14.435,0,0,1-1.961.057l-1.557-.02L62.4,65.888,62.386,63.7H64.2a7.32,7.32,0,0,1,2.116.114m7.684,1.609c-3.929.8-4.647,6.7-1.025,8.424a4.839,4.839,0,0,0,5.148-.609c.3-.264.3-.294-.012-.724s-.33-.421-.745-.123c-1.7,1.224-3.8.961-4.784-.6a3.026,3.026,0,0,1-.444-1.264v-.2H75.42c2.136,0,3.333-.025,3.418-.07.219-.117.126-1.471-.146-2.137a3.95,3.95,0,0,0-4.7-2.7m9.238,0a4.167,4.167,0,0,0-1.925.857c-.545.432-.554.461-.272.9.318.5.364.506.8.149,1.489-1.213,3.755-.988,4.226.42a6.207,6.207,0,0,1,.015,1.834.769.769,0,0,1-.254-.159,3.789,3.789,0,0,0-4.754.135,2.935,2.935,0,0,0-.091,3.669,3.52,3.52,0,0,0,4.655.393l.473-.318.035.323c.052.48.069.492.715.492.563,0,.574,0,.644-.186A53.4,53.4,0,0,0,87.4,67.19c-.529-1.435-2.208-2.145-4.164-1.759m9.752-.025a4.347,4.347,0,0,0-2.311,1.19,4.881,4.881,0,0,0-.3,6.075,4.227,4.227,0,0,0,6.044.681c.515-.477.519-.544.047-.975-.422-.386-.468-.386-.846-.008a2.826,2.826,0,0,1-4.279-.756A4.033,4.033,0,0,1,91.358,68a2.8,2.8,0,0,1,4.374-.625l.284.273.41-.355c.5-.437.507-.511.031-.945a3.958,3.958,0,0,0-3.473-.944m-16.858.231A4,4,0,0,1,78.791,69.5l.009.668-3.369.018c-3.817.02-3.5-.038-3.371.62a3.145,3.145,0,0,0,4.232,2.272,3.7,3.7,0,0,0,1.287-.7c.119-.192.71.409.623.634-.176.458-2.193,1.255-3.176,1.256a4.3,4.3,0,0,1-4.29-4.685,4.7,4.7,0,0,1,.631-2.156.4.4,0,0,0,.09-.152,4.573,4.573,0,0,1,.947-1.007,4.488,4.488,0,0,1,3.722-.627m9.435-.006A2.478,2.478,0,0,1,87.323,67.4a17.359,17.359,0,0,1,.092,3.481l-.019,3.079-.555.02-.555.02-.02-.391c-.026-.49-.127-.525-.535-.182-2.343,1.97-5.867.143-5.161-2.676.5-1.983,3.19-2.647,5.126-1.265.584.417.594.4.568-.77-.018-.856-.031-.935-.209-1.252-.753-1.344-3.218-1.34-4.539.007-.094.1-.517-.44-.517-.655,0-.164.039-.2.677-.631a5.14,5.14,0,0,1,3.886-.552m9.582.04c.2.079.426.16.491.18s.118.061.118.091.061.075.137.1a2.76,2.76,0,0,1,.811.764c0,.075-.165.26-.484.542l-.177.156-.262-.246A3.17,3.17,0,0,0,92.9,66.59c-.089.042-.286.128-.437.191-1.972.819-2.24,4.546-.42,5.835a3.045,3.045,0,0,0,3.378.08l.345-.32.246-.23.342.287c.426.357.426.426-.006.831a4.1,4.1,0,0,1-4.49.525,4.607,4.607,0,0,1-.5-7.609,3.791,3.791,0,0,1,1.553-.649,6.25,6.25,0,0,1,2.233.14m-20.982.8a2.941,2.941,0,0,0-2.125,2.273c-.155.619-.348.579,2.8.579s2.949.045,2.8-.607a2.8,2.8,0,0,0-3.477-2.245m1.727.23a2.744,2.744,0,0,1,1.646,2.252l-.022.268H72.167L72.146,69c-.156-1.621,1.967-2.924,3.744-2.3m7,3.026a1.883,1.883,0,0,0-.344,3.348,3.059,3.059,0,0,0,3.52-.542,2.807,2.807,0,0,0,.092-1.994,3.213,3.213,0,0,0-3.268-.811m1.784.04a2.9,2.9,0,0,1,1.245.66l.22.207V72.3l-.261.261c-1.594,1.594-4.631.434-4.043-1.545a2.185,2.185,0,0,1,2.839-1.249" transform="translate(-56.689 -12.879)" fill="#7f7f7f" fill-rule="evenodd"/>
</svg>
