<svg xmlns="http://www.w3.org/2000/svg" width="45.023" height="63.507" viewBox="0 0 45.023 63.507"><g transform="translate(-7342 -738.497)"><path d="M84.375,4.267V8.546h2.977V5.694h2.543V8.546h2.915V-.012H89.895V2.779h-2.6V-.012H84.375V4.267m9.613-2.853V2.841H96.53V8.546h2.853V2.841h2.543V-.012H93.988V1.415m9.178,2.852v4.28h2.851l.016-2.024L106.05,4.5,107,5.969a11.149,11.149,0,0,0,1,1.419c.026-.028.469-.7.985-1.5l.938-1.451V8.546h2.915V-.012h-3.07l-.865,1.429c-.476.786-.881,1.439-.9,1.451s-.429-.624-.91-1.415L106.22.019,104.693,0l-1.527-.017v4.28m11.039,0V8.546h6.946V5.694H117.12V-.012H114.2V4.267" transform="translate(7261.625 738.511)" fill="#fff" fill-rule="evenodd"/><g transform="translate(0.211)"><path d="M58.2,78.646c0,.071.153,1.836.339,3.923s.508,5.691.715,8.01c.383,4.3.717,8.055,1.21,13.582.152,1.705.584,6.561.96,10.791.847,9.527.846,9.518.876,9.543.054.045,18.266,5.062,18.375,5.062.127,0,.534-.109,3.944-1.056l4.775-1.323,5.3-1.468,3.566-.987c1.02-.282.861.219,1.211-3.817.157-1.808.423-4.836.592-6.729l.556-6.233.4-4.527c.218-2.454.662-7.428.989-11.086.874-9.791,1.21-13.6,1.21-13.7s-.585-.116-22.512-.116H58.2v.13M99.088,82.5c-.011.111-.8,8.919-1.753,19.574s-1.747,19.387-1.764,19.4-14.749,4.159-14.841,4.167c-.009,0-.016-1.3-.016-2.9v-2.9l-5.8-1.612c-5.7-1.585-5.8-1.615-5.8-1.768,0-.085-.178-2.075-.391-4.421s-.374-4.279-.359-4.295,5.646-.041,5.657-.013c0,.008.1,1.014.208,2.234s.217,2.234.236,2.253,1.382.4,3.029.836,3.045.817,3.106.837c.107.034.112-.16.112-4.465v-4.5H68.088l-.759-8.419c-.417-4.63-.758-8.468-.756-8.527,0-.1.381-.109,7.072-.109h7.07V82.3H99.109l-.02.2M72.795,93.818c.019.128.139,1.412.268,2.853l.234,2.62h7.418V93.586H72.761l.034.232" transform="translate(7283.585 672.449)" fill="#fff" fill-rule="evenodd"/><path d="M200,105.135v2.791h14.078v.21c0,.217-.4,4.679-.47,5.2l-.038.295H200v5.705h13.094l-.038.326c-.021.179-.373,4.078-.783,8.664s-.751,8.342-.758,8.347-2.51.7-5.563,1.546l-5.752,1.594-.2.057v2.912c0,1.6.007,2.911.016,2.91.092-.009,14.817-4.144,14.841-4.167s.812-8.75,1.764-19.4,1.741-19.463,1.753-19.574l.02-.2H200v2.791m0,24.377c0,4.228.006,4.468.109,4.435.06-.019,1.458-.4,3.108-.838s3.007-.813,3.016-.823.655-7.083.652-7.2c0-.026-1.55-.046-3.443-.046H200v4.469" transform="translate(7164.3 652.404)" fill="#c2c2c2" fill-rule="evenodd"/></g></g></svg>