<svg id="Bootstrap" xmlns="http://www.w3.org/2000/svg" width="59.557" height="59.557" viewBox="0 0 59.557 59.557">
  <path id="Path_25" data-name="Path 25" d="M45.223,41.253a6.2,6.2,0,0,0-4.293-1.365h-10.6V50.732H41.1a6.1,6.1,0,0,0,4.119-1.439,5.36,5.36,0,0,0,1.638-4.07A5.186,5.186,0,0,0,45.223,41.253Zm-1.489-7a4.467,4.467,0,0,0,1.489-3.573,4.516,4.516,0,0,0-1.315-3.7,5.807,5.807,0,0,0-3.648-1.067H30.334V35.5H40.26a5.459,5.459,0,0,0,3.573-1.241ZM57.631,8h-39.7A9.926,9.926,0,0,0,8,17.926v39.7a9.926,9.926,0,0,0,9.926,9.926h39.7a9.926,9.926,0,0,0,9.926-9.926v-39.7A9.926,9.926,0,0,0,57.631,8ZM52.2,49.814a7.445,7.445,0,0,1-2.283,3.077,11.216,11.216,0,0,1-4,2.035,18.984,18.984,0,0,1-5.782.769H24.18V20.954H41.054A11.986,11.986,0,0,1,48.5,23.088a7.569,7.569,0,0,1,2.829,6.477,7.668,7.668,0,0,1-1.142,4.492,8.363,8.363,0,0,1-3.673,2.9h0a7.569,7.569,0,0,1,4.963,3.027,10.125,10.125,0,0,1,1.663,5.906,9.728,9.728,0,0,1-.943,3.921Z" transform="translate(-8 -8)" fill="#fff"/>
</svg>
