<svg id="image2vector" xmlns="http://www.w3.org/2000/svg" width="72.074" height="68.176" viewBox="0 0 72.074 68.176">
  <path id="path0" d="M86.815.824c-4.354.247-10.508,6.9-16.249,17.574-4.99,9.275-8.314,20.021-7.021,22.7.839,1.736,3.889.772,6.2-1.958.749-.886.9-1.164.76-1.393s-.295-.174-.621.237c-1.188,1.5-2.039,2.071-2.766,1.857-.579-.17-.751-.817-.676-2.535C66.827,28.52,71.6,16.253,77.3,9.407a19.592,19.592,0,0,1,5.193-4.6c2.574-1.412,5.674-1.173,5.671.437,0,.326.23.583.449.5A4.135,4.135,0,0,0,89.311,4c.361-2.078-.585-3.28-2.5-3.172M59.274,27.7c-1.552.228-3.422,1.61-4.843,3.579-.265.367-.28.573-.053.7.161.093.218.055.576-.39,1.063-1.322,1.659-1.773,2.4-1.814.869-.048,1.1.655.977,2.943-.419,7.643-4.233,18.2-9.11,25.232A23.559,23.559,0,0,1,42.532,64.7c-2.659,1.542-5.81,1.387-5.911-.291l-.017-.294L36.477,64c-.275-.254-.41-.125-.739.706-.787,1.983-.161,3.815,1.4,4.084,4.239.735,10.909-6.106,17.053-17.491,5.04-9.34,8.386-20.185,7.033-22.8a1.836,1.836,0,0,0-1.944-.8" transform="translate(-29.012 -0.67)" fill="#fff" fill-rule="evenodd"/>
  <path id="path1" d="M24.028,116.076a.488.488,0,0,1-.113.025l-.219.031a.7.7,0,0,0-.165.043.13.13,0,0,1-.085.013.047.047,0,0,0-.054.018.054.054,0,0,1-.063.014c-.025-.01-.044,0-.044.021s-.008.031-.017.021a2.666,2.666,0,0,0-.638.194c-.078.035-.149.065-.157.067a4.5,4.5,0,0,0-.549.28c-.029.026-.052.037-.052.026,0-.1-.789.553-.83.683a2.475,2.475,0,0,1-.194.318,2.306,2.306,0,0,0-.171.271.345.345,0,0,1-.1.182c-.014,0-.025.02-.025.045s-.011.045-.024.045a.54.54,0,0,0-.123.23.051.051,0,0,1-.026.038.85.85,0,0,0-.111.169c-.046.083-.159.285-.253.45a1.971,1.971,0,0,0-.162.323c0,.013-.007.024-.024.024s-.023.014-.013.03.006.03-.009.03-.056.064-.091.143-.1.2-.137.268-.066.133-.056.143,0,.018-.015.018-.069.076-.064.132a.062.062,0,0,1-.031.047.161.161,0,0,0-.047.091.166.166,0,0,1-.04.088,2.618,2.618,0,0,0-.246.509c0,.019-.01.034-.023.035s-.1.146-.1.2c0,.021-.012.039-.027.039s-.073.112-.067.158c0,.012-.011.023-.029.023s-.023.014-.013.03.006.03-.01.03a.464.464,0,0,0-.112.211,1.33,1.33,0,0,1-.068.142.674.674,0,0,0-.066.159.327.327,0,0,1-.062.116.411.411,0,0,0-.069.132,1.7,1.7,0,0,1-.144.323,1.179,1.179,0,0,0-.056.12,1.212,1.212,0,0,1-.065.135,1.7,1.7,0,0,0-.086.192c-.066.174-.156.2-.65.213a2.716,2.716,0,0,0-1.28.2,1.131,1.131,0,0,0-.293.134c0,.014-.027.026-.06.026s-.06.014-.06.032-.014.023-.03.013-.03-.006-.03.008-.018.027-.041.027a2.2,2.2,0,0,0-.869.75c-.018.093.025.2.068.177a.034.034,0,0,1,.045.014c.023.038.156.041.179,0a.575.575,0,0,1,.212-.047.557.557,0,0,0,.213-.049.03.03,0,0,1,.039-.015.927.927,0,0,0,.231-.029c.115-.023.262-.049.326-.057s.192-.028.286-.045c.151-.027.27-.045.711-.106.066-.009.168-.025.226-.036.224-.04.336-.037.3.008-.019.023-.023.042-.009.043s.012.01-.006.023a6.936,6.936,0,0,0-.3.7c-.145.372-.276.7-.291.73a.1.1,0,0,0-.012.08.024.024,0,0,1-.008.036,2.019,2.019,0,0,0-.2.541c.009.014,0,.025-.018.025s-.026.012-.016.028a.035.035,0,0,1-.014.047.034.034,0,0,0-.015.045.034.034,0,0,1-.015.045.036.036,0,0,0-.013.049c.01.016,0,.053-.027.081a.59.59,0,0,0-.082.186,2.05,2.05,0,0,1-.08.233.2.2,0,0,0-.022.132c.012.019.008.026-.008.016s-.119.222-.143.354c0,.017-.034.106-.069.2a1.788,1.788,0,0,0-.08.275,1.282,1.282,0,0,1-.112.34.652.652,0,0,0-.037.12.823.823,0,0,1-.033.12l-.054.144c-.017.046-.023.092-.012.1s0,.047-.021.082a.833.833,0,0,0-.094.273.191.191,0,0,1-.027.07c-.014.022-.017.048-.007.057s.006.033-.009.051a5.445,5.445,0,0,0-.2.693,1.707,1.707,0,0,1-.057.2.34.34,0,0,0-.03.153.033.033,0,0,1-.016.044.036.036,0,0,0-.013.049.075.075,0,0,1-.019.074c-.02.025-.029.053-.018.064s.007.034-.008.052a.768.768,0,0,0-.069.311c0,.037-.014.068-.03.068s-.024.017-.016.038a.349.349,0,0,1-.026.15,1.361,1.361,0,0,0-.054.225c-.008.062-.023.147-.034.188s-.023.1-.028.135-.023.114-.04.18a1.069,1.069,0,0,0-.031.165.732.732,0,0,1-.018.12c-.01.041-.027.122-.039.18l-.024.12c-.022.106-.049.285-.062.406-.009.083-.023.2-.032.271a5.411,5.411,0,0,0,.046,2.007c.03.087.057.171.06.188.02.111.044.165.071.165s.023.009.012.019a.663.663,0,0,0,.165.311c.014,0,.025.02.025.044a1.419,1.419,0,0,0,.392.407c.021,0,.03.008.02.019-.025.025.08.1.265.193a1.3,1.3,0,0,1,.165.091,3.124,3.124,0,0,0,.6.193.555.555,0,0,1,.09.024.34.34,0,0,0,.09.018c.025,0,.1.009.165.019a4.967,4.967,0,0,0,1.338-.035.438.438,0,0,1,.09-.024,1.41,1.41,0,0,0,.286-.071.31.31,0,0,1,.089-.027.134.134,0,0,0,.075-.033.5.5,0,0,1,.159-.063c.078-.021.136-.049.128-.062s0-.021.023-.02a1.092,1.092,0,0,0,.348-.168.024.024,0,0,1,.036-.007c.015.009.052-.008.083-.037a.263.263,0,0,1,.084-.059,3.057,3.057,0,0,0,.47-.321c.012-.019.022-.024.023-.01s.017.01.038-.007l.308-.246c.149-.119.328-.273.4-.343a.919.919,0,0,1,.173-.145.075.075,0,0,0,.045-.064c0-.025.012-.043.026-.039a2.112,2.112,0,0,0,.4-.385.782.782,0,0,1,.128-.144c.071-.069.209-.227.308-.351a2.45,2.45,0,0,1,.2-.235.059.059,0,0,0,.023-.051.087.087,0,0,1,.04-.065,1.636,1.636,0,0,0,.3-.442c-.01-.01,0-.018.014-.018.173,0,.316-.6.174-.734s-.324-.077-.451.127a2.02,2.02,0,0,1-.141.2c-.029.033-.1.121-.159.2l-.137.172a.134.134,0,0,0-.03.069c0,.018-.014.025-.03.014s-.03-.006-.03.009a7.524,7.524,0,0,1-1.038,1.043c-.111.083-.227.174-.259.2s-.063.049-.07.045-.041.016-.075.045-.061.044-.061.033-.024,0-.053.026a3.937,3.937,0,0,1-.579.251l-.169.025a1.567,1.567,0,0,1-.922-.1,1.326,1.326,0,0,1-.473-.382.17.17,0,0,0-.04-.071,1.841,1.841,0,0,1-.249-.724l-.038-.346a3.789,3.789,0,0,1,.012-.816c.038-.458.048-.55.091-.852a2.338,2.338,0,0,1,.057-.331,1.671,1.671,0,0,0,.033-.18c.007-.058.034-.2.06-.313a.932.932,0,0,0,.034-.22.454.454,0,0,1,.031-.153,2.232,2.232,0,0,0,.056-.216c.017-.1,0-.049.183-.731.056-.212.109-.427.118-.479a.5.5,0,0,1,.035-.123.288.288,0,0,0,.026-.093,1.471,1.471,0,0,1,.058-.209,1.3,1.3,0,0,0,.085-.327c0-.029.013-.053.024-.053a1.137,1.137,0,0,0,.1-.331c0-.008.036-.116.075-.24s.073-.239.075-.256a.374.374,0,0,1,.04-.1.126.126,0,0,0,.017-.1.039.039,0,0,1,.013-.053.134.134,0,0,0,.044-.079.861.861,0,0,1,.043-.136c.017-.042.048-.137.068-.211s.044-.154.053-.179.019-.055.023-.068a.257.257,0,0,1,.014-.038.226.226,0,0,0,.013-.038c0-.012.029-.075.057-.139a1.131,1.131,0,0,0,.063-.18,1.446,1.446,0,0,1,.076-.211,1.591,1.591,0,0,0,.073-.2.906.906,0,0,1,.04-.123c.065-.161.165-.438.174-.481a1.1,1.1,0,0,1,.055-.15c.049-.112.154-.382.263-.676.037-.1.084-.221.105-.271a1.035,1.035,0,0,0,.048-.135.155.155,0,0,1,.025-.06.853.853,0,0,0,.064-.121c.049-.106.049-.106.27-.115a1.815,1.815,0,0,0,.237-.018c.009-.005.151-.019.317-.03s.348-.026.406-.033.234-.019.391-.026.407-.022.556-.033c.38-.027.679-.038,1.474-.053.746-.014.853-.034,1.047-.2a.236.236,0,0,0,.012-.343l-.068-.077-1.729,0c-.951,0-1.908,0-2.127.014a2.751,2.751,0,0,1-.4,0,.872.872,0,0,1,.057-.126,1.18,1.18,0,0,0,.062-.133c0-.012.04-.1.082-.2.163-.366.185-.424.168-.441s0-.018.015-.018.042-.03.053-.068a4.685,4.685,0,0,1,.228-.507c.031-.06.047-.117.036-.128s0-.019.014-.019.071-.082.081-.15c0-.008.06-.127.13-.263a.841.841,0,0,0,.1-.249c-.012,0-.009-.01.007-.023a1.965,1.965,0,0,0,.226-.471.057.057,0,0,1,.028-.052.079.079,0,0,0,.038-.054.231.231,0,0,1,.033-.075c.023-.03.306-.577.569-1.1a2.2,2.2,0,0,1,.152-.273.188.188,0,0,0,.037-.09c.008-.04.028-.077.044-.083a.052.052,0,0,0,.03-.048.242.242,0,0,1,.06-.107.241.241,0,0,0,.06-.121.134.134,0,0,1,.045-.089.125.125,0,0,0,.045-.079c0-.023.012-.042.026-.042s.056-.069.093-.154a.97.97,0,0,1,.124-.216.229.229,0,0,0,.058-.086c0-.058.006-.071.048-.094.024-.013.036-.037.026-.053s0-.028.019-.028.029-.008.019-.018.008-.046.039-.08.051-.072.043-.085.01-.048.04-.078c.066-.065.165-.22.141-.22s.009-.028.04-.062a.924.924,0,0,0,.114-.173,1.013,1.013,0,0,1,.072-.126c.021-.021.159-.233.236-.364.116-.2.062-.3-.156-.313a.631.631,0,0,0-.148,0m26.993,6.659a.968.968,0,0,0-.25.117c-.005.015-.029.02-.052.011s-.043,0-.043.01-.061.043-.135.063-.135.051-.135.068-.011.025-.025.017a11.172,11.172,0,0,0-1.245.606c-.029.026-.053.034-.053.019s-.01-.014-.023,0a1.015,1.015,0,0,1-.2.118,3,3,0,0,0-.3.169,1,1,0,0,1-.19.1.681.681,0,0,0-.179.117c-.06.052-.1.078-.086.057.025-.042-.2.085-.473.267a1.108,1.108,0,0,1-.2.117.029.029,0,0,0-.027.03c0,.017-.021.03-.046.03a.074.074,0,0,0-.063.045c-.009.025-.03.045-.046.045a2.88,2.88,0,0,0-.5.335.057.057,0,0,1-.051.026.134.134,0,0,0-.083.06c-.023.033-.051.051-.061.041s-.028,0-.038.03a.073.073,0,0,1-.055.049.793.793,0,0,0-.2.15.82.82,0,0,1-.2.15.182.182,0,0,0-.09.07.457.457,0,0,1-.1.1,5.012,5.012,0,0,0-.677.656.3.3,0,0,0,.028.307c.17.208.252.216.417.042a.649.649,0,0,1,.135-.12.775.775,0,0,0,.15-.128c.071-.07.174-.165.229-.21l.172-.143a.327.327,0,0,1,.09-.06.341.341,0,0,0,.093-.068,2.283,2.283,0,0,1,.2-.154c.07-.048.128-.1.128-.118s.008-.023.019-.012.227-.122.247-.166a.045.045,0,0,1,.039-.023,1.255,1.255,0,0,0,.227-.15,1.228,1.228,0,0,1,.228-.15.127.127,0,0,0,.07-.053c.022-.029.04-.038.041-.02a.169.169,0,0,1-.058.087c-.033.03-.052.065-.043.08s0,.026-.013.026c-.034,0-.226.3-.192.3.012,0,0,.013-.023.029s-.045.039-.045.052a.417.417,0,0,1-.063.114c-.035.05-.108.171-.162.271l-.169.308c-.039.07-.062.128-.051.128s0,.024-.027.053a1.511,1.511,0,0,0-.2.416c0,.023-.01.043-.023.043a.942.942,0,0,0-.163.368.019.019,0,0,1-.02.023.477.477,0,0,0-.093.173c-.038.1-.1.234-.13.308a1.536,1.536,0,0,0-.067.165,1.366,1.366,0,0,1-.059.15,1.308,1.308,0,0,0-.059.15.215.215,0,0,1-.024.06,5.864,5.864,0,0,0-.216.553,1.158,1.158,0,0,1-.062.168c-.029.066-.057.134-.061.15-.009.034-.023.073-.126.34a.618.618,0,0,0-.057.215.023.023,0,0,1-.014.036.1.1,0,0,0-.041.07.944.944,0,0,1-.049.15.625.625,0,0,0-.042.158c0,.037-.016.068-.03.068s-.019.027-.01.06,0,.06-.013.06-.022.011-.014.025a.176.176,0,0,1-.029.11c-.024.047-.038.091-.03.1a.248.248,0,0,1-.031.122,1.132,1.132,0,0,0-.062.214.643.643,0,0,1-.045.159c-.016.029-.022.053-.014.053s-.005.047-.029.105-.037.105-.029.105,0,.037-.017.083a2.772,2.772,0,0,0-.1.459.3.3,0,0,1-.014.075.992.992,0,0,0-.04.213.429.429,0,0,1-.028.121,1.283,1.283,0,0,0-.038.238c-.012.116-.027.237-.034.27-.021.1-.051.339-.091.722-.025.242-.026,1.467,0,1.644a2.1,2.1,0,0,0,.13.521,1.384,1.384,0,0,1,.056.173c.013.045.035.083.05.083a.019.019,0,0,1,.019.025,1.039,1.039,0,0,0,.284.407c.019-.012.025-.007.015.01-.024.039.081.137.115.106.014-.012.016-.007.005.012a.063.063,0,0,0,.025.071c.025.02.045.025.046.011s.015,0,.032.026a.1.1,0,0,0,.074.053c.024,0,.043.014.043.03s.02.03.045.03.045.013.045.029.054.043.119.061a.337.337,0,0,1,.136.06.053.053,0,0,0,.062.011c.024-.009.044,0,.044.012a1.052,1.052,0,0,0,.421.115,4.366,4.366,0,0,0,.962,0,2.538,2.538,0,0,0,.75-.22.853.853,0,0,1,.189-.071c.012,0,.023-.01.023-.03s.009-.027.019-.016.191-.064.225-.11c.01-.014.024-.022.03-.018a1.54,1.54,0,0,0,.473-.28c.005-.012.022-.015.038-.006s.027,0,.027-.015a.032.032,0,0,1,.033-.032,2.627,2.627,0,0,0,.538-.395c0-.016.012-.022.028-.013s.056-.019.09-.062.063-.069.063-.056.04-.016.088-.063a2.04,2.04,0,0,1,.169-.147,7.568,7.568,0,0,0,.714-.65,2.68,2.68,0,0,1,.323-.3.027.027,0,0,0,.028-.025,6.592,6.592,0,0,1,.623-.679c.152-.159.579-.663.58-.684a.4.4,0,0,1,.083-.106.937.937,0,0,0,.225-.315c0-.014.01-.025.031-.025s.064-.044.1-.1a.439.439,0,0,1,.1-.122.086.086,0,0,0,.04-.064.07.07,0,0,1,.045-.058.071.071,0,0,0,.046-.056.3.3,0,0,1,.085-.121.8.8,0,0,0,.127-.165.509.509,0,0,1,.076-.113,2.167,2.167,0,0,0,.293-.436c-.014,0-.01-.01.009-.023a2.476,2.476,0,0,0,.35-.53c-.01-.01,0-.018.016-.018s.057-.044.084-.1a.545.545,0,0,1,.07-.113,1.933,1.933,0,0,0,.137-.211c.065-.108.145-.238.179-.29a1.187,1.187,0,0,0,.172-.319c0-.012.007-.023.022-.023s.056-.057.092-.128.091-.168.122-.218a1.489,1.489,0,0,0,.086-.155.225.225,0,0,1,.061-.085.036.036,0,0,0,.015-.048c-.01-.016-.005-.028.009-.028s.05-.049.078-.109c.082-.171.086-.1.009.126-.039.114-.073.218-.076.23s-.01.039-.017.06c-.075.241-.107.353-.122.429a1.372,1.372,0,0,1-.047.2.242.242,0,0,0-.012.045c0,.017-.021.084-.04.15-.056.192-.181.741-.2.861a.563.563,0,0,1-.029.135.889.889,0,0,0-.034.176c-.01.083-.025.183-.033.224-.022.109-.05.3-.065.437-.007.066-.019.161-.027.211a11.2,11.2,0,0,0-.025,2.962.589.589,0,0,1,.029.12,1.685,1.685,0,0,0,.2.511c.016,0,.021.012.012.028s0,.046.021.069a.762.762,0,0,1,.068.088,1.738,1.738,0,0,0,.276.351c.071.071.13.122.13.111s.033.015.074.055a.542.542,0,0,0,.18.109c.059.019.107.046.107.06s.035.035.188.077a.11.11,0,0,1,.03.012.236.236,0,0,0,.052.016l.226.059a3.509,3.509,0,0,0,1.022.042c.083-.016.2-.036.255-.044a.315.315,0,0,0,.132-.041.069.069,0,0,1,.068-.011c.023.009.041,0,.041-.021s.019-.029.041-.021a.347.347,0,0,0,.173-.051c.072-.037.138-.069.146-.071a2.469,2.469,0,0,0,.5-.228.5.5,0,0,0,.145-.1c.013-.022.035-.033.049-.025s.048-.012.077-.044.063-.052.076-.045.031-.007.041-.033.032-.038.049-.028.039,0,.049-.028.032-.047.05-.047a2.19,2.19,0,0,0,.494-.382.767.767,0,0,1,.147-.129,2.3,2.3,0,0,0,.373-.379.654.654,0,0,1,.128-.148,1.4,1.4,0,0,0,.241-.275.838.838,0,0,1,.1-.117c.056-.061.1-.122.088-.134s0-.029.027-.038a1.3,1.3,0,0,0,.366-.642.3.3,0,0,0-.477-.189c-.044.035-.074.073-.067.086s-.013.041-.045.064a.135.135,0,0,0-.058.079.1.1,0,0,1-.053.067c-.029.017-.039.031-.023.032s0,.022-.038.048-.067.061-.067.078-.034.059-.077.092-.07.067-.061.076-.018.042-.059.074a.186.186,0,0,0-.074.1c0,.025-.012.037-.026.029s-.087.048-.162.126c-.569.593-1.224.844-1.636.628-.088-.046-.4-.35-.362-.35.012,0,0-.043-.028-.1a1.754,1.754,0,0,1-.157-.565,13.579,13.579,0,0,1,.052-2.751c.018-.149.04-.332.048-.406s.022-.169.03-.211.021-.123.029-.18.022-.146.031-.2c.04-.214.082-.43.109-.55a.363.363,0,0,0,.011-.158c-.01-.016-.006-.029.009-.029s.029-.017.031-.038a.974.974,0,0,1,.034-.188.108.108,0,0,0,.018-.045l.047-.18c.019-.074.038-.155.042-.18a.532.532,0,0,1,.025-.09c.01-.025.033-.106.052-.18s.053-.19.076-.258.046-.148.053-.18a.689.689,0,0,1,.029-.1c.031-.076.233-.674.245-.723a1.525,1.525,0,0,1,.062-.165,1.467,1.467,0,0,0,.057-.149.461.461,0,0,1,.039-.09.467.467,0,0,0,.044-.12.148.148,0,0,1,.035-.078.136.136,0,0,0,.029-.083c0-.036.016-.065.029-.065a.018.018,0,0,0,.018-.023.962.962,0,0,1,.077-.2,1.239,1.239,0,0,0,.087-.233c0-.029.012-.053.022-.053a.9.9,0,0,0,.128-.308c0-.012,0-.023.019-.023s.047-.051.073-.113.07-.167.1-.233a.506.506,0,0,0,.048-.143c0-.012.009-.023.026-.023s.024-.013.014-.028a.037.037,0,0,1,.016-.049,1.372,1.372,0,0,0,.15-.275l.168-.365c.028-.061.117-.229.2-.375a2.362,2.362,0,0,0,.154-.308.168.168,0,0,1,.042-.079.143.143,0,0,0,.036-.088.168.168,0,0,1,.047-.1c.026-.026.036-.047.023-.048s-.01-.01.008-.023a1.765,1.765,0,0,0,.262-.5c-.011-.011-.007-.02.01-.02.065,0,.194-.316.163-.4-.056-.148-.708-.221-1.206-.135l-.207.036a1.313,1.313,0,0,0-.229.063c-.053.022-.1.034-.111.026a2.524,2.524,0,0,0-.519.177.419.419,0,0,1-.1.04.073.073,0,0,0-.055.039c-.006.018-.021.025-.034.017a.339.339,0,0,0-.154.073.338.338,0,0,1-.154.073c-.013-.008-.032.006-.042.032a.074.074,0,0,1-.062.047c-.058,0-.379.322-.357.358.01.015.007.032-.006.038-.036.016-.165.266-.137.266s.01.01-.008.023a1.7,1.7,0,0,0-.231.459c.012,0,0,.012-.017.025a.126.126,0,0,0-.044.087c0,.035-.012.058-.022.052a1.143,1.143,0,0,0-.15.265,3.26,3.26,0,0,1-.187.347c-.029.039-.046.083-.037.1s0,.027-.015.027a.032.032,0,0,0-.032.032.743.743,0,0,1-.082.173.472.472,0,0,0-.074.179.054.054,0,0,1-.038.056c-.025.01-.046.031-.046.046a.506.506,0,0,1-.074.137c-.041.06-.067.12-.058.134s0,.025-.016.025a.038.038,0,0,0-.032.041.124.124,0,0,1-.045.078c-.025.021-.038.048-.03.061a.022.022,0,0,1-.01.034.98.98,0,0,0-.127.206,2.144,2.144,0,0,1-.119.21c-.028.024-.416.7-.417.73a.167.167,0,0,1-.047.07.157.157,0,0,0-.046.089c0,.024-.014.043-.032.043s-.023.014-.013.03.006.03-.008.03-.045.037-.068.083a.866.866,0,0,1-.085.135c-.024.029-.034.052-.023.052s-.006.029-.039.064a.994.994,0,0,0-.122.188c-.034.068-.089.164-.121.214a1.4,1.4,0,0,0-.08.135.228.228,0,0,1-.038.06,1.9,1.9,0,0,0-.226.354.1.1,0,0,1-.036.062,4.525,4.525,0,0,0-.326.493c-.017.027-.132.2-.256.373a3.244,3.244,0,0,0-.217.333c0,.006-.006.027-.023.047l-.094.112a2.259,2.259,0,0,0-.139.2c-.042.066-.115.167-.162.225a.419.419,0,0,0-.086.14.07.07,0,0,1-.047.053c-.026.01-.039.032-.028.048s.006.03-.01.03a1.046,1.046,0,0,0-.19.228c-.088.125-.178.246-.2.268a.139.139,0,0,0-.038.073.03.03,0,0,1-.026.032,1.016,1.016,0,0,0-.181.2c-.186.244-.319.4-.678.819a.38.38,0,0,0-.065.09,1.828,1.828,0,0,1-.179.2l-.458.474a3.623,3.623,0,0,1-.3.289,2.764,2.764,0,0,0-.347.308.365.365,0,0,1-.108.083.447.447,0,0,0-.119.083c-.176.153-.236.2-.244.193s-.188.089-.188.117-.012.023-.028.014-.048,0-.073.028a.155.155,0,0,1-.088.045.107.107,0,0,0-.065.023.1.1,0,0,1-.043.026.574.574,0,0,0-.233.076.03.03,0,0,1-.04.012.237.237,0,0,0-.119.012c-.341.1-.976-.266-.976-.558,0-.023-.014-.042-.03-.042s-.021-.008-.011-.019.006-.043-.01-.073c-.029-.054-.034-.079-.088-.45a10.79,10.79,0,0,1,.01-1.384,2.623,2.623,0,0,0,.033-.315c.01-.149.024-.311.031-.361s.022-.144.031-.211c.039-.272.039-.272.12-.669a2.087,2.087,0,0,0,.04-.24.119.119,0,0,1,0-.046c0-.012.011-.036.015-.052a.281.281,0,0,1,.015-.045.2.2,0,0,0,.012-.038l.046-.186c.022-.09.044-.191.047-.226a.236.236,0,0,1,.014-.069.088.088,0,0,0,.014-.03c0-.012.014-.043.023-.068a4.661,4.661,0,0,0,.127-.448.408.408,0,0,1,.024-.093c.049-.118.212-.621.212-.654s.012-.038.025-.038.025-.041.025-.09.011-.09.025-.09a.564.564,0,0,0,.1-.3c0-.025,0-.035.015-.022s.1-.137.1-.22c0-.03.01-.059.023-.064a1.824,1.824,0,0,0,.167-.37,1.3,1.3,0,0,1,.071-.158c.036-.071.05-.12.03-.109s-.014-.005.013-.037a.376.376,0,0,0,.092-.2c0-.012.007-.023.022-.023s.043-.044.064-.1c.044-.113.37-.772.453-.917.031-.054.046-.1.034-.1s-.007-.01.011-.023a1.051,1.051,0,0,0,.131-.2c.054-.1.107-.194.117-.211a.235.235,0,0,0,.025-.075.073.073,0,0,1,.038-.055.055.055,0,0,0,.032-.051.056.056,0,0,1,.027-.05,1.747,1.747,0,0,0,.179-.281c.084-.149.164-.284.177-.3.051-.062.309-.465.309-.481a1.079,1.079,0,0,1,.156-.226,1.615,1.615,0,0,0,.175-.255.5.5,0,0,1,.074-.093c.041-.044.068-.091.06-.1s.006-.031.031-.041a.177.177,0,0,0,.074-.093c.016-.042.044-.076.062-.076s.025-.013.015-.028.009-.046.04-.068a.534.534,0,0,0,.168-.374.488.488,0,0,1-.027-.073c-.03-.2-.386-.253-.754-.116m-41.992.192a2.049,2.049,0,0,1-.282.03,5.738,5.738,0,0,0-.831.123.7.7,0,0,1-.133.03,1.141,1.141,0,0,0-.191.048.957.957,0,0,1-.153.043,4.035,4.035,0,0,0-1.293.647c0,.015-.017.027-.039.027a1,1,0,0,0-.233.189,2.677,2.677,0,0,0-.431.472c.012,0-.013.037-.055.083-.1.106-.189.248-.158.248.013,0-.008.034-.047.075s-.06.075-.047.075.009.018-.01.04a3.889,3.889,0,0,0-.2.576,2.722,2.722,0,0,0-.052.722,3.35,3.35,0,0,0,.056.782c.044.23.054.273.076.3a.361.361,0,0,1,.039.105,2.021,2.021,0,0,0,.183.479.386.386,0,0,1,.063.122,2.466,2.466,0,0,0,.146.3c.069.124.143.263.166.308s.053.083.068.083.026.026.026.058a.1.1,0,0,0,.03.077.358.358,0,0,1,.074.122c.024.057.058.1.076.1s.025.014.015.03,0,.03.013.03.032.02.032.045.014.045.032.045.025.011.016.025.011.054.044.09a.233.233,0,0,1,.059.087.178.178,0,0,0,.044.076c.025.029.036.053.025.053s.008.03.041.068a3.377,3.377,0,0,1,.31.492,1.5,1.5,0,0,0,.121.185.279.279,0,0,1,.051.076,2.6,2.6,0,0,0,.287.473c.014,0,.018.012.009.027s.011.061.043.1a.283.283,0,0,1,.06.109.032.032,0,0,0,.032.033c.017,0,.025.012.016.027s.009.058.039.1a.538.538,0,0,1,.077.139.324.324,0,0,0,.066.112.253.253,0,0,1,.057.111.155.155,0,0,0,.051.09c.021.013.026.025.011.025s0,.025.023.056.041.064.03.075,0,.02.02.02.032.008.022.018a.363.363,0,0,0,.04.167,3.768,3.768,0,0,1,.2.611c.006.05.02.128.03.175a3,3,0,0,1,.055.709,4.208,4.208,0,0,1-.018.586c-.024.11-.086.339-.1.378a.6.6,0,0,0-.046.177c0,.006,0,.02-.017.03a.842.842,0,0,0-.124.256.069.069,0,0,1-.027.045,2.464,2.464,0,0,0-.25.349,2.037,2.037,0,0,1-.2.2c-.11.1-.23.218-.267.254s-.075.058-.086.047-.018,0-.018.017a.037.037,0,0,1-.038.035.432.432,0,0,0-.143.071,1.2,1.2,0,0,1-.217.111c-.062.022-.113.051-.113.064s-.026.024-.058.024a.475.475,0,0,0-.143.035.98.98,0,0,1-.115.041.261.261,0,0,0-.045.012.827.827,0,0,1-.105.019c-.05.007-.185.03-.3.052a4.27,4.27,0,0,1-1.208-.017.483.483,0,0,0-.17-.031c-.008.008-.054-.007-.1-.032s-.1-.038-.108-.027-.019,0-.019-.016a.037.037,0,0,0-.038-.035,1.656,1.656,0,0,1-.385-.191A.727.727,0,0,1,3.214,136a.608.608,0,0,0-.146-.122c-.043-.023-.078-.054-.078-.07s-.034-.055-.075-.087-.075-.074-.075-.092a.378.378,0,0,0-.068-.126,1.49,1.49,0,0,1-.113-.183.412.412,0,0,0-.075-.112c-.017-.012-.021-.022-.009-.023s-.006-.078-.04-.173a2.392,2.392,0,0,1,.179-1.954c.038-.054.06-.1.048-.1s.01-.027.048-.06.06-.06.049-.06.032-.052.1-.116c.154-.151.185-.213.166-.338s-.124-.248-.182-.225c-.021.008-.039,0-.039-.01s-.034-.019-.075-.011-.075.028-.075.046-.008.023-.018.013a3.3,3.3,0,0,0-.718.7c.009.014-.012.044-.045.068s-.051.051-.041.062.006.02-.01.02a2.448,2.448,0,0,0-.341.465.241.241,0,0,1-.056.079.932.932,0,0,0-.113.171.876.876,0,0,1-.094.151.152.152,0,0,0-.041.133c0,.012-.009.023-.024.023s-.056.058-.092.128-.077.148-.093.173c-.028.045-.138.3-.207.47a1.17,1.17,0,0,0-.009.778c.034.066.082.161.105.21.058.122.321.41.355.389.015-.009.027,0,.027.014a1.933,1.933,0,0,0,.485.35c.056.025.149.074.207.109a2.384,2.384,0,0,0,.566.221c.008-.008.03,0,.049.015a1.041,1.041,0,0,0,.243.075l.283.066a.943.943,0,0,0,.165.022.2.2,0,0,1,.106.023.7.7,0,0,0,.21.038l.42.039a11.9,11.9,0,0,0,2.728-.147c.087-.017.164-.03.172-.03a1.065,1.065,0,0,0,.136-.042c.066-.023.121-.036.121-.028s.029,0,.065-.02a1.3,1.3,0,0,1,.233-.074,2.146,2.146,0,0,0,.258-.076l.105-.042c.021-.007.171-.072.346-.151l.262-.117a.42.42,0,0,0,.13-.079.032.032,0,0,1,.042-.015c.013.008.051-.011.085-.043s.07-.049.08-.039.018,0,.018-.017a.038.038,0,0,1,.04-.035.2.2,0,0,0,.1-.052.8.8,0,0,1,.141-.1c.045-.024.083-.054.083-.069s.03-.037.068-.051a3.619,3.619,0,0,0,.624-.587c0-.018.028-.051.061-.072s.053-.051.043-.067,0-.029.012-.029c.033,0,.145-.147.16-.21a.283.283,0,0,1,.063-.1c.03-.031.046-.069.036-.085s0-.029.012-.029.07-.089.056-.122c0-.01.016-.041.045-.07a.2.2,0,0,0,.056-.1.457.457,0,0,1,.055-.178,1.518,1.518,0,0,0,.106-.391.4.4,0,0,1,.015-.09,1.155,1.155,0,0,0,.053-.24,6.972,6.972,0,0,0-.058-1.654c-.017-.066-.035-.143-.041-.171a1.334,1.334,0,0,0-.14-.415c-.015,0-.021-.012-.012-.026a2.876,2.876,0,0,0-.281-.605.406.406,0,0,1-.065-.113c-.023-.054-.054-.1-.067-.1s-.016-.014-.006-.03,0-.03-.013-.03-.032-.02-.032-.045a.2.2,0,0,0-.06-.105.208.208,0,0,1-.06-.09,1.02,1.02,0,0,0-.213-.331c-.015,0-.024-.01-.02-.023a1.636,1.636,0,0,0-.284-.428c-.015,0-.02-.012-.012-.026s-.024-.069-.074-.12-.082-.094-.073-.094-.025-.061-.076-.135-.107-.135-.123-.135-.023-.013-.013-.028-.006-.042-.036-.059-.042-.031-.028-.032-.014-.052-.062-.114-.14-.194-.2-.293a1.124,1.124,0,0,0-.141-.19.057.057,0,0,1-.024-.05.309.309,0,0,0-.068-.125,1.421,1.421,0,0,1-.125-.2c-.031-.062-.069-.113-.084-.113s-.019-.013-.01-.028a.033.033,0,0,0-.011-.045.614.614,0,0,1-.093-.152c-.036-.074-.078-.135-.093-.135s-.025-.01-.023-.023a.312.312,0,0,0-.03-.105l-.07-.165a.321.321,0,0,1-.03-.105c0-.012-.009-.023-.025-.023s-.029-.01-.027-.023a.087.087,0,0,0,0-.038c0-.008-.012-.049-.019-.09s-.029-.129-.048-.2l-.039-.135a3.226,3.226,0,0,1,.141-1.695.479.479,0,0,0,.04-.11.29.29,0,0,1,.058-.109c.026-.031.044-.064.04-.075s.026-.047.067-.082.067-.063.057-.064a1.663,1.663,0,0,1,.274-.285,1.045,1.045,0,0,0,.236-.173c.005-.013.022-.016.038-.007s.027,0,.027-.02.009-.028.019-.018.047,0,.082-.025a.251.251,0,0,1,.116-.044c.029,0,.053-.014.053-.032s.011-.025.025-.016a.844.844,0,0,0,.306-.065,2.445,2.445,0,0,1,.9.01l.113.028c.054.013.1.034.1.047s.033.035.074.049a1.387,1.387,0,0,1,.435.365c.02.043.047.061.07.048s.028-.011.017,0a.51.51,0,0,0,.084.212,1.731,1.731,0,0,1,.117.245c.007.03.027.11.043.176a2.582,2.582,0,0,1,.057.876,2.575,2.575,0,0,0-.03.269,1.534,1.534,0,0,1-.11.482c-.054.1.035.3.163.366.174.093.3-.008.471-.384l.189-.41c.06-.131.205-.5.235-.6,0-.017.03-.078.055-.135a1.2,1.2,0,0,0,.068-.241.576.576,0,0,1,.045-.165,2.038,2.038,0,0,0,.06-1.059c-.061-.138-.31-.4-.381-.4-.022,0-.04-.013-.04-.028s-.131-.083-.14-.059c0,.007-.029-.01-.06-.038a1.512,1.512,0,0,0-.558-.217,4.148,4.148,0,0,0-.67-.129c-.126-.017-1.508-.041-1.522-.027m60.251,0a5.44,5.44,0,0,1-.542.049c-.029,0-.053.008-.053.019s-.037.022-.083.025a1.09,1.09,0,0,0-.263.041.319.319,0,0,1-.091.014,1.733,1.733,0,0,0-.453.11c-.018.014-.04.019-.049.01s-.055,0-.1.02-.1.039-.117.043a2.832,2.832,0,0,0-.469.2.068.068,0,0,1-.045.029,1.287,1.287,0,0,0-.463.268.03.03,0,0,1-.032.026.127.127,0,0,0-.07.038,1.211,1.211,0,0,1-.126.1,3.179,3.179,0,0,0-.566.59c.009.015.006.024-.008.019a.025.025,0,0,0-.032.014.385.385,0,0,1-.068.083.2.2,0,0,0-.06.1.071.071,0,0,1-.045.059c-.028.011-.037.037-.025.071s.009.044,0,.033c-.034-.03-.226.359-.241.487a.165.165,0,0,1-.02.045,1.106,1.106,0,0,0-.076.389c.009.023,0,.047-.012.052a4.146,4.146,0,0,0,.035,1.242c.047.192.056.235.076.338.01.054.031.1.047.1s.021.013.011.028a.59.59,0,0,0,.117.31c.018.012.023.022.011.023-.032,0,.038.181.071.181.016,0,.021.013.01.03s0,.03.013.03.03.01.028.023a.158.158,0,0,0,.058.145.252.252,0,0,1,.057.082c.007.06.079.2.1.2s.026.017.026.039a.753.753,0,0,0,.1.193,1.438,1.438,0,0,1,.208.377c0,.012.008.022.025.022a.032.032,0,0,1,.03.033,1.693,1.693,0,0,0,.16.278c.088.135.2.323.258.418a.545.545,0,0,0,.126.173c.015,0,.025.01.023.023-.008.036.073.188.1.188s.025.018.025.039a.212.212,0,0,0,.058.1c.032.034.05.071.04.081s0,.018.017.018a.041.041,0,0,1,.035.045c0,.025.014.045.032.045s.024.012.015.028,0,.046.021.068a1.834,1.834,0,0,1,.141.236,1.162,1.162,0,0,0,.133.215.119.119,0,0,1,.038.072.123.123,0,0,0,.032.07c.054.04.117.136.071.108-.024-.014,0,.04.044.122a3.5,3.5,0,0,1,.3.645,1.828,1.828,0,0,0,.072.2.161.161,0,0,1,.02.045c0,.04.081.351.1.391a.729.729,0,0,1,.027.138c.005.051.021.166.035.255a3.878,3.878,0,0,1-.049,1.163.334.334,0,0,0-.018.158c.01.016.007.029-.008.029a.759.759,0,0,0-.123.312c.006.007-.014.039-.042.071s-.044.067-.033.078.007.02-.01.02-.056.051-.088.113a.59.59,0,0,1-.1.149c-.025.02-.033.037-.018.038s-.01.03-.054.065-.075.069-.068.077a1.755,1.755,0,0,1-.32.334c-.006,0-.032.012-.06.037-.1.094-.14.12-.17.12a.031.031,0,0,0-.031.03.029.029,0,0,1-.029.03.883.883,0,0,0-.182.09.733.733,0,0,1-.2.09.04.04,0,0,0-.044.035c0,.019-.008.027-.019.016s-.058,0-.105.026-.086.038-.086.03-.037,0-.083.017a1.233,1.233,0,0,1-.353.072c-.083.011-.191.03-.24.042a3.463,3.463,0,0,1-.5.012,2.243,2.243,0,0,1-.6-.051c-.041-.011-.1-.024-.135-.03a.852.852,0,0,1-.145-.045.578.578,0,0,0-.1-.035,1.415,1.415,0,0,1-.37-.185c0-.014-.02-.026-.045-.026s-.045-.014-.045-.03-.012-.027-.025-.023c-.131.039-.737-.79-.8-1.1a.419.419,0,0,0-.045-.128.1.1,0,0,1-.023-.053c0-.013-.01-.121-.022-.241a2.55,2.55,0,0,1,.157-1.3c.022-.034.03-.073.017-.085s0-.038.025-.058a1.267,1.267,0,0,0,.161-.2.975.975,0,0,1,.156-.189.08.08,0,0,0,.043-.055.174.174,0,0,1,.065-.084c.076-.062.091-.261.023-.3-.023-.015-.03-.027-.014-.027s0-.027-.035-.059c-.076-.071-.219-.113-.219-.065,0,.018-.01.03-.023.027-.043-.012-.174.074-.278.185a.665.665,0,0,1-.158.131c-.029.011-.049.03-.045.043a.844.844,0,0,1-.165.2c-.095.1-.166.187-.157.2s-.009.042-.038.064a.55.55,0,0,0-.1.115l-.2.293a1.3,1.3,0,0,0-.137.218c.008,0-.012.027-.045.06a.2.2,0,0,0-.06.105c0,.025-.014.045-.032.045s-.023.014-.013.03,0,.03-.013.03-.032.02-.032.045-.014.045-.032.045-.023.014-.013.03,0,.03-.013.03-.032.019-.032.043a.061.061,0,0,1-.023.052.589.589,0,0,0-.137.276c.011.011,0,.019-.017.019s-.029.014-.018.03,0,.03-.013.03-.04.037-.051.083a.385.385,0,0,1-.049.12c-.016.021-.019.038-.007.038s.008.018-.011.04a.255.255,0,0,0-.044.1c-.006.032-.026.112-.045.178a1.183,1.183,0,0,0-.006.436.263.263,0,0,1,.012.045c.019.1.058.2.081.2s.027.02.027.045a.041.041,0,0,0,.035.045c.019,0,.026.009.016.019s.008.043.042.073a.208.208,0,0,1,.06.07,1.2,1.2,0,0,0,.261.276c.007-.007.042.015.078.049a1.929,1.929,0,0,0,.46.295c.022,0,.04.014.04.03a.03.03,0,0,0,.03.03.993.993,0,0,1,.188.078,2.31,2.31,0,0,0,.556.21c.008-.008.053,0,.1.028a.71.71,0,0,0,.184.058c.055.008.2.034.311.058s.3.051.406.062l.466.045a13.733,13.733,0,0,0,1.909-.042c.164-.02.32-.042.421-.06l.18-.029c.058-.009.126-.02.15-.026l.225-.049a2.762,2.762,0,0,0,.541-.154.134.134,0,0,1,.053-.027l.03,0,.076-.015a.473.473,0,0,0,.143-.061c.041-.027.074-.04.074-.029s.031,0,.07-.027.079-.037.09-.026.02.006.02-.01a.035.035,0,0,1,.038-.03,2.562,2.562,0,0,0,.557-.27.889.889,0,0,1,.189-.1c.017,0,.038-.02.048-.045s.028-.038.04-.031.06-.019.1-.06a.317.317,0,0,1,.108-.075c.015,0,.041-.024.058-.053s.031-.039.032-.023.031,0,.069-.035a3.149,3.149,0,0,0,.484-.5c-.008-.008.02-.038.062-.066s.078-.062.078-.076a.327.327,0,0,1,.075-.106c.041-.044.068-.091.06-.1s.007-.031.032-.041.038-.032.028-.048-.008-.03.006-.031a2.835,2.835,0,0,0,.446-1.127,5.382,5.382,0,0,0-.064-2,1.749,1.749,0,0,1-.062-.226,1.923,1.923,0,0,0-.2-.5.057.057,0,0,1-.026-.045c0-.053-.032-.132-.061-.132s-.021-.014-.011-.03,0-.03-.015-.03-.025-.014-.015-.03.007-.03-.008-.03a.663.663,0,0,1-.126-.2,1.741,1.741,0,0,0-.117-.218.77.77,0,0,1-.079-.134,2.717,2.717,0,0,0-.188-.293.822.822,0,0,1-.113-.174.666.666,0,0,0-.095-.165.78.78,0,0,0-.128-.165c-.01,0-.035-.037-.055-.083a.834.834,0,0,0-.1-.163c-.155-.182-.172-.206-.15-.206s0-.015-.031-.032-.045-.044-.036-.06,0-.036-.029-.046-.047-.03-.047-.045a1.984,1.984,0,0,0-.307-.447c-.015,0-.019-.014-.009-.03s0-.038-.028-.048-.039-.03-.03-.045,0-.027-.011-.027-.052-.054-.082-.12-.065-.12-.079-.12a.482.482,0,0,1-.1-.165c-.043-.091-.092-.165-.108-.165s-.021-.014-.011-.03.008-.031-.006-.031a.486.486,0,0,1-.1-.165.468.468,0,0,0-.1-.165c-.014,0-.016-.014-.006-.03s0-.03-.015-.03-.026-.012-.018-.026,0-.051-.027-.083a.239.239,0,0,1-.044-.117.422.422,0,0,0-.046-.146.69.69,0,0,1-.058-.158c-.007-.04-.02-.1-.029-.124-.014-.044-.082-.652-.084-.744,0-.038.031-.295.055-.451.01-.066.022-.154.027-.2a.822.822,0,0,1,.056-.188c.027-.062.038-.113.026-.113s-.009-.01.007-.023a1.28,1.28,0,0,0,.133-.225.623.623,0,0,1,.133-.2c.017,0,.023-.008.013-.017s.117-.15.37-.382c.032-.029.058-.042.058-.03s.021,0,.045-.036.044-.047.044-.033.024,0,.053-.022a.37.37,0,0,1,.135-.068c.045-.011.083-.033.083-.047s.01-.025.023-.022a.592.592,0,0,0,.266-.069.029.029,0,0,1,.038-.014,1.09,1.09,0,0,0,.249-.026,1.569,1.569,0,0,1,1.01.14.926.926,0,0,1,.2.126c.012.018.022.024.023.013a1.4,1.4,0,0,1,.308.341c0,.015.012.035.037.044s.038.03.029.044,0,.027.02.027.028.009.017.02,0,.048.02.083a1.844,1.844,0,0,1,.16.469c.014.12.033.254.039.271a5.662,5.662,0,0,1-.043.812.921.921,0,0,1-.07.31.363.363,0,0,0,.168.513c.108.031.247-.019.247-.089a.153.153,0,0,1,.046-.084,3.693,3.693,0,0,0,.325-.67c0-.022.01-.04.022-.04s.084-.15.107-.27a.173.173,0,0,1,.04-.09.132.132,0,0,0,.036-.076.2.2,0,0,1,.026-.075c.2-.2.377-1.654.206-1.654-.016,0-.021-.014-.011-.03s0-.03-.014-.03-.046-.034-.062-.076a.181.181,0,0,0-.082-.1.321.321,0,0,1-.1-.082c-.029-.034-.052-.049-.053-.034s-.031,0-.069-.036a.317.317,0,0,0-.09-.066.354.354,0,0,1-.168-.082.158.158,0,0,0-.1-.039.1.1,0,0,1-.076-.032.051.051,0,0,0-.06-.017c-.022.008-.044,0-.05-.011s-.043-.033-.085-.04-.163-.035-.271-.062a4.124,4.124,0,0,0-.586-.1c-.139-.015-1.481-.036-1.495-.023" transform="translate(-0.645 -95.381)" fill="#fff" fill-rule="evenodd"/>
  <path id="path2" d="M125.572,155.584c.285,0,.752,0,1.037,0s.052-.009-.519-.009-.8,0-.519.009" transform="translate(-102.819 -127.741)" fill="#fff" fill-rule="evenodd"/>
  <path id="path3" transform="translate(0)" fill="#fff" fill-rule="evenodd"/>
  <path id="path4" transform="translate(0)" fill="#fff" fill-rule="evenodd"/>
</svg>
