<svg id="github_coding_dev_developer" data-name="github coding dev developer" xmlns="http://www.w3.org/2000/svg" width="24.455" height="23.966" viewBox="0 0 24.455 23.966">
  <path id="Path_1" data-name="Path 1" d="M15.166,3a12.166,12.166,0,0,0-3.238,23.893.936.936,0,1,0,.5-1.8,10.295,10.295,0,1,1,6.551-.374,14.834,14.834,0,0,0-.281-3.669,5.868,5.868,0,0,0,4.6-5.887,6.008,6.008,0,0,0-.983-3.622A6.635,6.635,0,0,0,21.933,8.4.936.936,0,0,0,20.9,7.773a7.487,7.487,0,0,0-3.154,1.2,10.622,10.622,0,0,0-2.583-.356,12.25,12.25,0,0,0-2.808.4A5.372,5.372,0,0,0,9.2,7.913a.936.936,0,0,0-.936.618,6.607,6.607,0,0,0-.346,2.985,6.692,6.692,0,0,0-.983,3.65,6.233,6.233,0,0,0,4.679,5.877,6.954,6.954,0,0,0-.14.739c-.936.056-1.479-.515-2.171-1.385a3.229,3.229,0,0,0-1.816-1.432.932.932,0,0,0-.412,1.816c.15,0,.515.487.721.758a4.436,4.436,0,0,0,3.51,2.106,4.52,4.52,0,0,0,1.217-.168h0a.936.936,0,0,0,.271-.131h0a.674.674,0,0,0,.168-.2.318.318,0,0,0,.075-.084.8.8,0,0,0,.056-.159,1.423,1.423,0,0,0,.056-.187h0a3.846,3.846,0,0,1,.431-1.788.936.936,0,0,0-.711-1.544A4.305,4.305,0,0,1,8.8,15.166a4.53,4.53,0,0,1,.814-2.808.936.936,0,0,0,.225-.777,4.679,4.679,0,0,1,0-1.731,3.36,3.36,0,0,1,1.628.861.936.936,0,0,0,.936.215,11.689,11.689,0,0,1,2.761-.44,9.274,9.274,0,0,1,2.48.4.936.936,0,0,0,.936-.168,4.679,4.679,0,0,1,1.872-.936,3.846,3.846,0,0,1,0,1.788.983.983,0,0,0,.3.936,3.743,3.743,0,0,1,.664,2.658,4.015,4.015,0,0,1-4.127,4.174.939.939,0,0,0-.618,1.647c.552.477.468,3.743.44,5.016a.927.927,0,0,0,.936.955,1,1,0,0,0,.234,0A12.166,12.166,0,0,0,15.167,3Z" transform="translate(-3.003 -2.999)" fill="#c2c2c2"/>
</svg>
