<svg id="comp_x5F_233-node-js" xmlns="http://www.w3.org/2000/svg" width="52.572" height="60.147" viewBox="0 0 52.572 60.147">
  <g id="Group_86" data-name="Group 86" transform="translate(0 0)">
    <path id="Path_38" data-name="Path 38" d="M78.359,86.148a4.559,4.559,0,0,1-2.283-.621l-7.26-4.356c-1.082-.621-.553-.835-.2-.955A14.2,14.2,0,0,0,71.9,78.7a.525.525,0,0,1,.541.048L78.018,82.1a.673.673,0,0,0,.671,0l21.732-12.723a.708.708,0,0,0,.329-.6V43.337a.713.713,0,0,0-.341-.609L78.688,30.017a.673.673,0,0,0-.671,0L56.309,42.74a.7.7,0,0,0-.341.609V68.783a.66.66,0,0,0,.341.585l5.954,3.485c3.236,1.635,5.212-.286,5.212-2.232V45.509a.627.627,0,0,1,.635-.632h2.753a.634.634,0,0,1,.635.632V70.633c0,4.368-2.353,6.875-6.436,6.875-1.259,0-2.248,0-5-1.384l-5.7-3.33a4.654,4.654,0,0,1-2.283-4.022V43.337a4.668,4.668,0,0,1,2.283-4.022L76.076,26.592a4.705,4.705,0,0,1,4.565,0l21.733,12.735a4.654,4.654,0,0,1,2.283,4.022V68.783a4.683,4.683,0,0,1-2.283,4.022L80.641,85.528A4.526,4.526,0,0,1,78.359,86.148ZM95.9,61.073c0-4.762-3.177-6.027-9.848-6.922-6.754-.907-7.436-1.373-7.436-2.972,0-1.325.577-3.091,5.577-3.091,4.46,0,6.107.979,6.789,4.034a.632.632,0,0,0,.612.5H94.42a.61.61,0,0,0,.459-.2.668.668,0,0,0,.164-.489c-.435-5.263-3.883-7.71-10.848-7.71-6.2,0-9.9,2.65-9.9,7.1,0,4.822,3.683,6.159,9.625,6.755,7.119.7,7.672,1.767,7.672,3.187,0,2.459-1.953,3.509-6.53,3.509-5.754,0-7.013-1.468-7.436-4.368a.626.626,0,0,0-.624-.537H74.194a.625.625,0,0,0-.623.632c0,3.712,1.989,8.14,11.508,8.14,6.871-.012,10.825-2.77,10.825-7.567Z" transform="translate(-52.085 -26.001)" fill="#fff"/>
  </g>
</svg>
