<svg id="image2vector" xmlns="http://www.w3.org/2000/svg" width="64.51" height="64.51" viewBox="0 0 64.51 64.51">
  <path id="path0" d="M0,32.255V64.51H64.51V0H0V32.255m61.091,0V61.091H3.419V3.419H61.091V32.255m-48.9-15.382c-.224.27-.147,1.23.1,1.293.134.034.158.078.158.286,0,.343.055.45.229.45.137,0,.153.032.17.339s.038.341.165.359a.147.147,0,0,1,.145.169c0,.34.079.545.217.564.115.016.141.07.158.329s.046.319.168.366.157.123.192.384c.037.277.068.333.2.367s.159.077.159.31c0,.289.086.425.268.425.09,0,.117.067.132.339.017.295.038.341.165.359s.145.063.145.205c0,.277.1.494.253.533.111.029.134.086.134.333s.024.307.143.351.159.135.21.4c.055.287.092.352.212.369s.145.06.145.294c0,.291.085.428.268.428.09,0,.117.067.132.339.017.295.038.341.165.359s.145.06.145.294c0,.293.085.428.271.428.1,0,.116.055.116.324s.02.332.152.382.161.121.2.381.067.327.186.344.149.07.176.343c.025.255.062.336.177.386a.233.233,0,0,1,.146.226c0,.295.077.453.233.492.128.032.154.079.154.284,0,.343.055.45.229.45.137,0,.153.032.17.339s.037.341.169.36l.149.021-.165.153a.477.477,0,0,0-.165.407c0,.216-.024.26-.159.294s-.166.09-.2.36c-.029.221-.077.331-.154.355a.6.6,0,0,0-.26.52c0,.112-.035.158-.122.158-.147,0-.2.121-.2.452,0,.208-.023.252-.145.269s-.156.079-.2.348c-.042.236-.1.344-.194.387s-.14.128-.155.366-.042.306-.143.306c-.155,0-.257.185-.257.469,0,.172-.035.236-.161.293s-.161.117-.161.365-.02.292-.121.292c-.177,0-.254.127-.278.453-.017.242-.044.292-.164.309s-.151.075-.186.344-.073.335-.2.381-.152.1-.152.382-.017.324-.131.324c-.146,0-.256.222-.256.513,0,.141-.037.192-.161.223-.145.036-.161.073-.161.362,0,.271-.019.321-.121.321-.177,0-.254.127-.278.453-.017.242-.044.292-.164.309s-.151.075-.186.344-.073.335-.2.381-.152.1-.152.382-.017.324-.131.324c-.146,0-.256.222-.256.516,0,.143-.033.19-.145.205s-.148.064-.165.355c-.018.31-.032.336-.194.355s-.176.045-.194.359c-.016.284-.04.339-.143.339-.155,0-.257.185-.257.469,0,.172-.035.236-.161.293-.219.1-.247.864-.036.977.14.075,5.475.084,5.746.01.133-.037.173-.1.226-.378a.826.826,0,0,1,.182-.419.6.6,0,0,0,.153-.356c.024-.182.074-.282.152-.307.124-.039.255-.342.255-.589,0-.09.038-.152.095-.152.15,0,.228-.219.228-.641v-.391h.194c.191,0,.194,0,.194-.35,0-.314.015-.353.145-.371s.148-.064.164-.355c.018-.31.032-.336.194-.355s.176-.045.194-.359C20,42.1,20.032,42,20.094,42c.165,0,.292-.2.292-.458,0-.213.027-.265.161-.316s.161-.1.161-.385.017-.324.131-.324c.146,0,.256-.222.256-.516,0-.143.033-.19.145-.205s.148-.064.165-.359c.014-.235.047-.339.108-.339.171,0,.292-.2.292-.481,0-.223.025-.285.128-.312.133-.035.259-.281.259-.508a.383.383,0,0,1,.142-.245c.113-.092.147-.2.169-.543.027-.42.03-.428.21-.428s.183.015.2.339.031.34.2.359.177.036.177.371.009.35.161.35.161.025.161.262c0,.326.095.512.26.512.109,0,.127.045.127.321s.016.325.161.362.161.078.161.286c0,.343.055.45.229.45.137,0,.153.032.17.339s.031.34.2.359.177.031.177.431.093.613.263.613c.033,0,.06.071.06.157,0,.25.12.5.259.534.1.025.128.088.128.256,0,.261.1.472.219.472.055,0,.1.117.124.324.046.39.078.45.241.45.1,0,.125.045.125.23,0,.3.1.48.26.48.109,0,.127.045.127.324s.019.331.161.385.161.1.161.34c0,.3.084.434.271.434.1,0,.116.055.116.321,0,.289.016.325.161.362.093.023.161.087.161.15,0,.26.047.264,3.067.264,3.037,0,3.275-.02,3.341-.273.043-.165-.058-.373-.183-.373-.066,0-.1-.1-.111-.371-.018-.351-.029-.372-.2-.391s-.177-.037-.177-.37c0-.314-.015-.353-.154-.388s-.161-.093-.2-.352-.066-.317-.185-.334-.149-.07-.176-.343c-.025-.255-.062-.336-.177-.386a.233.233,0,0,1-.146-.226c0-.295-.077-.453-.233-.492-.128-.032-.154-.079-.154-.284,0-.343-.055-.45-.229-.45-.134,0-.153-.034-.17-.306-.015-.238-.05-.32-.155-.366s-.151-.151-.194-.387c-.048-.269-.084-.331-.2-.348s-.145-.06-.145-.269A.4.4,0,0,0,31,40.33a.413.413,0,0,1-.161-.259c0-.227-.125-.474-.259-.508-.09-.024-.128-.088-.128-.215,0-.291-.111-.513-.256-.513-.11,0-.131-.042-.131-.261a.478.478,0,0,0-.155-.4.622.622,0,0,1-.177-.3c-.017-.119-.067-.165-.2-.18-.169-.019-.177-.036-.177-.371s-.009-.35-.161-.35-.161-.026-.161-.253c0-.35-.054-.457-.229-.457-.137,0-.153-.032-.17-.339s-.038-.341-.165-.359-.145-.059-.145-.3c0-.287-.12-.484-.295-.484-.066,0-.092-.082-.092-.3,0-.269-.018-.3-.191-.368s-.192-.1-.21-.4-.039-.328-.164-.346-.145-.063-.145-.205c0-.291-.11-.516-.253-.516-.108,0-.13-.051-.147-.339s-.038-.341-.165-.359c-.219-.031-.206-.369.016-.425.145-.036.161-.073.161-.362,0-.266.02-.321.116-.321.191,0,.271-.137.271-.464,0-.287.012-.31.161-.31s.161-.031.161-.186c0-.131.038-.2.128-.22.138-.036.259-.283.259-.53a.19.19,0,0,1,.124-.192c.122-.039.263-.335.263-.552a.294.294,0,0,1,.133-.2.508.508,0,0,0,.17-.361c.025-.184.074-.284.152-.309.113-.036.255-.337.255-.542a.23.23,0,0,1,.145-.168c.116-.051.149-.125.165-.37.013-.207.048-.306.108-.306.16,0,.291-.2.291-.441,0-.185.032-.252.145-.3s.149-.125.165-.365c.017-.268.04-.309.21-.368s.19-.092.19-.366c0-.249.023-.306.134-.335.15-.039.253-.256.253-.533,0-.143.033-.19.145-.205s.148-.064.165-.359.04-.339.143-.339c.156,0,.257-.186.257-.475,0-.185.026-.229.145-.246s.148-.065.164-.352c.018-.309.032-.334.21-.369s.19-.056.19-.348.015-.316.194-.383.194-.1.194-.4.017-.326.145-.344.148-.064.165-.355c.018-.31.032-.336.194-.355s.176-.045.194-.359.032-.339.18-.339h.16L33.66,17.5l-.018-.693L31,16.789c-2.989-.018-2.925-.027-3.036.431-.047.195-.113.3-.21.335-.12.044-.141.1-.141.377s-.018.325-.127.325c-.156,0-.26.183-.26.456a.47.47,0,0,1-.161.356.479.479,0,0,0-.161.411c0,.219-.021.261-.131.261-.144,0-.256.221-.256.5a.234.234,0,0,1-.143.238c-.165.073-.229.259-.238.693-.006.282-.019.306-.168.306s-.161.019-.161.355-.01.355-.154.355c-.179,0-.233.105-.233.452,0,.208-.023.252-.145.269s-.148.065-.164.346-.038.333-.206.4-.189.105-.207.384c-.017.263-.042.317-.158.333-.139.02-.217.224-.217.569,0,.107-.037.153-.122.153-.147,0-.2.121-.2.457,0,.211-.022.253-.131.253-.145,0-.256.221-.256.51a.242.242,0,0,1-.161.252c-.14.064-.161.115-.161.39s-.021.322-.134.351a.29.29,0,0,0-.177.185c-.032.111-.052.057-.076-.2-.03-.328-.045-.356-.207-.375s-.175-.042-.194-.387c-.017-.318-.037-.369-.157-.387s-.141-.071-.166-.413-.056-.415-.2-.531a.448.448,0,0,1-.173-.276c0-.234-.124-.48-.259-.515-.1-.026-.128-.088-.128-.279,0-.226-.126-.449-.255-.449-.029,0-.072-.16-.1-.355-.038-.3-.066-.36-.2-.394s-.157-.076-.157-.324-.025-.3-.161-.358a.242.242,0,0,1-.161-.252c0-.289-.111-.51-.256-.51-.109,0-.131-.042-.131-.253,0-.352-.054-.457-.233-.457-.142,0-.154-.025-.154-.324s-.019-.331-.158-.384-.161-.11-.177-.367-.041-.312-.181-.344-.165-.079-.194-.39-.052-.355-.177-.373-.145-.061-.145-.246c0-.289-.1-.475-.257-.475-.1,0-.127-.055-.143-.339s-.041-.342-.152-.358a.313.313,0,0,1-.2-.21l-.072-.191H15.012c-2.4,0-2.75.012-2.823.1m34.923-.02c-.029.044-.06,1.743-.07,3.774l-.018,3.693H45.977c-1.427,0-1.715.039-1.764.234-.037.149-.053.152-.81.152-.813,0-1.021.053-1.021.26,0,.115-.046.127-.485.127-.455,0-.49.01-.559.161a.242.242,0,0,1-.252.161c-.285,0-.51.111-.51.253,0,.108-.051.13-.339.147s-.341.038-.359.165c-.013.089-.065.145-.135.145-.223,0-.509.139-.541.262a.172.172,0,0,1-.155.125.273.273,0,0,0-.277.267c0,.074-.06.119-.177.132s-.183.062-.2.166-.064.145-.177.145c-.131,0-.157.032-.157.194s-.021.194-.194.194-.194.026-.194.157c0,.114-.04.163-.145.177s-.151.071-.165.194-.06.178-.194.194-.18.062-.2.173a.229.229,0,0,1-.15.186c-.146.038-.248.258-.248.536,0,.158-.026.189-.157.189s-.161.038-.177.177c-.014.124-.062.183-.158.2-.139.02-.217.224-.217.569,0,.107-.037.153-.122.153-.16,0-.2.121-.2.6,0,.385-.007.4-.194.473s-.194.079-.194.552c0,.441-.012.485-.152.548-.2.091-.235.292-.235,1.312,0,.762-.01.834-.129.9s-.129.135-.129,1.324.007,1.26.129,1.336.129.15.129,1c0,1,.052,1.247.256,1.247.122,0,.131.04.131.608,0,.714.028.812.229.812.139,0,.153.03.17.371s.036.373.164.392.145.059.145.309c0,.345.15.735.283.735.056,0,.1.073.116.177.015.127.062.183.166.2.089.013.145.065.145.135,0,.219.138.508.257.54a.232.232,0,0,1,.141.216c.017.147.057.189.2.205s.177.054.177.176a.176.176,0,0,0,.158.2.225.225,0,0,1,.177.179c.014.1.073.145.2.159s.177.055.177.172.045.162.19.194c.129.028.2.086.21.182.017.118.068.144.319.16.274.018.3.036.337.21s.069.19.233.19c.128,0,.2.032.2.094,0,.129.2.228.472.228.168,0,.231.031.256.128.044.167.3.259.712.259.284,0,.345.022.4.143.085.191.26.23,1.08.238.563.005.693.024.693.1,0,.2.249.228,2.1.228H47.1l.161-.161c.154-.154.2-.162.981-.168.947-.007,1.118-.041,1.206-.238.058-.13.11-.143.552-.143.5,0,.643-.059.643-.271,0-.1.061-.116.485-.116.455,0,.489-.01.545-.158.05-.132.11-.161.367-.177s.312-.041.344-.181a.211.211,0,0,1,.212-.182l.175-.02v-14.5c0-11.19-.018-14.515-.077-14.575a45.412,45.412,0,0,0-5.579,0m-.085,19.176v6.677h-1.29c-.923,0-1.29-.021-1.29-.074,0-.153-.235-.245-.629-.247-.361,0-.4-.016-.4-.133,0-.147-.222-.256-.52-.256-.159,0-.189-.026-.189-.161s-.03-.161-.194-.161-.194-.021-.194-.194-.025-.194-.161-.194c-.112,0-.161-.035-.161-.116a.272.272,0,0,0-.267-.271c-.089,0-.117-.065-.132-.306-.017-.261-.041-.309-.165-.327-.1-.015-.145-.064-.145-.173,0-.246-.121-.493-.259-.529-.112-.029-.128-.089-.128-.472,0-.542-.037-.643-.233-.643h-.154V36.061c0-2.32,0-2.387.125-2.387.181,0,.226-.105.262-.613.029-.4.048-.454.17-.471.138-.02.217-.224.217-.564a.147.147,0,0,1,.145-.169.179.179,0,0,0,.164-.184.3.3,0,0,1,.161-.226c.1-.042.162-.152.2-.337.05-.226.087-.274.21-.274s.149-.034.149-.194c0-.175.02-.194.21-.194.364,0,.5-.065.5-.233,0-.128.033-.154.194-.154s.194-.025.194-.161c0-.157.012-.161.471-.161.486,0,.626-.06.626-.271,0-.108.09-.116,1.258-.116h1.258v6.677" transform="translate(0)" fill="#fff" fill-rule="evenodd"/>
  <path id="path1" transform="translate(0)" fill="#fff" fill-rule="evenodd"/>
  <path id="path2" transform="translate(0)" fill="#fff" fill-rule="evenodd"/>
  <path id="path3" transform="translate(0)" fill="#fff" fill-rule="evenodd"/>
  <path id="path4" transform="translate(0)" fill="#fff" fill-rule="evenodd"/>
  <path id="path5" transform="translate(0)" fill="#fff" fill-rule="evenodd"/>
  <path id="path6" transform="translate(0)" fill="#fff" fill-rule="evenodd"/>
  <path id="path7" transform="translate(0)" fill="#fff" fill-rule="evenodd"/>
</svg>
