<svg id="image2vector" xmlns="http://www.w3.org/2000/svg" width="50.085" height="64.231" viewBox="0 0 50.085 64.231">
  <path id="path0" d="M119.982,25.17c-.143.114-.142.116.022.036.141-.068.163-.063.126.034-.043.112-.259.149-.85.145-.181,0-.244.03-.229.115s-.084.135-.361.182a.939.939,0,0,0-.438.157c-.032.05-.058.063-.059.028s-.051-.013-.111.047a.426.426,0,0,1-.287.1.422.422,0,0,0-.278.087c-.056.054-.134.078-.174.053s-.063,0-.051.055-.056.111-.151.126-.172.06-.172.1-.034.054-.076.028-.076-.009-.076.038-.1.121-.229.165-.229.128-.229.187-.036.107-.081.107-.063-.029-.042-.064-.009-.064-.069-.064-.09.029-.068.064-.012.064-.075.064a.326.326,0,0,0-.215.142.641.641,0,0,1-.291.2.9.9,0,0,0-.328.2.45.45,0,0,1-.249.143.109.109,0,0,0-.112.106c0,.058-.069.124-.153.146a.2.2,0,0,0-.153.162.117.117,0,0,1-.109.122.189.189,0,0,0-.153.137.633.633,0,0,1-.309.257c-.146.066-.247.091-.225.054s.005-.066-.039-.066-.072.077-.062.172c.014.135-.017.168-.146.155a.2.2,0,0,0-.212.106c-.04.1-.029.108.071.025s.111-.078.07.027c-.027.069-.079.126-.116.126s-.068.065-.068.145c0,.167-.2.273-.26.138-.025-.056-.038-.047-.034.023.013.224-.012.306-.1.306-.049,0-.063-.056-.034-.131s.024-.105-.008-.073a1.11,1.11,0,0,0-.138.3c-.043.135-.122.245-.175.245a.1.1,0,0,0-.1.076c-.012.142-.17.275-.277.234-.059-.022-.087-.01-.064.028a.231.231,0,0,1-.157.312.106.106,0,0,0-.106.106.391.391,0,0,1-.172.228c-.133.1-.139.111-.028.074s.134-.018.108.059a.164.164,0,0,1-.143.108c-.059,0-.13.1-.157.229s-.053.2-.058.163c-.022-.16-.238.144-.238.335a.284.284,0,0,1-.115.256c-.063.024-.115.009-.115-.034s-.035-.057-.077-.031-.054.137-.027.245c.032.128.022.18-.029.149s-.074.01-.069.084-.032.124-.085.114-.1.058-.1.163a.206.206,0,0,1-.153.222c-.084.022-.15.086-.147.143,0,.077.015.079.044.007a.145.145,0,0,1,.109-.1c.039,0,.029.067-.022.148s-.114.135-.14.118-.048.029-.047.1c0,.413-.036.55-.145.55s-.1-.03-.029-.172.069-.154-.006-.083a.848.848,0,0,0-.12.42,1.969,1.969,0,0,1-.183.635,1.49,1.49,0,0,0-.157.563c0,.222-.022.254-.152.221s-.141-.019-.069.115c.06.112.059.14,0,.1s-.084.074-.084.338c0,.318-.023.386-.124.368s-.131.066-.159.436a1.037,1.037,0,0,1-.106.484.4.4,0,0,0-.147.509c.042.11.047.182.011.16a3.286,3.286,0,0,0-.1,1.119.228.228,0,0,1-.081.185c-.053.032-.068.009-.041-.062s0-.115-.057-.115c-.074,0-.083.048-.033.179.037.1.04.178.006.178-.073,0-.067-.073-.087,1.183-.015.921-.106,1.36-.253,1.214-.026-.027-.016.064.024.2a.622.622,0,0,1,.031.316c-.022.036.013.066.079.066.139,0,.149.069.034.229-.069.1-.075.092-.038-.023.027-.085.014-.119-.035-.089a3.432,3.432,0,0,0,.074,1.718c.106,0,.107.011.007.075-.063.041-.079.075-.035.075s.087.1.1.228c.013.176-.009.217-.1.183-.148-.057-.15.044,0,.155.085.064.115.285.124.907a2.044,2.044,0,0,0,.088.822c.043,0,.035.05-.019.115s-.067.115-.012.115.064.052.039.115,0,.115.063.115.112.069.118.153-.029.153-.079.154c-.07,0-.07.014,0,.059a.788.788,0,0,1,.109.438c.021.45.131.818.228.758a3.552,3.552,0,0,1,.09,1.17c0,.052.023.078.056.058s.106.021.163.092c.09.11.088.119-.01.061s-.1-.045-.03.043a1.116,1.116,0,0,1,.129.4.88.88,0,0,0,.163.407c.1.1.147.342.147.812,0,.072.021.117.047.1.129-.08.228.123.248.507.014.282.051.415.109.393.108-.041.179.067.225.342.055.325.1.414.183.362.042-.026.077.022.077.107,0,.114-.035.143-.134.11s-.074,0,.041.085.16.177.129.277c-.026.08-.012.146.03.146.154,0,.3.232.286.451-.012.17.028.246.16.306a.289.289,0,0,1,.176.311c0,.127.034.231.076.231s.076.053.076.119.034.1.076.072.076.022.076.106a.262.262,0,0,0,.076.2.208.208,0,0,1,.076.162c0,.067-.037.092-.088.06s-.067-.021-.031.039a.141.141,0,0,0,.165.052c.061-.023.107.006.107.069a1.047,1.047,0,0,0,.152.361c.189.309.2.582.028.567-.152-.013-.17.1-.179,1.162-.007.733-.017.783-.138.689s-.117-.086,0,.057a.8.8,0,0,1,.135.457c0,.412.073.644.2.644.1,0,.134.157.132.553,0,.1.023.113.1.046s.123-.036.195.155c.05.132.131.241.181.241s.111.085.137.188c.033.13.084.174.166.143s.133.009.161.117c.023.09.085.163.137.163.136,0,.43.273.365.339-.031.031.039.032.154,0s.21-.021.21.02.129.129.287.2a9.8,9.8,0,0,0,2.731.049c-.1-.154.064-.294.312-.275.206.016.242,0,.175-.08-.1-.125.024-.134.147-.01.069.069.082.049.056-.085-.029-.152-.008-.17.159-.138.137.026.182.008.155-.063-.046-.119.126-.277.266-.247.056.012.1-.046.1-.131a.176.176,0,0,1,.171-.177c.113-.016.153-.061.124-.138s.028-.181.119-.266a.537.537,0,0,0,.165-.32c0-.193.179-.459.254-.384.027.027.053.018.056-.021s.023-.241.042-.449a1.3,1.3,0,0,1,.107-.466c.04-.048.049-.11.02-.139a1.155,1.155,0,0,1-.072-.413c-.018-.331-.01-.349.091-.213.061.082.111.119.111.083a.419.419,0,0,0-.107-.187,1.252,1.252,0,0,1-.147-.53c-.03-.305-.082-.439-.206-.526a.268.268,0,0,1-.125-.326c.034-.17.006-.226-.151-.3-.106-.048-.179-.13-.162-.181s-.116-.19-.3-.309a1.1,1.1,0,0,1-.374-.365c-.026-.081-.092-.148-.147-.148a.408.408,0,0,1-.228-.172c-.07-.095-.1-.12-.074-.057.043.093.033.1-.05.019a.4.4,0,0,0-.236-.1.358.358,0,0,1-.241-.153c-.1-.137-.2-.154-.955-.159-.743,0-.842-.021-.8-.127.031-.081.017-.1-.043-.066s-.089.019-.089-.026-.052-.081-.115-.081c-.1,0-.157-.191-.124-.4.005-.032-.025-.057-.067-.057s-.076-.054-.076-.119-.034-.1-.076-.072-.076-.021-.076-.1c0-.227-.081-.393-.191-.393-.084,0-.137-.174-.2-.668-.01-.07-.039-.072-.115-.01s-.1.036-.1-.154a.61.61,0,0,0-.153-.392.616.616,0,0,1-.153-.382.6.6,0,0,0-.141-.37.927.927,0,0,1-.188-.43.994.994,0,0,0-.17-.425c-.09-.1-.1-.151-.033-.191s.068-.069,0-.11-.114-.2-.149-.6c0-.055-.041-.08-.08-.056a.084.084,0,0,1-.116-.028c-.024-.04.014-.083.085-.1.12-.023.121-.034,0-.152a.772.772,0,0,1-.16-.382,2.305,2.305,0,0,0-.128-.485,1.97,1.97,0,0,1-.173-.975c-.01-.418-.038-.525-.147-.559a.235.235,0,0,1-.139-.209,12.858,12.858,0,0,0-.1-1.636c-.021-.021-.006-.12.032-.221s.041-.183.006-.183-.029-.155.015-.344c.089-.389.042-.49-.156-.338-.075.057-.11.074-.079.037s.014-.119-.038-.184c-.079-.1-.074-.109.03-.07s.126-.008.129-.253a1.1,1.1,0,0,1,.06-.389c.036-.059.016-.074-.059-.046s-.115-.012-.115-.175c0-.12.029-.2.064-.179s.064-.064.064-.19a.357.357,0,0,0-.134-.308c-.128-.074-.128-.078,0-.08a.137.137,0,0,0,.134-.155c0-.084.034-.153.077-.153s.069-.19.057-.458a1.032,1.032,0,0,0-.074-.459c-.03,0-.039-.043-.019-.1a8.1,8.1,0,0,0,.065-.923,2.992,2.992,0,0,1,.115-.914c.063-.063.086-.058.086.019,0,.057.022.082.049.055s.006-.1-.048-.166c-.068-.082-.073-.145-.018-.212a1.153,1.153,0,0,0,.109-.452,1.139,1.139,0,0,1,.14-.492c.068-.084.074-.114.015-.079s-.1.006-.1-.1c0-.087.043-.149.1-.138s.1-.056.1-.149a.4.4,0,0,1,.057-.223.909.909,0,0,0,.055-.384c0-.26.024-.32.114-.285a.094.094,0,0,1,.064.131c-.028.048-.022.062.013.031a1.112,1.112,0,0,0,.078-.447c.013-.351.133-.572.265-.49.025.015.051-.112.057-.283a.76.76,0,0,1,.169-.477.573.573,0,0,0,.157-.254c0-.173.177-.47.252-.424.043.026.054.011.026-.035-.057-.093.174-.629.271-.629.034,0,.062-.089.062-.2,0-.134.05-.211.153-.238.149-.039.186-.142.155-.434-.012-.111.021-.135.141-.1.086.022.154.019.15-.009-.025-.2.038-.307.2-.348.123-.031.174-.085.146-.158s.038-.191.137-.289c.2-.2.217-.235.217-.394,0-.073.054-.094.165-.064s.148.016.109-.048c-.074-.12.351-.6.51-.578.083.012.113-.029.094-.127-.025-.131.1-.187.353-.158.025,0,.03-.079.01-.182-.03-.155-.006-.187.141-.187s.157.021.085.092a.306.306,0,0,0-.092.168c0,.042.049.009.108-.073a.347.347,0,0,1,.21-.148.109.109,0,0,0,.1-.115c0-.063.078-.149.173-.19a.425.425,0,0,0,.215-.21c.028-.087.12-.135.262-.135s.234-.047.267-.153c.027-.084.083-.153.124-.153s.05.043.019.1c-.044.073-.031.075.053.011a1.026,1.026,0,0,1,.32-.135c.116-.028.21-.1.21-.156s.09-.106.26-.106c.345,0,.582-.08.561-.19-.011-.056.159-.106.464-.137a1.373,1.373,0,0,0,.573-.147c.073-.079.068-.086-.023-.037-.063.034-.088.032-.055,0,.077-.085.214-.1.838-.119a1.183,1.183,0,0,0,.516-.072c0-.033.069-.042.153-.02.112.029.153,0,.154-.1s.013-.125.075-.028c.041.063.075.077.075.031,0-.154.989-.136,1.174.022.157.134.159.133.053,0s-.091-.139.192-.117a.657.657,0,0,1,.387.135c.078.1.321.137,1.08.155.248.006.356.187.153.254-.052.018.025.034.172.038a3.477,3.477,0,0,1,.459.041l.248.045c.031.005.057.061.057.124,0,.1.24.161.478.124a.039.039,0,0,1,.048.048c-.026.167.024.248.154.248a.834.834,0,0,1,.39.229.865.865,0,0,0,.36.229c.072,0,.1.044.069.119s-.016.1.02.078.127.028.2.111a.46.46,0,0,0,.278.151c.092,0,.141.055.141.16a.2.2,0,0,0,.153.2c.084.022.153.074.153.116s-.052.056-.115.032-.115-.027-.115-.006a1.019,1.019,0,0,0,.478.2c.032-.007.05.013.041.045a1.253,1.253,0,0,0,.332.583.56.56,0,0,1,.143.215c0,.034.052.062.115.062.1,0,.148.091.124.248,0,.032.047.057.115.057.086,0,.111.047.084.153s0,.153.072.153.089.037.062.082.022.1.11.124c.119.031.161.1.163.282,0,.248.166.542.254.455.027-.027.05.043.05.157a.279.279,0,0,0,.117.251c.091.035.1.068.028.152s-.065.1.036.059.126,0,.126.185a.4.4,0,0,0,.088.287c.058.036.067.021.026-.045s-.032-.082.038-.038.068.086-.045.172c-.139.106-.138.109.027.06.116-.034.175-.018.18.05s.015.221.023.368c.011.2.048.265.147.256s.114.011.043.1-.065.107,0,.107.086.062.086.138a.41.41,0,0,0,.1.241c.076.082.076.092,0,.049s-.078-.013-.006.144.107.171.152.1.066.028.073.227c.006.179.015.442.02.585s.032.247.058.23c.145-.089.237.3.25,1.038a1.054,1.054,0,0,0,.122.556,1.035,1.035,0,0,1,.153.444c.042.342.592.656,1.243.711a.777.777,0,0,1,.344.086c.031.034,0,.037-.058.006s-.064-.015.018.053.107.136.076.169.019.021.111-.027c.11-.057.184-.061.215-.01a.569.569,0,0,0,.349.077c.166,0,.3.03.3.067,0,.2.967.278,1.069.087a4.094,4.094,0,0,0-.021-1.511c-.04-.053-.043-.1-.007-.1s.01-.046-.06-.1c-.1-.073-.136-.263-.163-.781-.042-.793-.057-.872-.194-1.019a.3.3,0,0,1-.064-.25c.02-.078.014-.142-.013-.142s-.05-.168-.05-.374a.757.757,0,0,0-.146-.535c-.143-.158-.143-.161,0-.162s.138-.008-.013-.134a.472.472,0,0,1-.153-.409c0-.179-.026-.265-.082-.243-.131.05-.186-.086-.21-.512-.011-.211-.052-.386-.091-.389-.155-.013-.235-.156-.226-.406,0-.145-.011-.251-.036-.235s-.086-.039-.137-.12-.061-.148-.021-.148a.145.145,0,0,1,.109.1c.029.072.04.073.045,0,0-.051-.064-.13-.151-.177a.18.18,0,0,1-.105-.251c.028-.092.027-.145,0-.117-.083.078-.347-.222-.347-.395,0-.084-.029-.153-.063-.153s-.064-.052-.064-.115.034-.115.076-.115.054-.022.027-.049-.1-.006-.166.048c-.1.083-.117.063-.117-.149,0-.181-.04-.256-.152-.286-.084-.022-.133-.071-.109-.109a.1.1,0,0,1,.133-.017c.05.029-.006-.04-.124-.152s-.194-.238-.168-.279,0-.056-.072-.03-.12,0-.124-.1a.622.622,0,0,0-.262-.576c-.159-.126-.181-.176-.1-.231s.048-.055-.07-.022c-.163.046-.219-.044-.181-.287,0-.032-.056-.057-.135-.057a.206.206,0,0,1-.184-.153.2.2,0,0,0-.2-.153c-.088,0-.156-.026-.151-.057.025-.158-.02-.248-.124-.248-.063,0-.115-.028-.115-.062a.539.539,0,0,0-.138-.21,1.113,1.113,0,0,1-.192-.29c-.031-.081-.1-.124-.162-.1-.115.044-.226-.145-.154-.262.024-.038-.045-.069-.153-.069s-.2-.038-.2-.085.053-.064.119-.039.1.015.077-.021a.528.528,0,0,0-.249-.119.619.619,0,0,1-.311-.2c-.057-.081-.136-.148-.175-.148a.489.489,0,0,1-.213-.134,2.807,2.807,0,0,0-.566-.448c-.032-.006-.111-.015-.177-.02s-.1-.037-.081-.071c.063-.1-.063-.239-.246-.267a.791.791,0,0,1-.329-.16.644.644,0,0,0-.3-.145c-.08-.006-.146-.055-.146-.109a.11.11,0,0,0-.119-.1c-.065,0-.1-.028-.081-.061s-.061-.055-.181-.046c-.223.015-.375-.153-.206-.23.05-.023.022-.036-.062-.029-.408.032-1.083-.178-1-.311.017-.027-.123-.046-.31-.042-.234,0-.362-.032-.411-.115s-.072-.088-.073-.022c0,.081-.022.081-.108,0s-.08-.115-.024-.15c.128-.081-5.012-.057-5.163.023-.087.047-.134.044-.134-.008,0-.113-.1-.1-.272.04m8.91,6.181c0,.081.23.3.272.257.019-.019-.034-.1-.118-.174s-.153-.114-.153-.083m-20.086,6.6a.084.084,0,0,0-.046.124c.036.064.025.066-.04.006a.211.211,0,0,1-.039-.215c.039-.1.071-.111.136-.042s.06.1-.011.127m10.266,1.7a.548.548,0,0,1-.431.156c-.321,0-.98.352-.984.525,0,.066-.058.09-.156.064s-.134-.01-.1.042,0,.065-.072.035-.111-.014-.085.053-.07.151-.233.229c-.275.13-.379.235-.144.145.085-.033.109-.02.072.041a.205.205,0,0,1-.155.089c-.06,0-.092.074-.079.186.021.195-.155.33-.225.173-.024-.054-.036-.045-.03.023.02.207-.174.77-.25.723a.093.093,0,0,1-.023-.129c.028-.046.018-.062-.023-.037a8.089,8.089,0,0,0,.07,2.687.327.327,0,0,1,.134.219.215.215,0,0,0,.077.168c.049.031.051.1,0,.182-.059.11-.041.134.1.129s.166.037.161.166.038.172.134.172a.13.13,0,0,1,.14.116.424.424,0,0,0,.153.246.423.423,0,0,1,.153.226c0,.053.047.077.1.055.11-.043.378.174.324.261-.017.028.056.056.164.063a.354.354,0,0,1,.264.134.263.263,0,0,0,.207.122.8.8,0,0,1,.359.17c.14.108.182.122.116.038-.093-.116-.086-.132.055-.132.1,0,.146.037.121.1-.044.115-.058.112.751.156a1.743,1.743,0,0,0,.632-.031c.022-.035.139-.034.262,0,.172.049.214.041.185-.037-.044-.115.132-.185.558-.224.225-.02.293-.059.293-.169s.051-.139.221-.126c.121.009.2,0,.173-.03s.046-.127.159-.224c.151-.129.222-.152.265-.084.054.086.1-.1.069-.275-.006-.034.064-.052.156-.038.123.018.17-.018.179-.137a.705.705,0,0,1,.179-.339.608.608,0,0,0,.167-.317c0-.149.3-.176,1.72-.153.336.006,1.05.011,1.586.012.778,0,.974.023.974.108,0,.15.245.2,1.016.2.565,0,.7.025.836.154a.486.486,0,0,0,.245.144c.648-.073,1.279.109,1.143.329-.032.052,0,.052.1,0a.279.279,0,0,1,.251-.015.253.253,0,0,0,.193.03c.049-.019.13.044.179.141l.09.175-.044-.172c-.034-.133-.017-.161.076-.126s.145.118.135.259c0,.021.123.045.278.053s.336.019.4.025a.312.312,0,0,1,.205.176c.044.092.083.124.085.073,0-.068.057-.074.2-.02a.714.714,0,0,0,.287.055.06.06,0,0,1,.074.077c-.01.053.034.1.1.1s.1-.04.073-.1.011-.018.081.076a.447.447,0,0,0,.309.172c.1,0,.182.031.182.068s.087.09.193.117a.849.849,0,0,1,.358.238.54.54,0,0,0,.246.187c.045,0,.022-.037-.052-.08s-.134-.112-.134-.154.074-.007.165.078.2.134.235.11.154.034.255.13a.74.74,0,0,0,.358.188c.1.009.169.062.163.132s.048.112.17.1c.1-.011.161.01.138.046s.051.066.163.066c.144,0,.191.032.162.108-.048.124.1.2.4.2a.362.362,0,0,1,.3.153c.053.084.13.153.171.153a.525.525,0,0,1,.229.153.522.522,0,0,0,.3.153c.09,0,.162.071.192.188s.085.174.159.145.144.026.2.141c.063.14.137.18.308.168s.224.016.224.137a.2.2,0,0,0,.153.192c.141.037.188.117.16.276-.006.035.016.047.048.028.113-.067.447.1.337.17-.073.045-.047.076.095.112s.182.084.147.175c-.029.077-.018.107.03.078s.158.036.256.14a.589.589,0,0,0,.279.189c.09,0,.139.151.108.331-.006.035.024.041.067.015s.159.04.259.147a.628.628,0,0,0,.268.2c.048,0,.087.069.087.153s.033.153.073.153c.133,0,.462.387.462.544,0,.12.034.144.153.106.086-.027.157-.013.162.033a.542.542,0,0,0,.093.293c.034.053.086.081.117.063s.061.036.067.122c.013.17.239.46.32.41.046-.029.064.045.105.449a.187.187,0,0,0,.113.166c.054.011.062,0,.019-.019a.149.149,0,0,1-.078-.118c0-.048.045-.042.115.016a.351.351,0,0,1,.115.236.3.3,0,0,0,.157.225c.117.063.148.138.122.3-.029.18,0,.226.149.264.171.043.248.294.188.61-.007.039.039.027.1-.026.122-.1.11-.126.238.491.022.105.091.191.153.191.081,0,.113.085.113.3a.84.84,0,0,0,.149.486,1.433,1.433,0,0,1,.2.6.831.831,0,0,0,.155.473.278.278,0,0,1,.106.229c0,.093,0,.925,0,1.851,0,2.028,0,2.042-.146,2.089-.1.032-.1.02-.01-.089.068-.083.075-.127.019-.127s-.087.026-.089.057-.022.229-.044.439-.042.434-.044.5a.642.642,0,0,1-.166.293c-.089.1-.153.192-.143.21.087.147,0,.351-.131.317-.083-.022-.147-.017-.144.01.038.293-.028.623-.125.623-.062,0-.135.089-.163.2-.036.145-.087.188-.193.16-.079-.021-.125-.009-.1.027a.089.089,0,0,1-.043.115.134.134,0,0,0-.042.158c.023.059.006.107-.037.107s-.128.12-.19.267-.137.263-.168.258c-.163-.025-.238.022-.2.124s-.081.154-.29.126c-.028,0-.041.078-.03.182.015.137-.016.189-.113.189a.424.424,0,0,0-.265.2c-.1.158-.146.179-.2.1-.072-.113-.1-.015-.075.238.01.094,0,.1-.058.011s-.086-.079-.123-.018a.094.094,0,0,1-.124.042c-.039-.024-.071-.005-.071.042a.4.4,0,0,1-.346.3.2.2,0,0,0-.167.153c-.034.132-.2.2-.423.162-.032,0-.057.029-.057.075s-.056.063-.126.037c-.105-.04-.11-.029-.029.068s.069.117-.085.117c-.3,0-.525.087-.525.2,0,.072-.1.106-.3.106-.373,0-.541.062-.541.2,0,.1-.05.111-.9.123-.3,0-.5.107-.437.216.021.035-.022.063-.1.062l-1.588,0c-1.621.007-1.586.01-1.93-.172-.162-.085-.249-.1-.249-.044s-.031.063-.1.013a1.726,1.726,0,0,0-.592-.092c-.46-.016-.728-.108-.657-.224.016-.027-.18-.059-.437-.072a1.516,1.516,0,0,1-.566-.105c-.073-.06-.1-.054-.1.023,0,.058-.04.033-.083-.056a.316.316,0,0,0-.3-.167c-.3-.009-.528-.087-.528-.183,0-.044.053-.059.119-.034s.1.013.074-.026a2.162,2.162,0,0,0-1.427.1.528.528,0,0,1-.242.165.077.077,0,0,0-.072.1c.011.052-.066.127-.172.167s-.192.126-.192.191-.095.138-.239.167a.343.343,0,0,0-.276.189.179.179,0,0,1-.144.141.421.421,0,0,0-.237.153.422.422,0,0,1-.229.153.1.1,0,0,0-.1.108c0,.06-.105.132-.235.16-.156.034-.221.087-.194.157a.134.134,0,0,1-.045.157c-.051.032-.063.018-.03-.036s.008-.088-.057-.088-.1.055-.086.134c.1.49.125.554.241.554.069,0,.1.022.076.05-.087.087.206.251.452.254a.554.554,0,0,1,.375.155.585.585,0,0,0,.479.153c.307,0,.337.016.3.157s-.022.142.069.066.1-.069.064.029.011.117.3.1c.358-.024.794.171.681.3-.032.038,0,.027.064-.024s.142-.072.167-.047a1.2,1.2,0,0,0,.4.064.58.58,0,0,1,.455.16c.083.113.222.146.689.162a1.468,1.468,0,0,1,.793.164,27.767,27.767,0,0,0,5.06.092c.135-.039.246-.037.272.005a.16.16,0,0,0,.135.065c.066,0,.065-.017,0-.044-.133-.054.076-.256.261-.253.131,0,.13.009-.009.115-.082.062-.108.112-.058.112a.273.273,0,0,0,.175-.136c.062-.1.168-.131.4-.118a.956.956,0,0,0,.556-.132,1.8,1.8,0,0,1,.615-.193.775.775,0,0,0,.4-.114.151.151,0,0,1,.138-.071c.062,0,.1-.026.077-.057s.1-.063.273-.07a1.069,1.069,0,0,0,.525-.172.8.8,0,0,1,.339-.16.7.7,0,0,0,.271-.079c.108-.058.148-.054.148.013,0,.051.022.07.049.043s.006-.1-.047-.166c-.082-.1-.067-.118.1-.126.339-.016.362-.024.463-.162a.361.361,0,0,1,.256-.134.224.224,0,0,0,.207-.153c.027-.084.085-.153.129-.153s.038.054-.023.134c-.094.121-.088.12.058,0a.683.683,0,0,1,.32-.15c.087-.007.144-.026.126-.044-.063-.063.123-.318.233-.318a.11.11,0,0,0,.112-.106c0-.061.116-.128.274-.158.2-.037.262-.083.231-.161s.008-.11.1-.11a.252.252,0,0,0,.194-.078.088.088,0,0,1,.118-.034c.039.024.05-.01.025-.075s0-.119.079-.119.157-.086.2-.191.106-.191.148-.191a1.081,1.081,0,0,0,.464-.462c0-.04.069-.115.153-.168a.309.309,0,0,0,.153-.192c0-.053.07-.1.155-.1a.263.263,0,0,0,.228-.192c.04-.105.116-.183.168-.172s.107-.059.122-.154.072-.166.15-.153.127-.043.137-.208c.019-.325.018-.322.186-.366a.2.2,0,0,0,.153-.2.307.307,0,0,1,.155-.24c.085-.046.141-.107.124-.137-.063-.107.1-.408.192-.352q.09.056.043-.068c-.035-.091-.015-.111.076-.076s.1.016.073-.034c-.107-.174.038-.792.176-.748.11.035.128-.014.119-.323a1.432,1.432,0,0,1,.089-.555c.054-.105.1-.148.1-.1a.09.09,0,0,0,.081.1c.053,0,.056-.044.008-.13a.389.389,0,0,1-.008-.3c.083-.217.081-5.5,0-5.869-.043-.192-.036-.276.025-.277s.062-.018,0-.059a1.037,1.037,0,0,1-.3-.821c.013-.281-.01-.339-.145-.373s-.16-.1-.157-.425c0-.259-.027-.384-.092-.384a.089.089,0,0,1-.1-.081c0-.044-.035-.06-.076-.034s-.076-.075-.076-.26c0-.231-.039-.328-.155-.391-.085-.046-.134-.117-.108-.159a.187.187,0,0,0-.045-.187c-.051-.061-.062-.114-.026-.116s-.011-.036-.105-.074c-.207-.083-.243-.345-.038-.273.123.043.122.038,0-.061a.424.424,0,0,1-.149-.257c-.006-.082-.062-.146-.125-.141s-.14-.1-.183-.279c-.038-.158-.114-.287-.168-.287s-.12-.086-.147-.191-.094-.191-.149-.191-.141-.134-.191-.3a.619.619,0,0,0-.208-.344c-.065-.025-.1-.083-.068-.128s-.021-.1-.11-.124c-.138-.036-.2-.189-.173-.416,0-.027-.053-.044-.125-.038a.1.1,0,0,1-.12-.123c.006-.076-.024-.112-.07-.083s-.062,0-.032-.077.009-.127-.083-.127c-.138,0-.356-.272-.262-.326.03-.017.019-.023-.025-.014a.388.388,0,0,1-.225-.089c-.08-.058-.12-.106-.089-.106s-.031-.088-.138-.195a.728.728,0,0,1-.195-.268c0-.04-.049-.073-.109-.073s-.131-.069-.158-.153-.1-.153-.153-.153-.126-.069-.153-.153-.1-.153-.158-.153a.117.117,0,0,1-.11-.122.19.19,0,0,0-.146-.16.319.319,0,0,1-.192-.219c-.03-.12-.084-.167-.159-.137s-.114,0-.114-.086a.2.2,0,0,0-.154-.17.317.317,0,0,1-.2-.213c-.031-.125-.084-.163-.19-.135s-.147,0-.147-.074-.1-.191-.228-.287-.208-.205-.185-.243-.041-.054-.143-.035c-.239.043-.4-.056-.337-.212.035-.091,0-.122-.133-.122a.206.206,0,0,1-.22-.153.2.2,0,0,0-.2-.153q-.163,0-.141-.124c.016-.09-.049-.132-.24-.154-.285-.033-.35-.071-.35-.207,0-.049-.077-.1-.172-.114s-.172-.076-.172-.138-.032-.094-.071-.07a.088.088,0,0,1-.119-.034.21.21,0,0,0-.164-.078c-.158,0-.316-.17-.274-.3.025-.074-.011-.089-.126-.052s-.214,0-.341-.13c-.1-.1-.217-.169-.261-.154s-.144-.053-.222-.149a.42.42,0,0,0-.391-.163c-.137.007-.231-.017-.209-.052.063-.1-.281-.3-.519-.3-.119,0-.2-.033-.172-.073s-.093-.114-.261-.164c-.186-.056-.286-.124-.255-.176s0-.04-.072.015-.14.071-.169.024.014-.111.089-.154c.108-.062.085-.072-.114-.048a.553.553,0,0,1-.471-.157l-.222-.187.036.173c.035.168.033.168-.064.02a.5.5,0,0,0-.354-.178.753.753,0,0,1-.4-.167.608.608,0,0,0-.447-.138.646.646,0,0,1-.47-.15.716.716,0,0,0-.408-.16c-.422-.01-.7-.113-.629-.232.02-.032-.014-.058-.075-.058s-.111.028-.111.062-.088.028-.2-.013a1.522,1.522,0,0,0-.449-.074.523.523,0,0,1-.348-.115c-.057-.069-.064-.115-.016-.115a.148.148,0,0,1,.118.078c.021.043.029.035.017-.019s-.107-.088-.223-.075-.2-.005-.2-.038a1.353,1.353,0,0,0-.554-.08c-.3-.011-.605-.025-.668-.032-.139-.015-.316-.181-.256-.241.024-.024-.03-.038-.118-.031s-.162.035-.162.062-.132.026-.294,0a3.724,3.724,0,0,0-.687-.036c-.216.01-.376-.011-.354-.045a.086.086,0,0,0-.041-.112c-.044-.027-.07-.021-.059.014.031.091-.106.092-.3,0a.406.406,0,0,0-.368.011.293.293,0,0,1-.361-.026c-.2-.14-.313-.149-.237-.02.031.053-.019.03-.11-.05s-.166-.115-.166-.076a5.613,5.613,0,0,1-1.272.045c-1.388-.027-1.743-.134-1.693-.508.012-.09-.018-.148-.072-.138s-.209-.1-.352-.248a.894.894,0,0,0-.385-.267c-.069,0-.126-.034-.126-.076s-.095-.079-.21-.083-.167-.023-.115-.044a.147.147,0,0,0,.1-.113c0-.041-.034-.053-.076-.027s-.076.011-.076-.034-.12-.081-.267-.081-.268-.033-.268-.074-.051-.054-.114-.03a.122.122,0,0,1-.157-.07c-.076-.2-1.492-.184-1.675.018M126.4,41.42c.1.059.165.058.225,0s.023-.084-.141-.082c-.2,0-.208.012-.084.085M105.911,47.05a.1.1,0,0,1-.026.131c-.043.026-.078.015-.078-.026,0-.1-.252-.057-.289.053a.2.2,0,0,1-.183.089.2.2,0,0,0-.2.159c-.029.11-.086.148-.184.122s-.123-.006-.094.042,0,.064-.057.044-.141.036-.185.124a.272.272,0,0,1-.192.159c-.062,0-.147.078-.189.174a.217.217,0,0,1-.229.153c-.119-.016-.148.017-.129.151.022.159-.076.216-.308.182-.03,0-.035.042-.011.1s-.026.139-.156.188c-.109.042-.2.124-.2.183s-.072.127-.161.15-.138.078-.11.124-.036.115-.145.156-.2.123-.2.182-.069.126-.153.148a.2.2,0,0,0-.153.2c0,.09-.033.144-.073.12s-.109.022-.153.105a.472.472,0,0,1-.234.2c-.085.027-.14.072-.124.1.06.1-.1.4-.217.4a.111.111,0,0,0-.117.1c0,.056-.08.145-.177.2a.305.305,0,0,0-.172.262.163.163,0,0,1-.162.19c-.108.015-.153.062-.127.132.045.117-.138.341-.278.341-.047,0-.066.033-.041.073.053.087-.036.488-.1.428-.08-.079-.246.131-.246.311,0,.1-.036.182-.081.182s-.06.034-.034.076.015.076-.025.076-.091.072-.114.161-.078.138-.123.111-.062,0-.03.082.02.12-.058.09-.11.032-.115.255a.483.483,0,0,1-.153.4c-.154.112-.16.131-.175.5-.006.153-.05.229-.129.229s-.1.034-.072.076.011.076-.034.076-.081.161-.081.373c0,.3-.027.381-.145.411s-.147.112-.153.41c-.012.579-.051.771-.187.907a35.9,35.9,0,0,0-.048,5.658.088.088,0,0,1,.034.119c-.024.039.005.071.065.071.082,0,.112.119.12.474a.933.933,0,0,0,.105.534c.052.033.06.062.018.064s-.016.039.057.082c.091.053.134.173.134.376,0,.332.14.705.241.643.061-.038.082.077.085.478,0,.107.038.152.1.126.105-.041.134.01.213.372a.353.353,0,0,0,.184.249c.1.033.134.109.118.307s0,.254.089.221.138.032.189.164a.423.423,0,0,0,.23.246c.083.022.132.07.109.107s.045.153.15.259c.139.139.16.192.075.192-.1,0-.1.013,0,.115a.378.378,0,0,0,.2.115c.045,0,.082.053.082.117a.188.188,0,0,0,.114.161.093.093,0,0,1,.062.131c-.032.054-.006.05.067-.009.1-.082.134-.062.215.134.058.141.151.231.239.231.124,0,.181.116.156.316,0,.027.036.047.087.045.332-.011.45.028.409.135-.029.076.017.129.137.159a.319.319,0,0,1,.22.192c.025.1.105.147.236.147s.2.042.2.119-.036.1-.1.064-.068-.025-.034.012a.325.325,0,0,0,.191.075c.467.03.489.037.446.149-.026.068,0,.118.068.124a1.461,1.461,0,0,1,.189.029,1.659,1.659,0,0,0,.229.029.148.148,0,0,1,.153.163c0,.1.051.153.16.153a.716.716,0,0,1,.354.153.824.824,0,0,0,.435.153c.206,0,.549.235.465.318-.014.014.066.028.178.031a1.118,1.118,0,0,1,.705.193.918.918,0,0,0,.484.106.913.913,0,0,1,.59.162c.088.08.175.137.191.127a.061.061,0,0,1,.049-.01c.01,0,.226.021.478.037a3.363,3.363,0,0,1,.8.11.233.233,0,0,0,.1,0,.332.332,0,0,1,.187.087c.1.083.111.08.054-.017s-.045-.1.043-.03a.467.467,0,0,0,.282.07c.094-.008.172.011.172.042a20.692,20.692,0,0,0,3.076-.006c.157-.033.271-.035.252,0s.076.055.211.055.2-.015.146-.033c-.073-.024-.063-.061.038-.138.166-.126.329-.14.329-.028,0,.044-.032.061-.071.037a.088.088,0,0,0-.119.034c-.026.043,0,.078.067.078a.228.228,0,0,0,.176-.1c.039-.066.273-.121.635-.151l.6-.049c.013,0,0-.033-.019-.071-.061-.1.169-.174.587-.193a1.19,1.19,0,0,0,.412-.066c.027-.027.112-.015.19.027.11.059.132.052.1-.033a.142.142,0,0,1,.052-.167c.065-.04.074-.025.03.05-.035.059.011.042.1-.038.11-.1.166-.113.166-.048s.031.074.1.025a.909.909,0,0,1,.411-.067c.249,0,.306-.018.272-.109s-.026-.1.09-.006c.073.06.127.077.12.038-.041-.218.023-.262.387-.262.21,0,.382-.033.382-.074s.053-.054.118-.029.11.007.1-.06.071-.113.269-.129c.164-.013.309-.072.333-.133s.07-.092.105-.07a.084.084,0,0,0,.111-.039.554.554,0,0,1,.344-.078c.229,0,.307-.035.345-.153.027-.084.085-.153.129-.153s.038.054-.023.134c-.1.127-.1.127.054,0a.6.6,0,0,1,.323-.134.349.349,0,0,0,.261-.153.362.362,0,0,1,.3-.153.538.538,0,0,0,.345-.147.646.646,0,0,1,.248-.172.784.784,0,0,0,.263-.159.724.724,0,0,1,.561-.154c.052,0,.078-.023.058-.056-.048-.078.118-.206.286-.219.308-.024.347-.04.311-.133-.054-.142.386-.354.5-.241.066.066.088.04.088-.106,0-.116.046-.2.115-.206l.231-.025c.075-.008.1-.062.071-.152s-.014-.128.075-.094c.066.025.1.085.073.133s.035,0,.134-.111.229-.182.287-.162.085,0,.055-.046c-.053-.085.208-.269.28-.2.022.022.035-.022.029-.1s.049-.147.16-.163c.155-.022.207-.1.181-.262-.014-.089.1-.068.21.038.054.053.086.061.073.019a.08.08,0,0,1,.052-.1.326.326,0,0,0,.14-.138.547.547,0,0,1,.248-.184c.1-.039.185-.119.185-.178s.069-.126.153-.148a.2.2,0,0,0,.153-.162.118.118,0,0,1,.112-.122c.062,0,.153-.077.2-.17.088-.166.093-.166.151-.019s.062.145.111-.02c.028-.094.087-.149.131-.122s.057.012.027-.036.018-.157.106-.244.138-.191.113-.232.029-.074.119-.074a.2.2,0,0,0,.2-.153c.022-.084.083-.153.136-.153a.321.321,0,0,0,.195-.118c.069-.083.114-.093.151-.032s.069.046.1-.039c.026-.069.016-.105-.022-.082a.088.088,0,0,1-.118-.034c-.026-.043.006-.078.071-.078.107,0,.153-.089.128-.248,0-.032.051-.061.125-.066.252-.017.287-.029.287-.106a.058.058,0,0,0-.076-.058c-.042.01,0-.037.1-.105A.4.4,0,0,0,129.5,64c0-.053.069-.114.153-.136a.2.2,0,0,0,.153-.162.118.118,0,0,1,.113-.122c.062,0,.135-.089.163-.2.036-.142.088-.187.187-.161s.124,0,.1-.063a.127.127,0,0,1,.044-.149.258.258,0,0,0,.082-.2.135.135,0,0,1,.115-.148.136.136,0,0,0,.115-.149.265.265,0,0,1,.1-.21.69.69,0,0,0,.194-.233.323.323,0,0,1,.245-.172c.086,0,.133-.035.106-.079s.032-.148.129-.233l.178-.155-.182.05c-.123.034-.165.023-.129-.034a.191.191,0,0,1,.144-.084c.051,0,.127-.077.17-.172s.123-.163.177-.151.078-.012.053-.052a.087.087,0,0,1,.029-.119.135.135,0,0,0,.031-.158c-.024-.062,0-.112.046-.112s.064-.04.034-.088-.021-.068.03-.036c.092.057.269-.208.191-.286-.027-.027-.006-.048.045-.048s.075-.031.052-.068c-.046-.075.139-.26.2-.2.038.038.05-.03.071-.38.009-.149.037-.175.135-.123s.127.017.138-.242a.785.785,0,0,1,.1-.394c.063-.063.079-.055.058.03-.015.063.005.041.046-.049.054-.121.167-.176.435-.212a.921.921,0,0,0,.456-.161.353.353,0,0,1,.237-.113c.079,0,.143-.034.143-.076s.054-.076.119-.076.1-.036.065-.088-.021-.068.031-.035.157-.019.244-.106.2-.134.251-.105.069.026.039-.006c-.079-.087.152-.29.256-.226.053.032.068.022.039-.026a.187.187,0,0,1,.174-.287c.1.02.137-.027.142-.205a.435.435,0,0,1,.169-.345c.089-.062.149-.151.133-.2s.06-.162.168-.256l.2-.172-.191.04c-.175.037-.18.031-.058-.069.073-.06.11-.131.083-.159s-.008-.05.043-.05a5.09,5.09,0,0,0-.09-2.316.757.757,0,0,1-.169-.465c-.015-.25-.048-.314-.162-.315s-.141-.052-.134-.172-.034-.172-.125-.172a.2.2,0,0,1-.174-.153.2.2,0,0,0-.209-.153c-.131,0-.16-.034-.129-.153s0-.153-.152-.153c-.139,0-.18-.032-.148-.114.025-.066,0-.106-.049-.1s-.087-.017-.079-.06-.079-.074-.191-.068a.8.8,0,0,1-.415-.137,2.51,2.51,0,0,0-1.127-.228.742.742,0,0,1-.229-.042c-.249-.095-.449-.1-.547,0a1.243,1.243,0,0,1-.555.113,1,1,0,0,0-.507.1c-.039.064-.069.065-.107,0a.188.188,0,0,0-.143-.084c-.06,0-.054.024.015.068.085.053.073.085-.059.155a.307.307,0,0,1-.252.035c-.051-.031-.066-.02-.036.028.094.152-.037.309-.3.359-.144.027-.262.095-.262.15s-.09.166-.2.245c-.22.159-.517.414-.358.307.067-.045.1-.029.1.048a.193.193,0,0,1-.153.155.2.2,0,0,0-.153.208c0,.117-.034.155-.112.125a.14.14,0,0,0-.165.042c-.032.052-.018.063.036.03s.088-.018.088.027a.074.074,0,0,1-.063.081c-.035,0-.071.181-.08.4-.022.527-.043.653-.121.724-.036.033-.037.011,0-.048s.033-.089-.021-.056c-.076.047-.1.226-.095.731a.811.811,0,0,0,.121.368.4.4,0,0,1,.082.273c-.027.067-.039.066-.043,0a.1.1,0,0,0-.094-.1c-.056,0-.045.049.029.134a1.056,1.056,0,0,1,.168.421c.029.163.1.287.154.287s.12.069.142.153.009.134-.029.11c-.134-.083-.067.04.168.307.13.149.212.27.182.27s-.008.057.049.127c.082.1.084.134.009.159a.192.192,0,0,0-.1.179c0,.08-.03.146-.067.146s-.112.112-.168.249a1.38,1.38,0,0,1-.143.286,1.106,1.106,0,0,0-.234.487c0,.059-.069.125-.153.147a.2.2,0,0,0-.153.2c0,.113-.041.156-.134.141s-.128.021-.111.14a.194.194,0,0,1-.093.207.669.669,0,0,0-.229.315c-.062.149-.149.271-.194.271s-.08.052-.08.115a.119.119,0,0,1-.123.115c-.08,0-.107.042-.077.119s.013.1-.031.071-.1.061-.125.193a.387.387,0,0,1-.227.308c-.117.045-.163.108-.134.185s0,.117-.116.117-.161.048-.161.153-.051.153-.182.153-.179.041-.172.128-.062.146-.166.172-.174.069-.172.1c.014.177-.01.21-.153.21-.086,0-.139.03-.116.067.044.071-.3.449-.537.595-.08.049-.137.126-.126.172s-.021.075-.07.064-.13.059-.18.154c-.117.225-.228.325-.164.148.027-.076.018-.118-.02-.1s-.089,0-.113-.053-.023-.013,0,.088c.038.149.022.174-.081.135-.07-.027-.109-.019-.086.019s-.012.088-.077.113-.1.08-.072.123-.015.077-.091.077a.337.337,0,0,0-.239.159c-.056.09-.147.141-.21.117s-.11.009-.11.111c0,.155-.034.178-.392.255a.328.328,0,0,0-.241.195.148.148,0,0,1-.2.121c-.111-.021-.144,0-.115.079s-.018.13-.1.159a1.09,1.09,0,0,0-.281.17c-.077.066-.128.086-.115.046a.054.054,0,0,0-.052-.076c-.042,0-.067.039-.055.09s-.057.1-.153.117-.174.076-.174.139-.089.123-.245.138-.261.074-.292.172a.225.225,0,0,1-.233.148c-.251,0-.248,0-.6.325a1.146,1.146,0,0,1-.425.287,1.086,1.086,0,0,0-.377.158c-.238.145-.255.147-.209.019.036-.1.011-.09-.089.037-.086.11-.184.158-.261.129a.154.154,0,0,0-.181.046c-.04.065-.025.074.05.029.092-.055.092-.045,0,.068a.22.22,0,0,1-.21.094c-.056-.022-.1-.009-.1.029s-.077.081-.172.1-.162.071-.151.126-.012.079-.052.054a.089.089,0,0,0-.121.032.379.379,0,0,1-.266.078c-.3,0-.46.071-.46.2,0,.1-.291.151-.593.112a.078.078,0,0,0-.1.07c0,.057-.044.059-.145,0-.124-.066-.139-.055-.106.074s0,.153-.275.161l-.525.019a.6.6,0,0,0-.344.143,1.62,1.62,0,0,1-1.032.137c-.095-.008-.172.023-.172.068s-.043.074-.1.063-.089.017-.082.061-.053.085-.134.091c-.184.014-.192-.1-.014-.2.074-.043.093-.079.043-.08a.332.332,0,0,0-.2.15,18.726,18.726,0,0,1-4.4.08.118.118,0,0,0-.1-.079c-.041,0-.056.03-.033.067.042.068-.379-.059-.541-.163a1.736,1.736,0,0,0-.52-.067c-.326-.007-.422-.035-.392-.112a.123.123,0,0,0-.028-.143c-.037-.022-.084,0-.105.055-.031.076-.04.076-.045,0,0-.053-.1-.1-.226-.1a.388.388,0,0,1-.336-.172c-.066-.1-.144-.143-.181-.1s-.024.083.03.1a.143.143,0,0,1,.1.118c0,.046-.08.009-.177-.083a.658.658,0,0,0-.382-.166c-.181,0-.241-.067-.216-.244,0-.029-.06-.04-.142-.024a.206.206,0,0,1-.195-.044.085.085,0,0,0-.116-.029c-.039.024-.11-.042-.157-.146s-.13-.173-.19-.15-.14-.042-.193-.157-.12-.177-.158-.154-.185-.046-.328-.155a1.08,1.08,0,0,0-.341-.2c-.045,0-.082-.055-.082-.122a.2.2,0,0,0-.153-.162c-.138-.036-.185-.113-.164-.266,0-.029-.061-.074-.144-.1-.143-.045-.185-.158-.157-.42.009-.082-.006-.088-.05-.023-.084.123-.286-.005-.287-.181a.284.284,0,0,0-.155-.213.215.215,0,0,1-.128-.213c.014-.074-.016-.134-.068-.134s-.072-.023-.043-.052-.022-.13-.112-.225a.357.357,0,0,1-.119-.288c.03-.078.009-.1-.066-.072-.131.05-.251-.222-.232-.523.008-.113-.014-.188-.048-.168s-.061-.012-.061-.073a.182.182,0,0,0-.112-.154c-.075-.029-.1-.131-.09-.314.012-.149-.007-.271-.041-.271s-.063-.05-.063-.111a.226.226,0,0,0-.111-.173c-.082-.046-.115-.236-.124-.731a2.18,2.18,0,0,0-.081-.711.091.091,0,0,1-.016-.126c.032-.052.009-.067-.062-.041-.095.036-.113-.055-.108-.552a1.652,1.652,0,0,1,.052-.568c.1.061.222-.6.222-1.21,0-.52.024-.661.119-.7.066-.025.1-.085.067-.131a.1.1,0,0,1,.033-.139.421.421,0,0,0,.1-.278c.015-.215.235-.6.3-.531.018.018.033-.1.034-.258a1,1,0,0,1,.187-.551,1.057,1.057,0,0,0,.167-.28.325.325,0,0,1-.019-.134c0-.124.152-.124.254,0,.034.042.041,0,.014-.094-.033-.118.012-.25.148-.428a.943.943,0,0,0,.2-.434c0-.1.021-.156.047-.13.06.061.258-.135.258-.254,0-.053.063-.074.153-.051s.133.008.109-.031a.533.533,0,0,1,.2-.566.221.221,0,0,0,.148-.195c0-.081.026-.144.057-.139.17.027.249-.026.249-.167,0-.124.033-.148.155-.109.085.027.15.021.144-.014-.033-.191.025-.318.162-.353.085-.022.147-.069.136-.1-.026-.087.524-.637.581-.58.025.025.045-.007.045-.07s.088-.155.2-.2.174-.123.148-.165.024-.076.11-.076.157-.05.157-.112c0-.107.183-.247.344-.263a.09.09,0,0,0,.076-.09.287.287,0,0,1,.115-.172.309.309,0,0,0,.012-.5.677.677,0,0,1-.191-.464c-.046-.431-.128-.711-.227-.777a1.555,1.555,0,0,1-.083-.623c-.006-.471-.028-.568-.124-.55a.109.109,0,0,1-.128-.1c-.006-.069-.019-.239-.028-.377a.49.49,0,0,0-.094-.3c-.042-.026-.053-.01-.025.036m26.241,3.745c-.02.032.107.048.282.034.514-.04.577-.074.151-.084a.961.961,0,0,0-.433.05m-30.6,9.382c0,.252.015.346.032.209a2.038,2.038,0,0,0,0-.459c-.018-.115-.032,0-.031.25" transform="translate(-98.226 -25.056)" fill="#fff" fill-rule="evenodd"/>
  <path id="path1" d="M118.068,27.7c-.091.116-.09.122.01.046a.863.863,0,0,1,.267-.125c.145-.036.145-.038-.01-.047a.36.36,0,0,0-.267.125m10.688.607a.184.184,0,0,0,.019.169c.034.055.081.069.1.031a.184.184,0,0,0-.019-.169c-.034-.055-.081-.069-.1-.031m2.011,1.705c0,.042.077.076.172.075.139,0,.15-.015.057-.075-.148-.1-.229-.1-.229,0m.359.137c-.016.03.1.17.265.311.2.173.293.22.293.143a.193.193,0,0,0-.153-.155c-.084-.022-.153-.091-.153-.154,0-.12-.2-.238-.253-.146m-17.081.067c-.053.021-.078.069-.055.105.05.08.265.009.265-.088,0-.074-.059-.078-.211-.017m8.752.224a1.694,1.694,0,0,1-.338.152l-.292.106.306-.032c.168-.017.323-.038.344-.046a.215.215,0,0,1,.088-.008c.028,0,.092-.044.143-.106.095-.114-.141-.177-.251-.067m.886.069c0,.063.017.1.038.077s.082,0,.137.045a.174.174,0,0,0,.185.03c.053-.033.008-.093-.12-.159-.252-.13-.239-.131-.239.008m-2.844.348-.182.151.175-.027a.228.228,0,0,0,.194-.154c.022-.154.034-.156-.188.029m10.958,0c-.073.117.027.193.125.1.055-.055.056-.1,0-.13a.1.1,0,0,0-.129.035m-18.518.057c.011.04-.065.144-.17.233s-.154.161-.109.163c.139,0,.436-.357.342-.415-.046-.029-.074-.02-.063.02m5.7.558c-.121.127-.12.135.017.125a.222.222,0,0,0,.183-.107c.059-.154-.06-.165-.2-.018m-6.124.023c-.031.079-.039.163-.017.185.07.07.131-.044.1-.19s-.031-.133-.085.005m15.464,1.114a.08.08,0,0,0,.081.079c.044,0,.063.029.042.064s.011.064.072.064c.159,0,.137-.108-.042-.2-.1-.055-.153-.056-.153,0M111.5,33.15c-.093.06-.082.074.057.075.095,0,.172-.033.172-.075,0-.1-.081-.1-.229,0m22.133.3c-.022.035.029.082.112.1s.152.012.152-.021c0-.09-.218-.158-.264-.083m-18.426.923c-.076.084-.116.176-.088.2s.051.01.051-.039a.1.1,0,0,1,.115-.089.115.115,0,0,0,.115-.115c0-.15-.025-.145-.191.039m14.639-.03a.225.225,0,0,0,.057.138.212.212,0,0,1,.057.127.065.065,0,0,0,.057.07q.12,0-.066-.265c-.058-.083-.106-.115-.106-.07m-15.284.826c-.116.139,0,.213.128.078.052-.056.064-.121.028-.144s-.107.007-.156.066M109.6,36.735c-.058.037-.092.1-.076.136s.089.008.162-.067c.14-.144.093-.181-.086-.068m25.6-.013c0,.1.219.287.27.235.02-.02-.032-.1-.116-.176s-.153-.1-.153-.06m.474,1.241c.105.169.18.148.111-.031-.025-.065-.081-.118-.125-.118s-.045.055.014.149m-3.586,1.5c.01.192.178.371.246.261.026-.042.016-.076-.022-.076s-.106-.077-.15-.172c-.077-.163-.081-.164-.073-.013m-19.617.59c-.077.079-.126.157-.109.174.055.055.309-.169.279-.245-.016-.04-.093-.008-.17.071m23.768.8a.414.414,0,0,1,.128.171q.044.115.05-.057c0-.116-.038-.171-.128-.171s-.1.023-.05.057m-3.753.477c.076.084.155.137.176.116.051-.051-.139-.27-.235-.27-.043,0-.017.069.06.153m-13.645.157c0,.044-.029.063-.064.042s-.064.011-.064.072a.107.107,0,0,0,.1.111c.056,0,.1-.069.1-.153s-.017-.153-.038-.153-.038.036-.038.081m-1.323.644c-.076.056-.106.121-.066.146s.116-.007.168-.071c.129-.156.069-.2-.1-.075m16.685.358a.594.594,0,0,0,.26.138c.048,0,.009-.046-.087-.1s-.156-.115-.134-.137-.016-.041-.086-.041c-.1,0-.091.029.047.14m-6.9.884c-.078.126.1.208.2.095.068-.073.067-.084,0-.046a.079.079,0,0,1-.12-.042c-.022-.067-.045-.069-.084-.006m1.994.261c.094.049.172.118.172.153s.054.065.12.065c.177,0-.032-.194-.276-.258-.186-.048-.186-.048-.016.04m-21.193.092c-.069.079-.128.355-.077.355a.875.875,0,0,0,.144-.187c.125-.191.072-.327-.067-.168m24.058.6a.217.217,0,0,0,.121.121c.056.019.073-.016.044-.091-.053-.139-.211-.168-.166-.03m-20.254.979c0,.189.015.267.033.172a1.084,1.084,0,0,0,0-.344c-.018-.095-.033-.017-.033.172m26.165,1.534c.159.176.186.182.186.042,0-.058-.072-.125-.16-.148-.153-.04-.155-.036-.026.106m-30.065.056a.226.226,0,0,0,.149.194c.175.046.173.006-.012-.192l-.149-.16.012.158m8.771.755a.462.462,0,0,0,.153.216.449.449,0,0,1,.153.241.119.119,0,0,0,.13.1c.1,0,.065-.07-.134-.286-.145-.157-.272-.3-.283-.318s-.019,0-.019.044m5.472.751c-.069.105-.113.191-.1.191a1.066,1.066,0,0,0,.192-.191c.091-.105.136-.191.1-.191s-.124.086-.192.191m18.587.236c-.057.057.075.26.17.26.03,0,.054-.05.054-.111s-.026-.1-.057-.076-.069,0-.085-.046-.052-.057-.082-.027m-22.11.337c-.045.073.007.106.134.085.032,0,.057.025.057.067s.077.074.172.072l.172,0-.172-.069c-.095-.038-.172-.1-.172-.148,0-.1-.129-.1-.191,0m-6.689.178a.185.185,0,0,0,.115.156c.063.024.115.025.115,0a.437.437,0,0,0-.115-.156c-.1-.1-.115-.1-.115,0m29.55.11a.465.465,0,0,1,.131.19.191.191,0,0,0,.147.133q.1,0,.016-.057a.457.457,0,0,1-.131-.19.19.19,0,0,0-.147-.133q-.1,0-.016.057m-36.7.1a.083.083,0,0,0,.042.106c.086.053.231-.013.231-.106,0-.077-.225-.077-.272,0m3.432.167c.012.117.045.211.074.21.068,0,.065-.039-.023-.25-.068-.162-.071-.16-.051.039m.28,1.479a.332.332,0,0,0,.153.24c.084.053.153.075.153.05a.915.915,0,0,0-.153-.24c-.133-.169-.153-.175-.153-.05m-1.905.81a.271.271,0,0,0,.147.213c.1.055.153.056.153,0a.08.08,0,0,0-.081-.079c-.044,0-.056-.04-.026-.088s.021-.068-.027-.038a.082.082,0,0,1-.12-.046c-.024-.059-.041-.045-.045.035m2.326.595c.165.183.166.183.166.042,0-.061-.029-.094-.064-.072s-.064,0-.064-.042a.085.085,0,0,0-.088-.081c-.05,0-.029.066.05.153m22.917.393c-.153.1-.177.141-.083.141a.354.354,0,0,0,.225-.1.327.327,0,0,1,.271-.067c.1.018.176.016.176,0,0-.113-.4-.092-.589.031m.933-.084c-.151.061-.151.062,0,.067a.423.423,0,0,1,.247.1c.05.05.108.073.13.051.092-.092-.233-.274-.382-.214m-19.837.193a.429.429,0,0,0,.115.158c.124.124.14.106.068-.081-.043-.114-.183-.172-.183-.077m17.352.606c-.078.094-.073.115.029.115a.12.12,0,0,0,.124-.115c0-.063-.013-.115-.029-.115a.405.405,0,0,0-.124.115m-17,.273c.163.18.178.181.154.02a.189.189,0,0,0-.153-.147c-.127-.019-.127-.012,0,.127m32.45.281c0,.116.038.172.128.171s.1-.022.05-.057a.417.417,0,0,1-.128-.171c-.029-.076-.046-.058-.05.057m-36.2.239c.081.079.161.131.177.116.048-.043-.156-.26-.244-.26-.044,0-.014.064.067.143m19.745-.033c-.005.023-.014.069-.02.1a.624.624,0,0,1-.076.16c-.053.084-.035.087.1.016.089-.048.162-.118.162-.156,0-.078-.148-.188-.162-.121m-29.53.705c-.021.056-.01.1.026.1a.272.272,0,0,0,.149-.1c.064-.077.058-.1-.026-.1a.172.172,0,0,0-.149.1m4.1.612c-.138.15-.083.19.089.064.076-.056.11-.118.076-.139s-.108.013-.165.074m42.8.093c0,.037.069.085.153.107.18.047.207-.061.032-.129-.16-.062-.185-.059-.185.021m-17.964.187a.455.455,0,0,0-.132.28c-.009.105,0,.139.029.076a1.1,1.1,0,0,1,.163-.249c.14-.161.1-.233-.061-.108m18.32.391a.123.123,0,0,0,.08.153c.173.066.213-.007.077-.143-.1-.1-.123-.1-.157-.01M99.068,56.9c.027.027-.01.094-.083.149-.12.09-.116.1.039.056.176-.044.244-.255.083-.255-.049,0-.067.022-.039.05m16.249.237a.449.449,0,0,0,0,.115c0,.032-.051.06-.125.063s-.1.021-.036.046a.23.23,0,0,0,.2-.048c.074-.061.121-.063.156-.006a.091.091,0,0,0,.122.037c.041-.025.024-.092-.038-.154-.118-.118-.268-.146-.283-.052m13.386.174a.076.076,0,0,0,.076.074.079.079,0,0,1,.076.081c0,.045-.04.056-.088.026s-.067-.021-.033.035a.1.1,0,0,0,.127.046.167.167,0,0,0-.044-.292c-.063-.024-.115-.011-.115.03m-29.889.456c0,.042-.041.068-.091.057s-.1.044-.122.121c-.026.12-.008.128.129.055s.23-.309.121-.309c-.021,0-.038.034-.038.076m3.746.077a.478.478,0,0,1-.127.242c-.111.123-.112.14-.008.14s.259-.36.177-.442c-.023-.023-.042,0-.042.06m26.372.37a.085.085,0,0,0,.081.088c.044,0,.061.032.037.071a.085.085,0,0,0,.028.116c.147.091.151-.095,0-.227-.086-.078-.151-.1-.151-.048m-30.541.761a.363.363,0,0,0-.1.206c-.022.139-.012.136.1-.024.131-.181.128-.277,0-.182m13.374.068a.212.212,0,0,0,.115.162c.075.025.077,0,.01-.13-.1-.2-.151-.207-.125-.032m17.593.6a.4.4,0,0,0-.12.2c0,.046.009.069.02.052s.085-.109.165-.2c.165-.2.117-.234-.064-.052m-27.551.11c-.1.082-.165.19-.148.24s.108-.018.2-.151c.2-.28.191-.294-.055-.089m32.1.454c.017.05.056.089.086.086.091-.01.074-.114-.025-.147-.051-.017-.078.011-.061.061m10.691.178c0,.073.034.132.076.132a.054.054,0,0,1,.057.069.056.056,0,0,0,.038.076c.081.011.057-.082-.066-.258-.093-.132-.105-.134-.105-.019m-32.946.213c0,.044-.043.055-.1.023s-.062-.016.01.072c.09.11.088.129-.008.129-.151,0-.137.461.018.6.063.056.072.079.019.053-.128-.065-.121,0,.012.107.089.074.1.047.075-.163a1.558,1.558,0,0,1,0-.691c.026-.116.03-.21.008-.21s-.04.036-.04.081m7.613.06c-.053.087.021.318.1.318.064,0,.055-.281-.012-.348-.025-.025-.066-.011-.091.03m.067.606a.191.191,0,0,0,0,.3c.041.037.047.024.015-.032s-.024-.1.013-.1.068-.052.068-.115a.511.511,0,0,0-.006-.114s-.042.026-.085.057m8.8.312a.1.1,0,0,0,.035.129c.117.073.193-.027.1-.125-.055-.055-.1-.056-.13,0m-26.6.063a2.574,2.574,0,0,0,.019,1.019c.032.113.053-.067.05-.439,0-.347-.008-.63-.011-.631a.333.333,0,0,0-.057.051M127.1,62.906c-.13.209-.073.218.133.021.118-.113.141-.169.068-.169a.3.3,0,0,0-.2.148M101.763,64.32a.844.844,0,0,1,.178.209c.079.128.088.13.051.013a.954.954,0,0,1-.044-.21c0-.039-.06-.07-.134-.069s-.1.023-.051.057m43.011.037c.01.053-.018.089-.064.081s-.083.035-.083.1c0,.091.024.089.139-.014.076-.069.12-.155.1-.191-.06-.1-.111-.081-.089.029m-30.857.391a.226.226,0,0,0,.212.119c.112,0,.128-.02.049-.049a.927.927,0,0,1-.212-.119c-.073-.057-.085-.045-.049.049m-15.636.412c0,.105.212.335.245.272.019-.034-.03-.122-.107-.2s-.14-.108-.138-.076m46.062.217c-.072.187-.056.205.068.081s.147-.2.046-.2c-.037,0-.089.054-.115.121m-20.877.873c-.026.042-.019.077.015.078s.01.035-.053.075c-.1.063-.092.075.027.075.092,0,.127-.037.1-.109a.112.112,0,0,1,.049-.147c.07-.029.07-.039,0-.043a.167.167,0,0,0-.138.07m-24.8.2c.1.122.224.144.224.041,0-.037-.071-.086-.157-.109-.129-.034-.141-.021-.067.068m45.09.064c-.113.123-.033.264.088.154a1.178,1.178,0,0,0,.147-.147.7.7,0,0,0-.235-.007m-15.531.9a2.232,2.232,0,0,0-.434.548c0,.049.042.011.088-.083s.109-.172.14-.172a3.7,3.7,0,0,0,.668-.648c.261-.308-.073-.05-.462.355m-24.6.4c.219.241.227.243.2.07-.011-.074-.051-.134-.089-.135a.5.5,0,0,1-.184-.07c-.063-.038-.031.023.071.135m.235.371c0,.036.06.089.134.117a1.175,1.175,0,0,1,.309.227.682.682,0,0,0,.23.174c.03,0-.072-.119-.226-.262s-.265-.274-.248-.291-.021-.031-.084-.031-.115.03-.115.066m15.632.521a.1.1,0,0,1-.138.027c-.056-.032-.053-.01.008.055s.116.081.153.023a.4.4,0,0,1,.169-.127c.094-.036.091-.045-.014-.05a.214.214,0,0,0-.177.072m-.837.376a.088.088,0,0,0,.139.105c.073-.073.059-.176-.023-.176a.156.156,0,0,0-.116.071m-1.4.693c-.053.085-.062.153-.021.153s.111-.069.156-.153.054-.153.021-.153-.1.069-.156.153m-16.777.19c.02.1.067.171.1.148s.033-.106-.011-.19c-.107-.2-.137-.187-.093.042m7.154.387c0,.117.18.211.234.123.02-.032-.025-.1-.1-.142-.1-.065-.135-.061-.135.02m26.34.619c.093.065.19.1.215.073s0-.046-.048-.046-.077-.027-.056-.061-.034-.066-.122-.073c-.156-.012-.156-.01.01.106m-10.927.3c-.129.156-.069.2.1.075.076-.056.106-.121.066-.146s-.116.007-.168.071m-21.013.271c.088.087.182.136.21.108s-.016-.1-.1-.159c-.223-.163-.294-.13-.113.051m41.623.349c-.027.069-.03.144-.008.166s.04,0,.04-.049a.068.068,0,0,1,.086-.07.113.113,0,0,0,.121-.076c.019-.053-.016-.1-.078-.1a.2.2,0,0,0-.161.126m-23.2.559c.017.051.056.089.086.086.092-.01.074-.114-.025-.147-.051-.017-.078.011-.061.061m22.245,0c.017.051.055.089.086.086.091-.01.074-.114-.025-.147-.051-.017-.078.011-.061.061m-.491.386c-.128.149-.093.206.059.094.07-.051.144-.247.093-.247a.816.816,0,0,0-.152.153m-37.547.224a.088.088,0,0,0,.139.105c.073-.073.059-.176-.023-.176a.156.156,0,0,0-.116.071m36.127.307c.017.05.056.089.086.086.091-.01.074-.114-.025-.147-.051-.017-.078.011-.061.061m-24.061.475c-.144.162-.144.162.047.064.249-.128.252-.131.168-.182-.039-.024-.136.029-.215.118m-1.329.3c-.25.134-.254.143-.066.127a.414.414,0,0,0,.287-.153c.047-.075.077-.133.066-.128l-.287.153m14.912-.029a.343.343,0,0,0,.3.167l.192,0-.187-.075a1.363,1.363,0,0,1-.3-.167c-.1-.081-.1-.071,0,.079m8.723-.042a.306.306,0,0,0-.092.15c0,.1.214-.015.259-.133s-.042-.142-.168-.017m-25.226.306a.3.3,0,0,0-.089.172c0,.044.038.019.081-.055s.111-.115.151-.091.072.008.072-.037c0-.108-.1-.1-.214.011m23.8.034c-.027.069-.03.144-.008.166s.04,0,.04-.057.046-.08.1-.058a.069.069,0,0,0,.1-.068c0-.149-.177-.135-.236.018M124.32,76.849c-.028.028-.053,1.051-.057,2.274s-.023,2.18-.044,2.128a.17.17,0,0,0-.147-.1.5.5,0,0,1-.261-.153c-.14-.14-.255-.153-1.383-.153-1.166,0-1.232.008-1.27.153-.031.121-.1.153-.344.153s-.313.032-.344.153-.1.153-.256.153a.424.424,0,0,0-.316.139.613.613,0,0,1-.234.189.2.2,0,0,0-.134.158c0,.06-.069.126-.153.148a.2.2,0,0,0-.153.2c0,.109-.049.16-.153.16a.136.136,0,0,0-.153.156.577.577,0,0,1-.153.32.645.645,0,0,0-.153.378.363.363,0,0,1-.153.31c-.117.073-.153.178-.153.452,0,.353,0,.356-.19.268-.171-.079-.191-.134-.191-.528s-.018-.44-.153-.44-.153-.051-.153-.306-.026-.306-.153-.306a.135.135,0,0,1-.153-.153.135.135,0,0,0-.153-.153c-.112,0-.153-.051-.153-.191s-.041-.191-.144-.191a.206.206,0,0,1-.184-.153.2.2,0,0,0-.162-.153.115.115,0,0,1-.122-.106c0-.122-.162-.2-.418-.2a.2.2,0,0,1-.216-.153c-.031-.117-.1-.153-.315-.153A.61.61,0,0,1,115.02,81c-.141-.141-.255-.153-1.49-.153-1.254,0-1.343.01-1.433.153-.071.114-.178.153-.421.153a.635.635,0,0,0-.478.153.509.509,0,0,1-.275.153.189.189,0,0,0-.16.146c-.024.093-.133.163-.3.195-.143.027-.261.095-.261.151s-.071.121-.159.144a.31.31,0,0,0-.2.2c-.023.087-.09.159-.15.159a.2.2,0,0,0-.156.134.9.9,0,0,1-.189.271.512.512,0,0,0-.141.316.206.206,0,0,1-.153.219c-.121.032-.153.1-.153.353,0,.216-.033.313-.106.313-.272,0-.315,3.541-.046,3.784a.557.557,0,0,1,.153.439c0,.237.033.31.153.341a.2.2,0,0,1,.153.165.319.319,0,0,0,.153.221.364.364,0,0,1,.153.283.316.316,0,0,0,.153.27.275.275,0,0,1,.153.189c0,.059.069.128.153.155a.466.466,0,0,1,.232.2.281.281,0,0,0,.212.148.366.366,0,0,1,.243.153.391.391,0,0,0,.275.153.2.2,0,0,1,.205.153c.034.129.1.153.459.153s.425.023.459.153c.039.147.1.153,1.717.153,1.58,0,1.685-.009,1.815-.153a.557.557,0,0,1,.439-.153c.237,0,.31-.033.341-.153s.1-.153.306-.153.276-.037.306-.153c.022-.084.091-.153.154-.153a.812.812,0,0,0,.341-.191.814.814,0,0,1,.336-.191c.064,0,.109-.075.109-.182a.408.408,0,0,1,.117-.278c.1-.087.1-.11,0-.226a.512.512,0,0,1-.117-.295c0-.115-.047-.166-.153-.166s-.153-.051-.153-.191-.041-.191-.153-.191a.135.135,0,0,1-.153-.153c0-.348-.25-.459-1.039-.459-.669,0-.737.013-.773.153-.03.116-.1.153-.306.153s-.276.037-.306.153c-.037.14-.1.153-.8.153-.654,0-.776-.021-.909-.153a.558.558,0,0,0-.335-.153.206.206,0,0,1-.222-.153.2.2,0,0,0-.162-.153c-.077,0-.122-.066-.122-.181,0-.351-.1-.652-.219-.69-.069-.021,0-.018.143.008a47.457,47.457,0,0,0,4.854.028,1.516,1.516,0,0,1,.456-.1c.249-.018.312-.055.355-.212.031-.112.056.086.061.478.006.569.03.689.16.8a.544.544,0,0,1,.153.458.636.636,0,0,0,.153.48.522.522,0,0,1,.153.3.705.705,0,0,0,.153.337.7.7,0,0,1,.153.311.2.2,0,0,0,.145.162.312.312,0,0,1,.184.2.193.193,0,0,0,.161.15.12.12,0,0,1,.122.117c0,.064.081.147.18.185a.428.428,0,0,1,.227.189c.03.077.14.12.308.12.2,0,.271.038.3.153.038.145.1.153,1.354.153s1.316-.008,1.354-.153c.032-.12.1-.153.337-.153s.3-.026.3-.153.051-.153.21-.154c.242,0,.36-.065.422-.228.035-.093.045-.09.05.016.007.157.354.519.5.519.056,0,.12.07.143.155.039.148.091.154,1.213.134l1.172-.021.038-.306c.021-.168.029-3.393.018-7.166l-.021-6.861H126a14.738,14.738,0,0,0-1.68.051m-25.831.434-.21.182v6.7c0,6.6,0,6.7.153,6.852s.255.153,1.821.153h1.668l.169-.194c.167-.192.169-.217.148-2.485l-.021-2.29h.363c.281,0,.363.028.363.122a.2.2,0,0,0,.153.162c.116.03.153.1.153.306s.037.275.153.306a.206.206,0,0,1,.153.184.52.52,0,0,0,.153.3.511.511,0,0,1,.153.275.192.192,0,0,0,.149.161c.107.028.155.117.172.318.019.222.058.284.2.3s.172.072.172.325.026.3.153.3.153.051.153.192a.486.486,0,0,0,.153.323.468.468,0,0,1,.153.305c0,.117.045.174.137.174s.163.088.21.248a.43.43,0,0,0,.3.324.793.793,0,0,1,.329.211,10.3,10.3,0,0,0,3.748-.027c.073-.116.078-.185.019-.245a.816.816,0,0,1-.083-.418c0-.272-.029-.344-.153-.376a.206.206,0,0,1-.153-.184.134.134,0,0,0-.153-.144c-.111,0-.153-.051-.153-.185,0-.264-.076-.427-.2-.427-.059,0-.106-.064-.106-.143a.677.677,0,0,0-.14-.325,1.553,1.553,0,0,1-.191-.323.33.33,0,0,0-.2-.181c-.116-.03-.153-.1-.153-.306s-.037-.275-.153-.306a.206.206,0,0,1-.153-.184.134.134,0,0,0-.153-.144c-.127,0-.153-.051-.153-.306s-.025-.306-.153-.306c-.112,0-.153-.051-.153-.191a.567.567,0,0,0-.153-.344.509.509,0,0,1-.153-.268.132.132,0,0,0-.144-.115c-.093,0-.157-.068-.18-.191-.029-.151-.005-.191.113-.191a.205.205,0,0,0,.19-.153.206.206,0,0,1,.184-.153.134.134,0,0,0,.144-.153.135.135,0,0,1,.153-.153.135.135,0,0,0,.153-.153.135.135,0,0,1,.153-.153.134.134,0,0,0,.153-.144.206.206,0,0,1,.153-.184c.117-.031.153-.1.153-.315,0-.151.032-.275.071-.275.179,0,.311-.258.311-.609,0-.239.036-.382.1-.408.215-.083.2-1.647-.017-1.719-.047-.016-.087-.172-.087-.347,0-.466-.072-.662-.237-.662-.114,0-.144-.057-.144-.275s-.036-.284-.153-.315a.2.2,0,0,1-.153-.179.22.22,0,0,0-.153-.187c-.084-.027-.153-.1-.153-.16s-.1-.132-.235-.159a.56.56,0,0,1-.324-.189.3.3,0,0,0-.206-.142.425.425,0,0,1-.249-.153.553.553,0,0,0-.47-.153c-.272,0-.349-.03-.388-.153-.044-.14-.116-.153-.818-.153-.645,0-.786-.022-.868-.134s-.325-.136-2.722-.155L98.7,77.1l-.21.183m5.467,3.108a.5.5,0,0,0,.361.153c.179,0,.23.034.23.153a.134.134,0,0,0,.146.153c.166,0,.222.455.171,1.4-.024.445-.048.516-.172.516a.134.134,0,0,0-.144.153c0,.125-.051.153-.275.153s-.284.036-.315.153c-.037.142-.1.153-.967.152-.512,0-.883-.029-.829-.064.076-.049.094-.4.076-1.566l-.022-1.5h.805c.71,0,.82.018.936.153m24.92.506a1.891,1.891,0,0,0-.325.256l-.231.216v3.18c0,3.078,0,3.185.153,3.333.119.119.153.255.153.612s.034.493.153.612a.536.536,0,0,1,.153.313.2.2,0,0,0,.153.2c.105.028.153.1.153.246a.994.994,0,0,0,.725.693.2.2,0,0,1,.215.153.2.2,0,0,0,.2.153.585.585,0,0,1,.327.153c.151.14.27.153,1.449.153,1.2,0,1.291-.01,1.38-.153a.377.377,0,0,1,.352-.153c.188,0,.266-.039.294-.145.06-.231.4-.252.613-.037a.617.617,0,0,0,.285.183c.056,0,.12.069.142.153.038.145.1.153,1.228.153h1.188l.028-.4.028-.4.014.4.014.4h1.518c1.4,0,1.534-.012,1.713-.153a.728.728,0,0,1,.279-.153c.047,0,.124-.086.172-.191s.112-.191.143-.191.109-.133.174-.3a.717.717,0,0,1,.238-.342c.077-.03.119-.142.119-.316,0-.219.029-.27.153-.27.089,0,.153-.051.153-.122a.7.7,0,0,1,.153-.316.7.7,0,0,0,.153-.337c0-.2.276-.186.328.01a.2.2,0,0,0,.162.153c.078,0,.122.067.122.185,0,.285.079.427.238.427.11,0,.145.055.145.229a.366.366,0,0,0,.153.324.355.355,0,0,1,.153.268c0,.122.045.173.153.173s.153.051.153.214c0,.269.126.4.389.4.141,0,.218.048.245.153.038.147.1.153,1.687.153h1.647l.051-.272a1.146,1.146,0,0,0-.194-.965.5.5,0,0,1-.156-.219c0-.041-.052-.074-.115-.074a.121.121,0,0,1-.115-.125.578.578,0,0,0-.191-.3.584.584,0,0,1-.191-.334c0-.106-.05-.157-.153-.157-.125,0-.153-.051-.153-.275s-.036-.284-.153-.315a.2.2,0,0,1-.153-.191.2.2,0,0,0-.153-.191c-.114-.03-.153-.1-.153-.293s-.041-.266-.153-.3a.225.225,0,0,1-.153-.2.134.134,0,0,0-.153-.148c-.125,0-.153-.051-.153-.275s-.036-.284-.153-.315a.206.206,0,0,1-.153-.184c0-.1-.056-.146-.172-.149l-.172,0,.172-.069a.259.259,0,0,0,.172-.262.363.363,0,0,1,.153-.288.324.324,0,0,0,.153-.23c0-.084.058-.135.153-.135a.135.135,0,0,0,.153-.153.528.528,0,0,1,.153-.306.529.529,0,0,0,.153-.306.135.135,0,0,1,.153-.153c.11,0,.153-.051.153-.182a.206.206,0,0,1,.153-.222c.11-.029.153-.1.153-.267s.043-.239.153-.268a.2.2,0,0,0,.153-.2c0-.109.049-.16.152-.16s.163-.068.2-.306.084-.306.192-.306a.134.134,0,0,0,.143-.153c0-.084.049-.153.11-.153.343,0,.209-.817-.145-.884a11.052,11.052,0,0,0-3.031.138.285.285,0,0,1-.224.134.133.133,0,0,0-.149.144.206.206,0,0,1-.153.184.206.206,0,0,0-.153.182.329.329,0,0,1-.153.237.366.366,0,0,0-.153.324c0,.178-.034.229-.153.229s-.153.051-.153.3-.027.3-.172.325-.177.081-.2.311c-.034.411-.32.422-.32.012,0-.21-.036-.284-.153-.315a.206.206,0,0,1-.153-.184.134.134,0,0,0-.153-.144c-.127,0-.153-.051-.153-.3,0-.233-.034-.311-.153-.349a.222.222,0,0,1-.153-.19c0-.218-.082-.383-.191-.383-.054,0-.12-.086-.146-.191-.041-.164-.092-.191-.352-.191-.209,0-.3-.033-.3-.106,0-.177-.184-.2-1.63-.2-1.7,0-1.729.007-1.745.371l-.012.278-.031-.252c-.046-.372-.234-.413-1.8-.384-1.245.023-1.372.038-1.471.173a15.641,15.641,0,0,0-.108,3.428v3.279l-.172.143a.636.636,0,0,1-.267.146.32.32,0,0,0-.19.155c-.215.345-1.188.187-1.315-.214-.029-.093-.1-.169-.163-.169-.093,0-.109-.484-.109-3.278,0-4.077.205-3.634-1.694-3.655-.771-.009-1.444,0-1.5.025m9.31,1.426a.317.317,0,0,1,.148.227c0,.084.058.135.153.135s.153.051.153.179a.5.5,0,0,0,.153.318.461.461,0,0,1,.153.274.218.218,0,0,0,.153.185.225.225,0,0,1,.153.2.134.134,0,0,0,.153.148c.111,0,.153.051.153.185,0,.264.076.427.2.427a.124.124,0,0,1,.107.135.308.308,0,0,0,.142.223.558.558,0,0,1,.189.324c.034.17.09.235.2.235a.136.136,0,0,1,.155.153c0,.1.054.156.172.163l.172.01-.172.033a.188.188,0,0,0-.172.172.2.2,0,0,1-.148.177c-.1.025-.165.132-.2.308s-.1.282-.2.307a.189.189,0,0,0-.146.16.51.51,0,0,1-.153.275.522.522,0,0,0-.153.3.206.206,0,0,1-.153.184.2.2,0,0,0-.153.162.509.509,0,0,1-.153.275.568.568,0,0,0-.153.344c0,.14-.041.191-.153.191-.085,0-.153.051-.153.115a.507.507,0,0,1-.153.267.57.57,0,0,0-.153.344c0,.138-.041.191-.148.191a.186.186,0,0,0-.181.172c-.018.095-.033-1.668-.032-3.917s.016-3.994.033-3.877a.486.486,0,0,0,.18.305M114.421,83.8a.41.41,0,0,1,.14.227c0,.055.069.137.153.182a.3.3,0,0,1,.153.232c0,.143-.059.15-1.3.15-1,0-1.29-.022-1.268-.1.016-.053.05-.19.075-.306s.089-.21.142-.21a.352.352,0,0,0,.206-.153,2.393,2.393,0,0,1,1.695-.026m9.448.026a.337.337,0,0,0,.248.153c.148,0,.152.053.152,1.864v1.865l-.191.048c-.105.026-.191.1-.191.153s-.117.126-.268.155-.267.095-.267.161c0,.086-.113.111-.5.111-.4,0-.5-.023-.5-.122a.2.2,0,0,0-.153-.162.206.206,0,0,1-.153-.222.559.559,0,0,0-.153-.335,6.129,6.129,0,0,1-.043-2.671.694.694,0,0,0,.159-.334c.091-.453.12-.5.347-.55.124-.027.226-.1.226-.158,0-.191,1.16-.151,1.282.044" transform="translate(-98.266 -26.962)" fill="#fff" fill-rule="evenodd"/>
  <path id="path2" d="M118.045,28.022c-.124.137-.125.15-.012.106.071-.027.129-.082.129-.122s.034-.052.076-.025.076.011.076-.034c0-.127-.117-.1-.271.075m-1.783.864c-.047.056-.063.125-.035.153.086.085.178.055.178-.058a.17.17,0,0,1,.1-.147c.061-.024.05-.041-.029-.044a.292.292,0,0,0-.21.1m13.73.649c.152.159.212.15.146-.022a.191.191,0,0,0-.162-.118c-.1,0-.1.021.017.14m-7.624,1.178c0,.16.051.163.3.021.186-.1.187-.107.019-.1-.095.006-.172.047-.173.091s-.034.028-.075-.035c-.063-.1-.074-.1-.075.019m1.491-.027c.138.135.5.191.456.071-.023-.059-.151-.116-.286-.126-.158-.012-.219.008-.17.055m7.6.114a.65.65,0,0,0,.153.217c.084.09.153.128.153.085a.461.461,0,0,0-.153-.217c-.084-.076-.153-.114-.153-.085m-10.745.207c-.066.107.1.145.186.043.063-.076.055-.1-.033-.1a.2.2,0,0,0-.153.058m4.782-.017c0,.121.219.252.359.216.108-.028.1-.038-.034-.044-.1-.005-.172-.058-.172-.124s-.034-.115-.076-.115a.072.072,0,0,0-.076.067m.734.348c.057.149.259.218.259.088a.186.186,0,0,0-.121-.15c-.171-.066-.185-.06-.138.062m-13.1.14c-.187.242-.2.3-.029.2.088-.055.161-.144.161-.2,0-.122-.038-.122-.132,0m13.662.137a.3.3,0,0,0,.11.146c.09.074.108.064.1-.054s-.21-.22-.21-.092m-9.126.653c-.029.074-.011.109.044.091.114-.038.177-.212.077-.212-.041,0-.1.054-.121.121m10.1.079a.158.158,0,0,0,.123.106.692.692,0,0,1,.274.172l.192.172-.187-.241c-.2-.255-.475-.4-.4-.209m-11.079.607-.037.2.181-.17c.219-.206.221-.22.037-.22-.094,0-.157.068-.181.2m12.4.591c.186.209.328.3.169.105a.148.148,0,0,1-.028-.172c.031-.038.025-.044-.013-.013s-.124.015-.191-.036-.038,0,.064.115m2.114,3.408c-.052.084.169.281.238.212.027-.027.007-.049-.044-.049s-.074-.032-.05-.071a.085.085,0,0,0-.144-.092m-21.6.167a.4.4,0,0,0-.059.233c.014.042.065-.029.113-.157.1-.266.07-.308-.054-.075m3.06,2.1c0,.124.119.152.186.044.023-.038-.009-.088-.072-.112s-.114,0-.114.068m23.163.093c0,.1.143.283.188.238.06-.06-.036-.3-.12-.3a.062.062,0,0,0-.067.057m.306,1.788a.2.2,0,0,0,.118.171c.066.025.1.078.075.117a.088.088,0,0,0,.033.12c.043.027.075,0,.072-.052-.007-.133-.135-.427-.143-.329,0,.042-.04.025-.081-.038-.064-.1-.074-.1-.075.011m-27.66.393a.171.171,0,0,0-.011.21c.078.123.085.115.111-.137.021-.2.01-.207-.1-.074m10.53.15c-.078.254-.055.3.088.167a.712.712,0,0,0,.147-.159c0-.03-.226-.037-.235-.007m1.781.072c.038.114.212.177.212.077,0-.041-.054-.1-.121-.121s-.109-.011-.091.044m1.206.6c0,.042.077.076.172.075.139,0,.15-.015.057-.075-.148-.1-.229-.1-.229,0m11.161,0c0,.075.3.191.35.138.018-.018-.054-.072-.159-.12s-.191-.056-.191-.018m-21.154.768c0,.189.015.266.033.172a1.083,1.083,0,0,0,0-.344c-.018-.095-.033-.017-.033.172m10.916.016a.277.277,0,0,0,.166.214c.146.071.154.068.051-.016a.641.641,0,0,1-.166-.214c-.036-.093-.046-.09-.051.016m.934.423c.328.014.844.014,1.147,0s.035-.026-.6-.026-.878.012-.551.026m2.571.147c.12.084.187.083.4-.008l.256-.109-.4.008c-.354.007-.383.019-.255.109m2.79.3c.066.066.158.1.2.067.1-.06-.052-.183-.223-.185-.076,0-.071.029.019.118m-21.047.175c-.125.233-.1.3.04.1.067-.1.1-.193.083-.215s-.077.03-.122.115m3.739.618a.176.176,0,0,1-.1.172c-.071.018-.06.062.038.159.13.128.136.12.136-.172a.647.647,0,0,0-.038-.306c-.021,0-.038.066-.038.147m-3.9.885a4.056,4.056,0,0,0,.057.956,2.4,2.4,0,0,0,.031-.734,1.8,1.8,0,0,1,.062-.822c.067-.066.076-.051.039.065s-.034.131.032.038c.114-.158.105-.229-.028-.229-.068,0-.1-.045-.068-.115s.006-.115-.041-.115-.085.308-.085.955m3.771.038c0,.123.029.2.064.183a.3.3,0,0,0,0-.367c-.035-.021-.064.061-.064.183m.131.535a1.051,1.051,0,0,0-.008.248c.01.1-.022.12-.125.081s-.123-.033-.043.065c.052.064.078.14.058.168s.017,0,.083-.053a.4.4,0,0,0,.088-.364c-.017-.143-.041-.208-.053-.145m-3.826.644c0,.162.084.35.156.35.035,0,.058-.069.052-.153s-.047-.153-.091-.154-.028-.035.035-.075c.1-.063.1-.074-.019-.075a.122.122,0,0,0-.134.107m8.5.627a.279.279,0,0,1,.168.168c.028.094.034.087.023-.023a.186.186,0,0,0-.168-.168c-.11-.011-.117,0-.023.023m-4.6.625.037.36.026-.3a.673.673,0,0,0-.037-.36c-.034-.034-.046.1-.026.3m4.894-.223a.29.29,0,0,0,.109.157c.089.074.1.062.067-.067-.04-.154-.176-.223-.176-.09m13.683,0a.383.383,0,0,0,.242.242c.1,0-.015-.214-.134-.259-.06-.023-.109-.015-.109.017m.994.318c0,.125.289.241.351.142.034-.055.021-.068-.034-.034s-.088.022-.088-.018-.052-.093-.115-.117-.115-.012-.115.027m8.39.051a.082.082,0,0,1,.046.12c-.03.048-.014.059.038.027s.088-.012.088.039.022.072.049.044c.064-.064-.119-.284-.231-.276-.054,0-.05.021.01.045m-21.9.652a.217.217,0,0,0,.121.121c.056.019.073-.016.044-.091-.053-.139-.211-.168-.166-.03m15.461-.033c.027.053,0,.1-.052.1s-.043.035.039.083c.189.11.229.049.083-.129-.066-.081-.1-.1-.071-.052m-21.441.692c0,.041.054.1.121.121s.109.011.091-.044c-.038-.114-.212-.177-.212-.077m-3.669.158a.294.294,0,0,0,.11.159c.09.075.108.063.1-.067-.011-.149-.209-.236-.209-.092m.235,1.243a.587.587,0,0,0,.144.306c.13.156.151.162.153.042,0-.076-.029-.119-.067-.1s-.1-.052-.147-.168-.08-.154-.083-.085m28.812.106a.191.191,0,0,0,.118.162c.173.066.182.007.022-.146-.119-.113-.14-.116-.14-.017m-24.907.193c.045.128.1.219.113.2a.755.755,0,0,0-.158-.435c-.02,0,0,.1.045.233m-5.969-.042a.553.553,0,0,0,.07.268c.1.152.1-.039,0-.268l-.066-.153,0,.153m32.208.769c.136.136.2.14.2.012,0-.054-.069-.1-.154-.11-.134-.01-.139,0-.044.1m-31.979.906c-.056.068-.062.125-.014.154a.09.09,0,0,0,.123-.031c.026-.043.02-.078-.014-.079s-.01-.035.053-.075.076-.074.029-.075a.287.287,0,0,0-.176.107m-5.169.039c.024.039-.009.087-.074.107-.091.028-.088.034.012.025.144-.012.243-.2.105-.2-.048,0-.068.032-.044.071m43.308.082c.045.084.12.153.167.153s.023-.069-.053-.153a.711.711,0,0,0-.167-.153c-.016,0,.008.069.053.153m-12.384,0c0,.044.032.061.071.037a.087.087,0,0,1,.118.033.281.281,0,0,0,.229.061c.1-.008.163-.045.14-.082s-.106-.05-.186-.029-.144.007-.144-.032-.052-.069-.115-.069-.115.037-.115.081m-.492.1c-.1.074-.11.1-.031.1a.334.334,0,0,0,.2-.1c.052-.056.066-.1.03-.1a.529.529,0,0,0-.2.1m-22.816.173a.455.455,0,0,0,.147.3c.169.152.214.034.051-.13a.773.773,0,0,1-.147-.216c-.031-.079-.046-.065-.05.047m3.839.014a.489.489,0,0,1,.129.245c0,.056.021.082.045.057.077-.077-.044-.346-.178-.4-.116-.044-.115-.036,0,.095m.206.654a.6.6,0,0,0,.153.2c.084.084.153.124.153.088a.479.479,0,0,0-.153-.2c-.084-.076-.153-.116-.153-.088m16.513.251c-.1.1-.163.181-.131.181.08,0,.394-.3.353-.333-.018-.016-.118.053-.222.152m-20.254-.041a.428.428,0,0,0,.148.26c.087.078.153.1.153.05a.084.084,0,0,0-.079-.088c-.043,0-.11-.077-.148-.172-.045-.112-.071-.129-.074-.05m-9.6,1.168a.429.429,0,0,0-.088.293c.025.062.042.048.045-.036s.042-.134.087-.134.062-.032.038-.07,0-.085.053-.1.073-.059.045-.09-.109.033-.179.14m42.225.1c.105.2.214.226.214.057,0-.063-.017-.1-.038-.077s-.089-.005-.153-.057c-.1-.083-.1-.073-.023.077m-38.209.245c-.062.039-.089.094-.061.123s.107,0,.175-.072c.134-.135.066-.165-.114-.05m6.349.4c.041.077.091.14.11.14s.036-.063.036-.14a.129.129,0,0,0-.111-.14c-.084,0-.092.034-.035.14m18.5.172c-.061.074-.064.123-.009.157s.083.039.086.026c.074-.3.056-.343-.077-.183m-.147.65a1.039,1.039,0,0,0,.115.518c.1.128.106.126.031-.029a1.162,1.162,0,0,1-.056-.482.63.63,0,0,0-.034-.35c-.032-.02-.057.135-.055.343m-25.8.546c-.023.09-.075.143-.116.118s-.09.021-.111.1c-.025.1-.005.134.057.11.115-.044.312-.394.254-.452-.023-.023-.061.032-.084.122m-.388.642c-.151.232-.159.318-.017.2.093-.077.223-.389.163-.389a.85.85,0,0,0-.146.188m33.85-.12c.023.038-.014.09-.083.117s-.1.069-.078.1c.056.056.28-.115.28-.213a.075.075,0,0,0-.081-.067c-.045,0-.062.031-.039.068m-24.877.572a.208.208,0,0,0,.076.162c.042.026.076,0,.076-.067a.208.208,0,0,0-.076-.162c-.042-.026-.076,0-.076.067m-13.029.829c-.171.245-.147.344.034.136.142-.164.2-.306.119-.306a.564.564,0,0,0-.153.17m37.108-.035a.41.41,0,0,1-.124.208c-.068.068-.105.142-.083.165s.1-.049.172-.159.109-.222.083-.249-.049-.011-.049.035m-33.684.437a.168.168,0,0,1-.087.189c-.072.042-.095.077-.05.078a.33.33,0,0,0,.264-.281.093.093,0,0,0-.085-.1c-.047,0-.065.051-.042.113m33.119.161c-.029.074-.011.109.044.091.114-.038.177-.212.077-.212-.041,0-.1.054-.121.121m-23.315,1.223a.328.328,0,0,0,.028.248c.059.1.075.076.076-.121q0-.408-.1-.127m7.628.085c.005.148.036.217.079.174s.039-.138-.009-.244c-.073-.162-.078-.158-.07.07m9.145.212a.24.24,0,0,0-.054.21c.025.063.042.052.046-.032a.3.3,0,0,1,.14-.208c.074-.043.1-.079.048-.08a.29.29,0,0,0-.179.11m-26.91.313c0,.066-.026.1-.057.085s-.06.233-.063.561c0,.394.022.585.076.564a4.456,4.456,0,0,0,.063-1.329c-.011,0-.019.054-.019.119m17.427,1.068c-.055.1-.078.211-.05.239s.051.006.051-.049a.3.3,0,0,1,.126-.192c.075-.055.095-.112.05-.14s-.122.037-.177.141m8.3.309c-.124.091-.128.108-.023.108a.224.224,0,0,0,.175-.082c.081-.131.008-.144-.152-.027m-8.547.258c-.194.19-.164.267.033.083.092-.085.152-.168.134-.184s-.093.03-.167.1m11.868,1.5c0,.1.021.107.115.029a.4.4,0,0,0,.115-.124c0-.016-.052-.029-.115-.029a.12.12,0,0,0-.115.124m-5.749.568a.169.169,0,0,0-.088.189c.054.141.149.086.2-.115a.516.516,0,0,0,.028-.152c-.007,0-.071.037-.142.078m19.623.225c-.076.085-.122.171-.1.192s.1-.031.177-.116.122-.171.1-.192-.1.031-.178.116m3.658.419c-.08.172-.075.182.054.113a.163.163,0,0,0,.1-.19c-.055-.144-.05-.147-.153.077m-45.754.04a.39.39,0,0,0,.156.212c.141.047.1-.1-.068-.253-.153-.138-.155-.138-.088.042m26.769.444c-.121.055-.194.243-.095.243.032,0,.1-.069.153-.153s.087-.15.076-.148-.072.029-.135.057m14.715.32c-.076.085-.116.176-.088.2s.051.01.051-.039a.1.1,0,0,1,.115-.089A.115.115,0,0,0,144,66.89c0-.15-.025-.145-.192.039m3.937.162c0,.135.019.146.114.068.115-.1.09-.23-.042-.23-.04,0-.072.073-.072.162m-25.609.336c-.053.064-.075.139-.048.166s.049.007.049-.045.031-.075.068-.052.11-.009.162-.072c.076-.092.073-.114-.02-.114a.329.329,0,0,0-.211.117m6.193.008c0,.1.021.107.115.029a.4.4,0,0,0,.115-.124c0-.016-.052-.029-.115-.029a.12.12,0,0,0-.115.124m-25.04.3c.081.061.166.093.189.07.048-.048-.146-.185-.26-.183-.042,0-.01.052.071.113m24.684,0c0,.063.024.115.054.115a.315.315,0,0,0,.149-.115c.079-.1.07-.115-.054-.115a.136.136,0,0,0-.149.115m15.2.06c-.123.148-.257.531-.167.475a.2.2,0,0,0,.076-.157.508.508,0,0,1,.153-.263c.084-.084.123-.153.086-.153a.261.261,0,0,0-.148.1m-22.947.824c0,.044-.032.061-.071.037-.079-.049-.2.1-.132.163.023.023.134-.031.247-.12.148-.117.171-.162.08-.162-.069,0-.125.036-.125.081m26.449.6c0,.052-.04.069-.088.039s-.068-.021-.038.027a.082.082,0,0,1-.046.12c-.06.024-.064.041-.01.045.111.008.295-.212.231-.276-.027-.027-.049-.007-.049.044m-20.848.4c-.01.129.008.142.1.068.06-.05.091-.121.068-.159-.073-.118-.153-.074-.165.091m-7.726.01c-.126.126-.116.253.011.147.056-.047.119-.068.14-.048s.037-.014.037-.077c0-.138-.065-.147-.189-.023M108.558,70.8a1.441,1.441,0,0,0,.338.149l.285.1L109,70.9c-.163-.134-.569-.222-.443-.1m5.222.075c-.082.082-.059.153.051.153a.1.1,0,0,0,.1-.1c0-.11-.071-.133-.153-.051m19.907.2c.017.013.135.084.261.157l.229.134-.18-.158a.652.652,0,0,0-.261-.157c-.044,0-.066.01-.049.023m3.644.059c-.18.1-.169.188.028.2.089.007.141-.009.116-.034s-.008-.092.039-.149c.1-.121.008-.131-.182-.02m-9.766.271-.191.112.191-.051c.213-.057.27-.093.223-.14-.018-.018-.118.018-.223.08m-5.231.374c-.081.061-.133.125-.115.141.058.054.377-.1.377-.179,0-.108-.086-.1-.262.037m4.085.769a.558.558,0,0,0,.079.261c.057.084.064.053.026-.115-.063-.281-.106-.342-.105-.147M119.5,73.1c-.027.07,0,.1.086.083a.215.215,0,0,0,.155-.107c.041-.124-.193-.1-.241.025m-2.673.765a.228.228,0,0,1-.14.057.138.138,0,0,0-.115.1c-.049.147.094.114.248-.057.129-.142.134-.223.006-.1m-1.445.363c-.076.055-.106.12-.068.144s.132,0,.207-.057.106-.12.068-.144-.132,0-.207.058m14.971-.042c-.025.04.028.111.116.159.148.079.154.073.076-.073-.1-.177-.127-.191-.192-.086m-22.9.118a.306.306,0,0,0,.172.115c.042,0,.034-.051-.019-.115a.306.306,0,0,0-.171-.115c-.043,0-.034.051.019.115m31.379.038c-.126.084-.19.152-.142.152.083,0,.488-.3.41-.3a1.247,1.247,0,0,0-.268.15m-29.783.254a.394.394,0,0,0,.322.113c.245-.019.22-.1-.032-.1a.661.661,0,0,1-.28-.072c-.1-.06-.1-.052-.009.06m.621.145c0,.033.069.06.153.06s.153-.027.153-.06-.069-.06-.153-.06-.153.027-.153.06" transform="translate(-98.275 -27.182)" fill="#783c98" fill-rule="evenodd"/>
  <path id="path3" d="M118.045,28.022c-.124.137-.125.15-.012.106.071-.027.129-.082.129-.122s.034-.052.076-.025.076.011.076-.034c0-.127-.117-.1-.271.075m-1.783.864c-.047.056-.063.125-.035.153.086.085.178.055.178-.058a.17.17,0,0,1,.1-.147c.061-.024.05-.041-.029-.044a.292.292,0,0,0-.21.1m13.73.649c.152.159.212.15.146-.022a.191.191,0,0,0-.162-.118c-.1,0-.1.021.017.14m-7.624,1.178c0,.16.051.163.3.021.186-.1.187-.107.019-.1-.095.006-.172.047-.173.091s-.034.028-.075-.035c-.063-.1-.074-.1-.075.019m1.491-.027c.138.135.5.191.456.071-.023-.059-.151-.116-.286-.126-.158-.012-.219.008-.17.055m7.6.114a.65.65,0,0,0,.153.217c.084.09.153.128.153.085a.461.461,0,0,0-.153-.217c-.084-.076-.153-.114-.153-.085m-10.745.207c-.066.107.1.145.186.043.063-.076.055-.1-.033-.1a.2.2,0,0,0-.153.058m4.782-.017c0,.121.219.252.359.216.108-.028.1-.038-.034-.044-.1-.005-.172-.058-.172-.124s-.034-.115-.076-.115a.072.072,0,0,0-.076.067m.734.348c.057.149.259.218.259.088a.186.186,0,0,0-.121-.15c-.171-.066-.185-.06-.138.062m-13.1.14c-.187.242-.2.3-.029.2.088-.055.161-.144.161-.2,0-.122-.038-.122-.132,0m13.662.137a.3.3,0,0,0,.11.146c.09.074.108.064.1-.054s-.21-.22-.21-.092m-9.126.653c-.029.074-.011.109.044.091.114-.038.177-.212.077-.212-.041,0-.1.054-.121.121m10.1.079a.158.158,0,0,0,.123.106.692.692,0,0,1,.274.172l.192.172-.187-.241c-.2-.255-.475-.4-.4-.209m-11.079.607-.037.2.181-.17c.219-.206.221-.22.037-.22-.094,0-.157.068-.181.2m12.4.591c.186.209.328.3.169.105a.148.148,0,0,1-.028-.172c.031-.038.025-.044-.013-.013s-.124.015-.191-.036-.038,0,.064.115m2.114,3.408c-.052.084.169.281.238.212.027-.027.007-.049-.044-.049s-.074-.032-.05-.071a.085.085,0,0,0-.144-.092m-21.6.167a.4.4,0,0,0-.059.233c.014.042.065-.029.113-.157.1-.266.07-.308-.054-.075m3.06,2.1c0,.124.119.152.186.044.023-.038-.009-.088-.072-.112s-.114,0-.114.068m23.163.093c0,.1.143.283.188.238.06-.06-.036-.3-.12-.3a.062.062,0,0,0-.067.057m.306,1.788a.2.2,0,0,0,.118.171c.066.025.1.078.075.117a.088.088,0,0,0,.033.12c.043.027.075,0,.072-.052-.007-.133-.135-.427-.143-.329,0,.042-.04.025-.081-.038-.064-.1-.074-.1-.075.011m-27.66.393a.171.171,0,0,0-.011.21c.078.123.085.115.111-.137.021-.2.01-.207-.1-.074m10.53.15c-.078.254-.055.3.088.167a.712.712,0,0,0,.147-.159c0-.03-.226-.037-.235-.007m1.781.072c.038.114.212.177.212.077,0-.041-.054-.1-.121-.121s-.109-.011-.091.044m1.206.6c0,.042.077.076.172.075.139,0,.15-.015.057-.075-.148-.1-.229-.1-.229,0m11.161,0c0,.075.3.191.35.138.018-.018-.054-.072-.159-.12s-.191-.056-.191-.018m-21.154.768c0,.189.015.266.033.172a1.083,1.083,0,0,0,0-.344c-.018-.095-.033-.017-.033.172m10.916.016a.277.277,0,0,0,.166.214c.146.071.154.068.051-.016a.641.641,0,0,1-.166-.214c-.036-.093-.046-.09-.051.016m.934.423c.328.014.844.014,1.147,0s.035-.026-.6-.026-.878.012-.551.026m2.571.147c.12.084.187.083.4-.008l.256-.109-.4.008c-.354.007-.383.019-.255.109m2.79.3c.066.066.158.1.2.067.1-.06-.052-.183-.223-.185-.076,0-.071.029.019.118m-21.047.175c-.125.233-.1.3.04.1.067-.1.1-.193.083-.215s-.077.03-.122.115m3.739.618a.176.176,0,0,1-.1.172c-.071.018-.06.062.038.159.13.128.136.12.136-.172a.647.647,0,0,0-.038-.306c-.021,0-.038.066-.038.147m-3.9.885a4.056,4.056,0,0,0,.057.956,2.4,2.4,0,0,0,.031-.734,1.8,1.8,0,0,1,.062-.822c.067-.066.076-.051.039.065s-.034.131.032.038c.114-.158.105-.229-.028-.229-.068,0-.1-.045-.068-.115s.006-.115-.041-.115-.085.308-.085.955m3.771.038c0,.123.029.2.064.183a.3.3,0,0,0,0-.367c-.035-.021-.064.061-.064.183m.131.535a1.051,1.051,0,0,0-.008.248c.01.1-.022.12-.125.081s-.123-.033-.043.065c.052.064.078.14.058.168s.017,0,.083-.053a.4.4,0,0,0,.088-.364c-.017-.143-.041-.208-.053-.145m-3.826.644c0,.162.084.35.156.35.035,0,.058-.069.052-.153s-.047-.153-.091-.154-.028-.035.035-.075c.1-.063.1-.074-.019-.075a.122.122,0,0,0-.134.107m8.5.627a.279.279,0,0,1,.168.168c.028.094.034.087.023-.023a.186.186,0,0,0-.168-.168c-.11-.011-.117,0-.023.023m-4.6.625.037.36.026-.3a.673.673,0,0,0-.037-.36c-.034-.034-.046.1-.026.3m4.894-.223a.29.29,0,0,0,.109.157c.089.074.1.062.067-.067-.04-.154-.176-.223-.176-.09m13.683,0a.383.383,0,0,0,.242.242c.1,0-.015-.214-.134-.259-.06-.023-.109-.015-.109.017m.994.318c0,.125.289.241.351.142.034-.055.021-.068-.034-.034s-.088.022-.088-.018-.052-.093-.115-.117-.115-.012-.115.027m8.39.051a.082.082,0,0,1,.046.12c-.03.048-.014.059.038.027s.088-.012.088.039.022.072.049.044c.064-.064-.119-.284-.231-.276-.054,0-.05.021.01.045m-21.9.652a.217.217,0,0,0,.121.121c.056.019.073-.016.044-.091-.053-.139-.211-.168-.166-.03m15.461-.033c.027.053,0,.1-.052.1s-.043.035.039.083c.189.11.229.049.083-.129-.066-.081-.1-.1-.071-.052m-21.441.692c0,.041.054.1.121.121s.109.011.091-.044c-.038-.114-.212-.177-.212-.077m-3.669.158a.294.294,0,0,0,.11.159c.09.075.108.063.1-.067-.011-.149-.209-.236-.209-.092m.235,1.243a.587.587,0,0,0,.144.306c.13.156.151.162.153.042,0-.076-.029-.119-.067-.1s-.1-.052-.147-.168-.08-.154-.083-.085m28.812.106a.191.191,0,0,0,.118.162c.173.066.182.007.022-.146-.119-.113-.14-.116-.14-.017m-24.907.193c.045.128.1.219.113.2a.755.755,0,0,0-.158-.435c-.02,0,0,.1.045.233m-5.969-.042a.553.553,0,0,0,.07.268c.1.152.1-.039,0-.268l-.066-.153,0,.153m32.208.769c.136.136.2.14.2.012,0-.054-.069-.1-.154-.11-.134-.01-.139,0-.044.1m-31.979.906c-.056.068-.062.125-.014.154a.09.09,0,0,0,.123-.031c.026-.043.02-.078-.014-.079s-.01-.035.053-.075.076-.074.029-.075a.287.287,0,0,0-.176.107m-5.169.039c.024.039-.009.087-.074.107-.091.028-.088.034.012.025.144-.012.243-.2.105-.2-.048,0-.068.032-.044.071m43.308.082c.045.084.12.153.167.153s.023-.069-.053-.153a.711.711,0,0,0-.167-.153c-.016,0,.008.069.053.153m-12.384,0c0,.044.032.061.071.037a.087.087,0,0,1,.118.033.281.281,0,0,0,.229.061c.1-.008.163-.045.14-.082s-.106-.05-.186-.029-.144.007-.144-.032-.052-.069-.115-.069-.115.037-.115.081m-.492.1c-.1.074-.11.1-.031.1a.334.334,0,0,0,.2-.1c.052-.056.066-.1.03-.1a.529.529,0,0,0-.2.1m-22.816.173a.455.455,0,0,0,.147.3c.169.152.214.034.051-.13a.773.773,0,0,1-.147-.216c-.031-.079-.046-.065-.05.047m3.839.014a.489.489,0,0,1,.129.245c0,.056.021.082.045.057.077-.077-.044-.346-.178-.4-.116-.044-.115-.036,0,.095m.206.654a.6.6,0,0,0,.153.2c.084.084.153.124.153.088a.479.479,0,0,0-.153-.2c-.084-.076-.153-.116-.153-.088m16.513.251c-.1.1-.163.181-.131.181.08,0,.394-.3.353-.333-.018-.016-.118.053-.222.152m-20.254-.041a.428.428,0,0,0,.148.26c.087.078.153.1.153.05a.084.084,0,0,0-.079-.088c-.043,0-.11-.077-.148-.172-.045-.112-.071-.129-.074-.05m-9.6,1.168a.429.429,0,0,0-.088.293c.025.062.042.048.045-.036s.042-.134.087-.134.062-.032.038-.07,0-.085.053-.1.073-.059.045-.09-.109.033-.179.14m42.225.1c.105.2.214.226.214.057,0-.063-.017-.1-.038-.077s-.089-.005-.153-.057c-.1-.083-.1-.073-.023.077m-38.209.245c-.062.039-.089.094-.061.123s.107,0,.175-.072c.134-.135.066-.165-.114-.05m6.349.4c.041.077.091.14.11.14s.036-.063.036-.14a.129.129,0,0,0-.111-.14c-.084,0-.092.034-.035.14m18.5.172c-.061.074-.064.123-.009.157s.083.039.086.026c.074-.3.056-.343-.077-.183m-.147.65a1.039,1.039,0,0,0,.115.518c.1.128.106.126.031-.029a1.162,1.162,0,0,1-.056-.482.63.63,0,0,0-.034-.35c-.032-.02-.057.135-.055.343m-25.8.546c-.023.09-.075.143-.116.118s-.09.021-.111.1c-.025.1-.005.134.057.11.115-.044.312-.394.254-.452-.023-.023-.061.032-.084.122m-.388.642c-.151.232-.159.318-.017.2.093-.077.223-.389.163-.389a.85.85,0,0,0-.146.188m33.85-.12c.023.038-.014.09-.083.117s-.1.069-.078.1c.056.056.28-.115.28-.213a.075.075,0,0,0-.081-.067c-.045,0-.062.031-.039.068m-24.877.572a.208.208,0,0,0,.076.162c.042.026.076,0,.076-.067a.208.208,0,0,0-.076-.162c-.042-.026-.076,0-.076.067m-13.029.829c-.171.245-.147.344.034.136.142-.164.2-.306.119-.306a.564.564,0,0,0-.153.17m37.108-.035a.41.41,0,0,1-.124.208c-.068.068-.105.142-.083.165s.1-.049.172-.159.109-.222.083-.249-.049-.011-.049.035m-33.684.437a.168.168,0,0,1-.087.189c-.072.042-.095.077-.05.078a.33.33,0,0,0,.264-.281.093.093,0,0,0-.085-.1c-.047,0-.065.051-.042.113m33.119.161c-.029.074-.011.109.044.091.114-.038.177-.212.077-.212-.041,0-.1.054-.121.121m-23.315,1.223a.328.328,0,0,0,.028.248c.059.1.075.076.076-.121q0-.408-.1-.127m7.628.085c.005.148.036.217.079.174s.039-.138-.009-.244c-.073-.162-.078-.158-.07.07m9.145.212a.24.24,0,0,0-.054.21c.025.063.042.052.046-.032a.3.3,0,0,1,.14-.208c.074-.043.1-.079.048-.08a.29.29,0,0,0-.179.11m-26.91.313c0,.066-.026.1-.057.085s-.06.233-.063.561c0,.394.022.585.076.564a4.456,4.456,0,0,0,.063-1.329c-.011,0-.019.054-.019.119m17.427,1.068c-.055.1-.078.211-.05.239s.051.006.051-.049a.3.3,0,0,1,.126-.192c.075-.055.095-.112.05-.14s-.122.037-.177.141m8.3.309c-.124.091-.128.108-.023.108a.224.224,0,0,0,.175-.082c.081-.131.008-.144-.152-.027m-8.547.258c-.194.19-.164.267.033.083.092-.085.152-.168.134-.184s-.093.03-.167.1m11.868,1.5c0,.1.021.107.115.029a.4.4,0,0,0,.115-.124c0-.016-.052-.029-.115-.029a.12.12,0,0,0-.115.124m-5.749.568a.169.169,0,0,0-.088.189c.054.141.149.086.2-.115a.516.516,0,0,0,.028-.152c-.007,0-.071.037-.142.078m19.623.225c-.076.085-.122.171-.1.192s.1-.031.177-.116.122-.171.1-.192-.1.031-.178.116m3.658.419c-.08.172-.075.182.054.113a.163.163,0,0,0,.1-.19c-.055-.144-.05-.147-.153.077m-45.754.04a.39.39,0,0,0,.156.212c.141.047.1-.1-.068-.253-.153-.138-.155-.138-.088.042m26.769.444c-.121.055-.194.243-.095.243.032,0,.1-.069.153-.153s.087-.15.076-.148-.072.029-.135.057m14.715.32c-.076.085-.116.176-.088.2s.051.01.051-.039a.1.1,0,0,1,.115-.089A.115.115,0,0,0,144,66.89c0-.15-.025-.145-.192.039m3.937.162c0,.135.019.146.114.068.115-.1.09-.23-.042-.23-.04,0-.072.073-.072.162m-25.609.336c-.053.064-.075.139-.048.166s.049.007.049-.045.031-.075.068-.052.11-.009.162-.072c.076-.092.073-.114-.02-.114a.329.329,0,0,0-.211.117m6.193.008c0,.1.021.107.115.029a.4.4,0,0,0,.115-.124c0-.016-.052-.029-.115-.029a.12.12,0,0,0-.115.124m-25.04.3c.081.061.166.093.189.07.048-.048-.146-.185-.26-.183-.042,0-.01.052.071.113m24.684,0c0,.063.024.115.054.115a.315.315,0,0,0,.149-.115c.079-.1.07-.115-.054-.115a.136.136,0,0,0-.149.115m15.2.06c-.123.148-.257.531-.167.475a.2.2,0,0,0,.076-.157.508.508,0,0,1,.153-.263c.084-.084.123-.153.086-.153a.261.261,0,0,0-.148.1m-22.947.824c0,.044-.032.061-.071.037-.079-.049-.2.1-.132.163.023.023.134-.031.247-.12.148-.117.171-.162.08-.162-.069,0-.125.036-.125.081m26.449.6c0,.052-.04.069-.088.039s-.068-.021-.038.027a.082.082,0,0,1-.046.12c-.06.024-.064.041-.01.045.111.008.295-.212.231-.276-.027-.027-.049-.007-.049.044m-20.848.4c-.01.129.008.142.1.068.06-.05.091-.121.068-.159-.073-.118-.153-.074-.165.091m-7.726.01c-.126.126-.116.253.011.147.056-.047.119-.068.14-.048s.037-.014.037-.077c0-.138-.065-.147-.189-.023M108.558,70.8a1.441,1.441,0,0,0,.338.149l.285.1L109,70.9c-.163-.134-.569-.222-.443-.1m5.222.075c-.082.082-.059.153.051.153a.1.1,0,0,0,.1-.1c0-.11-.071-.133-.153-.051m19.907.2c.017.013.135.084.261.157l.229.134-.18-.158a.652.652,0,0,0-.261-.157c-.044,0-.066.01-.049.023m3.644.059c-.18.1-.169.188.028.2.089.007.141-.009.116-.034s-.008-.092.039-.149c.1-.121.008-.131-.182-.02m-9.766.271-.191.112.191-.051c.213-.057.27-.093.223-.14-.018-.018-.118.018-.223.08m-5.231.374c-.081.061-.133.125-.115.141.058.054.377-.1.377-.179,0-.108-.086-.1-.262.037m4.085.769a.558.558,0,0,0,.079.261c.057.084.064.053.026-.115-.063-.281-.106-.342-.105-.147M119.5,73.1c-.027.07,0,.1.086.083a.215.215,0,0,0,.155-.107c.041-.124-.193-.1-.241.025m-2.673.765a.228.228,0,0,1-.14.057.138.138,0,0,0-.115.1c-.049.147.094.114.248-.057.129-.142.134-.223.006-.1m-1.445.363c-.076.055-.106.12-.068.144s.132,0,.207-.057.106-.12.068-.144-.132,0-.207.058m14.971-.042c-.025.04.028.111.116.159.148.079.154.073.076-.073-.1-.177-.127-.191-.192-.086m-22.9.118a.306.306,0,0,0,.172.115c.042,0,.034-.051-.019-.115a.306.306,0,0,0-.171-.115c-.043,0-.034.051.019.115m31.379.038c-.126.084-.19.152-.142.152.083,0,.488-.3.41-.3a1.247,1.247,0,0,0-.268.15m-29.783.254a.394.394,0,0,0,.322.113c.245-.019.22-.1-.032-.1a.661.661,0,0,1-.28-.072c-.1-.06-.1-.052-.009.06m.621.145c0,.033.069.06.153.06s.153-.027.153-.06-.069-.06-.153-.06-.153.027-.153.06" transform="translate(-98.275 -27.182)" fill="#783c98" fill-rule="evenodd"/>
  <path id="path4" d="M118.045,28.022c-.124.137-.125.15-.012.106.071-.027.129-.082.129-.122s.034-.052.076-.025.076.011.076-.034c0-.127-.117-.1-.271.075m-1.783.864c-.047.056-.063.125-.035.153.086.085.178.055.178-.058a.17.17,0,0,1,.1-.147c.061-.024.05-.041-.029-.044a.292.292,0,0,0-.21.1m13.73.649c.152.159.212.15.146-.022a.191.191,0,0,0-.162-.118c-.1,0-.1.021.017.14m-7.624,1.178c0,.16.051.163.3.021.186-.1.187-.107.019-.1-.095.006-.172.047-.173.091s-.034.028-.075-.035c-.063-.1-.074-.1-.075.019m1.491-.027c.138.135.5.191.456.071-.023-.059-.151-.116-.286-.126-.158-.012-.219.008-.17.055m7.6.114a.65.65,0,0,0,.153.217c.084.09.153.128.153.085a.461.461,0,0,0-.153-.217c-.084-.076-.153-.114-.153-.085m-10.745.207c-.066.107.1.145.186.043.063-.076.055-.1-.033-.1a.2.2,0,0,0-.153.058m4.782-.017c0,.121.219.252.359.216.108-.028.1-.038-.034-.044-.1-.005-.172-.058-.172-.124s-.034-.115-.076-.115a.072.072,0,0,0-.076.067m.734.348c.057.149.259.218.259.088a.186.186,0,0,0-.121-.15c-.171-.066-.185-.06-.138.062m-13.1.14c-.187.242-.2.3-.029.2.088-.055.161-.144.161-.2,0-.122-.038-.122-.132,0m13.662.137a.3.3,0,0,0,.11.146c.09.074.108.064.1-.054s-.21-.22-.21-.092m-9.126.653c-.029.074-.011.109.044.091.114-.038.177-.212.077-.212-.041,0-.1.054-.121.121m10.1.079a.158.158,0,0,0,.123.106.692.692,0,0,1,.274.172l.192.172-.187-.241c-.2-.255-.475-.4-.4-.209m-11.079.607-.037.2.181-.17c.219-.206.221-.22.037-.22-.094,0-.157.068-.181.2m12.4.591c.186.209.328.3.169.105a.148.148,0,0,1-.028-.172c.031-.038.025-.044-.013-.013s-.124.015-.191-.036-.038,0,.064.115m2.114,3.408c-.052.084.169.281.238.212.027-.027.007-.049-.044-.049s-.074-.032-.05-.071a.085.085,0,0,0-.144-.092m-21.6.167a.4.4,0,0,0-.059.233c.014.042.065-.029.113-.157.1-.266.07-.308-.054-.075m3.06,2.1c0,.124.119.152.186.044.023-.038-.009-.088-.072-.112s-.114,0-.114.068m23.163.093c0,.1.143.283.188.238.06-.06-.036-.3-.12-.3a.062.062,0,0,0-.067.057m.306,1.788a.2.2,0,0,0,.118.171c.066.025.1.078.075.117a.088.088,0,0,0,.033.12c.043.027.075,0,.072-.052-.007-.133-.135-.427-.143-.329,0,.042-.04.025-.081-.038-.064-.1-.074-.1-.075.011m-27.66.393a.171.171,0,0,0-.011.21c.078.123.085.115.111-.137.021-.2.01-.207-.1-.074m10.53.15c-.078.254-.055.3.088.167a.712.712,0,0,0,.147-.159c0-.03-.226-.037-.235-.007m1.781.072c.038.114.212.177.212.077,0-.041-.054-.1-.121-.121s-.109-.011-.091.044m1.206.6c0,.042.077.076.172.075.139,0,.15-.015.057-.075-.148-.1-.229-.1-.229,0m11.161,0c0,.075.3.191.35.138.018-.018-.054-.072-.159-.12s-.191-.056-.191-.018m-21.154.768c0,.189.015.266.033.172a1.083,1.083,0,0,0,0-.344c-.018-.095-.033-.017-.033.172m10.916.016a.277.277,0,0,0,.166.214c.146.071.154.068.051-.016a.641.641,0,0,1-.166-.214c-.036-.093-.046-.09-.051.016m.934.423c.328.014.844.014,1.147,0s.035-.026-.6-.026-.878.012-.551.026m2.571.147c.12.084.187.083.4-.008l.256-.109-.4.008c-.354.007-.383.019-.255.109m2.79.3c.066.066.158.1.2.067.1-.06-.052-.183-.223-.185-.076,0-.071.029.019.118m-21.047.175c-.125.233-.1.3.04.1.067-.1.1-.193.083-.215s-.077.03-.122.115m3.739.618a.176.176,0,0,1-.1.172c-.071.018-.06.062.038.159.13.128.136.12.136-.172a.647.647,0,0,0-.038-.306c-.021,0-.038.066-.038.147m-3.9.885a4.056,4.056,0,0,0,.057.956,2.4,2.4,0,0,0,.031-.734,1.8,1.8,0,0,1,.062-.822c.067-.066.076-.051.039.065s-.034.131.032.038c.114-.158.105-.229-.028-.229-.068,0-.1-.045-.068-.115s.006-.115-.041-.115-.085.308-.085.955m3.771.038c0,.123.029.2.064.183a.3.3,0,0,0,0-.367c-.035-.021-.064.061-.064.183m.131.535a1.051,1.051,0,0,0-.008.248c.01.1-.022.12-.125.081s-.123-.033-.043.065c.052.064.078.14.058.168s.017,0,.083-.053a.4.4,0,0,0,.088-.364c-.017-.143-.041-.208-.053-.145m-3.826.644c0,.162.084.35.156.35.035,0,.058-.069.052-.153s-.047-.153-.091-.154-.028-.035.035-.075c.1-.063.1-.074-.019-.075a.122.122,0,0,0-.134.107m8.5.627a.279.279,0,0,1,.168.168c.028.094.034.087.023-.023a.186.186,0,0,0-.168-.168c-.11-.011-.117,0-.023.023m-4.6.625.037.36.026-.3a.673.673,0,0,0-.037-.36c-.034-.034-.046.1-.026.3m4.894-.223a.29.29,0,0,0,.109.157c.089.074.1.062.067-.067-.04-.154-.176-.223-.176-.09m13.683,0a.383.383,0,0,0,.242.242c.1,0-.015-.214-.134-.259-.06-.023-.109-.015-.109.017m.994.318c0,.125.289.241.351.142.034-.055.021-.068-.034-.034s-.088.022-.088-.018-.052-.093-.115-.117-.115-.012-.115.027m8.39.051a.082.082,0,0,1,.046.12c-.03.048-.014.059.038.027s.088-.012.088.039.022.072.049.044c.064-.064-.119-.284-.231-.276-.054,0-.05.021.01.045m-21.9.652a.217.217,0,0,0,.121.121c.056.019.073-.016.044-.091-.053-.139-.211-.168-.166-.03m15.461-.033c.027.053,0,.1-.052.1s-.043.035.039.083c.189.11.229.049.083-.129-.066-.081-.1-.1-.071-.052m-21.441.692c0,.041.054.1.121.121s.109.011.091-.044c-.038-.114-.212-.177-.212-.077m-3.669.158a.294.294,0,0,0,.11.159c.09.075.108.063.1-.067-.011-.149-.209-.236-.209-.092m.235,1.243a.587.587,0,0,0,.144.306c.13.156.151.162.153.042,0-.076-.029-.119-.067-.1s-.1-.052-.147-.168-.08-.154-.083-.085m28.812.106a.191.191,0,0,0,.118.162c.173.066.182.007.022-.146-.119-.113-.14-.116-.14-.017m-24.907.193c.045.128.1.219.113.2a.755.755,0,0,0-.158-.435c-.02,0,0,.1.045.233m-5.969-.042a.553.553,0,0,0,.07.268c.1.152.1-.039,0-.268l-.066-.153,0,.153m32.208.769c.136.136.2.14.2.012,0-.054-.069-.1-.154-.11-.134-.01-.139,0-.044.1m-31.979.906c-.056.068-.062.125-.014.154a.09.09,0,0,0,.123-.031c.026-.043.02-.078-.014-.079s-.01-.035.053-.075.076-.074.029-.075a.287.287,0,0,0-.176.107m-5.169.039c.024.039-.009.087-.074.107-.091.028-.088.034.012.025.144-.012.243-.2.105-.2-.048,0-.068.032-.044.071m43.308.082c.045.084.12.153.167.153s.023-.069-.053-.153a.711.711,0,0,0-.167-.153c-.016,0,.008.069.053.153m-12.384,0c0,.044.032.061.071.037a.087.087,0,0,1,.118.033.281.281,0,0,0,.229.061c.1-.008.163-.045.14-.082s-.106-.05-.186-.029-.144.007-.144-.032-.052-.069-.115-.069-.115.037-.115.081m-.492.1c-.1.074-.11.1-.031.1a.334.334,0,0,0,.2-.1c.052-.056.066-.1.03-.1a.529.529,0,0,0-.2.1m-22.816.173a.455.455,0,0,0,.147.3c.169.152.214.034.051-.13a.773.773,0,0,1-.147-.216c-.031-.079-.046-.065-.05.047m3.839.014a.489.489,0,0,1,.129.245c0,.056.021.082.045.057.077-.077-.044-.346-.178-.4-.116-.044-.115-.036,0,.095m.206.654a.6.6,0,0,0,.153.2c.084.084.153.124.153.088a.479.479,0,0,0-.153-.2c-.084-.076-.153-.116-.153-.088m16.513.251c-.1.1-.163.181-.131.181.08,0,.394-.3.353-.333-.018-.016-.118.053-.222.152m-20.254-.041a.428.428,0,0,0,.148.26c.087.078.153.1.153.05a.084.084,0,0,0-.079-.088c-.043,0-.11-.077-.148-.172-.045-.112-.071-.129-.074-.05m-9.6,1.168a.429.429,0,0,0-.088.293c.025.062.042.048.045-.036s.042-.134.087-.134.062-.032.038-.07,0-.085.053-.1.073-.059.045-.09-.109.033-.179.14m42.225.1c.105.2.214.226.214.057,0-.063-.017-.1-.038-.077s-.089-.005-.153-.057c-.1-.083-.1-.073-.023.077m-38.209.245c-.062.039-.089.094-.061.123s.107,0,.175-.072c.134-.135.066-.165-.114-.05m6.349.4c.041.077.091.14.11.14s.036-.063.036-.14a.129.129,0,0,0-.111-.14c-.084,0-.092.034-.035.14m18.5.172c-.061.074-.064.123-.009.157s.083.039.086.026c.074-.3.056-.343-.077-.183m-.147.65a1.039,1.039,0,0,0,.115.518c.1.128.106.126.031-.029a1.162,1.162,0,0,1-.056-.482.63.63,0,0,0-.034-.35c-.032-.02-.057.135-.055.343m-25.8.546c-.023.09-.075.143-.116.118s-.09.021-.111.1c-.025.1-.005.134.057.11.115-.044.312-.394.254-.452-.023-.023-.061.032-.084.122m-.388.642c-.151.232-.159.318-.017.2.093-.077.223-.389.163-.389a.85.85,0,0,0-.146.188m33.85-.12c.023.038-.014.09-.083.117s-.1.069-.078.1c.056.056.28-.115.28-.213a.075.075,0,0,0-.081-.067c-.045,0-.062.031-.039.068m-24.877.572a.208.208,0,0,0,.076.162c.042.026.076,0,.076-.067a.208.208,0,0,0-.076-.162c-.042-.026-.076,0-.076.067m-13.029.829c-.171.245-.147.344.034.136.142-.164.2-.306.119-.306a.564.564,0,0,0-.153.17m37.108-.035a.41.41,0,0,1-.124.208c-.068.068-.105.142-.083.165s.1-.049.172-.159.109-.222.083-.249-.049-.011-.049.035m-33.684.437a.168.168,0,0,1-.087.189c-.072.042-.095.077-.05.078a.33.33,0,0,0,.264-.281.093.093,0,0,0-.085-.1c-.047,0-.065.051-.042.113m33.119.161c-.029.074-.011.109.044.091.114-.038.177-.212.077-.212-.041,0-.1.054-.121.121m-23.315,1.223a.328.328,0,0,0,.028.248c.059.1.075.076.076-.121q0-.408-.1-.127m7.628.085c.005.148.036.217.079.174s.039-.138-.009-.244c-.073-.162-.078-.158-.07.07m9.145.212a.24.24,0,0,0-.054.21c.025.063.042.052.046-.032a.3.3,0,0,1,.14-.208c.074-.043.1-.079.048-.08a.29.29,0,0,0-.179.11m-26.91.313c0,.066-.026.1-.057.085s-.06.233-.063.561c0,.394.022.585.076.564a4.456,4.456,0,0,0,.063-1.329c-.011,0-.019.054-.019.119m17.427,1.068c-.055.1-.078.211-.05.239s.051.006.051-.049a.3.3,0,0,1,.126-.192c.075-.055.095-.112.05-.14s-.122.037-.177.141m8.3.309c-.124.091-.128.108-.023.108a.224.224,0,0,0,.175-.082c.081-.131.008-.144-.152-.027m-8.547.258c-.194.19-.164.267.033.083.092-.085.152-.168.134-.184s-.093.03-.167.1m11.868,1.5c0,.1.021.107.115.029a.4.4,0,0,0,.115-.124c0-.016-.052-.029-.115-.029a.12.12,0,0,0-.115.124m-5.749.568a.169.169,0,0,0-.088.189c.054.141.149.086.2-.115a.516.516,0,0,0,.028-.152c-.007,0-.071.037-.142.078m19.623.225c-.076.085-.122.171-.1.192s.1-.031.177-.116.122-.171.1-.192-.1.031-.178.116m3.658.419c-.08.172-.075.182.054.113a.163.163,0,0,0,.1-.19c-.055-.144-.05-.147-.153.077m-45.754.04a.39.39,0,0,0,.156.212c.141.047.1-.1-.068-.253-.153-.138-.155-.138-.088.042m26.769.444c-.121.055-.194.243-.095.243.032,0,.1-.069.153-.153s.087-.15.076-.148-.072.029-.135.057m14.715.32c-.076.085-.116.176-.088.2s.051.01.051-.039a.1.1,0,0,1,.115-.089A.115.115,0,0,0,144,66.89c0-.15-.025-.145-.192.039m3.937.162c0,.135.019.146.114.068.115-.1.09-.23-.042-.23-.04,0-.072.073-.072.162m-25.609.336c-.053.064-.075.139-.048.166s.049.007.049-.045.031-.075.068-.052.11-.009.162-.072c.076-.092.073-.114-.02-.114a.329.329,0,0,0-.211.117m6.193.008c0,.1.021.107.115.029a.4.4,0,0,0,.115-.124c0-.016-.052-.029-.115-.029a.12.12,0,0,0-.115.124m-25.04.3c.081.061.166.093.189.07.048-.048-.146-.185-.26-.183-.042,0-.01.052.071.113m24.684,0c0,.063.024.115.054.115a.315.315,0,0,0,.149-.115c.079-.1.07-.115-.054-.115a.136.136,0,0,0-.149.115m15.2.06c-.123.148-.257.531-.167.475a.2.2,0,0,0,.076-.157.508.508,0,0,1,.153-.263c.084-.084.123-.153.086-.153a.261.261,0,0,0-.148.1m-22.947.824c0,.044-.032.061-.071.037-.079-.049-.2.1-.132.163.023.023.134-.031.247-.12.148-.117.171-.162.08-.162-.069,0-.125.036-.125.081m26.449.6c0,.052-.04.069-.088.039s-.068-.021-.038.027a.082.082,0,0,1-.046.12c-.06.024-.064.041-.01.045.111.008.295-.212.231-.276-.027-.027-.049-.007-.049.044m-20.848.4c-.01.129.008.142.1.068.06-.05.091-.121.068-.159-.073-.118-.153-.074-.165.091m-7.726.01c-.126.126-.116.253.011.147.056-.047.119-.068.14-.048s.037-.014.037-.077c0-.138-.065-.147-.189-.023M108.558,70.8a1.441,1.441,0,0,0,.338.149l.285.1L109,70.9c-.163-.134-.569-.222-.443-.1m5.222.075c-.082.082-.059.153.051.153a.1.1,0,0,0,.1-.1c0-.11-.071-.133-.153-.051m19.907.2c.017.013.135.084.261.157l.229.134-.18-.158a.652.652,0,0,0-.261-.157c-.044,0-.066.01-.049.023m3.644.059c-.18.1-.169.188.028.2.089.007.141-.009.116-.034s-.008-.092.039-.149c.1-.121.008-.131-.182-.02m-9.766.271-.191.112.191-.051c.213-.057.27-.093.223-.14-.018-.018-.118.018-.223.08m-5.231.374c-.081.061-.133.125-.115.141.058.054.377-.1.377-.179,0-.108-.086-.1-.262.037m4.085.769a.558.558,0,0,0,.079.261c.057.084.064.053.026-.115-.063-.281-.106-.342-.105-.147M119.5,73.1c-.027.07,0,.1.086.083a.215.215,0,0,0,.155-.107c.041-.124-.193-.1-.241.025m-2.673.765a.228.228,0,0,1-.14.057.138.138,0,0,0-.115.1c-.049.147.094.114.248-.057.129-.142.134-.223.006-.1m-1.445.363c-.076.055-.106.12-.068.144s.132,0,.207-.057.106-.12.068-.144-.132,0-.207.058m14.971-.042c-.025.04.028.111.116.159.148.079.154.073.076-.073-.1-.177-.127-.191-.192-.086m-22.9.118a.306.306,0,0,0,.172.115c.042,0,.034-.051-.019-.115a.306.306,0,0,0-.171-.115c-.043,0-.034.051.019.115m31.379.038c-.126.084-.19.152-.142.152.083,0,.488-.3.41-.3a1.247,1.247,0,0,0-.268.15m-29.783.254a.394.394,0,0,0,.322.113c.245-.019.22-.1-.032-.1a.661.661,0,0,1-.28-.072c-.1-.06-.1-.052-.009.06m.621.145c0,.033.069.06.153.06s.153-.027.153-.06-.069-.06-.153-.06-.153.027-.153.06" transform="translate(-98.275 -27.182)" fill="#783c98" fill-rule="evenodd"/>
</svg>
