<svg xmlns="http://www.w3.org/2000/svg" width="59.837" height="67.233" viewBox="0 0 59.837 67.233">
  <path id="iconfinder_graphql_4691403" d="M36.984,7.707,50.809,15.69a5.989,5.989,0,1,1,5.757,9.948V41.6a6,6,0,1,1-5.9,9.813L36.928,59.35a6,6,0,1,1-11.438.193L11.663,51.568A6,6,0,1,1,5.914,41.6l0-15.965a5.994,5.994,0,1,1,4.4-11.015,5.831,5.831,0,0,1,1.345,1.056L25.493,7.69a5.992,5.992,0,1,1,11.491.017Zm-1.443,2.457a2.222,2.222,0,0,1-.162.162l18.1,31.347c.073-.025.157-.045.23-.064V25.621a5.981,5.981,0,0,1-4.365-7.25c.017-.067.034-.137.053-.2L35.542,10.163Zm-8.446.165-.168-.168L13.072,18.15a5.984,5.984,0,0,1-4.093,7.41c-.073.022-.143.039-.213.059v15.99L9,41.673,27.1,10.326l-.006,0Zm5.816,1.42a6.041,6.041,0,0,1-3.339,0l-18.1,31.345a6.077,6.077,0,0,1,1.681,2.916H49.324a6.026,6.026,0,0,1,1.689-2.925l-18.1-31.336Zm2.762,45.458,13.763-7.95c-.042-.132-.076-.263-.106-.4H13.147l-.059.233,13.836,7.99a6,6,0,0,1,8.749.126Z" transform="translate(-1.32)" fill="#fff"/>
</svg>
