<svg id="github" xmlns="http://www.w3.org/2000/svg" width="58.461" height="58.462" viewBox="0 0 58.461 58.462">
  <g id="Group_4" data-name="Group 4">
    <path id="Path_10" data-name="Path 10" d="M154.652,352.522q-.61.114-.533.571t.685.3q.61-.152.533-.533Q155.261,352.446,154.652,352.522Z" transform="translate(-133.566 -305.517)" fill="#fff"/>
    <path id="Path_11" data-name="Path 11" d="M137.939,354.819c-.406,0-.609.139-.609.418q0,.495.647.418.609,0,.609-.418Q138.586,354.743,137.939,354.819Z" transform="translate(-119.022 -307.508)" fill="#fff"/>
    <path id="Path_12" data-name="Path 12" d="M119.441,352.026q-.152.419.495.571.571.227.723-.228.114-.418-.495-.609C119.783,351.659,119.543,351.746,119.441,352.026Z" transform="translate(-103.493 -304.831)" fill="#fff"/>
    <path id="Path_13" data-name="Path 13" d="M55.245,3.216A10.558,10.558,0,0,0,47.5,0H10.961A10.56,10.56,0,0,0,3.216,3.216,10.56,10.56,0,0,0,0,10.961V47.5a10.558,10.558,0,0,0,3.216,7.745,10.559,10.559,0,0,0,7.746,3.216h8.526a10.294,10.294,0,0,0,1.256-.057,1.473,1.473,0,0,0,.837-.5A1.773,1.773,0,0,0,22,56.635q0-.114-.019-2.589t-.019-3.921l-.875.152a11.2,11.2,0,0,1-2.112.133,16.254,16.254,0,0,1-2.645-.266A5.93,5.93,0,0,1,13.777,49,4.831,4.831,0,0,1,12.1,46.663l-.381-.876a9.507,9.507,0,0,0-1.2-1.94A4.594,4.594,0,0,0,8.868,42.4L8.6,42.21a2.8,2.8,0,0,1-.495-.457,2.115,2.115,0,0,1-.342-.533q-.114-.267.19-.438a2.475,2.475,0,0,1,1.1-.171l.761.114a5.549,5.549,0,0,1,1.884.913,6.142,6.142,0,0,1,1.846,1.979A6.707,6.707,0,0,0,15.661,46a4.478,4.478,0,0,0,2.493.819,10.813,10.813,0,0,0,2.169-.19,7.578,7.578,0,0,0,1.713-.572A6.169,6.169,0,0,1,23.9,42.132a26.064,26.064,0,0,1-3.9-.685,15.549,15.549,0,0,1-3.577-1.485,10.243,10.243,0,0,1-3.064-2.55,12.261,12.261,0,0,1-2-4,19.009,19.009,0,0,1-.78-5.71,11.1,11.1,0,0,1,3.007-7.841,10.233,10.233,0,0,1,.266-7.764,5.333,5.333,0,0,1,3.273.514A22.954,22.954,0,0,1,20.3,14.081q1.009.608,1.618,1.028a27.48,27.48,0,0,1,14.616,0l1.446-.913a20.475,20.475,0,0,1,3.5-1.675A4.986,4.986,0,0,1,44.57,12.1a10.132,10.132,0,0,1,.3,7.764,11.1,11.1,0,0,1,3.007,7.841,19.19,19.19,0,0,1-.78,5.728,11.759,11.759,0,0,1-2.017,4A10.643,10.643,0,0,1,42,39.963a15.527,15.527,0,0,1-3.578,1.484,26.045,26.045,0,0,1-3.9.686q1.978,1.712,1.978,5.4v9.1a2.45,2.45,0,0,0,.19,1.047,1.051,1.051,0,0,0,.609.552,3.372,3.372,0,0,0,.743.19,8.544,8.544,0,0,0,.933.038H47.5A10.981,10.981,0,0,0,58.461,47.5V10.961A10.56,10.56,0,0,0,55.245,3.216Z" transform="translate(0 0)" fill="#fff"/>
    <path id="Path_14" data-name="Path 14" d="M86.036,318.6q-.266.189.076.609.381.38.609.114.266-.19-.077-.609Q86.265,318.37,86.036,318.6Z" transform="translate(-74.466 -276.047)" fill="#fff"/>
    <path id="Path_15" data-name="Path 15" d="M77.2,311.28q-.114.267.266.457a.325.325,0,0,0,.495-.076q.114-.267-.266-.458Q77.317,311.089,77.2,311.28Z" transform="translate(-66.888 -269.68)" fill="#fff"/>
    <path id="Path_16" data-name="Path 16" d="M94.531,329.723c-.229.126-.229.355,0,.685s.444.419.647.266q.343-.267,0-.724C94.975,329.621,94.76,329.544,94.531,329.723Z" transform="translate(-81.781 -285.686)" fill="#fff"/>
    <path id="Path_17" data-name="Path 17" d="M104.729,342.222c-.229.2-.178.444.152.724q.456.456.761.113.3-.3-.152-.723Q105.033,341.88,104.729,342.222Z" transform="translate(-90.646 -296.473)" fill="#fff"/>
  </g>
</svg>
