<svg xmlns="http://www.w3.org/2000/svg" width="28.175" height="28.175" viewBox="0 0 28.175 28.175">
  <path id="linkedin" d="M25.534,0H2.641A2.649,2.649,0,0,0,0,2.641V25.534a2.649,2.649,0,0,0,2.641,2.641H25.534a2.649,2.649,0,0,0,2.641-2.641V2.641A2.649,2.649,0,0,0,25.534,0ZM10.566,22.892H7.044V10.566h3.522ZM8.8,8.8a1.761,1.761,0,1,1,1.761-1.761A1.759,1.759,0,0,1,8.8,8.8ZM22.892,22.892H19.37V15.849a1.761,1.761,0,0,0-3.522,0v7.044H12.327V10.566h3.522V12.75c.726-1,1.838-2.185,3.082-2.185a4.2,4.2,0,0,1,3.962,4.4Z" fill="#fff"/>
</svg>
