<svg id="Layer_x0020_1" xmlns="http://www.w3.org/2000/svg" width="27.518" height="27.517" viewBox="0 0 27.518 27.517">
  <path id="Exclusion_2" data-name="Exclusion 2" d="M26.061,27.517H1.456A1.458,1.458,0,0,1,0,26.06V1.456A1.458,1.458,0,0,1,1.456,0H26.061a1.458,1.458,0,0,1,1.456,1.456v24.6A1.458,1.458,0,0,1,26.061,27.517ZM18.527,11.458a3.471,3.471,0,0,0-3.359,1.913,4.737,4.737,0,0,0-.482,1.928,4.061,4.061,0,0,0,.945,2.754,3.785,3.785,0,0,0,2.895,1.07s.05,0,.137,0a4.636,4.636,0,0,0,1.881-.39,2.334,2.334,0,0,0,1.4-2.274H20.191a.947.947,0,0,1-.264.641,1.79,1.79,0,0,1-1.343.435h-.061a1.962,1.962,0,0,1-.964-.252,1.6,1.6,0,0,1-.731-1.487h5.179a4.764,4.764,0,0,0-.86-3.314A3.314,3.314,0,0,0,18.527,11.458ZM5.91,8.912v10h5.237a4.019,4.019,0,0,0,1.7-.4,2.638,2.638,0,0,0,1.445-2.553,3.048,3.048,0,0,0-.617-1.984,1.656,1.656,0,0,0-1.256-.5,1.733,1.733,0,0,0,1.523-1.9,2.55,2.55,0,0,0-2.828-2.662Zm10.464.59v1.231H20.5V9.5Zm-5.406,7.636H8.2V14.461h2.911a1.054,1.054,0,0,1,.692.3,1.46,1.46,0,0,1,.359,1.075C12.165,16.682,11.763,17.119,10.968,17.138Zm9.12-2.677h-3.28a1.785,1.785,0,0,1,1.757-1.538,1.46,1.46,0,0,1,1.086.4,1.758,1.758,0,0,1,.437,1.135Zm-9.155-1.538H8.2V10.688h2.911c.007,0,.706.012.706,1.041C11.82,12.779,11.394,12.923,10.933,12.923Z" transform="translate(0 0)" fill="#fff"/>
</svg>
