<svg xmlns="http://www.w3.org/2000/svg" width="27.517" height="27.517" viewBox="0 0 27.517 27.517">
  <path id="iconfinder_Rounded_Twitter5_svg_5282551" d="M24.155,0a3.364,3.364,0,0,1,3.362,3.362V24.155a3.364,3.364,0,0,1-3.362,3.362H3.362A3.364,3.364,0,0,1,0,24.155V3.362A3.364,3.364,0,0,1,3.362,0H24.155ZM10.508,22.817a11.224,11.224,0,0,0,11.3-11.3c0-.173,0-.346-.008-.511a8.137,8.137,0,0,0,1.985-2.059,8.061,8.061,0,0,1-2.282.626,3.969,3.969,0,0,0,1.746-2.2,8.042,8.042,0,0,1-2.52.964,3.974,3.974,0,0,0-6.869,2.718,3.64,3.64,0,0,0,.107.906A11.267,11.267,0,0,1,5.78,7.81a3.97,3.97,0,0,0,1.235,5.3,3.9,3.9,0,0,1-1.8-.494v.049a3.976,3.976,0,0,0,3.188,3.9,3.959,3.959,0,0,1-1.046.14,3.79,3.79,0,0,1-.75-.074,3.966,3.966,0,0,0,3.706,2.759,7.983,7.983,0,0,1-4.934,1.7,7.216,7.216,0,0,1-.947-.058,11.065,11.065,0,0,0,6.07,1.8Z" fill="#fff" fill-rule="evenodd"/>
</svg>
