<svg xmlns="http://www.w3.org/2000/svg" width="459.162" height="92.759" viewBox="0 0 459.162 92.759">
  <g id="Group_164" data-name="Group 164" transform="translate(-5118.082 500.875)">
    <path id="Intersection_8" data-name="Intersection 8" d="M35.342,94.1a46.335,46.335,0,0,1-3.048-17.077,47.878,47.878,0,0,1,2.962-17.193,38.023,38.023,0,0,1,8.423-13.311,37.434,37.434,0,0,1,13.283-8.6,47.8,47.8,0,0,1,17.48-3.047,53.837,53.837,0,0,1,9.085.719,41.69,41.69,0,0,1,7.763,2.07A36.71,36.71,0,0,1,97.9,40.945a40.645,40.645,0,0,1,5.693,4.342l-3.163,5.06a3.279,3.279,0,0,1-1.927,1.466,3.351,3.351,0,0,1-2.615-.546q-1.381-.8-3.163-1.955A27.538,27.538,0,0,0,88.385,47.1a34.956,34.956,0,0,0-6.037-1.812,39.727,39.727,0,0,0-8.251-.748A33.421,33.421,0,0,0,61.5,46.81a26.619,26.619,0,0,0-9.6,6.5,28.751,28.751,0,0,0-6.1,10.235,40.211,40.211,0,0,0-2.128,13.484,40.669,40.669,0,0,0,2.214,13.886,31.662,31.662,0,0,0,2.5,5.351l-11.939.417Q35.86,95.424,35.342,94.1ZM94.28,87.089H81.456a2.429,2.429,0,0,1-1.753-.633,2.063,2.063,0,0,1-.661-1.552V78.579h25.3V94.31l-10.062.351ZM143.5,35.8h11.27l22.38,55.969-56.823,1.984Zm3.162,18.343L133.724,87.606h30.763L151.549,54.084q-.575-1.494-1.208-3.479t-1.207-4.226A62.73,62.73,0,0,1,146.661,54.141ZM198.584,35.8H209.74V90.629l-11.156.39Zm32.2,0h30.762a44.812,44.812,0,0,1,16.589,2.962,36.655,36.655,0,0,1,12.852,8.394,37.679,37.679,0,0,1,8.28,13.024A46.4,46.4,0,0,1,302.2,77.027a50.411,50.411,0,0,1-1.035,10.41l-11.656.407a43.973,43.973,0,0,0,1.249-10.817,41.363,41.363,0,0,0-2.07-13.57,28.6,28.6,0,0,0-5.865-10.121,25.01,25.01,0,0,0-9.2-6.324,31.949,31.949,0,0,0-12.075-2.185H241.939V89.5l-11.155.39Zm87.458,0h50.773v9.085H329.4v27.37h32.085v8.74H329.4v5.457l-11.155.39Zm66.413,0H390.4a7.843,7.843,0,0,1,1.265.086,3.244,3.244,0,0,1,.92.288,3.511,3.511,0,0,1,.805.575,8.775,8.775,0,0,1,.862.949l34.785,45.275L416.7,83.4,394.2,54.084q.115,1.438.173,2.818t.058,2.588V84.18l-9.775.341Zm56.982,0h9.776V82.19l-9.776.341Z" transform="translate(5105.312 -535.754)" fill="#bc7222"/>
    <path id="Path_26" data-name="Path 26" d="M-.241,17.642,429.691,2.221" transform="translate(5144.448 -459.308)" fill="none" stroke="#bc7222" stroke-linecap="square" stroke-width="6"/>
    <path id="Intersection_7" data-name="Intersection 7" d="M53.448,90.843a39.516,39.516,0,0,1-13.656-8.625A37.377,37.377,0,0,1,31.506,69.95l11.784-.412a27.767,27.767,0,0,0,4.667,6.585,26.957,26.957,0,0,0,9.976,6.526A36.64,36.64,0,0,0,71.1,84.893,36.643,36.643,0,0,0,81.307,83.6,44.159,44.159,0,0,0,90.018,80v-12.1l10.063-.351V85.008a46.2,46.2,0,0,1-13.253,6.7A51.28,51.28,0,0,1,71.388,93.92,49.607,49.607,0,0,1,53.448,90.843ZM441.573,93a4.8,4.8,0,0,1-2.214-.46,5.6,5.6,0,0,1-1.753-1.552l-26.328-34.3,12.337-.431,14.049,18.285q-.115-1.494-.2-2.9t-.086-2.674V55.777l9.775-.341V93Zm-61.18,0V57.767l9.775-.341V93Zm-66.412,0V60.086l11.155-.39V83.915h39.675L364.754,93Zm-87.457,0V63.14l11.155-.39V83.973h19.607a31.949,31.949,0,0,0,12.075-2.185,25.172,25.172,0,0,0,9.2-6.3A28.313,28.313,0,0,0,284.426,65.4a34.83,34.83,0,0,0,1.183-4.324l11.6-.4a42.246,42.246,0,0,1-2.2,8.006,37.35,37.35,0,0,1-8.28,13,36.842,36.842,0,0,1-12.851,8.366A44.812,44.812,0,0,1,257.286,93Zm-32.2,0V64.264l11.155-.39V93Zm-19.492,0a3.716,3.716,0,0,1-2.416-.747,4.6,4.6,0,0,1-1.38-1.9l-7.7-19.895H126.358l-7.7,19.895a4.032,4.032,0,0,1-1.322,1.84,3.676,3.676,0,0,1-2.416.8h-8.625L116.7,66.975l55.577-1.941L183.456,93Z" transform="translate(5109.572 -502.037)" fill="#bc7222"/>
    <path id="Path_27" data-name="Path 27" d="M-2.416,15.116,429.855.385" transform="translate(5123.599 -443.861)" fill="none" stroke="#bc7222" stroke-linecap="square" stroke-width="6"/>
  </g>
</svg>
