<svg xmlns="http://www.w3.org/2000/svg" width="56.075" height="62.8" viewBox="0 0 56.075 62.8"><path d="M-14.929-14.072.442-5.536-14.929,3.415-30.414-5.536Z" transform="translate(42.995 27.127)" fill="#f2f2f2"/><path d="M15.268,0,29.911,8.454,14.293,17.475,0,9.223Z" transform="translate(18.945 53.547) rotate(-120)" fill="#f2f2f2"/><path d="M15.268,17.475,29.911,9.021,14.293,0,0,8.252Z" transform="translate(21.9 44.809) rotate(-60)" fill="#f2f2f2"/><path d="M.144-11.938l9.326-5.433V12.5L.144,7.12Z" transform="translate(46.606 34.282)" fill="#fff"/><path d="M9.469-11.938.144-17.371V12.5L9.469,7.12Z" transform="translate(-0.144 34.282)" fill="#fff"/><path d="M9.326,5.433,0,0V29.866l9.326-5.375Z" transform="translate(27.103 0) rotate(60)" fill="#fff"/><path d="M9.326,24.433,0,29.866V0L9.326,5.375Z" transform="translate(54.837 14.933) rotate(120)" fill="#fff"/><path d="M9.732,23.492.159,29.019,0,0,9.509,5.524Z" transform="translate(1.72 48.29) rotate(-60)" fill="#fff"/><path d="M9.732,5.527.159,0,0,29.019,9.509,23.5Z" transform="translate(29.354 62.8) rotate(-120)" fill="#fff"/></svg>