<svg xmlns="http://www.w3.org/2000/svg" width="130.589" height="78.783" viewBox="0 0 130.589 78.783"><path d="M30.813,20.548h24.63v1.958H33.071V37.239H54.11V39.2H33.071V55.373H55.7v1.958H30.813Zm26.837,0h2.617l11.6,16.177L83.717,20.547,99.84,0,73.352,38.424,87,57.331h-2.72L71.864,40.124,59.395,57.331H56.727L70.479,38.424,57.65,20.548Zm30.326,1.958V20.547h28.069v1.958H103.114V57.331h-2.258V22.505ZM0,20.547H2.822L41.739,78.783,25.657,57.331l-23.3-34-.1,34H0ZM115.817,54.782a.819.819,0,1,1,.807-.819A.8.8,0,0,1,115.817,54.782Zm2.218-2.155h1.208a1.1,1.1,0,0,0,1.2,1.094c.785,0,1.23-.473,1.23-1.358V46.754h1.23v5.614a2.274,2.274,0,0,1-2.449,2.513,2.213,2.213,0,0,1-2.416-2.255Zm6.474-.071h1.219c.1.753.84,1.231,1.9,1.231.988,0,1.713-.511,1.713-1.215,0-.6-.461-.968-1.51-1.215l-1.022-.247c-1.433-.336-2.087-1.028-2.087-2.194,0-1.413,1.153-2.353,2.883-2.353a2.586,2.586,0,0,1,2.856,2.276h-1.2a1.514,1.514,0,0,0-1.675-1.188c-.972,0-1.62.468-1.62,1.182,0,.566.417.891,1.449,1.133l.873.215c1.625.38,2.3,1.039,2.3,2.233,0,1.518-1.175,2.469-3.053,2.469-1.757,0-2.938-.907-3.026-2.326Z" fill="#fff"/></svg>