<svg xmlns="http://www.w3.org/2000/svg" width="45.018" height="63.512" viewBox="0 0 45.018 63.512"><g transform="translate(-7341.996 -738.494)"><path d="M84.375,8.546h2.977V5.694h2.543V8.546H92.81V-.012H89.895V2.779h-2.6V-.012h-2.92m9.613,2.853H96.53v5.7h2.853v-5.7h2.543V-.012H93.988m9.178,8.559h2.851L106.05,4.5,108,7.388s.469-.7,1.923-2.951V8.546h2.915V-.012h-3.07S108.022,2.856,108,2.868,106.22.019,106.22.019l-3.054-.036m11.039,8.563h6.946V5.694H117.12V-.012H114.2" transform="translate(7261.625 738.511)" fill="#fff" fill-rule="evenodd"/><g transform="translate(0.211)"><path d="M58.2,78.646c0,.071,4.071,45.824,4.1,45.849.054.045,18.266,5.062,18.375,5.062.127,0,17.585-4.834,17.585-4.834s4.958-45.992,4.958-46.092M99.088,82.5c-.011.111-3.5,38.961-3.517,38.974s-14.749,4.159-14.841,4.167c-.009,0-.016-1.3-.016-5.8-11.5-3.2-11.6-3.227-11.6-3.38,0-.085-.765-8.7-.75-8.716s5.646-.041,5.657-.013c0,.008.425,4.468.444,4.487s6.074,1.653,6.135,1.673c.107.034.112-.16.112-8.965H68.088c-1.176-13.049-1.517-16.887-1.515-16.946,0-.1,14.142-.109,14.142-.109V82.3m-7.92,11.518c.019.128.5,5.473.5,5.473h7.418V93.586" transform="translate(7283.585 672.449)" fill="#fff" fill-rule="evenodd"/><path d="M200,107.926h14.078l-.508,5.7H200v5.705h13.094s-1.572,17.332-1.579,17.337S200,139.87,200,139.87s.007,5.823.016,5.822c.092-.009,14.817-4.144,14.841-4.167l3.517-38.974-18.374-.2m.109,31.6c.06-.019,6.115-1.651,6.124-1.661s.655-7.083.652-7.2c0-.026-6.885-.046-6.885-.046" transform="translate(7164.3 652.404)" fill="#c2c2c2" fill-rule="evenodd"/></g></g></svg>