<svg xmlns="http://www.w3.org/2000/svg" width="60.379" height="60.379" viewBox="0 0 60.379 60.379"><path d="M53.91,2.25H6.469A6.471,6.471,0,0,0,0,8.719V56.16a6.471,6.471,0,0,0,6.469,6.469H53.91a6.471,6.471,0,0,0,6.469-6.469V8.719A6.471,6.471,0,0,0,53.91,2.25ZM32.858,49.34c0,5.876-3.45,8.558-8.477,8.558a8.815,8.815,0,0,1-8.518-5.189l4.623-2.79c.89,1.577,1.7,2.911,3.652,2.911,1.86,0,3.046-.728,3.046-3.572V29.973h5.674ZM46.282,57.9c-5.27,0-8.68-2.507-10.337-5.8l4.623-2.669c1.213,1.981,2.8,3.45,5.593,3.45,2.345,0,3.855-1.173,3.855-2.8,0-1.941-1.536-2.628-5.553-4.38-4.1-1.739-6.806-3.935-6.806-8.558,0-4.259,3.248-7.493,8.3-7.493,3.612,0,6.2,1.253,8.06,4.542L49.6,37.022c-.97-1.739-2.022-2.426-3.652-2.426a2.463,2.463,0,0,0-2.709,2.426c0,1.7,1.051,2.386,4.906,4.057,4.825,2.062,7.534,4.178,7.534,8.922,0,5.094-4.016,7.9-9.394,7.9Z" transform="translate(0 -2.25)" fill="#fff"/></svg>