<svg xmlns="http://www.w3.org/2000/svg" width="58.461" height="58.463" viewBox="0 0 58.461 58.463"><path d="M55.245,3.216A10.558,10.558,0,0,0,47.5,0H10.961A10.56,10.56,0,0,0,3.216,3.216,10.56,10.56,0,0,0,0,10.961V47.5a10.558,10.558,0,0,0,3.216,7.745,10.559,10.559,0,0,0,7.746,3.216h8.526a2.982,2.982,0,0,0,1.9-.415A1.393,1.393,0,0,0,22,56.635q0-.114-.019-2.589t-.019-3.921l-.875.152a11.2,11.2,0,0,1-2.112.133,16.254,16.254,0,0,1-2.645-.266A5.93,5.93,0,0,1,13.777,49,4.831,4.831,0,0,1,12.1,46.663a11.767,11.767,0,0,0-1.579-2.816A4.594,4.594,0,0,0,8.868,42.4a4.93,4.93,0,0,1-1.1-1.18q-.114-.267.19-.438c.2-.114.571-.171,1.865-.057a5.549,5.549,0,0,1,1.884.913,6.142,6.142,0,0,1,1.846,1.979A6.707,6.707,0,0,0,15.661,46a4.478,4.478,0,0,0,2.493.819,10.813,10.813,0,0,0,2.169-.19,7.578,7.578,0,0,0,1.713-.572A6.169,6.169,0,0,1,23.9,42.132a26.064,26.064,0,0,1-3.9-.685,15.549,15.549,0,0,1-3.577-1.485,10.243,10.243,0,0,1-3.064-2.55,12.261,12.261,0,0,1-2-4,19.009,19.009,0,0,1-.78-5.71,11.1,11.1,0,0,1,3.007-7.841,10.233,10.233,0,0,1,.266-7.764,5.333,5.333,0,0,1,3.273.514,43.194,43.194,0,0,1,4.8,2.493,27.48,27.48,0,0,1,14.616,0,25.477,25.477,0,0,1,4.948-2.588A4.986,4.986,0,0,1,44.57,12.1a10.132,10.132,0,0,1,.3,7.764,11.1,11.1,0,0,1,3.007,7.841,19.19,19.19,0,0,1-.78,5.728,11.759,11.759,0,0,1-2.017,4A10.643,10.643,0,0,1,42,39.963a15.527,15.527,0,0,1-3.578,1.484,26.045,26.045,0,0,1-3.9.686q1.978,1.712,1.978,5.4v9.1a1.409,1.409,0,0,0,.711,1.273,3.076,3.076,0,0,0,1.763.554H47.5A10.981,10.981,0,0,0,58.461,47.5V10.961A10.56,10.56,0,0,0,55.245,3.216Z" transform="translate(0 0)" fill="#fff"/></svg>