<svg xmlns="http://www.w3.org/2000/svg" width="85.599" height="64.205" viewBox="0 0 85.599 64.205"><path d="M73.692,38.029a17.543,17.543,0,0,0-7.757,1.806A16.474,16.474,0,0,1,64.2,35.809a10.746,10.746,0,0,1-.147-3.384,28.5,28.5,0,0,1,1.016-3.638c-.013-.147-.187-.883-1.913-.9s-3.21.334-3.383.789a16.429,16.429,0,0,0-.709,2.555c-.308,1.565-3.449,7.156-5.228,10.071a10.385,10.385,0,0,1-1.19-2.942,10.746,10.746,0,0,1-.147-3.384,28.5,28.5,0,0,1,1.016-3.638c-.013-.147-.187-.883-1.911-.9s-3.21.334-3.384.789-.361,1.525-.709,2.555-4.533,10.339-5.628,12.76a49.5,49.5,0,0,1-2.514,4.735,5.548,5.548,0,0,1,.04-2.662c.629-3.237,2.113-8.266,2.1-8.44-.013-.094.281-.963-.976-1.431a1.727,1.727,0,0,0-1.953.562s1.351-5.671-2.593-5.671c-2.461,0-5.885,2.7-7.568,5.149-1.057.575-3.344,1.819-5.751,3.143-.923.508-1.872,1.03-2.769,1.525-.067-.067-13.812-8.921-13.438-15.782.134-2.5,1-9.068,17-17.04C36.56,4.11,47.039,5.9,48.844,9.888c2.595,5.684-5.6,16.264-19.214,17.789-5.188.575-7.915-1.431-8.6-2.18-.709-.789-.816-.829-1.083-.682-.441.241-.16.936,0,1.351a8.059,8.059,0,0,0,4.921,3.865c2.5.816,8.584,1.271,15.939-1.578C49.071,25.269,55.5,16.4,53.617,8.978,51.7,1.435,39.188-1.039,27.361,3.16,20.314,5.662,12.693,9.594,7.21,14.716.7,20.815-.344,26.125.084,28.345c1.523,7.878,12.381,13.014,16.727,16.812-.214.12-11.058,5.751-13.13,10.325-2.341,5.189.388,8.908,2.179,9.416,5.589,1.551,11.313-1.244,14.387-5.831s1.244-13.375,1.23-13.415c.562-.334,1.137-.669,1.712-1,1.109-.655,2.192-1.257,3.142-1.779a20.775,20.775,0,0,0-1.123,5.7c-.241,2.942.976,6.754,2.555,8.252a2.807,2.807,0,0,0,2.058.669c1.846,0,2.675-1.525,3.6-3.344,1.137-2.22,2.14-4.8,2.14-4.8s-1.257,6.982,2.18,6.982c1.256,0,2.513-1.618,3.076-2.448,0,0,1.913-3.37,3.583-6.661,2.167-4.253,4.239-9.563,4.239-9.563a26.917,26.917,0,0,0,.829,3.451,32.307,32.307,0,0,0,1.792,4.012c-.508.7-1.658,2.234-2.127,2.8a47.209,47.209,0,0,0-4.012,5.029,1.366,1.366,0,0,0,.375,1.832,3.251,3.251,0,0,0,2.1.334,9.275,9.275,0,0,0,3.143-.722,10.994,10.994,0,0,0,2.7-1.418,6.038,6.038,0,0,0,2.595-5.323,11.077,11.077,0,0,0-.976-3.772c.147-.214.308-.441.455-.669A71.1,71.1,0,0,0,60.2,35.1a26.915,26.915,0,0,0,.829,3.451,23.592,23.592,0,0,0,1.523,3.437,14.7,14.7,0,0,0-4.56,5.9c-.99,2.849-.214,4.133,1.244,4.427a4.488,4.488,0,0,0,2.287-.468,10.628,10.628,0,0,0,2.888-1.485c1.672-1.23,3.289-2.956,3.182-5.3a9.95,9.95,0,0,0-.722-3.13,16.325,16.325,0,0,1,8.3-.963c7.447.869,8.905,5.524,8.624,7.463a4.945,4.945,0,0,1-2.367,3.344c-.522.321-.682.441-.642.682.067.348.308.334.749.254a5.81,5.81,0,0,0,4.051-5.176c.214-4.547-4.158-9.55-11.9-9.51Zm-57.4,19.354c-2.46,2.688-5.91,3.7-7.394,2.849-1.592-.926-.963-4.882,2.072-7.747a39.63,39.63,0,0,1,5.8-4.333c.361-.214,1.939-1.164,2.073-1.244A10.675,10.675,0,0,1,16.289,57.38ZM34.26,45.158c-.856,2.1-2.66,7.45-3.757,7.169-.936-.241-1.511-4.32-.187-8.333a18.447,18.447,0,0,1,2.929-5.363c1.35-1.511,2.834-1.993,3.182-1.391C36.895,38.029,34.795,43.847,34.26,45.158Zm14.846,7.089c-.361.187-.7.308-.856.214-.12-.067,2.006-2.314,2.742-3.223a16.75,16.75,0,0,1,1.47-1.645c-.017,2.394-2.317,4.012-3.36,4.654Zm11.446-2.608c-.267-.187-.227-.816.669-2.769a10.4,10.4,0,0,1,2.541-3.277,4.839,4.839,0,0,1,.254,1.444,4.715,4.715,0,0,1-3.463,4.6Z" transform="translate(0 -1.125)" fill="#fff"/></svg>