<svg xmlns="http://www.w3.org/2000/svg" width="60.986" height="59.462" viewBox="0 0 60.986 59.462"><path d="M50.187.45H10.8A10.791,10.791,0,0,0,0,11.25V49.112a10.791,10.791,0,0,0,10.8,10.8H50.187a10.791,10.791,0,0,0,10.8-10.8V11.25A10.791,10.791,0,0,0,50.187.45ZM58.42,48.121a9.206,9.206,0,0,1-9.2,9.25H11.765a9.24,9.24,0,0,1-9.224-9.224V12.215a9.24,9.24,0,0,1,9.224-9.224H49.2a9.224,9.224,0,0,1,9.224,9.224Zm-34.3-19.846L31.23,41.946c.127.2.051.407-.152.407H26.656a.5.5,0,0,1-.534-.33c-1.626-3.354-3.278-6.708-4.981-10.317h-.051c-1.525,3.405-3.2,6.988-4.828,10.342a.488.488,0,0,1-.457.28H11.613c-.254,0-.28-.2-.152-.356l6.963-13.265L11.689,15.29a.205.205,0,0,1,.152-.356h4.371a.4.4,0,0,1,.457.28c1.6,3.354,3.227,6.81,4.752,10.19,1.525-3.354,3.151-6.836,4.726-10.164.127-.2.2-.33.457-.33H30.7c.2,0,.28.152.152.356Zm8.36,4.142c0-5.921,3.939-10.546,10.19-10.546a11.269,11.269,0,0,1,1.321.051V15.188a.255.255,0,0,1,.254-.254h4.015c.2,0,.254.076.254.2V38.465a18.1,18.1,0,0,0,.127,2.49c0,.152-.051.2-.2.28a15.136,15.136,0,0,1-6.505,1.474C36.414,42.734,32.475,39.329,32.475,32.417Zm11.511-6.505a3.843,3.843,0,0,0-1.474-.254c-3.2,0-5.438,2.465-5.438,6.556,0,4.676,2.287,6.556,5.158,6.556a4.794,4.794,0,0,0,1.753-.28V25.912Z" transform="translate(0 -0.45)" fill="#fff"/></svg>