<svg xmlns="http://www.w3.org/2000/svg" width="50.381" height="64.341" viewBox="0 0 50.381 64.341"><g transform="translate(-7037.76 -764.659)"><path d="M22.355,17.89a3.985,3.985,0,1,0,3.985,3.985A3.985,3.985,0,0,0,22.355,17.89ZM11.192,29.8l-.879-.224C3.759,27.921,0,25.11,0,21.867s3.759-6.054,10.313-7.71l.879-.222.248.872a43.834,43.834,0,0,0,2.539,6.665l.188.4-.188.4a43.417,43.417,0,0,0-2.539,6.665ZM9.9,16.192c-4.981,1.4-8.038,3.539-8.038,5.674S4.924,26.14,9.9,27.541a46.479,46.479,0,0,1,2.2-5.674,46.11,46.11,0,0,1-2.2-5.674ZM33.517,29.8l-.248-.874a43.511,43.511,0,0,0-2.541-6.664l-.188-.4.188-.4A43.629,43.629,0,0,0,33.269,14.8l.248-.872.881.222c6.552,1.656,10.311,4.467,10.311,7.712S40.95,27.921,34.4,29.577ZM32.6,21.867a46.062,46.062,0,0,1,2.2,5.674c4.983-1.4,8.038-3.541,8.038-5.674s-3.057-4.273-8.038-5.674A46.176,46.176,0,0,1,32.6,21.867ZM9.892,16.183l-.248-.87C7.8,8.819,8.361,4.166,11.177,2.541c2.763-1.595,7.2.289,11.846,5.06l.633.65-.633.65a43.875,43.875,0,0,0-4.512,5.527l-.251.36-.438.037a44.071,44.071,0,0,0-7.051,1.136ZM13.424,3.832a2.6,2.6,0,0,0-1.313.322c-1.852,1.067-2.18,4.778-.9,9.786a46.8,46.8,0,0,1,6.023-.933,46.286,46.286,0,0,1,3.823-4.739C18.146,5.438,15.395,3.832,13.424,3.832ZM31.287,41.764h0c-2.655,0-6.064-2-9.6-5.631l-.633-.65.633-.65A43.833,43.833,0,0,0,26.2,29.3l.251-.36.436-.037a44.02,44.02,0,0,0,7.055-1.134l.879-.222.25.872c1.839,6.49,1.282,11.146-1.535,12.768a4.434,4.434,0,0,1-2.245.574Zm-7.63-6.3c2.906,2.83,5.658,4.436,7.628,4.436h0a2.592,2.592,0,0,0,1.311-.322c1.852-1.067,2.181-4.78.9-9.788a46.608,46.608,0,0,1-6.025.933,45.963,45.963,0,0,1-3.821,4.741ZM34.817,16.183l-.879-.222a43.738,43.738,0,0,0-7.055-1.136l-.436-.037-.251-.36A43.618,43.618,0,0,0,21.686,8.9l-.633-.65.633-.65c4.646-4.769,9.08-6.652,11.846-5.06,2.817,1.624,3.376,6.278,1.535,12.77Zm-7.34-3.176a46.457,46.457,0,0,1,6.025.933c1.278-5.007.948-8.718-.9-9.786s-5.3.566-8.942,4.113a46.291,46.291,0,0,1,3.821,4.739ZM13.424,41.764a4.434,4.434,0,0,1-2.247-.574C8.361,39.568,7.8,34.914,9.644,28.422l.246-.872.879.222a43.97,43.97,0,0,0,7.051,1.134l.438.037.25.36a43.957,43.957,0,0,0,4.512,5.529l.633.65-.633.65c-3.536,3.633-6.945,5.631-9.6,5.631ZM11.207,29.791c-1.278,5.007-.948,8.72.9,9.788,1.839,1.049,5.3-.568,8.942-4.113a46.568,46.568,0,0,1-3.823-4.741,46.527,46.527,0,0,1-6.023-.933Zm11.147,1.17c-1.533,0-3.109-.067-4.687-.2l-.438-.037-.251-.36q-1.339-1.924-2.515-3.953t-2.172-4.15l-.186-.4.186-.4q1-2.119,2.172-4.151c.771-1.334,1.619-2.664,2.515-3.953l.689-.4a55.486,55.486,0,0,1,9.376,0l.436.037.25.36a55.9,55.9,0,0,1,4.689,8.1l.188.4-.188.4a55.141,55.141,0,0,1-4.689,8.1l-.25.36-.436.037C25.466,30.894,23.888,30.961,22.355,30.961Zm-4.093-2.019a54.107,54.107,0,0,0,8.187,0,54.035,54.035,0,0,0,4.091-7.075,53.251,53.251,0,0,0-4.093-7.075,54.082,54.082,0,0,0-8.185,0,53.05,53.05,0,0,0-4.093,7.075,54.236,54.236,0,0,0,4.093,7.075Z" transform="translate(7044.293 762.698) rotate(9)" fill="#fff"/><g transform="translate(0 -2)"><text transform="translate(7041 827)" fill="#fff" font-size="18" font-family="Lato-Regular, Lato"><tspan x="0" y="0">React</tspan></text><g transform="translate(7038 812)" fill="none" stroke="#fff" stroke-width="0.5"><rect width="49" height="18" rx="4" stroke="none"/><rect x="0.25" y="0.25" width="48.5" height="17.5" rx="3.75" fill="none"/></g></g></g></svg>