<svg xmlns="http://www.w3.org/2000/svg" width="45.393" height="63.491" viewBox="0 0 45.393 63.491"><path d="M111.658,133.717c-4.874.011-7.423.038-7.423.08s-.143.063-.318.063H103.6v.318c0,.175.029.318.064.318a1.6,1.6,0,0,1,.064.668,1.6,1.6,0,0,0,.064.668c.037,0,.064.212.064.509s.027.509.064.509.064.191.064.445.027.445.064.445.064.192.064.45c0,.7-.806.631,7.275.631,4.687,0,7.093.022,7.093.064s.057.064.127.064a.112.112,0,0,1,.127.127c0,.1-.042.127-.191.127-.1,0-.191.029-.191.064s-.057.064-.127.064-.127.029-.127.064-.057.064-.127.064-.127.029-.127.064-.072.064-.159.064-.159.029-.159.064-.057.064-.127.064-.127.029-.127.064-.057.064-.127.064-.127.029-.127.064-.086.064-.191.064-.191.029-.191.064-.057.064-.127.064-.127.026-.127.058-.114.077-.254.1-.254.069-.254.1-.086.058-.191.058-.191.029-.191.064-.057.064-.127.064-.127.029-.127.064-.057.064-.127.064-.127.029-.127.064-.072.064-.159.064-.159.029-.159.064-.057.064-.127.064-.127.029-.127.064-.057.064-.127.064-.127.029-.127.064-.086.064-.191.064-.191.029-.191.064-.057.064-.127.064-.127.029-.127.064-.057.064-.127.064-.127.029-.127.064-.086.064-.191.064-.191.029-.191.064-.057.064-.127.064-.127.029-.127.064-.057.064-.127.064-.127.029-.127.064-.072.064-.159.064-.159.029-.159.064-.057.064-.127.064-.127.029-.127.064-.057.064-.127.064-.127.029-.127.064-.057.064-.127.064-.127.029-.127.064-.086.064-.191.064-.191.029-.191.064-.057.064-.127.064-.127.029-.127.064-.057.064-.127.064-.127.025-.127.055-.143.074-.318.1-.318.07-.318.1-.043.061-.1.061-.1.029-.1.064-.086.064-.191.064-.191.029-.191.064-.057.064-.127.064-.127.029-.127.064-.057.064-.127.064-.127.029-.127.064-.086.064-.191.064-.191.029-.191.064-.057.064-.127.064-.127.029-.127.064-.057.064-.127.064-.127.029-.127.064-.086.064-.191.064-.191.029-.191.064-.057.064-.127.064-.127.029-.127.064-.043.064-.1.064-.1.029-.1.064-.086.064-.191.064-.191.029-.191.064-.057.064-.127.064-.127.029-.127.064-.057.064-.127.064-.127.029-.127.064-.086.064-.191.064-.191.029-.191.064-.057.064-.127.064-.127.029-.127.064-.057.064-.127.064-.127.029-.127.064-.045.064-.1.064c-.22,0-.281.165-.281.758,0,.342.026.577.064.577a2.031,2.031,0,0,1,.064.763,2.031,2.031,0,0,0,.064.763c.038,0,.064.244.064.6s.026.6.064.6.064.233.064.572.026.572.064.572.064.114.064.254v.254h.509c.345,0,.509-.024.509-.074,0-.08,18.727-.03,19.509.051l.39.041v.433c0,.238-.027.785-.06,1.215-.064.833-.148,2.076-.258,3.834s-.123,1.859-.242,1.9c-.185.057-1.332.4-2.586.774l-1.828.546-1.24.37c-.851.252-.953.3-1,.448-.042.133-.16.183-.16.067,0-.035-.17-.064-.381-.064s-.381-.028-.381-.064-.129-.064-.286-.064-.286-.029-.286-.064-.143-.064-.318-.064-.318-.029-.318-.064-.17-.064-.381-.064-.381-.028-.381-.064-.143-.064-.318-.064-.318-.029-.318-.064-.129-.064-.286-.064-.286-.029-.286-.064-.143-.064-.318-.064-.318-.029-.318-.064-.17-.064-.381-.064-.381-.028-.381-.064-.143-.064-.318-.064-.318-.029-.318-.064-.129-.064-.286-.064-.286-.029-.286-.064-.114-.064-.254-.064-.254-.029-.254-.064-.086-.064-.191-.064h-.191v-.668a1.6,1.6,0,0,0-.064-.668,1.881,1.881,0,0,1-.064-.731,1.881,1.881,0,0,0-.064-.731,1.737,1.737,0,0,1-.064-.7,1.737,1.737,0,0,0-.064-.7c-.035,0-.064-.086-.064-.191,0-.18-.014-.191-.254-.191-.14,0-.254-.029-.254-.064a10.688,10.688,0,0,0-1.844-.064,10.688,10.688,0,0,0-1.844.064c0,.038-.233.064-.572.064H105.7v.445c0,.254.027.445.064.445a2.515,2.515,0,0,1,.064.858,2.515,2.515,0,0,0,.064.858,2.032,2.032,0,0,1,.064.763,2.032,2.032,0,0,0,.064.763c.037,0,.064.223.064.54s.026.54.064.54.064.233.064.572.026.572.064.572.064.212.064.509.027.509.064.509.064.18.064.413.028.413.064.413.064.057.064.127a.112.112,0,0,0,.127.127c.07,0,.127.029.127.064s.1.064.223.064.223.029.223.064.114.064.254.064.254.029.254.064.086.064.191.064.191.029.191.064.114.064.254.064.254.029.254.064.114.064.254.064.254.029.254.064.1.064.223.064.223.029.223.064.114.064.254.064.254.029.254.064.114.064.254.064.254.029.254.064.086.064.191.064.191.029.191.064.114.064.254.064.254.029.254.064.114.064.254.064.254.029.254.064.1.064.223.064.223.026.223.057a1.249,1.249,0,0,0,.509.1,1.248,1.248,0,0,1,.509.1c0,.031.114.057.254.057s.254.029.254.064.114.064.254.064.254.029.254.064.1.064.223.064.223.029.223.064.114.064.254.064.254.029.254.064.114.064.254.064.254.029.254.064.114.064.254.064.254.029.254.064.086.064.191.064.191.029.191.064.114.064.254.064.254.029.254.064.1.064.223.064.223.029.223.064.114.064.254.064.254.025.254.055a2.679,2.679,0,0,0,1.192.077c.131-.035.425-.11.652-.166s.621-.157.874-.225c.676-.18,1.263-.335,2.368-.626l1.939-.514,2.066-.548c.612-.161,1.427-.379,1.812-.483s.8-.213.922-.243.323-.082.445-.116.365-.1.54-.147l.318-.084.042-.35c.023-.192.075-.722.115-1.176s.1-1.113.131-1.462.089-.979.126-1.4c.065-.73.116-1.3.251-2.766.034-.367.092-1.039.13-1.494s.1-1.141.13-1.526.09-1.086.126-1.558.093-1.194.128-1.605.091-1.083.125-1.494l.137-1.644a6.213,6.213,0,0,0,.035-1c-.037-.1-.541-.1-6.1-.106l-6.058,0,.352-.173c.194-.1.48-.227.636-.294s.427-.185.6-.263.532-.234.795-.347l.731-.318,1.812-.795c.857-.375,1.709-.751,1.893-.834a3.511,3.511,0,0,1,.367-.151c.017,0,.273-.114.569-.254s.552-.254.569-.254a3.506,3.506,0,0,0,.367-.152c.421-.191.575-.259,2.392-1.058a5.419,5.419,0,0,0,1.535-.786c.028-.074.127-1.049.219-2.168s.2-2.36.24-2.758c.068-.679.065-.729-.046-.811s.715-.09-22.171-.039" transform="translate(-96.289 -112.435)" fill="none" fill-rule="evenodd"/><path d="M61.563,122.011l18.654,5.064,18.614-5.064s4.162-45.53,4.162-46.411H57.6m37.726,43.237s-14.822,4.128-14.872,4.128c-.078,0-.125-5.685-.125-5.685l-12.679-3.163-.736-8.794h5.579l.46,4.626,7.375,1.343v-9.338s-13.8.012-13.84-.049c-.027-.043-.518-5.592-.484-5.659.046-.09,13.805-6.048,13.805-6.048s-14.381-.134-14.422-.175c-.072-.072-.638-5.13-.609-5.159s15.409-.066,15.47-.084c.1-.03.111-.213.111-5.364l18.405.032" transform="translate(-57.6 -63.584)" fill="#fff" fill-rule="evenodd"/><path d="M114.4,8.646h8.583V6.294h-5.849V2.67h5.849V0H114.4m9.346,5.253,5.849.151V6.421h-5.849V8.646h8.646V3.433h-6.167v-.89h6.167V0h-8.646m9.282,5.4h5.849V6.421h-5.852l.035,2.321h8.646l.033-5.309h-6.1V2.675c2.094-.054,3.467-.085,6.1-.136V0h-8.71" transform="translate(-105.372)" fill="#fff" fill-rule="evenodd"/><path d="M118.128,104.961s-15.441.055-15.47.084.538,5.087.609,5.159c.041.041,14.313.206,14.313.206l-13.7,6.017s.457,5.616.484,5.659c.039.061,13.822.153,13.822.153s-.074,9.429.073,9.258c.1-.112,6.641-2.1,6.641-2.1l.535-7.231s-7.2-.1-20.933-.175l-.49-5.473s13.56-5.975,13.671-6.012c.183-.061-.185-.253-.185-.253l-14.142-.172-.578-4.922,30.279-.154s-.287,5.58-.7,6.076-11.96,5.31-11.96,5.31,11.689,0,11.751.073-1.026,17.1-1.354,17.758c-.234.061-12.936,3.162-12.591,3.24.031,5.267.047,5.685.125,5.685.05,0,14.878-4.156,14.878-4.156l3.434-39.362L118.24,99.6" transform="translate(-95.479 -83.767)" fill="#c2c2c2" fill-rule="evenodd"/></svg>