<svg xmlns="http://www.w3.org/2000/svg" width="54" height="67.629" viewBox="0 0 54 67.629"><g transform="translate(-7256 -866.371)"><path d="M32.791,32.244a3.281,3.281,0,0,0,2.955-3.458,3.4,3.4,0,0,0-3.367-3.249h-.12a3.371,3.371,0,0,0-3.249,3.488,3.6,3.6,0,0,0,.974,2.273c-2.066,4.018-5.167,6.971-9.865,9.453a16.174,16.174,0,0,1-9.747,1.831,8.5,8.5,0,0,1-6.143-3.545,8.81,8.81,0,0,1-.5-9.333,13.93,13.93,0,0,1,4.138-4.816,19.635,19.635,0,0,1-.828-3.04c-8.745,6.263-7.856,14.827-5.2,18.875,1.979,2.953,6.027,4.842,10.457,4.842a15.342,15.342,0,0,0,3.633-.382A23.111,23.111,0,0,0,32.764,32.305Zm10.543-7.385c-4.576-5.376-11.312-8.329-18.993-8.329H23.336a3.179,3.179,0,0,0-2.951-1.772H20.3a3.306,3.306,0,0,0-3.247,3.456,3.4,3.4,0,0,0,3.367,3.249h.146a3.333,3.333,0,0,0,2.953-2.068H24.61A22.876,22.876,0,0,1,37.4,23.321,16.192,16.192,0,0,1,43.78,31a8.156,8.156,0,0,1-.089,7.091,8.78,8.78,0,0,1-8.27,4.962,15.419,15.419,0,0,1-5.849-1.27c-.708.587-1.891,1.563-2.748,2.155A18.966,18.966,0,0,0,34.591,45.8c5.761,0,10.041-3.247,11.667-6.38,1.77-3.545,1.624-9.51-2.9-14.62ZM12.795,33.3a3.4,3.4,0,0,0,3.367,3.249h.118a3.367,3.367,0,0,0-.089-6.733h-.12a1.271,1.271,0,0,0-.444.057,22.063,22.063,0,0,1-3.1-13.349,16.035,16.035,0,0,1,3.543-9.335,10.5,10.5,0,0,1,7.385-3.367c6.38-.12,9.039,7.829,9.244,10.989l2.953.885C34.974,6.014,28.951.931,23.19.931c-5.406,0-10.4,3.929-12.406,9.69C8.038,18.3,9.839,25.685,13.207,31.594a2.613,2.613,0,0,0-.412,1.711Z" transform="translate(7259 865.44)" fill="#fff"/><text transform="translate(7256 928)" fill="#fff" font-size="16" font-family="Poppins-Black, Poppins" font-weight="800"><tspan x="0" y="0">Redux</tspan></text></g></svg>